<svg width="1440" height="900" viewBox="0 0 1440 900" fill="none" xmlns="http://www.w3.org/2000/svg">
<g clip-path="url(#clip0_3437_94268)">
<rect width="1440" height="900" fill="#0E0A2D"/>
<g opacity="0.1">
<g clip-path="url(#clip1_3437_94268)">
<path d="M138.501 634.72C137.253 632.273 135.383 628.228 132.768 627.021C128.477 625.04 123.909 628.356 120.057 630.091C112.927 633.301 104.886 635.359 98.1175 630.212C90.3044 624.27 87.9737 613.034 80.1861 606.922C70.4551 599.285 57.8095 597.871 46.9944 592.734C37.8248 588.38 30.2523 581.162 21.0736 576.751C4.74082 568.904 -20.8264 565.123 -38.7342 566.861C-54.5842 568.399 -70.5967 572.643 -85.6267 578.084C-94.7982 581.404 -103.197 586.379 -112.846 588.18C-135.843 592.47 -163.038 578.381 -182.253 597.237C-198.712 613.388 -199.379 639.689 -191.108 660.33C-186.285 672.365 -174.746 683.815 -181.84 697.334C-187.636 708.38 -200.44 711.868 -210.601 716.724C-229.139 725.584 -245.175 740.914 -243.472 764.416" stroke="#6D5DD3" stroke-width="11.7506" stroke-miterlimit="1.5" stroke-linecap="round" stroke-linejoin="round"/>
<path d="M166.294 711.226C159.18 699.859 156.355 682.214 145.526 673.832C126.633 659.207 94.0802 677.764 92.6977 699.975C91.6652 716.567 97.7735 730.996 102.711 746.363C104.873 753.092 108.035 764.954 104.572 771.784C99.6663 781.465 90.5938 782.943 81.6941 787.525C71.9809 792.525 63.2697 799.482 53.6317 804.723C34.5523 815.099 12.2518 823.96 -8.39246 812.344C-21.0187 805.238 -30.3992 793.294 -42.4599 785.267C-52.8494 778.353 -70.7466 773.198 -78.2777 786.836C-89.1413 806.51 -64.9254 809.783 -54.8675 816.998C-45.5544 823.677 -39.9575 833.975 -31.2473 841.233C-21.6415 849.238 9.92923 853.206 -5.0834 873.893C-8.43895 878.517 -12.3744 882.342 -15.4556 887.252C-19.2781 893.34 -23.7811 900.103 -30.2883 903.598C-39.4747 908.53 -42.9856 902.925 -45.1962 893.834C-49.9951 874.103 -46.8873 854.391 -66.8761 842.013C-84.6398 831.014 -104.699 836.519 -123.824 832.443C-140.248 828.943 -152.504 817.306 -168.223 812.661" stroke="#6D5DD3" stroke-width="11.7506" stroke-miterlimit="1.5" stroke-linecap="round" stroke-linejoin="round"/>
<path d="M167.361 712.981C168.727 714.831 170.316 716.646 172.116 718.087C183.804 727.445 192.876 711.107 196.67 702.643C197.516 700.756 198.201 698.768 198.901 696.822C199.826 694.247 200.937 691.721 202.221 689.307C204.013 685.94 206.026 682.429 208.555 679.553C215.517 671.637 226.569 669.743 233.701 678.406C237.247 682.715 239.076 688.472 239.904 693.92C241.61 705.18 239.25 720.693 230.922 729.073C226.064 733.966 219.478 736.584 213.664 740.104C206.073 744.701 199.115 750.222 193.212 756.872C188.987 761.631 185.326 767.129 182.804 772.977C179.702 780.167 177.705 787.726 172.473 793.759C163.309 804.322 145.472 812.121 149.096 828.816C151.757 841.069 171.78 837.15 179.577 833.807C181.817 832.847 183.994 831.705 185.983 830.29C202.541 818.512 200.356 793.908 211.305 777.973C215.814 771.412 226.053 762.905 233.211 771.091C248.86 788.992 228.705 810.876 222.625 827.593C218.661 838.503 221.082 852.656 209.925 859.64C207.691 861.038 205.275 862.103 202.763 862.89C194.323 865.535 185.398 866.001 177 862.96C169.791 860.35 163.092 854.673 154.979 855.344" stroke="#6D5DD3" stroke-width="11.7506" stroke-miterlimit="1.5" stroke-linecap="round" stroke-linejoin="round"/>
<path d="M129.35 702.189C125.059 724.001 142.441 737.096 142.737 757.769C143.096 782.789 116.15 813.687 102.176 833.131" stroke="#6D5DD3" stroke-width="11.7506" stroke-miterlimit="1.5" stroke-linecap="round" stroke-linejoin="round"/>
<path d="M82.6864 817.056C70.9297 832.315 60.0977 827.763 46.1064 840.174C39.3013 846.209 27.2661 857.599 29.2724 867.506C31.1331 876.699 42.292 886.485 49.887 885.158C65.5112 882.427 90.9098 856.181 105.355 864.878C115.336 870.887 121.076 881.627 131.13 887.394C141.623 893.411 152.772 890.558 163.839 893.937C173.047 896.749 179.606 903.998 188.489 907.235C202.411 912.309 221.675 905.512 231.74 918.287C242.32 931.719 239.388 946.659 240.977 962.406C242.096 973.483 245.953 983.697 248.957 994.319" stroke="#6D5DD3" stroke-width="11.7506" stroke-miterlimit="1.5" stroke-linecap="round" stroke-linejoin="round"/>
<path d="M-103.561 915.688C-95.1206 904.26 -85.1387 904.325 -75.8808 915.269C-64.6728 928.517 -62.0141 947.946 -41.5135 949.008C-10.9221 950.593 -6.95503 910.072 19.4628 897.913" stroke="#6D5DD3" stroke-width="11.7506" stroke-miterlimit="1.5" stroke-linecap="round" stroke-linejoin="round"/>
<path d="M39.4466 452.449C39.4466 464.918 29.2338 476.043 37.6712 516.645" stroke="#6D5DD3" stroke-width="11.7506" stroke-miterlimit="1.5" stroke-linecap="round" stroke-linejoin="round"/>
<path d="M17.1605 480.611C0.44351 499.748 -35.5873 523.606 -56.8518 502.897C-80.9154 479.463 -89.6655 495.29 -93.1748 514.105" stroke="#6D5DD3" stroke-width="11.7506" stroke-miterlimit="1.5" stroke-linecap="round" stroke-linejoin="round"/>
<path d="M-75.9717 543.001C-53.3212 538.02 -29.2851 531.648 -6.07009 536.262C12.8897 540.029 29.3977 551.099 47.9687 556.047C77.7866 563.993 95.1498 557.71 114.847 586.88" stroke="#6D5DD3" stroke-width="11.7506" stroke-miterlimit="1.5" stroke-linecap="round" stroke-linejoin="round"/>
<path d="M158.324 548.768C147.019 564.659 133.081 583.595 135.841 604.353" stroke="#6D5DD3" stroke-width="11.7506" stroke-miterlimit="1.5" stroke-linecap="round" stroke-linejoin="round"/>
<path d="M190.769 553.11C181.522 565.668 165.825 578.795 163.088 594.894C161.517 604.132 165.468 613.174 165.031 622.495C164.801 627.42 165.352 650.012 170.922 652.63C184.091 658.82 202.336 631.852 217.127 631.082" stroke="#6D5DD3" stroke-width="11.7506" stroke-miterlimit="1.5" stroke-linecap="round" stroke-linejoin="round"/>
<path d="M183.818 603.944C200.895 601.78 218.19 599.495 234.193 592.909" stroke="#6D5DD3" stroke-width="11.7506" stroke-miterlimit="1.5" stroke-linecap="round" stroke-linejoin="round"/>
<path d="M73.1572 532.933C93.076 541.453 116.581 501.872 199.03 499.214" stroke="#6D5DD3" stroke-width="11.7506" stroke-miterlimit="1.5" stroke-linecap="round" stroke-linejoin="round"/>
<path d="M73.1572 532.933C93.076 541.453 116.581 501.872 199.03 499.214" stroke="#6D5DD3" stroke-width="11.7506" stroke-miterlimit="1.5" stroke-linecap="round" stroke-linejoin="round"/>
<path d="M73.1572 533.341C96.2159 541.164 143.167 476.189 246.335 527.06" stroke="#6D5DD3" stroke-width="11.7506" stroke-miterlimit="1.5" stroke-linecap="round" stroke-linejoin="round"/>
<path d="M64.1277 740.015C71.0999 777.178 16.5629 803.226 -8.54293 776.784C-24.5012 759.977 -26.8718 735 -18.2811 714.125C-14.1985 704.204 3.61687 686.326 -5.83417 676.634C-9.71032 672.659 -16.5982 674.186 -21.2821 675.374C-34.3742 678.695 -69.3981 702.305 -69.579 672.719C-69.5973 669.683 -69.1575 666.594 -68.1265 663.73C-63.8942 651.968 -50.4715 647.392 -39.3131 644.725C-14.9087 638.891 22.4796 639.779 36.7801 665.024C43.6822 677.208 35.303 685.205 27.7081 694.398C20.7257 702.849 12.8283 713.419 8.83414 723.671C5.00703 733.493 4.94827 745.521 13.8113 752.562C21.3092 758.52 31.8464 752.818 35.7337 745.458C39.6201 738.098 38.7909 729.361 42.6002 722.033C46.3925 714.737 52.9136 709.24 56.9384 702.057C61.5267 693.866 63.2091 684.315 67.0751 675.746C70.331 668.531 75.2611 658.09 72.1881 650.053C68.8453 641.314 54.5137 643.827 46.8574 637.829C37.4493 630.459 28.4969 621.988 17.6302 616.715C-5.81525 605.34 -37.3104 605.991 -61.7429 614.103C-74.5265 618.348 -84.1839 629.895 -97.4206 632.462C-114.33 635.742 -128.196 623.374 -143.494 626.065C-154.343 627.973 -159.091 643.996 -151.685 651.808C-137.186 667.103 -116.165 645.549 -100.735 654.421" stroke="#6D5DD3" stroke-width="11.7506" stroke-miterlimit="1.5" stroke-linecap="round" stroke-linejoin="round"/>
</g>
</g>
<g opacity="0.1">
<g clip-path="url(#clip2_3437_94268)">
<path d="M649.396 634.72C648.148 632.273 646.278 628.228 643.662 627.021C639.372 625.04 634.803 628.356 630.951 630.091C623.821 633.301 615.78 635.359 609.012 630.212C601.199 624.27 598.868 613.034 591.081 606.922C581.35 599.285 568.704 597.871 557.889 592.734C548.719 588.38 541.147 581.162 531.968 576.751C515.635 568.904 490.068 565.123 472.16 566.861C456.31 568.399 440.298 572.643 425.268 578.084C416.096 581.404 407.697 586.379 398.048 588.18C375.051 592.47 347.857 578.381 328.641 597.237C312.182 613.388 311.515 639.689 319.786 660.33C324.609 672.365 336.149 683.815 329.055 697.334C323.259 708.38 310.454 711.868 300.293 716.724C281.756 725.584 265.719 740.914 267.422 764.416" stroke="#6D5DD3" stroke-width="11.7506" stroke-miterlimit="1.5" stroke-linecap="round" stroke-linejoin="round"/>
<path d="M366.124 725.407C364.605 720.633 362.254 715.213 362.48 710.134C363.06 697.054 376.275 687.903 387.62 684.495C392.653 682.982 408.898 678.665 413.729 681.548C418.068 684.138 419.898 689.791 421.32 694.33C422.111 696.857 423.739 700.442 423.22 703.126C422.502 706.842 417.646 707.337 414.665 708.146C408.152 709.914 402.244 713.311 397.205 717.769C390.95 723.304 386.505 730.625 384.471 738.7C383.008 744.505 383.554 753.23 377.28 756.468C372.375 759 364.705 753.481 360.678 751.226C350.909 745.753 339.714 740.654 328.259 742.189C317.562 743.623 309.75 747.902 303.066 756.261C299.931 760.183 297.939 766.519 301.034 771.054C304.374 775.948 310.842 775.449 315.924 774.201C322.706 772.533 330.888 770.652 337.867 772.106C355.626 775.804 371.353 799.546 390.874 793.096C401.765 789.498 404.406 772.137 410.398 763.52C421.799 747.128 442.618 742.652 461.438 744.976" stroke="#6D5DD3" stroke-width="11.7506" stroke-miterlimit="1.5" stroke-linecap="round" stroke-linejoin="round"/>
<path d="M677.188 711.226C670.074 699.859 667.249 682.214 656.421 673.832C637.527 659.207 604.975 677.764 603.592 699.975C602.56 716.567 608.668 730.996 613.606 746.363C615.767 753.092 618.929 764.954 615.467 771.784C610.561 781.465 601.488 782.943 592.589 787.525C582.875 792.525 574.164 799.482 564.526 804.723C545.447 815.099 523.146 823.96 502.502 812.344C489.876 805.238 480.495 793.294 468.435 785.267C458.045 778.353 440.148 773.198 432.617 786.836C421.753 806.51 445.969 809.783 456.027 816.998C465.34 823.677 470.937 833.975 479.647 841.233C489.253 849.238 520.824 853.206 505.811 873.893C502.456 878.517 498.52 882.342 495.439 887.252C491.616 893.34 487.113 900.103 480.606 903.598C471.42 908.53 467.909 902.925 465.698 893.834C460.899 874.103 464.007 854.391 444.018 842.013C426.255 831.014 406.196 836.519 387.07 832.443C370.646 828.943 358.391 817.306 342.672 812.661" stroke="#6D5DD3" stroke-width="11.7506" stroke-miterlimit="1.5" stroke-linecap="round" stroke-linejoin="round"/>
<path d="M678.256 712.981C679.622 714.831 681.21 716.646 683.011 718.087C694.698 727.445 703.771 711.107 707.565 702.643C708.411 700.756 709.096 698.768 709.795 696.822C710.721 694.247 711.832 691.721 713.116 689.307C714.908 685.94 716.921 682.429 719.45 679.553C726.412 671.637 737.464 669.743 744.596 678.406C748.142 682.715 749.971 688.472 750.798 693.92C752.505 705.18 750.144 720.693 741.817 729.073C736.958 733.966 730.373 736.584 724.559 740.104C716.968 744.701 710.009 750.222 704.107 756.872C699.882 761.631 696.221 767.129 693.698 772.977C690.597 780.167 688.6 787.726 683.367 793.759C674.204 804.322 656.366 812.121 659.991 828.816C662.652 841.069 682.675 837.15 690.471 833.807C692.711 832.847 694.889 831.705 696.878 830.29C713.436 818.512 711.25 793.908 722.199 777.973C726.709 771.412 736.948 762.905 744.105 771.091C759.754 788.992 739.599 810.876 733.52 827.593C729.555 838.503 731.977 852.656 720.82 859.64C718.586 861.038 716.169 862.103 713.657 862.89C705.218 865.535 696.293 866.001 687.895 862.96C680.686 860.35 673.987 854.673 665.873 855.344" stroke="#6D5DD3" stroke-width="11.7506" stroke-miterlimit="1.5" stroke-linecap="round" stroke-linejoin="round"/>
<path d="M167.361 712.981C168.727 714.831 170.316 716.646 172.116 718.087C183.804 727.445 192.876 711.107 196.67 702.643C197.516 700.756 198.201 698.768 198.901 696.822C199.826 694.247 200.937 691.721 202.221 689.307C204.013 685.94 206.026 682.429 208.555 679.553C215.517 671.637 226.572 669.743 233.701 678.406C237.246 682.715 239.079 688.472 239.904 693.92C241.611 705.18 239.248 720.693 230.925 729.073C226.064 733.966 219.477 736.584 213.664 740.104C206.073 744.701 199.115 750.222 193.212 756.872C188.988 761.631 185.326 767.129 182.803 772.977C179.702 780.167 177.705 787.726 172.473 793.759C163.309 804.322 145.472 812.121 149.096 828.816C151.757 841.069 171.78 837.15 179.577 833.807C181.816 832.847 183.994 831.705 185.983 830.29C202.541 818.512 200.356 793.908 211.305 777.973C215.814 771.412 226.056 762.905 233.212 771.091C248.86 788.992 228.703 810.876 222.626 827.593C218.661 838.503 221.081 852.656 209.925 859.64C207.691 861.038 205.275 862.103 202.763 862.89C194.323 865.535 185.399 866.001 177 862.96C169.791 860.35 163.092 854.673 154.979 855.344" stroke="#6D5DD3" stroke-width="11.7506" stroke-miterlimit="1.5" stroke-linecap="round" stroke-linejoin="round"/>
<path d="M640.245 702.189C635.954 724.001 653.335 737.096 653.632 757.769C653.991 782.789 627.045 813.687 613.07 833.131" stroke="#6D5DD3" stroke-width="11.7506" stroke-miterlimit="1.5" stroke-linecap="round" stroke-linejoin="round"/>
<path d="M593.581 817.056C581.824 832.315 570.992 827.763 557.001 840.174C550.196 846.209 538.161 857.599 540.167 867.506C542.028 876.699 553.187 886.485 560.782 885.158C576.406 882.427 601.804 856.181 616.25 864.878C626.231 870.887 631.97 881.627 642.025 887.394C652.517 893.411 663.667 890.558 674.733 893.937C683.942 896.749 690.5 903.998 699.383 907.235C713.306 912.309 732.57 905.512 742.634 918.287C753.215 931.719 750.282 946.659 751.871 962.406C752.99 973.483 756.847 983.697 759.851 994.319" stroke="#6D5DD3" stroke-width="11.7506" stroke-miterlimit="1.5" stroke-linecap="round" stroke-linejoin="round"/>
<path d="M87.9071 808.762C76.1504 824.021 57.5677 829.155 43.5763 841.566C36.7712 847.602 30.2399 854.027 32.2462 863.935C34.1069 873.128 45.4866 874.866 53.0815 873.539C68.7057 870.808 90.9097 856.181 105.356 864.878C115.336 870.886 121.076 881.626 131.13 887.393C141.623 893.411 152.772 890.558 163.839 893.937C173.047 896.748 179.605 903.998 188.488 907.235C202.411 912.309 221.674 905.512 231.738 918.287C242.32 931.719 239.386 946.659 240.977 962.406C242.096 973.483 245.953 983.697 248.957 994.319" stroke="#6D5DD3" stroke-width="11.7506" stroke-miterlimit="1.5" stroke-linecap="round" stroke-linejoin="round"/>
<path d="M407.334 915.688C415.774 904.26 425.756 904.325 435.014 915.269C446.222 928.517 448.88 947.946 469.381 949.008C499.972 950.593 503.94 910.072 530.357 897.913" stroke="#6D5DD3" stroke-width="11.7506" stroke-miterlimit="1.5" stroke-linecap="round" stroke-linejoin="round"/>
<path d="M550.341 452.449C550.341 464.918 540.128 476.043 548.566 516.645" stroke="#6D5DD3" stroke-width="11.7506" stroke-miterlimit="1.5" stroke-linecap="round" stroke-linejoin="round"/>
<path d="M528.055 480.611C511.338 499.748 475.307 523.606 454.043 502.897C429.979 479.463 421.229 495.29 417.72 514.105" stroke="#6D5DD3" stroke-width="11.7506" stroke-miterlimit="1.5" stroke-linecap="round" stroke-linejoin="round"/>
<path d="M427.58 473.613C421.248 492.209 417.297 550.769 384.557 547.911" stroke="#6D5DD3" stroke-width="11.7506" stroke-miterlimit="1.5" stroke-linecap="round" stroke-linejoin="round"/>
<path d="M418.84 444.668C408.235 452.52 399.114 461.508 393.201 474.294C386.88 487.963 385.508 503.13 372.772 511.774C354.825 523.954 339.632 508.759 321.438 508.199C294.621 507.375 264.946 544.247 205.408 508.1" stroke="#6D5DD3" stroke-width="11.7506" stroke-miterlimit="1.5" stroke-linecap="round" stroke-linejoin="round"/>
<path d="M434.923 543.001C457.573 538.02 481.609 531.648 504.824 536.262C523.784 540.029 540.292 551.099 558.863 556.047C588.681 563.993 606.044 557.71 625.742 586.88" stroke="#6D5DD3" stroke-width="11.7506" stroke-miterlimit="1.5" stroke-linecap="round" stroke-linejoin="round"/>
<path d="M669.219 548.768C657.914 564.659 643.975 583.595 646.736 604.353" stroke="#6D5DD3" stroke-width="11.7506" stroke-miterlimit="1.5" stroke-linecap="round" stroke-linejoin="round"/>
<path d="M701.663 553.11C692.416 565.668 676.72 578.795 673.982 594.894C672.412 604.132 676.363 613.174 675.926 622.495C675.696 627.42 676.247 650.012 681.816 652.63C694.985 658.82 713.23 631.852 728.022 631.082" stroke="#6D5DD3" stroke-width="11.7506" stroke-miterlimit="1.5" stroke-linecap="round" stroke-linejoin="round"/>
<path d="M225.463 556.378C277.408 562.84 273.927 539.974 344.824 534.025" stroke="#6D5DD3" stroke-width="11.7506" stroke-miterlimit="1.5" stroke-linecap="round" stroke-linejoin="round"/>
<path d="M183.511 603.944C200.587 601.78 217.882 599.495 233.885 592.909" stroke="#6D5DD3" stroke-width="11.7506" stroke-miterlimit="1.5" stroke-linecap="round" stroke-linejoin="round"/>
<path d="M694.713 603.944C711.789 601.78 729.084 599.495 745.087 592.909" stroke="#6D5DD3" stroke-width="11.7506" stroke-miterlimit="1.5" stroke-linecap="round" stroke-linejoin="round"/>
<path d="M294.912 822.801C292.111 830.93 289.428 839.437 288.389 847.988" stroke="#6D5DD3" stroke-width="11.7506" stroke-miterlimit="1.5" stroke-linecap="round" stroke-linejoin="round"/>
<path d="M584.052 532.933C603.971 541.453 627.476 501.872 709.925 499.214" stroke="#6D5DD3" stroke-width="11.7506" stroke-miterlimit="1.5" stroke-linecap="round" stroke-linejoin="round"/>
<path d="M584.052 532.933C603.971 541.453 627.476 501.872 709.925 499.214" stroke="#6D5DD3" stroke-width="11.7506" stroke-miterlimit="1.5" stroke-linecap="round" stroke-linejoin="round"/>
<path d="M584.052 533.341C607.11 541.164 654.062 476.189 757.23 527.06" stroke="#6D5DD3" stroke-width="11.7506" stroke-miterlimit="1.5" stroke-linecap="round" stroke-linejoin="round"/>
<path d="M267.229 587.527C263.969 588.064 259.963 588.567 257.173 590.551C252.199 594.086 251.529 600.773 251.99 606.474C252.963 618.5 257.724 629.931 259.279 641.887C260.865 654.077 259.472 665.742 259.773 677.903C259.994 686.881 262.268 698.161 273.326 696.997C295.914 694.619 291.841 667.177 288.278 652.014C287.438 648.443 286.759 644.869 286.31 641.222C285.716 636.391 285.174 631.421 285.376 626.548C285.76 617.265 287.518 607.958 289.82 598.98C291.687 591.698 293.955 584.248 298.257 578.027C310.469 560.367 336.552 556.024 356.177 559.155C365.211 560.595 373.73 563.943 382.402 566.753" stroke="#6D5DD3" stroke-width="11.7506" stroke-miterlimit="1.5" stroke-linecap="round" stroke-linejoin="round"/>
<path d="M575.022 740.015C581.994 777.178 527.457 803.226 502.352 776.784C486.393 759.977 484.023 735 492.613 714.125C496.696 704.204 514.511 686.326 505.06 676.634C501.184 672.659 494.296 674.186 489.612 675.374C476.52 678.695 441.496 702.305 441.316 672.719C441.297 669.683 441.737 666.594 442.768 663.73C447 651.968 460.423 647.392 471.581 644.725C495.986 638.891 533.374 639.779 547.675 665.024C554.577 677.208 546.198 685.205 538.603 694.398C531.62 702.849 523.723 713.419 519.729 723.671C515.902 733.493 515.843 745.521 524.706 752.562C532.204 758.52 542.741 752.818 546.628 745.458C550.515 738.098 549.685 729.361 553.495 722.033C557.287 714.737 563.808 709.24 567.833 702.057C572.421 693.866 574.104 684.315 577.97 675.746C581.226 668.531 586.156 658.09 583.083 650.053C579.74 641.314 565.408 643.827 557.752 637.829C548.344 630.459 539.391 621.988 528.525 616.715C505.079 605.34 473.584 605.991 449.152 614.103C436.368 618.348 426.711 629.895 413.474 632.462C396.565 635.742 382.698 623.374 367.401 626.065C356.552 627.973 351.804 643.996 359.21 651.808C373.709 667.103 394.729 645.549 410.16 654.421" stroke="#6D5DD3" stroke-width="11.7506" stroke-miterlimit="1.5" stroke-linecap="round" stroke-linejoin="round"/>
<path d="M421.331 865.277C400.5 871.431 383.105 879.494 376.858 902.098C375.364 907.506 374.607 912.926 374.912 918.539C375.736 933.693 382.427 955.779 358.55 955.435C331.971 955.053 339.095 914.272 341.709 897.708C342.617 891.954 343.129 884.989 346.453 880.014C352.103 871.552 363.63 869.135 368.827 860.599C372.26 854.96 368.135 848.679 363.699 845.166C339.739 826.195 307.333 853.782 305.689 879.396C304.761 893.862 313.159 909.53 306.828 923.512C301.217 935.902 287.079 934.587 279.602 924.742C272.898 915.918 262.358 904.454 261.805 893.835C261.202 882.264 263.318 872.087 261.805 860.599C260.115 847.763 259.047 825.281 269.286 816.998" stroke="#6D5DD3" stroke-width="11.7506" stroke-miterlimit="1.5" stroke-linecap="round" stroke-linejoin="round"/>
</g>
</g>
<g opacity="0.1">
<g clip-path="url(#clip3_3437_94268)">
<path d="M1160.5 634.72C1159.25 632.273 1157.38 628.228 1154.77 627.021C1150.48 625.04 1145.91 628.356 1142.06 630.091C1134.93 633.301 1126.89 635.359 1120.12 630.212C1112.3 624.27 1109.97 613.034 1102.19 606.922C1092.46 599.285 1079.81 597.871 1068.99 592.734C1059.82 588.38 1052.25 581.162 1043.07 576.751C1026.74 568.904 1001.17 565.123 983.266 566.861C967.416 568.399 951.403 572.643 936.373 578.084C927.202 581.404 918.803 586.379 909.154 588.18C886.157 592.47 858.962 578.381 839.747 597.237C823.288 613.388 822.621 639.689 830.892 660.33C835.715 672.365 847.254 683.815 840.16 697.334C834.364 708.38 821.56 711.868 811.399 716.724C792.861 725.584 776.825 740.914 778.528 764.416" stroke="#6D5DD3" stroke-width="11.7506" stroke-miterlimit="1.5" stroke-linecap="round" stroke-linejoin="round"/>
<path d="M877.229 725.407C875.71 720.633 873.359 715.213 873.585 710.134C874.166 697.054 887.381 687.903 898.725 684.495C903.758 682.982 920.004 678.665 924.834 681.548C929.174 684.138 931.004 689.791 932.425 694.33C933.217 696.857 934.845 700.442 934.326 703.126C933.607 706.842 928.752 707.337 925.77 708.146C919.257 709.914 913.349 713.311 908.311 717.769C902.055 723.304 897.611 730.625 895.576 738.7C894.113 744.505 894.66 753.23 888.385 756.468C883.48 759 875.81 753.481 871.784 751.226C862.014 745.753 850.819 740.654 839.365 742.189C828.667 743.623 820.856 747.902 814.171 756.261C811.036 760.183 809.044 766.519 812.139 771.054C815.479 775.948 821.948 775.449 827.029 774.201C833.811 772.533 841.993 770.652 848.972 772.106C866.731 775.804 882.459 799.546 901.98 793.096C912.87 789.498 915.511 772.137 921.504 763.52C932.904 747.128 953.724 742.652 972.543 744.976" stroke="#6D5DD3" stroke-width="11.7506" stroke-miterlimit="1.5" stroke-linecap="round" stroke-linejoin="round"/>
<path d="M1188.29 711.226C1181.18 699.859 1178.35 682.214 1167.53 673.832C1148.63 659.207 1116.08 677.764 1114.7 699.975C1113.67 716.567 1119.77 730.996 1124.71 746.363C1126.87 753.092 1130.03 764.954 1126.57 771.784C1121.67 781.465 1112.59 782.943 1103.69 787.525C1093.98 792.525 1085.27 799.482 1075.63 804.723C1056.55 815.099 1034.25 823.96 1013.61 812.344C1000.98 805.238 991.601 793.294 979.54 785.267C969.151 778.353 951.253 773.198 943.722 786.836C932.859 806.51 957.075 809.783 967.133 816.998C976.446 823.677 982.042 833.975 990.753 841.233C1000.36 849.238 1031.93 853.206 1016.92 873.893C1013.56 878.517 1009.63 882.342 1006.54 887.252C1002.72 893.34 998.219 900.103 991.712 903.598C982.525 908.53 979.014 902.925 976.804 893.834C972.005 874.103 975.113 854.391 955.124 842.013C937.36 831.014 917.301 836.519 898.176 832.443C881.752 828.943 869.496 817.306 853.777 812.661" stroke="#6D5DD3" stroke-width="11.7506" stroke-miterlimit="1.5" stroke-linecap="round" stroke-linejoin="round"/>
<path d="M1189.36 712.981C1190.73 714.831 1192.32 716.646 1194.12 718.087C1205.8 727.445 1214.88 711.107 1218.67 702.643C1219.52 700.756 1220.2 698.768 1220.9 696.822C1221.83 694.247 1222.94 691.721 1224.22 689.307C1226.01 685.94 1228.03 682.429 1230.56 679.553C1237.52 671.637 1248.57 669.743 1255.7 678.406C1259.25 682.715 1261.08 688.472 1261.9 693.92C1263.61 705.18 1261.25 720.693 1252.92 729.073C1248.06 733.966 1241.48 736.584 1235.66 740.104C1228.07 744.701 1221.11 750.222 1215.21 756.872C1210.99 761.631 1207.33 767.129 1204.8 772.977C1201.7 780.167 1199.71 787.726 1194.47 793.759C1185.31 804.322 1167.47 812.121 1171.1 828.816C1173.76 841.069 1193.78 837.15 1201.58 833.807C1203.82 832.847 1205.99 831.705 1207.98 830.29C1224.54 818.512 1222.36 793.908 1233.3 777.973C1237.81 771.412 1248.05 762.905 1255.21 771.091C1270.86 788.992 1250.7 810.876 1244.63 827.593C1240.66 838.503 1243.08 852.656 1231.93 859.64C1229.69 861.038 1227.27 862.103 1224.76 862.89C1216.32 865.535 1207.4 866.001 1199 862.96C1191.79 860.35 1185.09 854.673 1176.98 855.344" stroke="#6D5DD3" stroke-width="11.7506" stroke-miterlimit="1.5" stroke-linecap="round" stroke-linejoin="round"/>
<path d="M678.467 712.981C679.833 714.831 681.421 716.646 683.221 718.087C694.909 727.445 703.982 711.107 707.776 702.643C708.622 700.756 709.307 698.768 710.006 696.822C710.932 694.247 712.043 691.721 713.327 689.307C715.119 685.94 717.132 682.429 719.661 679.553C726.623 671.637 737.677 669.743 744.806 678.406C748.351 682.715 750.184 688.472 751.01 693.92C752.716 705.18 750.354 720.693 742.03 729.073C737.17 733.966 730.582 736.584 724.77 740.104C717.179 744.701 710.22 750.222 704.318 756.872C700.093 761.631 696.432 767.129 693.909 772.977C690.807 780.167 688.811 787.726 683.578 793.759C674.415 804.322 656.577 812.121 660.202 828.816C662.863 841.069 682.886 837.15 690.682 833.807C692.922 832.847 695.1 831.705 697.089 830.29C713.647 818.512 711.461 793.908 722.41 777.973C726.919 771.412 737.161 762.905 744.317 771.091C759.966 788.992 739.809 810.876 733.732 827.593C729.766 838.503 732.187 852.656 721.031 859.64C718.797 861.038 716.38 862.103 713.868 862.89C705.429 865.535 696.504 866.001 688.106 862.96C680.897 860.35 674.198 854.673 666.084 855.344" stroke="#6D5DD3" stroke-width="11.7506" stroke-miterlimit="1.5" stroke-linecap="round" stroke-linejoin="round"/>
<path d="M1151.35 702.189C1147.06 724.001 1164.44 737.096 1164.74 757.769C1165.1 782.789 1138.15 813.687 1124.18 833.131" stroke="#6D5DD3" stroke-width="11.7506" stroke-miterlimit="1.5" stroke-linecap="round" stroke-linejoin="round"/>
<path d="M1104.69 817.056C1092.93 832.315 1082.1 827.763 1068.11 840.174C1061.3 846.209 1049.27 857.599 1051.27 867.506C1053.13 876.699 1064.29 886.485 1071.89 885.158C1087.51 882.427 1112.91 856.181 1127.36 864.878C1137.34 870.887 1143.08 881.627 1153.13 887.394C1163.62 893.411 1174.77 890.558 1185.84 893.937C1195.05 896.749 1201.61 903.998 1210.49 907.235C1224.41 912.309 1243.68 905.512 1253.74 918.287C1264.32 931.719 1261.39 946.659 1262.98 962.406C1264.1 973.483 1267.95 983.697 1270.96 994.319" stroke="#6D5DD3" stroke-width="11.7506" stroke-miterlimit="1.5" stroke-linecap="round" stroke-linejoin="round"/>
<path d="M599.013 808.762C587.256 824.021 568.673 829.155 554.682 841.566C547.877 847.602 541.345 854.027 543.352 863.935C545.212 873.128 556.592 874.866 564.187 873.539C579.811 870.808 602.015 856.181 616.461 864.878C626.442 870.886 632.181 881.626 642.236 887.393C652.728 893.411 663.878 890.558 674.944 893.937C684.153 896.748 690.711 903.998 699.594 907.235C713.517 912.309 732.779 905.512 742.843 918.287C753.425 931.719 750.492 946.659 752.082 962.406C753.201 973.483 757.058 983.697 760.062 994.319" stroke="#6D5DD3" stroke-width="11.7506" stroke-miterlimit="1.5" stroke-linecap="round" stroke-linejoin="round"/>
<path d="M918.439 915.688C926.879 904.26 936.861 904.325 946.119 915.269C957.327 928.517 959.986 947.946 980.487 949.008C1011.08 950.593 1015.04 910.072 1041.46 897.913" stroke="#6D5DD3" stroke-width="11.7506" stroke-miterlimit="1.5" stroke-linecap="round" stroke-linejoin="round"/>
<path d="M1061.45 452.449C1061.45 464.918 1051.23 476.043 1059.67 516.645" stroke="#6D5DD3" stroke-width="11.7506" stroke-miterlimit="1.5" stroke-linecap="round" stroke-linejoin="round"/>
<path d="M1039.16 480.611C1022.44 499.748 986.413 523.606 965.148 502.897C941.085 479.463 932.335 495.29 928.825 514.105" stroke="#6D5DD3" stroke-width="11.7506" stroke-miterlimit="1.5" stroke-linecap="round" stroke-linejoin="round"/>
<path d="M938.685 473.613C932.354 492.209 928.402 550.769 895.662 547.911" stroke="#6D5DD3" stroke-width="11.7506" stroke-miterlimit="1.5" stroke-linecap="round" stroke-linejoin="round"/>
<path d="M929.945 444.668C919.34 452.52 910.219 461.508 904.307 474.294C897.985 487.963 896.614 503.13 883.878 511.774C865.93 523.954 850.738 508.759 832.544 508.199C805.727 507.375 776.051 544.247 716.514 508.1" stroke="#6D5DD3" stroke-width="11.7506" stroke-miterlimit="1.5" stroke-linecap="round" stroke-linejoin="round"/>
<path d="M946.028 543.001C968.679 538.02 992.715 531.648 1015.93 536.262C1034.89 540.029 1051.4 551.099 1069.97 556.047C1099.79 563.993 1117.15 557.71 1136.85 586.88" stroke="#6D5DD3" stroke-width="11.7506" stroke-miterlimit="1.5" stroke-linecap="round" stroke-linejoin="round"/>
<path d="M1180.32 548.768C1169.02 564.659 1155.08 583.595 1157.84 604.353" stroke="#6D5DD3" stroke-width="11.7506" stroke-miterlimit="1.5" stroke-linecap="round" stroke-linejoin="round"/>
<path d="M1212.77 553.11C1203.52 565.668 1187.83 578.795 1185.09 594.894C1183.52 604.132 1187.47 613.174 1187.03 622.495C1186.8 627.42 1187.35 650.012 1192.92 652.63C1206.09 658.82 1224.34 631.852 1239.13 631.082" stroke="#6D5DD3" stroke-width="11.7506" stroke-miterlimit="1.5" stroke-linecap="round" stroke-linejoin="round"/>
<path d="M736.568 556.378C788.513 562.84 785.032 539.974 855.93 534.025" stroke="#6D5DD3" stroke-width="11.7506" stroke-miterlimit="1.5" stroke-linecap="round" stroke-linejoin="round"/>
<path d="M694.616 603.944C711.692 601.78 728.987 599.495 744.99 592.909" stroke="#6D5DD3" stroke-width="11.7506" stroke-miterlimit="1.5" stroke-linecap="round" stroke-linejoin="round"/>
<path d="M1205.82 603.944C1222.89 601.78 1240.19 599.495 1256.19 592.909" stroke="#6D5DD3" stroke-width="11.7506" stroke-miterlimit="1.5" stroke-linecap="round" stroke-linejoin="round"/>
<path d="M806.018 822.801C803.217 830.93 800.534 839.437 799.494 847.988" stroke="#6D5DD3" stroke-width="11.7506" stroke-miterlimit="1.5" stroke-linecap="round" stroke-linejoin="round"/>
<path d="M1095.16 532.933C1115.08 541.453 1138.58 501.872 1221.03 499.214" stroke="#6D5DD3" stroke-width="11.7506" stroke-miterlimit="1.5" stroke-linecap="round" stroke-linejoin="round"/>
<path d="M1095.16 532.933C1115.08 541.453 1138.58 501.872 1221.03 499.214" stroke="#6D5DD3" stroke-width="11.7506" stroke-miterlimit="1.5" stroke-linecap="round" stroke-linejoin="round"/>
<path d="M1095.16 533.341C1118.22 541.164 1165.17 476.189 1268.34 527.06" stroke="#6D5DD3" stroke-width="11.7506" stroke-miterlimit="1.5" stroke-linecap="round" stroke-linejoin="round"/>
<path d="M778.334 587.527C775.075 588.064 771.068 588.567 768.278 590.551C763.305 594.086 762.634 600.773 763.095 606.474C764.068 618.5 768.829 629.931 770.385 641.887C771.971 654.077 770.578 665.742 770.878 677.903C771.1 686.881 773.373 698.161 784.432 696.997C807.019 694.619 802.947 667.177 799.383 652.014C798.544 648.443 797.865 644.869 797.416 641.222C796.821 636.391 796.28 631.421 796.481 626.548C796.866 617.265 798.624 607.958 800.925 598.98C802.792 591.698 805.061 584.248 809.362 578.027C821.574 560.367 847.657 556.024 867.282 559.155C876.316 560.595 884.835 563.943 893.507 566.753" stroke="#6D5DD3" stroke-width="11.7506" stroke-miterlimit="1.5" stroke-linecap="round" stroke-linejoin="round"/>
<path d="M1086.13 740.015C1093.1 777.178 1038.56 803.226 1013.46 776.784C997.499 759.977 995.128 735 1003.72 714.125C1007.8 704.204 1025.62 686.326 1016.17 676.634C1012.29 672.659 1005.4 674.186 1000.72 675.374C987.626 678.695 952.602 702.305 952.421 672.719C952.403 669.683 952.843 666.594 953.874 663.73C958.106 651.968 971.528 647.392 982.687 644.725C1007.09 638.891 1044.48 639.779 1058.78 665.024C1065.68 677.208 1057.3 685.205 1049.71 694.398C1042.73 702.849 1034.83 713.419 1030.83 723.671C1027.01 733.493 1026.95 745.521 1035.81 752.562C1043.31 758.52 1053.85 752.818 1057.73 745.458C1061.62 738.098 1060.79 729.361 1064.6 722.033C1068.39 714.737 1074.91 709.24 1078.94 702.057C1083.53 693.866 1085.21 684.315 1089.08 675.746C1092.33 668.531 1097.26 658.09 1094.19 650.053C1090.85 641.314 1076.51 643.827 1068.86 637.829C1059.45 630.459 1050.5 621.988 1039.63 616.715C1016.18 605.34 984.69 605.991 960.257 614.103C947.474 618.348 937.816 629.895 924.579 632.462C907.67 635.742 893.804 623.374 878.506 626.065C867.657 627.973 862.909 643.996 870.315 651.808C884.814 667.103 905.835 645.549 921.265 654.421" stroke="#6D5DD3" stroke-width="11.7506" stroke-miterlimit="1.5" stroke-linecap="round" stroke-linejoin="round"/>
<path d="M932.437 865.277C911.605 871.431 894.21 879.494 887.964 902.098C886.47 907.506 885.712 912.926 886.018 918.539C886.842 933.693 893.533 955.779 869.655 955.435C843.077 955.053 850.2 914.272 852.815 897.708C853.722 891.954 854.235 884.989 857.558 880.014C863.209 871.552 874.736 869.135 879.933 860.599C883.365 854.96 879.241 848.679 874.804 845.166C850.845 826.195 818.438 853.782 816.794 879.396C815.866 893.862 824.265 909.53 817.933 923.512C812.323 935.902 798.184 934.587 790.707 924.742C784.004 915.918 773.464 904.454 772.911 893.835C772.308 882.264 774.423 872.087 772.911 860.599C771.221 847.763 770.152 825.281 780.392 816.998" stroke="#6D5DD3" stroke-width="11.7506" stroke-miterlimit="1.5" stroke-linecap="round" stroke-linejoin="round"/>
</g>
</g>
<g opacity="0.1">
<g clip-path="url(#clip4_3437_94268)">
<path d="M1671.4 634.72C1670.15 632.273 1668.28 628.228 1665.66 627.021C1661.37 625.04 1656.8 628.356 1652.95 630.091C1645.82 633.301 1637.78 635.359 1631.01 630.212C1623.2 624.27 1620.87 613.034 1613.08 606.922C1603.35 599.285 1590.7 597.871 1579.89 592.734C1570.72 588.38 1563.15 581.162 1553.97 576.751C1537.64 568.904 1512.07 565.123 1494.16 566.861C1478.31 568.399 1462.3 572.643 1447.27 578.084C1438.1 581.404 1429.7 586.379 1420.05 588.18C1397.05 592.47 1369.86 578.381 1350.64 597.237C1334.18 613.388 1333.52 639.689 1341.79 660.33C1346.61 672.365 1358.15 683.815 1351.05 697.334C1345.26 708.38 1332.45 711.868 1322.29 716.724C1303.76 725.584 1287.72 740.914 1289.42 764.416" stroke="#6D5DD3" stroke-width="11.7506" stroke-miterlimit="1.5" stroke-linecap="round" stroke-linejoin="round"/>
<path d="M1388.12 725.407C1386.6 720.633 1384.25 715.213 1384.48 710.134C1385.06 697.054 1398.28 687.903 1409.62 684.495C1414.65 682.982 1430.9 678.665 1435.73 681.548C1440.07 684.138 1441.9 689.791 1443.32 694.33C1444.11 696.857 1445.74 700.442 1445.22 703.126C1444.5 706.842 1439.65 707.337 1436.66 708.146C1430.15 709.914 1424.24 713.311 1419.21 717.769C1412.95 723.304 1408.51 730.625 1406.47 738.7C1405.01 744.505 1405.55 753.23 1399.28 756.468C1394.37 759 1386.7 753.481 1382.68 751.226C1372.91 745.753 1361.71 740.654 1350.26 742.189C1339.56 743.623 1331.75 747.902 1325.07 756.261C1321.93 760.183 1319.94 766.519 1323.03 771.054C1326.37 775.948 1332.84 775.449 1337.92 774.201C1344.71 772.533 1352.89 770.652 1359.87 772.106C1377.63 775.804 1393.35 799.546 1412.87 793.096C1423.76 789.498 1426.41 772.137 1432.4 763.52C1443.8 747.128 1464.62 742.652 1483.44 744.976" stroke="#6D5DD3" stroke-width="11.7506" stroke-miterlimit="1.5" stroke-linecap="round" stroke-linejoin="round"/>
<path d="M1699.19 711.226C1692.07 699.859 1689.25 682.214 1678.42 673.832C1659.53 659.207 1626.97 677.764 1625.59 699.975C1624.56 716.567 1630.67 730.996 1635.61 746.363C1637.77 753.092 1640.93 764.954 1637.47 771.784C1632.56 781.465 1623.49 782.943 1614.59 787.525C1604.88 792.525 1596.16 799.482 1586.53 804.723C1567.45 815.099 1545.15 823.96 1524.5 812.344C1511.88 805.238 1502.5 793.294 1490.43 785.267C1480.05 778.353 1462.15 773.198 1454.62 786.836C1443.75 806.51 1467.97 809.783 1478.03 816.998C1487.34 823.677 1492.94 833.975 1501.65 841.233C1511.25 849.238 1542.82 853.206 1527.81 873.893C1524.46 878.517 1520.52 882.342 1517.44 887.252C1513.62 893.34 1509.11 900.103 1502.61 903.598C1493.42 908.53 1489.91 902.925 1487.7 893.834C1482.9 874.103 1486.01 854.391 1466.02 842.013C1448.25 831.014 1428.2 836.519 1409.07 832.443C1392.65 828.943 1380.39 817.306 1364.67 812.661" stroke="#6D5DD3" stroke-width="11.7506" stroke-miterlimit="1.5" stroke-linecap="round" stroke-linejoin="round"/>
<path d="M1189.36 712.981C1190.73 714.831 1192.32 716.646 1194.12 718.087C1205.8 727.445 1214.88 711.107 1218.67 702.643C1219.52 700.756 1220.2 698.768 1220.9 696.822C1221.83 694.247 1222.94 691.721 1224.22 689.307C1226.01 685.94 1228.03 682.429 1230.56 679.553C1237.52 671.637 1248.57 669.743 1255.7 678.406C1259.25 682.715 1261.08 688.472 1261.9 693.92C1263.61 705.18 1261.25 720.693 1252.92 729.073C1248.06 733.966 1241.48 736.584 1235.66 740.104C1228.07 744.701 1221.11 750.222 1215.21 756.872C1210.99 761.631 1207.33 767.129 1204.8 772.977C1201.7 780.167 1199.71 787.726 1194.47 793.759C1185.31 804.322 1167.47 812.121 1171.1 828.816C1173.76 841.069 1193.78 837.15 1201.58 833.807C1203.82 832.847 1205.99 831.705 1207.98 830.29C1224.54 818.512 1222.36 793.908 1233.3 777.973C1237.81 771.412 1248.06 762.905 1255.21 771.091C1270.86 788.992 1250.7 810.876 1244.63 827.593C1240.66 838.503 1243.08 852.656 1231.93 859.64C1229.69 861.038 1227.27 862.103 1224.76 862.89C1216.32 865.535 1207.4 866.001 1199 862.96C1191.79 860.35 1185.09 854.673 1176.98 855.344" stroke="#6D5DD3" stroke-width="11.7506" stroke-miterlimit="1.5" stroke-linecap="round" stroke-linejoin="round"/>
<path d="M1109.91 808.762C1098.15 824.021 1079.57 829.155 1065.58 841.566C1058.77 847.602 1052.24 854.027 1054.25 863.935C1056.11 873.128 1067.49 874.866 1075.08 873.539C1090.71 870.808 1112.91 856.181 1127.36 864.878C1137.34 870.886 1143.08 881.626 1153.13 887.393C1163.62 893.411 1174.77 890.558 1185.84 893.937C1195.05 896.748 1201.61 903.998 1210.49 907.235C1224.41 912.309 1243.67 905.512 1253.74 918.287C1264.32 931.719 1261.39 946.659 1262.98 962.406C1264.1 973.483 1267.95 983.697 1270.96 994.319" stroke="#6D5DD3" stroke-width="11.7506" stroke-miterlimit="1.5" stroke-linecap="round" stroke-linejoin="round"/>
<path d="M1429.33 915.688C1437.77 904.26 1447.76 904.325 1457.01 915.269C1468.22 928.517 1470.88 947.946 1491.38 949.008C1521.97 950.593 1525.94 910.072 1552.36 897.913" stroke="#6D5DD3" stroke-width="11.7506" stroke-miterlimit="1.5" stroke-linecap="round" stroke-linejoin="round"/>
<path d="M1550.06 480.611C1533.34 499.748 1497.31 523.606 1476.04 502.897C1451.98 479.463 1443.23 495.29 1439.72 514.105" stroke="#6D5DD3" stroke-width="11.7506" stroke-miterlimit="1.5" stroke-linecap="round" stroke-linejoin="round"/>
<path d="M1449.58 473.613C1443.25 492.209 1439.3 550.769 1406.56 547.911" stroke="#6D5DD3" stroke-width="11.7506" stroke-miterlimit="1.5" stroke-linecap="round" stroke-linejoin="round"/>
<path d="M1440.84 444.668C1430.23 452.52 1421.11 461.508 1415.2 474.294C1408.88 487.963 1407.51 503.13 1394.77 511.774C1376.82 523.954 1361.63 508.759 1343.44 508.199C1316.62 507.375 1286.95 544.247 1227.41 508.1" stroke="#6D5DD3" stroke-width="11.7506" stroke-miterlimit="1.5" stroke-linecap="round" stroke-linejoin="round"/>
<path d="M1247.46 556.378C1299.41 562.84 1295.93 539.974 1366.82 534.025" stroke="#6D5DD3" stroke-width="11.7506" stroke-miterlimit="1.5" stroke-linecap="round" stroke-linejoin="round"/>
<path d="M1205.51 603.944C1222.59 601.78 1239.88 599.495 1255.88 592.909" stroke="#6D5DD3" stroke-width="11.7506" stroke-miterlimit="1.5" stroke-linecap="round" stroke-linejoin="round"/>
<path d="M1316.91 822.801C1314.11 830.93 1311.43 839.437 1310.39 847.988" stroke="#6D5DD3" stroke-width="11.7506" stroke-miterlimit="1.5" stroke-linecap="round" stroke-linejoin="round"/>
<path d="M1289.23 587.527C1285.97 588.064 1281.96 588.567 1279.17 590.551C1274.2 594.086 1273.53 600.773 1273.99 606.474C1274.96 618.5 1279.72 629.931 1281.28 641.887C1282.87 654.077 1281.47 665.742 1281.77 677.903C1281.99 686.881 1284.27 698.161 1295.33 696.997C1317.91 694.619 1313.84 667.177 1310.28 652.014C1309.44 648.443 1308.76 644.869 1308.31 641.222C1307.72 636.391 1307.17 631.421 1307.38 626.548C1307.76 617.265 1309.52 607.958 1311.82 598.98C1313.69 591.698 1315.96 584.248 1320.26 578.027C1332.47 560.367 1358.55 556.024 1378.18 559.155C1387.21 560.595 1395.73 563.943 1404.4 566.753" stroke="#6D5DD3" stroke-width="11.7506" stroke-miterlimit="1.5" stroke-linecap="round" stroke-linejoin="round"/>
<path d="M1597.02 740.015C1603.99 777.178 1549.46 803.226 1524.35 776.784C1508.39 759.977 1506.02 735 1514.61 714.125C1518.7 704.204 1536.51 686.326 1527.06 676.634C1523.18 672.659 1516.3 674.186 1511.61 675.374C1498.52 678.695 1463.5 702.305 1463.32 672.719C1463.3 669.683 1463.74 666.594 1464.77 663.73C1469 651.968 1482.42 647.392 1493.58 644.725C1517.99 638.891 1555.37 639.779 1569.67 665.024C1576.58 677.208 1568.2 685.205 1560.6 694.398C1553.62 702.849 1545.72 713.419 1541.73 723.671C1537.9 733.493 1537.84 745.521 1546.71 752.562C1554.2 758.52 1564.74 752.818 1568.63 745.458C1572.51 738.098 1571.69 729.361 1575.49 722.033C1579.29 714.737 1585.81 709.24 1589.83 702.057C1594.42 693.866 1596.1 684.315 1599.97 675.746C1603.23 668.531 1608.16 658.09 1605.08 650.053C1601.74 641.314 1587.41 643.827 1579.75 637.829C1570.34 630.459 1561.39 621.988 1550.52 616.715C1527.08 605.34 1495.58 605.991 1471.15 614.103C1458.37 618.348 1448.71 629.895 1435.47 632.462C1418.56 635.742 1404.7 623.374 1389.4 626.065C1378.55 627.973 1373.8 643.996 1381.21 651.808C1395.71 667.103 1416.73 645.549 1432.16 654.421" stroke="#6D5DD3" stroke-width="11.7506" stroke-miterlimit="1.5" stroke-linecap="round" stroke-linejoin="round"/>
<path d="M1443.33 865.277C1422.5 871.431 1405.1 879.494 1398.86 902.098C1397.36 907.506 1396.61 912.926 1396.91 918.539C1397.74 933.693 1404.43 955.779 1380.55 955.435C1353.97 955.053 1361.09 914.272 1363.71 897.708C1364.62 891.954 1365.13 884.989 1368.45 880.014C1374.1 871.552 1385.63 869.135 1390.83 860.599C1394.26 854.96 1390.14 848.679 1385.7 845.166C1361.74 826.195 1329.33 853.782 1327.69 879.396C1326.76 893.862 1335.16 909.53 1328.83 923.512C1323.22 935.902 1309.08 934.587 1301.6 924.742C1294.9 915.918 1284.36 904.454 1283.81 893.835C1283.2 882.264 1285.32 872.087 1283.81 860.599C1282.12 847.763 1281.05 825.281 1291.29 816.998" stroke="#6D5DD3" stroke-width="11.7506" stroke-miterlimit="1.5" stroke-linecap="round" stroke-linejoin="round"/>
</g>
</g>
<g opacity="0.1">
<g clip-path="url(#clip5_3437_94268)">
<path d="M138.501 123.614C137.253 121.167 135.383 117.122 132.768 115.915C128.477 113.934 123.909 117.25 120.057 118.985C112.927 122.195 104.886 124.253 98.1175 119.106C90.3044 113.164 87.9737 101.928 80.1861 95.816C70.4551 88.1791 57.8095 86.7655 46.9944 81.6284C37.8248 77.2736 30.2523 70.0557 21.0736 65.6451C4.74082 57.7983 -20.8264 54.0166 -38.7342 55.7547C-54.5842 57.2935 -70.5967 61.537 -85.6267 66.978C-94.7982 70.2978 -103.197 75.2734 -112.846 77.0738C-135.843 81.3643 -163.038 67.2749 -182.253 86.1315C-198.712 102.282 -199.379 128.583 -191.108 149.224C-186.285 161.259 -174.746 172.709 -181.84 186.228C-187.636 197.274 -200.44 200.762 -210.601 205.618C-229.139 214.478 -245.175 229.808 -243.472 253.31" stroke="#6D5DD3" stroke-width="11.7506" stroke-miterlimit="1.5" stroke-linecap="round" stroke-linejoin="round"/>
<path d="M166.294 200.12C159.18 188.753 156.355 171.108 145.526 162.726C126.633 148.101 94.0802 166.658 92.6977 188.869C91.6652 205.461 97.7735 219.89 102.711 235.257C104.873 241.986 108.035 253.848 104.572 260.678C99.6663 270.359 90.5938 271.837 81.6941 276.419C71.9809 281.419 63.2697 288.376 53.6317 293.617C34.5523 303.993 12.2518 312.855 -8.39246 301.238C-21.0187 294.132 -30.3992 282.188 -42.4599 274.161C-52.8494 267.248 -70.7466 262.092 -78.2777 275.73C-89.1413 295.404 -64.9254 298.677 -54.8675 305.892C-45.5544 312.572 -39.9575 322.869 -31.2473 330.127C-21.6415 338.132 9.92923 342.1 -5.0834 362.787C-8.43895 367.411 -12.3744 371.236 -15.4556 376.146C-19.2781 382.234 -23.7811 388.997 -30.2883 392.492C-39.4747 397.424 -42.9856 391.819 -45.1962 382.729C-49.9951 362.997 -46.8873 343.285 -66.8761 330.907C-84.6398 319.908 -104.699 325.413 -123.824 321.337C-140.248 317.837 -152.504 306.2 -168.223 301.555" stroke="#6D5DD3" stroke-width="11.7506" stroke-miterlimit="1.5" stroke-linecap="round" stroke-linejoin="round"/>
<path d="M167.361 201.875C168.727 203.725 170.316 205.54 172.116 206.981C183.804 216.339 192.876 200.001 196.67 191.537C197.516 189.65 198.201 187.662 198.901 185.716C199.826 183.141 200.937 180.615 202.221 178.201C204.013 174.834 206.026 171.323 208.555 168.447C215.517 160.531 226.569 158.637 233.701 167.3C237.247 171.609 239.076 177.366 239.904 182.814C241.61 194.074 239.25 209.587 230.922 217.967C226.064 222.86 219.478 225.478 213.664 228.998C206.073 233.595 199.115 239.116 193.212 245.766C188.987 250.525 185.326 256.023 182.804 261.871C179.702 269.061 177.705 276.62 172.473 282.653C163.309 293.216 145.472 301.015 149.096 317.71C151.757 329.963 171.78 326.044 179.577 322.701C181.817 321.741 183.994 320.599 185.983 319.184C202.541 307.406 200.356 282.802 211.305 266.867C215.814 260.306 226.053 251.799 233.211 259.985C248.86 277.886 228.705 299.77 222.625 316.487C218.661 327.397 221.082 341.55 209.925 348.534C207.691 349.932 205.275 350.997 202.763 351.784C194.323 354.429 185.398 354.895 177 351.854C169.791 349.244 163.092 343.567 154.979 344.238" stroke="#6D5DD3" stroke-width="11.7506" stroke-miterlimit="1.5" stroke-linecap="round" stroke-linejoin="round"/>
<path d="M129.35 191.083C125.059 212.895 142.441 225.99 142.737 246.663C143.096 271.683 116.15 302.581 102.176 322.025" stroke="#6D5DD3" stroke-width="11.7506" stroke-miterlimit="1.5" stroke-linecap="round" stroke-linejoin="round"/>
<path d="M82.6864 305.95C70.9297 321.209 60.0977 316.657 46.1064 329.068C39.3013 335.103 27.2661 346.493 29.2724 356.401C31.1331 365.593 42.292 375.379 49.887 374.052C65.5112 371.321 90.9098 345.076 105.355 353.772C115.336 359.781 121.076 370.521 131.13 376.288C141.623 382.305 152.772 379.452 163.839 382.831C173.047 385.643 179.606 392.892 188.489 396.129C202.411 401.203 221.675 394.406 231.74 407.181C242.32 420.613 239.388 435.553 240.977 451.3C242.096 462.377 245.953 472.591 248.957 483.213" stroke="#6D5DD3" stroke-width="11.7506" stroke-miterlimit="1.5" stroke-linecap="round" stroke-linejoin="round"/>
<path d="M126.888 455.596C152.278 470.102 169.984 481.436 200.423 479.224C218.369 477.919 221.644 450.318 208.781 440.181C199.575 432.925 185.518 434.878 174.608 434.832C159.335 434.767 142.514 432.526 128.516 426.106C115.087 419.947 106.023 407.603 93.9279 399.488C90.7067 397.326 83.4535 392.488 80.5476 396.699C69.8923 412.14 86.6599 429.641 93.4022 442.921C99.0833 454.11 101.404 467.611 103.23 479.943" stroke="#6D5DD3" stroke-width="11.7506" stroke-miterlimit="1.5" stroke-linecap="round" stroke-linejoin="round"/>
<path d="M-103.561 404.582C-95.1206 393.154 -85.1387 393.219 -75.8808 404.163C-64.6728 417.411 -62.0141 436.84 -41.5135 437.902C-10.9221 439.487 -6.95503 398.966 19.4628 386.807" stroke="#6D5DD3" stroke-width="11.7506" stroke-miterlimit="1.5" stroke-linecap="round" stroke-linejoin="round"/>
<path d="M-73.9287 447.886C-63.9438 463.924 -45.6645 475.663 -26.2102 470.462C-10.4996 466.262 5.27523 452.771 16.3177 441.286C22.8321 434.51 34.715 411.926 45.9542 415.489C54.1448 418.085 58.5298 427.244 60.0641 435.09C63.2858 451.569 57.1106 468.078 65.5965 483.672" stroke="#6D5DD3" stroke-width="11.7506" stroke-miterlimit="1.5" stroke-linecap="round" stroke-linejoin="round"/>
<path d="M39.4466 452.237C39.4466 464.706 29.2338 475.831 37.6713 516.433" stroke="#6D5DD3" stroke-width="11.7506" stroke-miterlimit="1.5" stroke-linecap="round" stroke-linejoin="round"/>
<path d="M39.4466 -58.6572C39.4466 -46.1883 29.2338 -35.0631 37.6712 5.5387" stroke="#6D5DD3" stroke-width="11.7506" stroke-miterlimit="1.5" stroke-linecap="round" stroke-linejoin="round"/>
<path d="M17.1613 480.4C0.444326 499.537 -35.5865 523.395 -56.8509 502.686C-94.0343 466.475 -94.6541 524.009 -95.873 541.454" stroke="#6D5DD3" stroke-width="11.7506" stroke-miterlimit="1.5" stroke-linecap="round" stroke-linejoin="round"/>
<path d="M17.1613 480.4C0.444326 499.537 -35.5865 523.395 -56.8509 502.686C-94.0343 466.475 -94.6541 524.009 -95.873 541.454" stroke="#6D5DD3" stroke-width="11.7506" stroke-miterlimit="1.5" stroke-linecap="round" stroke-linejoin="round"/>
<path d="M17.1605 -30.4951C0.44351 -11.3578 -35.5873 12.5004 -56.8518 -8.20868C-80.9154 -31.6429 -89.6655 -15.8163 -93.1748 2.99905" stroke="#6D5DD3" stroke-width="11.7506" stroke-miterlimit="1.5" stroke-linecap="round" stroke-linejoin="round"/>
<path d="M-75.9717 31.895C-53.3212 26.9139 -29.2851 20.5424 -6.07009 25.1559C12.8897 28.9232 29.3977 39.9928 47.9687 44.9415C77.7866 52.8874 95.1498 46.6036 114.847 75.7744" stroke="#6D5DD3" stroke-width="11.7506" stroke-miterlimit="1.5" stroke-linecap="round" stroke-linejoin="round"/>
<path d="M158.324 37.6616C147.019 53.5535 133.081 72.4888 135.841 93.2469" stroke="#6D5DD3" stroke-width="11.7506" stroke-miterlimit="1.5" stroke-linecap="round" stroke-linejoin="round"/>
<path d="M190.769 42.0039C181.522 54.5617 165.825 67.6881 163.088 83.7879C161.517 93.0254 165.468 102.068 165.031 111.389C164.801 116.313 165.352 138.906 170.922 141.524C184.091 147.713 202.336 120.746 217.127 119.975" stroke="#6D5DD3" stroke-width="11.7506" stroke-miterlimit="1.5" stroke-linecap="round" stroke-linejoin="round"/>
<path d="M183.818 92.8381C200.895 90.6744 218.19 88.3887 234.193 81.8027" stroke="#6D5DD3" stroke-width="11.7506" stroke-miterlimit="1.5" stroke-linecap="round" stroke-linejoin="round"/>
<path d="M73.1572 21.8266C93.076 30.3475 116.581 -9.23347 199.03 -11.8916" stroke="#6D5DD3" stroke-width="11.7506" stroke-miterlimit="1.5" stroke-linecap="round" stroke-linejoin="round"/>
<path d="M73.1572 21.8266C93.076 30.3475 116.581 -9.23347 199.03 -11.8916" stroke="#6D5DD3" stroke-width="11.7506" stroke-miterlimit="1.5" stroke-linecap="round" stroke-linejoin="round"/>
<path d="M73.1572 533.03C93.076 541.551 142.74 476.776 240.266 522.874" stroke="#6D5DD3" stroke-width="11.7506" stroke-miterlimit="1.5" stroke-linecap="round" stroke-linejoin="round"/>
<path d="M73.1572 22.2348C96.2159 30.058 143.167 -34.9167 246.335 15.9536" stroke="#6D5DD3" stroke-width="11.7506" stroke-miterlimit="1.5" stroke-linecap="round" stroke-linejoin="round"/>
<path d="M64.1277 228.909C71.0999 266.072 16.5629 292.12 -8.54293 265.678C-24.5012 248.871 -26.8718 223.894 -18.2811 203.019C-14.1985 193.098 3.61687 175.22 -5.83417 165.528C-9.71032 161.553 -16.5982 163.08 -21.2821 164.268C-34.3742 167.589 -69.3981 191.199 -69.579 161.613C-69.5973 158.577 -69.1575 155.488 -68.1265 152.624C-63.8942 140.862 -50.4715 136.286 -39.3131 133.619C-14.9087 127.785 22.4796 128.673 36.7801 153.918C43.6822 166.102 35.303 174.099 27.7081 183.292C20.7257 191.743 12.8283 202.313 8.83414 212.565C5.00703 222.387 4.94827 234.415 13.8113 241.456C21.3092 247.414 31.8464 241.712 35.7337 234.352C39.6201 226.993 38.7909 218.255 42.6002 210.927C46.3925 203.631 52.9136 198.134 56.9384 190.951C61.5267 182.76 63.2091 173.209 67.0751 164.64C70.331 157.425 75.2611 146.984 72.1881 138.948C68.8453 130.208 54.5137 132.721 46.8574 126.723C37.4493 119.353 28.4969 110.882 17.6302 105.609C-5.81525 94.2336 -37.3104 94.8849 -61.7429 102.997C-74.5265 107.242 -84.1839 118.789 -97.4206 121.356C-114.33 124.636 -128.196 112.268 -143.494 114.959C-154.343 116.867 -159.091 132.89 -151.685 140.702C-137.186 155.997 -116.165 134.443 -100.735 143.315" stroke="#6D5DD3" stroke-width="11.7506" stroke-miterlimit="1.5" stroke-linecap="round" stroke-linejoin="round"/>
</g>
</g>
<g opacity="0.1">
<g clip-path="url(#clip6_3437_94268)">
<path d="M649.396 123.614C648.148 121.167 646.278 117.122 643.662 115.915C639.372 113.934 634.803 117.25 630.951 118.985C623.821 122.195 615.78 124.253 609.012 119.106C601.199 113.164 598.868 101.928 591.081 95.816C581.35 88.1791 568.704 86.7655 557.889 81.6284C548.719 77.2736 541.147 70.0557 531.968 65.6451C515.635 57.7983 490.068 54.0166 472.16 55.7547C456.31 57.2935 440.298 61.537 425.268 66.978C416.096 70.2978 407.697 75.2734 398.048 77.0738C375.051 81.3643 347.857 67.2749 328.641 86.1315C312.182 102.282 311.515 128.583 319.786 149.224C324.609 161.259 336.149 172.709 329.055 186.228C323.259 197.274 310.454 200.762 300.293 205.618C281.756 214.478 265.719 229.808 267.422 253.31" stroke="#6D5DD3" stroke-width="11.7506" stroke-miterlimit="1.5" stroke-linecap="round" stroke-linejoin="round"/>
<path d="M366.124 214.301C364.605 209.527 362.254 204.107 362.48 199.028C363.06 185.948 376.275 176.797 387.62 173.389C392.653 171.876 408.898 167.559 413.729 170.442C418.068 173.032 419.898 178.685 421.32 183.224C422.111 185.751 423.739 189.336 423.22 192.02C422.502 195.736 417.646 196.231 414.665 197.04C408.152 198.808 402.244 202.205 397.205 206.663C390.95 212.198 386.505 219.519 384.471 227.595C383.008 233.399 383.554 242.124 377.28 245.362C372.375 247.894 364.705 242.375 360.678 240.12C350.909 234.647 339.714 229.548 328.259 231.083C317.562 232.517 309.75 236.796 303.066 245.156C299.931 249.077 297.939 255.413 301.034 259.948C304.374 264.842 310.842 264.343 315.924 263.095C322.706 261.428 330.888 259.546 337.867 261C355.626 264.698 371.353 288.441 390.874 281.99C401.765 278.392 404.406 261.031 410.398 252.414C421.799 236.022 442.618 231.546 461.438 233.87" stroke="#6D5DD3" stroke-width="11.7506" stroke-miterlimit="1.5" stroke-linecap="round" stroke-linejoin="round"/>
<path d="M677.188 200.12C670.074 188.753 667.249 171.108 656.421 162.726C637.527 148.101 604.975 166.658 603.592 188.869C602.56 205.461 608.668 219.89 613.606 235.257C615.767 241.986 618.929 253.848 615.467 260.678C610.561 270.359 601.488 271.837 592.589 276.419C582.875 281.419 574.164 288.376 564.526 293.617C545.447 303.993 523.146 312.855 502.502 301.238C489.876 294.132 480.495 282.188 468.435 274.161C458.045 267.248 440.148 262.092 432.617 275.73C421.753 295.404 445.969 298.677 456.027 305.892C465.34 312.572 470.937 322.869 479.647 330.127C489.253 338.132 520.824 342.1 505.811 362.787C502.456 367.411 498.52 371.236 495.439 376.146C491.616 382.234 487.113 388.997 480.606 392.492C471.42 397.424 467.909 391.819 465.698 382.729C460.899 362.997 464.007 343.285 444.018 330.907C426.255 319.908 406.196 325.413 387.07 321.337C370.646 317.837 358.391 306.2 342.672 301.555" stroke="#6D5DD3" stroke-width="11.7506" stroke-miterlimit="1.5" stroke-linecap="round" stroke-linejoin="round"/>
<path d="M678.256 201.875C679.622 203.725 681.21 205.54 683.011 206.981C694.698 216.339 703.771 200.001 707.565 191.537C708.411 189.65 709.096 187.662 709.795 185.716C710.721 183.141 711.832 180.615 713.116 178.201C714.908 174.834 716.921 171.323 719.45 168.447C726.412 160.531 737.464 158.637 744.596 167.3C748.142 171.609 749.971 177.366 750.798 182.814C752.505 194.074 750.144 209.587 741.817 217.967C736.958 222.86 730.373 225.478 724.559 228.998C716.968 233.595 710.009 239.116 704.107 245.766C699.882 250.525 696.221 256.023 693.698 261.871C690.597 269.061 688.6 276.62 683.367 282.653C674.204 293.216 656.366 301.015 659.991 317.71C662.652 329.963 682.675 326.044 690.471 322.701C692.711 321.741 694.889 320.599 696.878 319.184C713.436 307.406 711.25 282.802 722.199 266.867C726.709 260.306 736.948 251.799 744.105 259.985C759.754 277.886 739.599 299.77 733.52 316.487C729.555 327.397 731.977 341.55 720.82 348.534C718.586 349.932 716.169 350.997 713.657 351.784C705.218 354.429 696.293 354.895 687.895 351.854C680.686 349.244 673.987 343.567 665.873 344.238" stroke="#6D5DD3" stroke-width="11.7506" stroke-miterlimit="1.5" stroke-linecap="round" stroke-linejoin="round"/>
<path d="M167.361 201.875C168.727 203.725 170.316 205.54 172.116 206.981C183.804 216.339 192.876 200.001 196.67 191.537C197.516 189.65 198.201 187.662 198.901 185.716C199.826 183.141 200.937 180.615 202.221 178.201C204.013 174.834 206.026 171.323 208.555 168.447C215.517 160.531 226.572 158.637 233.701 167.3C237.246 171.609 239.079 177.366 239.904 182.814C241.611 194.074 239.248 209.587 230.925 217.967C226.064 222.86 219.477 225.478 213.664 228.998C206.073 233.595 199.115 239.116 193.212 245.766C188.988 250.525 185.326 256.023 182.803 261.871C179.702 269.061 177.705 276.62 172.473 282.653C163.309 293.216 145.472 301.015 149.096 317.71C151.757 329.963 171.78 326.044 179.577 322.701C181.816 321.741 183.994 320.599 185.983 319.184C202.541 307.406 200.356 282.802 211.305 266.867C215.814 260.306 226.056 251.799 233.212 259.985C248.86 277.886 228.703 299.77 222.626 316.487C218.661 327.397 221.081 341.55 209.925 348.534C207.691 349.932 205.275 350.997 202.763 351.784C194.323 354.429 185.399 354.895 177 351.854C169.791 349.244 163.092 343.567 154.979 344.238" stroke="#6D5DD3" stroke-width="11.7506" stroke-miterlimit="1.5" stroke-linecap="round" stroke-linejoin="round"/>
<path d="M640.245 191.083C635.954 212.895 653.335 225.99 653.632 246.663C653.991 271.683 627.045 302.581 613.07 322.025" stroke="#6D5DD3" stroke-width="11.7506" stroke-miterlimit="1.5" stroke-linecap="round" stroke-linejoin="round"/>
<path d="M593.581 305.95C581.824 321.209 570.992 316.657 557.001 329.068C550.196 335.103 538.161 346.493 540.167 356.401C542.028 365.593 553.187 375.379 560.782 374.052C576.406 371.321 601.804 345.076 616.25 353.772C626.231 359.781 631.97 370.521 642.025 376.288C652.517 382.305 663.667 379.452 674.733 382.831C683.942 385.643 690.5 392.892 699.383 396.129C713.306 401.203 732.57 394.406 742.634 407.181C753.215 420.613 750.282 435.553 751.871 451.3C752.99 462.377 756.847 472.591 759.851 483.213" stroke="#6D5DD3" stroke-width="11.7506" stroke-miterlimit="1.5" stroke-linecap="round" stroke-linejoin="round"/>
<path d="M87.9071 297.656C76.1504 312.915 57.5677 318.049 43.5763 330.46C36.7712 336.496 30.2399 342.922 32.2462 352.829C34.1069 362.022 45.4866 363.76 53.0815 362.433C68.7057 359.702 90.9097 345.075 105.356 353.772C115.336 359.78 121.076 370.521 131.13 376.287C141.623 382.305 152.772 379.452 163.839 382.831C173.047 385.642 179.605 392.892 188.488 396.129C202.411 401.203 221.674 394.406 231.738 407.181C242.32 420.613 239.386 435.553 240.977 451.3C242.096 462.377 245.953 472.591 248.957 483.213" stroke="#6D5DD3" stroke-width="11.7506" stroke-miterlimit="1.5" stroke-linecap="round" stroke-linejoin="round"/>
<path d="M637.783 455.596C663.173 470.102 680.879 481.436 711.317 479.224C729.264 477.919 732.539 450.318 719.676 440.181C710.469 432.925 696.413 434.878 685.503 434.832C670.23 434.767 653.409 432.526 639.411 426.106C625.981 419.947 616.918 407.603 604.822 399.488C601.601 397.326 594.348 392.488 591.442 396.699C580.787 412.14 597.554 429.641 604.297 442.921C609.978 454.11 612.298 467.611 614.125 479.943" stroke="#6D5DD3" stroke-width="11.7506" stroke-miterlimit="1.5" stroke-linecap="round" stroke-linejoin="round"/>
<path d="M126.888 455.596C152.278 470.102 169.984 481.436 200.423 479.224C218.368 477.919 221.645 450.318 208.781 440.181C199.574 432.925 185.518 434.878 174.608 434.832C159.335 434.767 142.514 432.526 128.516 426.106C115.087 419.947 106.023 407.603 93.9279 399.488C90.7067 397.326 83.4535 392.488 80.5475 396.699C69.8923 412.14 86.6599 429.641 93.4022 442.921C99.0833 454.11 101.404 467.611 103.23 479.943" stroke="#6D5DD3" stroke-width="11.7506" stroke-miterlimit="1.5" stroke-linecap="round" stroke-linejoin="round"/>
<path d="M407.334 404.582C415.774 393.154 425.756 393.219 435.014 404.163C446.222 417.411 448.88 436.84 469.381 437.902C499.972 439.487 503.94 398.966 530.357 386.807" stroke="#6D5DD3" stroke-width="11.7506" stroke-miterlimit="1.5" stroke-linecap="round" stroke-linejoin="round"/>
<path d="M436.966 447.886C446.951 463.924 465.23 475.663 484.684 470.462C500.395 466.262 516.17 452.771 527.212 441.286C533.727 434.51 545.61 411.926 556.849 415.489C565.039 418.085 569.424 427.244 570.959 435.09C574.18 451.569 568.005 468.078 576.491 483.672" stroke="#6D5DD3" stroke-width="11.7506" stroke-miterlimit="1.5" stroke-linecap="round" stroke-linejoin="round"/>
<path d="M550.341 452.237C550.341 464.706 540.128 475.831 548.566 516.433" stroke="#6D5DD3" stroke-width="11.7506" stroke-miterlimit="1.5" stroke-linecap="round" stroke-linejoin="round"/>
<path d="M550.341 -58.6572C550.341 -46.1883 540.128 -35.0631 548.566 5.5387" stroke="#6D5DD3" stroke-width="11.7506" stroke-miterlimit="1.5" stroke-linecap="round" stroke-linejoin="round"/>
<path d="M528.056 480.4C511.339 499.537 475.308 523.395 454.044 502.686C416.86 466.475 416.24 524.009 415.021 541.454" stroke="#6D5DD3" stroke-width="11.7506" stroke-miterlimit="1.5" stroke-linecap="round" stroke-linejoin="round"/>
<path d="M528.056 480.4C511.339 499.537 475.308 523.395 454.044 502.686C416.86 466.475 416.24 524.009 415.021 541.454" stroke="#6D5DD3" stroke-width="11.7506" stroke-miterlimit="1.5" stroke-linecap="round" stroke-linejoin="round"/>
<path d="M528.055 -30.4951C511.338 -11.3578 475.307 12.5004 454.043 -8.20868C429.979 -31.6429 421.229 -15.8163 417.72 2.99905" stroke="#6D5DD3" stroke-width="11.7506" stroke-miterlimit="1.5" stroke-linecap="round" stroke-linejoin="round"/>
<path d="M427.58 -37.4927C421.248 -18.8973 417.297 39.6634 384.557 36.8055" stroke="#6D5DD3" stroke-width="11.7506" stroke-miterlimit="1.5" stroke-linecap="round" stroke-linejoin="round"/>
<path d="M418.84 -66.4375C408.235 -58.5856 399.114 -49.5981 393.201 -36.8124C386.88 -23.1429 385.508 -7.97582 372.772 0.667647C354.825 12.8483 339.632 -2.34739 321.438 -2.90657C294.621 -3.73064 264.946 33.1415 205.408 -3.00583" stroke="#6D5DD3" stroke-width="11.7506" stroke-miterlimit="1.5" stroke-linecap="round" stroke-linejoin="round"/>
<path d="M418.84 444.79C408.235 452.642 399.114 461.629 393.202 474.415C386.88 488.085 385.509 503.252 372.772 511.895C354.825 524.076 339.632 508.88 321.438 508.321C291.863 504.344 276.299 544.204 206.354 509.002" stroke="#6D5DD3" stroke-width="11.7506" stroke-miterlimit="1.5" stroke-linecap="round" stroke-linejoin="round"/>
<path d="M278.776 484.127C270.901 445.845 300.174 438.541 344.825 477.774" stroke="#6D5DD3" stroke-width="11.7506" stroke-miterlimit="1.5" stroke-linecap="round" stroke-linejoin="round"/>
<path d="M434.923 31.895C457.573 26.9139 481.609 20.5424 504.824 25.1559C523.784 28.9232 540.292 39.9928 558.863 44.9415C588.681 52.8874 606.044 46.6036 625.742 75.7744" stroke="#6D5DD3" stroke-width="11.7506" stroke-miterlimit="1.5" stroke-linecap="round" stroke-linejoin="round"/>
<path d="M669.219 37.6616C657.914 53.5535 643.975 72.4888 646.736 93.2469" stroke="#6D5DD3" stroke-width="11.7506" stroke-miterlimit="1.5" stroke-linecap="round" stroke-linejoin="round"/>
<path d="M701.663 42.0039C692.416 54.5617 676.72 67.6881 673.982 83.7879C672.412 93.0254 676.363 102.068 675.926 111.389C675.696 116.313 676.247 138.906 681.816 141.524C694.985 147.713 713.23 120.746 728.022 119.975" stroke="#6D5DD3" stroke-width="11.7506" stroke-miterlimit="1.5" stroke-linecap="round" stroke-linejoin="round"/>
<path d="M225.463 45.272C277.408 51.7341 273.927 28.868 344.824 22.9187" stroke="#6D5DD3" stroke-width="11.7506" stroke-miterlimit="1.5" stroke-linecap="round" stroke-linejoin="round"/>
<path d="M183.511 92.8381C200.587 90.6744 217.882 88.3887 233.885 81.8027" stroke="#6D5DD3" stroke-width="11.7506" stroke-miterlimit="1.5" stroke-linecap="round" stroke-linejoin="round"/>
<path d="M694.713 92.8381C711.789 90.6744 729.084 88.3887 745.087 81.8027" stroke="#6D5DD3" stroke-width="11.7506" stroke-miterlimit="1.5" stroke-linecap="round" stroke-linejoin="round"/>
<path d="M294.912 311.695C292.111 319.824 289.428 328.331 288.389 336.882" stroke="#6D5DD3" stroke-width="11.7506" stroke-miterlimit="1.5" stroke-linecap="round" stroke-linejoin="round"/>
<path d="M584.052 21.8266C603.971 30.3475 627.476 -9.23347 709.925 -11.8916" stroke="#6D5DD3" stroke-width="11.7506" stroke-miterlimit="1.5" stroke-linecap="round" stroke-linejoin="round"/>
<path d="M584.052 21.8266C603.971 30.3475 627.476 -9.23347 709.925 -11.8916" stroke="#6D5DD3" stroke-width="11.7506" stroke-miterlimit="1.5" stroke-linecap="round" stroke-linejoin="round"/>
<path d="M584.052 533.03C603.971 541.551 653.634 476.776 751.16 522.874" stroke="#6D5DD3" stroke-width="11.7506" stroke-miterlimit="1.5" stroke-linecap="round" stroke-linejoin="round"/>
<path d="M584.052 22.2348C607.11 30.058 654.062 -34.9167 757.23 15.9536" stroke="#6D5DD3" stroke-width="11.7506" stroke-miterlimit="1.5" stroke-linecap="round" stroke-linejoin="round"/>
<path d="M267.229 76.4207C263.969 76.9577 259.963 77.4614 257.173 79.4452C252.199 82.9796 251.529 89.6667 251.99 95.3678C252.963 107.394 257.724 118.825 259.279 130.781C260.865 142.971 259.472 154.636 259.773 166.797C259.994 175.775 262.268 187.055 273.326 185.891C295.914 183.513 291.841 156.071 288.278 140.908C287.438 137.337 286.759 133.763 286.31 130.116C285.716 125.285 285.174 120.315 285.376 115.442C285.76 106.159 287.518 96.8524 289.82 87.8745C291.687 80.5922 293.955 73.1423 298.257 66.9212C310.469 49.2611 336.552 44.9185 356.177 48.0486C365.211 49.489 373.73 52.8373 382.402 55.6468" stroke="#6D5DD3" stroke-width="11.7506" stroke-miterlimit="1.5" stroke-linecap="round" stroke-linejoin="round"/>
<path d="M575.022 228.909C581.994 266.072 527.457 292.12 502.352 265.678C486.393 248.871 484.023 223.894 492.613 203.019C496.696 193.098 514.511 175.22 505.06 165.528C501.184 161.553 494.296 163.08 489.612 164.268C476.52 167.589 441.496 191.199 441.316 161.613C441.297 158.577 441.737 155.488 442.768 152.624C447 140.862 460.423 136.286 471.581 133.619C495.986 127.785 533.374 128.673 547.675 153.918C554.577 166.102 546.198 174.099 538.603 183.292C531.62 191.743 523.723 202.313 519.729 212.565C515.902 222.387 515.843 234.415 524.706 241.456C532.204 247.414 542.741 241.712 546.628 234.352C550.515 226.993 549.685 218.255 553.495 210.927C557.287 203.631 563.808 198.134 567.833 190.951C572.421 182.76 574.104 173.209 577.97 164.64C581.226 157.425 586.156 146.984 583.083 138.948C579.74 130.208 565.408 132.721 557.752 126.723C548.344 119.353 539.391 110.882 528.525 105.609C505.079 94.2336 473.584 94.8849 449.152 102.997C436.368 107.242 426.711 118.789 413.474 121.356C396.565 124.636 382.698 112.268 367.401 114.959C356.552 116.867 351.804 132.89 359.21 140.702C373.709 155.997 394.729 134.443 410.16 143.315" stroke="#6D5DD3" stroke-width="11.7506" stroke-miterlimit="1.5" stroke-linecap="round" stroke-linejoin="round"/>
<path d="M421.331 354.171C400.5 360.325 383.105 368.388 376.858 390.992C375.364 396.4 374.607 401.82 374.912 407.433C375.736 422.587 382.427 444.673 358.55 444.329C331.971 443.947 339.095 403.166 341.709 386.602C342.617 380.848 343.129 373.883 346.453 368.908C352.103 360.446 363.63 358.029 368.827 349.493C372.26 343.854 368.135 337.573 363.699 334.06C339.739 315.089 307.333 342.676 305.689 368.29C304.761 382.756 313.159 398.424 306.828 412.406C301.217 424.796 287.079 423.481 279.602 413.636C272.898 404.812 262.358 393.348 261.805 382.729C261.202 371.158 263.318 360.981 261.805 349.493C260.115 336.657 259.047 314.175 269.286 305.892" stroke="#6D5DD3" stroke-width="11.7506" stroke-miterlimit="1.5" stroke-linecap="round" stroke-linejoin="round"/>
</g>
</g>
<g opacity="0.1">
<g clip-path="url(#clip7_3437_94268)">
<path d="M1160.5 123.614C1159.25 121.167 1157.38 117.122 1154.77 115.915C1150.48 113.934 1145.91 117.25 1142.06 118.985C1134.93 122.195 1126.89 124.253 1120.12 119.106C1112.3 113.164 1109.97 101.928 1102.19 95.816C1092.46 88.1791 1079.81 86.7655 1068.99 81.6284C1059.82 77.2736 1052.25 70.0557 1043.07 65.6451C1026.74 57.7983 1001.17 54.0166 983.266 55.7547C967.416 57.2935 951.403 61.537 936.373 66.978C927.202 70.2978 918.803 75.2734 909.154 77.0738C886.157 81.3643 858.962 67.2749 839.747 86.1315C823.288 102.282 822.621 128.583 830.892 149.224C835.715 161.259 847.254 172.709 840.16 186.228C834.364 197.274 821.56 200.762 811.399 205.618C792.861 214.478 776.825 229.808 778.528 253.31" stroke="#6D5DD3" stroke-width="11.7506" stroke-miterlimit="1.5" stroke-linecap="round" stroke-linejoin="round"/>
<path d="M877.229 214.301C875.71 209.527 873.359 204.107 873.585 199.028C874.166 185.948 887.381 176.797 898.725 173.389C903.758 171.876 920.004 167.559 924.834 170.442C929.174 173.032 931.004 178.685 932.425 183.224C933.217 185.751 934.845 189.336 934.326 192.02C933.607 195.736 928.752 196.231 925.77 197.04C919.257 198.808 913.349 202.205 908.311 206.663C902.055 212.198 897.611 219.519 895.576 227.595C894.113 233.399 894.66 242.124 888.385 245.362C883.48 247.894 875.81 242.375 871.784 240.12C862.014 234.647 850.819 229.548 839.365 231.083C828.667 232.517 820.856 236.796 814.171 245.156C811.036 249.077 809.044 255.413 812.139 259.948C815.479 264.842 821.948 264.343 827.029 263.095C833.811 261.428 841.993 259.546 848.972 261C866.731 264.698 882.459 288.441 901.98 281.99C912.87 278.392 915.511 261.031 921.504 252.414C932.904 236.022 953.724 231.546 972.543 233.87" stroke="#6D5DD3" stroke-width="11.7506" stroke-miterlimit="1.5" stroke-linecap="round" stroke-linejoin="round"/>
<path d="M1188.29 200.12C1181.18 188.753 1178.35 171.108 1167.53 162.726C1148.63 148.101 1116.08 166.658 1114.7 188.869C1113.67 205.461 1119.77 219.89 1124.71 235.257C1126.87 241.986 1130.03 253.848 1126.57 260.678C1121.67 270.359 1112.59 271.837 1103.69 276.419C1093.98 281.419 1085.27 288.376 1075.63 293.617C1056.55 303.993 1034.25 312.855 1013.61 301.238C1000.98 294.132 991.601 282.188 979.54 274.161C969.151 267.248 951.253 262.092 943.722 275.73C932.859 295.404 957.075 298.677 967.133 305.892C976.446 312.572 982.042 322.869 990.753 330.127C1000.36 338.132 1031.93 342.1 1016.92 362.787C1013.56 367.411 1009.63 371.236 1006.54 376.146C1002.72 382.234 998.219 388.997 991.712 392.492C982.525 397.424 979.014 391.819 976.804 382.729C972.005 362.997 975.113 343.285 955.124 330.907C937.36 319.908 917.301 325.413 898.176 321.337C881.752 317.837 869.496 306.2 853.777 301.555" stroke="#6D5DD3" stroke-width="11.7506" stroke-miterlimit="1.5" stroke-linecap="round" stroke-linejoin="round"/>
<path d="M1189.36 201.875C1190.73 203.725 1192.32 205.54 1194.12 206.981C1205.8 216.339 1214.88 200.001 1218.67 191.537C1219.52 189.65 1220.2 187.662 1220.9 185.716C1221.83 183.141 1222.94 180.615 1224.22 178.201C1226.01 174.834 1228.03 171.323 1230.56 168.447C1237.52 160.531 1248.57 158.637 1255.7 167.3C1259.25 171.609 1261.08 177.366 1261.9 182.814C1263.61 194.074 1261.25 209.587 1252.92 217.967C1248.06 222.86 1241.48 225.478 1235.66 228.998C1228.07 233.595 1221.11 239.116 1215.21 245.766C1210.99 250.525 1207.33 256.023 1204.8 261.871C1201.7 269.061 1199.71 276.62 1194.47 282.653C1185.31 293.216 1167.47 301.015 1171.1 317.71C1173.76 329.963 1193.78 326.044 1201.58 322.701C1203.82 321.741 1205.99 320.599 1207.98 319.184C1224.54 307.406 1222.36 282.802 1233.3 266.867C1237.81 260.306 1248.05 251.799 1255.21 259.985C1270.86 277.886 1250.7 299.77 1244.63 316.487C1240.66 327.397 1243.08 341.55 1231.93 348.534C1229.69 349.932 1227.27 350.997 1224.76 351.784C1216.32 354.429 1207.4 354.895 1199 351.854C1191.79 349.244 1185.09 343.567 1176.98 344.238" stroke="#6D5DD3" stroke-width="11.7506" stroke-miterlimit="1.5" stroke-linecap="round" stroke-linejoin="round"/>
<path d="M678.467 201.875C679.833 203.725 681.421 205.54 683.221 206.981C694.909 216.339 703.982 200.001 707.776 191.537C708.622 189.65 709.307 187.662 710.006 185.716C710.932 183.141 712.043 180.615 713.327 178.201C715.119 174.834 717.132 171.323 719.661 168.447C726.623 160.531 737.677 158.637 744.806 167.3C748.351 171.609 750.184 177.366 751.01 182.814C752.716 194.074 750.354 209.587 742.03 217.967C737.17 222.86 730.582 225.478 724.77 228.998C717.179 233.595 710.22 239.116 704.318 245.766C700.093 250.525 696.432 256.023 693.909 261.871C690.807 269.061 688.811 276.62 683.578 282.653C674.415 293.216 656.577 301.015 660.202 317.71C662.863 329.963 682.886 326.044 690.682 322.701C692.922 321.741 695.1 320.599 697.089 319.184C713.647 307.406 711.461 282.802 722.41 266.867C726.919 260.306 737.161 251.799 744.317 259.985C759.966 277.886 739.809 299.77 733.732 316.487C729.766 327.397 732.187 341.55 721.031 348.534C718.797 349.932 716.38 350.997 713.868 351.784C705.429 354.429 696.504 354.895 688.106 351.854C680.897 349.244 674.198 343.567 666.084 344.238" stroke="#6D5DD3" stroke-width="11.7506" stroke-miterlimit="1.5" stroke-linecap="round" stroke-linejoin="round"/>
<path d="M1151.35 191.083C1147.06 212.895 1164.44 225.99 1164.74 246.663C1165.1 271.683 1138.15 302.581 1124.18 322.025" stroke="#6D5DD3" stroke-width="11.7506" stroke-miterlimit="1.5" stroke-linecap="round" stroke-linejoin="round"/>
<path d="M1104.69 305.95C1092.93 321.209 1082.1 316.657 1068.11 329.068C1061.3 335.103 1049.27 346.493 1051.27 356.401C1053.13 365.593 1064.29 375.379 1071.89 374.052C1087.51 371.321 1112.91 345.076 1127.36 353.772C1137.34 359.781 1143.08 370.521 1153.13 376.288C1163.62 382.305 1174.77 379.452 1185.84 382.831C1195.05 385.643 1201.61 392.892 1210.49 396.129C1224.41 401.203 1243.68 394.406 1253.74 407.181C1264.32 420.613 1261.39 435.553 1262.98 451.3C1264.1 462.377 1267.95 472.591 1270.96 483.213" stroke="#6D5DD3" stroke-width="11.7506" stroke-miterlimit="1.5" stroke-linecap="round" stroke-linejoin="round"/>
<path d="M599.013 297.656C587.256 312.915 568.673 318.049 554.682 330.46C547.877 336.496 541.345 342.922 543.352 352.829C545.212 362.022 556.592 363.76 564.187 362.433C579.811 359.702 602.015 345.075 616.461 353.772C626.442 359.78 632.181 370.521 642.236 376.287C652.728 382.305 663.878 379.452 674.944 382.831C684.153 385.642 690.711 392.892 699.594 396.129C713.517 401.203 732.779 394.406 742.843 407.181C753.425 420.613 750.492 435.553 752.082 451.3C753.201 462.377 757.058 472.591 760.062 483.213" stroke="#6D5DD3" stroke-width="11.7506" stroke-miterlimit="1.5" stroke-linecap="round" stroke-linejoin="round"/>
<path d="M1148.89 455.596C1174.28 470.102 1191.98 481.436 1222.42 479.224C1240.37 477.919 1243.64 450.318 1230.78 440.181C1221.57 432.925 1207.52 434.878 1196.61 434.832C1181.34 434.767 1164.51 432.526 1150.52 426.106C1137.09 419.947 1128.02 407.603 1115.93 399.488C1112.71 397.326 1105.45 392.488 1102.55 396.699C1091.89 412.14 1108.66 429.641 1115.4 442.921C1121.08 454.11 1123.4 467.611 1125.23 479.943" stroke="#6D5DD3" stroke-width="11.7506" stroke-miterlimit="1.5" stroke-linecap="round" stroke-linejoin="round"/>
<path d="M637.994 455.596C663.384 470.102 681.09 481.436 711.528 479.224C729.473 477.919 732.751 450.318 719.887 440.181C710.68 432.925 696.624 434.878 685.714 434.832C670.441 434.767 653.62 432.526 639.622 426.106C626.192 419.947 617.129 407.603 605.033 399.488C601.812 397.326 594.559 392.488 591.653 396.699C580.998 412.14 597.765 429.641 604.508 442.921C610.189 454.11 612.509 467.611 614.336 479.943" stroke="#6D5DD3" stroke-width="11.7506" stroke-miterlimit="1.5" stroke-linecap="round" stroke-linejoin="round"/>
<path d="M918.439 404.582C926.879 393.154 936.861 393.219 946.119 404.163C957.327 417.411 959.986 436.84 980.487 437.902C1011.08 439.487 1015.04 398.966 1041.46 386.807" stroke="#6D5DD3" stroke-width="11.7506" stroke-miterlimit="1.5" stroke-linecap="round" stroke-linejoin="round"/>
<path d="M948.071 447.886C958.056 463.924 976.335 475.663 995.79 470.462C1011.5 466.262 1027.28 452.771 1038.32 441.286C1044.83 434.51 1056.71 411.926 1067.95 415.489C1076.14 418.085 1080.53 427.244 1082.06 435.09C1085.29 451.569 1079.11 468.078 1087.6 483.672" stroke="#6D5DD3" stroke-width="11.7506" stroke-miterlimit="1.5" stroke-linecap="round" stroke-linejoin="round"/>
<path d="M1061.45 452.237C1061.45 464.706 1051.23 475.831 1059.67 516.433" stroke="#6D5DD3" stroke-width="11.7506" stroke-miterlimit="1.5" stroke-linecap="round" stroke-linejoin="round"/>
<path d="M1061.45 -58.6572C1061.45 -46.1883 1051.23 -35.0631 1059.67 5.5387" stroke="#6D5DD3" stroke-width="11.7506" stroke-miterlimit="1.5" stroke-linecap="round" stroke-linejoin="round"/>
<path d="M1039.16 480.4C1022.44 499.537 986.413 523.395 965.149 502.686C927.966 466.475 927.346 524.009 926.127 541.454" stroke="#6D5DD3" stroke-width="11.7506" stroke-miterlimit="1.5" stroke-linecap="round" stroke-linejoin="round"/>
<path d="M1039.16 480.4C1022.44 499.537 986.413 523.395 965.149 502.686C927.966 466.475 927.346 524.009 926.127 541.454" stroke="#6D5DD3" stroke-width="11.7506" stroke-miterlimit="1.5" stroke-linecap="round" stroke-linejoin="round"/>
<path d="M1039.16 -30.4951C1022.44 -11.3578 986.413 12.5004 965.148 -8.20868C941.085 -31.6429 932.335 -15.8163 928.825 2.99905" stroke="#6D5DD3" stroke-width="11.7506" stroke-miterlimit="1.5" stroke-linecap="round" stroke-linejoin="round"/>
<path d="M938.685 -37.4927C932.354 -18.8973 928.402 39.6634 895.662 36.8055" stroke="#6D5DD3" stroke-width="11.7506" stroke-miterlimit="1.5" stroke-linecap="round" stroke-linejoin="round"/>
<path d="M929.945 -66.4375C919.34 -58.5856 910.219 -49.5981 904.307 -36.8124C897.985 -23.1429 896.614 -7.97582 883.878 0.667647C865.93 12.8483 850.738 -2.34739 832.544 -2.90657C805.727 -3.73064 776.051 33.1415 716.514 -3.00583" stroke="#6D5DD3" stroke-width="11.7506" stroke-miterlimit="1.5" stroke-linecap="round" stroke-linejoin="round"/>
<path d="M929.945 444.79C919.341 452.642 910.22 461.629 904.307 474.415C897.985 488.085 896.614 503.252 883.878 511.895C865.93 524.076 850.738 508.88 832.544 508.321C802.968 504.344 787.405 544.204 717.46 509.002" stroke="#6D5DD3" stroke-width="11.7506" stroke-miterlimit="1.5" stroke-linecap="round" stroke-linejoin="round"/>
<path d="M789.882 484.127C782.007 445.845 811.279 438.541 855.93 477.774" stroke="#6D5DD3" stroke-width="11.7506" stroke-miterlimit="1.5" stroke-linecap="round" stroke-linejoin="round"/>
<path d="M946.028 31.895C968.679 26.9139 992.715 20.5424 1015.93 25.1559C1034.89 28.9232 1051.4 39.9928 1069.97 44.9415C1099.79 52.8874 1117.15 46.6036 1136.85 75.7744" stroke="#6D5DD3" stroke-width="11.7506" stroke-miterlimit="1.5" stroke-linecap="round" stroke-linejoin="round"/>
<path d="M1180.32 37.6616C1169.02 53.5535 1155.08 72.4888 1157.84 93.2469" stroke="#6D5DD3" stroke-width="11.7506" stroke-miterlimit="1.5" stroke-linecap="round" stroke-linejoin="round"/>
<path d="M1212.77 42.0039C1203.52 54.5617 1187.83 67.6881 1185.09 83.7879C1183.52 93.0254 1187.47 102.068 1187.03 111.389C1186.8 116.313 1187.35 138.906 1192.92 141.524C1206.09 147.713 1224.34 120.746 1239.13 119.975" stroke="#6D5DD3" stroke-width="11.7506" stroke-miterlimit="1.5" stroke-linecap="round" stroke-linejoin="round"/>
<path d="M736.568 45.272C788.513 51.7341 785.032 28.868 855.93 22.9187" stroke="#6D5DD3" stroke-width="11.7506" stroke-miterlimit="1.5" stroke-linecap="round" stroke-linejoin="round"/>
<path d="M694.616 92.8381C711.692 90.6744 728.987 88.3887 744.99 81.8027" stroke="#6D5DD3" stroke-width="11.7506" stroke-miterlimit="1.5" stroke-linecap="round" stroke-linejoin="round"/>
<path d="M1205.82 92.8381C1222.89 90.6744 1240.19 88.3887 1256.19 81.8027" stroke="#6D5DD3" stroke-width="11.7506" stroke-miterlimit="1.5" stroke-linecap="round" stroke-linejoin="round"/>
<path d="M806.018 311.695C803.217 319.824 800.534 328.331 799.494 336.882" stroke="#6D5DD3" stroke-width="11.7506" stroke-miterlimit="1.5" stroke-linecap="round" stroke-linejoin="round"/>
<path d="M1095.16 21.8266C1115.08 30.3475 1138.58 -9.23347 1221.03 -11.8916" stroke="#6D5DD3" stroke-width="11.7506" stroke-miterlimit="1.5" stroke-linecap="round" stroke-linejoin="round"/>
<path d="M1095.16 21.8266C1115.08 30.3475 1138.58 -9.23347 1221.03 -11.8916" stroke="#6D5DD3" stroke-width="11.7506" stroke-miterlimit="1.5" stroke-linecap="round" stroke-linejoin="round"/>
<path d="M1095.16 533.03C1115.08 541.551 1164.74 476.776 1262.27 522.874" stroke="#6D5DD3" stroke-width="11.7506" stroke-miterlimit="1.5" stroke-linecap="round" stroke-linejoin="round"/>
<path d="M1095.16 22.2348C1118.22 30.058 1165.17 -34.9167 1268.34 15.9536" stroke="#6D5DD3" stroke-width="11.7506" stroke-miterlimit="1.5" stroke-linecap="round" stroke-linejoin="round"/>
<path d="M778.334 76.4207C775.075 76.9577 771.068 77.4614 768.278 79.4452C763.305 82.9796 762.634 89.6667 763.095 95.3678C764.068 107.394 768.829 118.825 770.385 130.781C771.971 142.971 770.578 154.636 770.878 166.797C771.1 175.775 773.373 187.055 784.432 185.891C807.019 183.513 802.947 156.071 799.383 140.908C798.544 137.337 797.865 133.763 797.416 130.116C796.821 125.285 796.28 120.315 796.481 115.442C796.866 106.159 798.624 96.8524 800.925 87.8745C802.792 80.5922 805.061 73.1423 809.362 66.9212C821.574 49.2611 847.657 44.9185 867.282 48.0486C876.316 49.489 884.835 52.8373 893.507 55.6468" stroke="#6D5DD3" stroke-width="11.7506" stroke-miterlimit="1.5" stroke-linecap="round" stroke-linejoin="round"/>
<path d="M1086.13 228.909C1093.1 266.072 1038.56 292.12 1013.46 265.678C997.499 248.871 995.128 223.894 1003.72 203.019C1007.8 193.098 1025.62 175.22 1016.17 165.528C1012.29 161.553 1005.4 163.08 1000.72 164.268C987.626 167.589 952.602 191.199 952.421 161.613C952.403 158.577 952.843 155.488 953.874 152.624C958.106 140.862 971.528 136.286 982.687 133.619C1007.09 127.785 1044.48 128.673 1058.78 153.918C1065.68 166.102 1057.3 174.099 1049.71 183.292C1042.73 191.743 1034.83 202.313 1030.83 212.565C1027.01 222.387 1026.95 234.415 1035.81 241.456C1043.31 247.414 1053.85 241.712 1057.73 234.352C1061.62 226.993 1060.79 218.255 1064.6 210.927C1068.39 203.631 1074.91 198.134 1078.94 190.951C1083.53 182.76 1085.21 173.209 1089.08 164.64C1092.33 157.425 1097.26 146.984 1094.19 138.948C1090.85 130.208 1076.51 132.721 1068.86 126.723C1059.45 119.353 1050.5 110.882 1039.63 105.609C1016.18 94.2336 984.69 94.8849 960.257 102.997C947.474 107.242 937.816 118.789 924.579 121.356C907.67 124.636 893.804 112.268 878.506 114.959C867.657 116.867 862.909 132.89 870.315 140.702C884.814 155.997 905.835 134.443 921.265 143.315" stroke="#6D5DD3" stroke-width="11.7506" stroke-miterlimit="1.5" stroke-linecap="round" stroke-linejoin="round"/>
<path d="M932.437 354.171C911.605 360.325 894.21 368.388 887.964 390.992C886.47 396.4 885.712 401.82 886.018 407.433C886.842 422.587 893.533 444.673 869.655 444.329C843.077 443.947 850.2 403.166 852.815 386.602C853.722 380.848 854.235 373.883 857.558 368.908C863.209 360.446 874.736 358.029 879.933 349.493C883.365 343.854 879.241 337.573 874.804 334.06C850.845 315.089 818.438 342.676 816.794 368.29C815.866 382.756 824.265 398.424 817.933 412.406C812.323 424.796 798.184 423.481 790.707 413.636C784.004 404.812 773.464 393.348 772.911 382.729C772.308 371.158 774.423 360.981 772.911 349.493C771.221 336.657 770.152 314.175 780.392 305.892" stroke="#6D5DD3" stroke-width="11.7506" stroke-miterlimit="1.5" stroke-linecap="round" stroke-linejoin="round"/>
</g>
</g>
<g opacity="0.1">
<g clip-path="url(#clip8_3437_94268)">
<path d="M1671.4 123.614C1670.15 121.167 1668.28 117.122 1665.66 115.915C1661.37 113.934 1656.8 117.25 1652.95 118.985C1645.82 122.195 1637.78 124.253 1631.01 119.106C1623.2 113.164 1620.87 101.928 1613.08 95.816C1603.35 88.1791 1590.7 86.7655 1579.89 81.6284C1570.72 77.2736 1563.15 70.0557 1553.97 65.6451C1537.64 57.7983 1512.07 54.0166 1494.16 55.7547C1478.31 57.2935 1462.3 61.537 1447.27 66.978C1438.1 70.2978 1429.7 75.2734 1420.05 77.0738C1397.05 81.3643 1369.86 67.2749 1350.64 86.1315C1334.18 102.282 1333.52 128.583 1341.79 149.224C1346.61 161.259 1358.15 172.709 1351.05 186.228C1345.26 197.274 1332.45 200.762 1322.29 205.618C1303.76 214.478 1287.72 229.808 1289.42 253.31" stroke="#6D5DD3" stroke-width="11.7506" stroke-miterlimit="1.5" stroke-linecap="round" stroke-linejoin="round"/>
<path d="M1388.12 214.301C1386.6 209.527 1384.25 204.107 1384.48 199.028C1385.06 185.948 1398.28 176.797 1409.62 173.389C1414.65 171.876 1430.9 167.559 1435.73 170.442C1440.07 173.032 1441.9 178.685 1443.32 183.224C1444.11 185.751 1445.74 189.336 1445.22 192.02C1444.5 195.736 1439.65 196.231 1436.66 197.04C1430.15 198.808 1424.24 202.205 1419.21 206.663C1412.95 212.198 1408.51 219.519 1406.47 227.595C1405.01 233.399 1405.55 242.124 1399.28 245.362C1394.37 247.894 1386.7 242.375 1382.68 240.12C1372.91 234.647 1361.71 229.548 1350.26 231.083C1339.56 232.517 1331.75 236.796 1325.07 245.156C1321.93 249.077 1319.94 255.413 1323.03 259.948C1326.37 264.842 1332.84 264.343 1337.92 263.095C1344.71 261.428 1352.89 259.546 1359.87 261C1377.63 264.698 1393.35 288.441 1412.87 281.99C1423.76 278.392 1426.41 261.031 1432.4 252.414C1443.8 236.022 1464.62 231.546 1483.44 233.87" stroke="#6D5DD3" stroke-width="11.7506" stroke-miterlimit="1.5" stroke-linecap="round" stroke-linejoin="round"/>
<path d="M1699.19 200.12C1692.07 188.753 1689.25 171.108 1678.42 162.726C1659.53 148.101 1626.97 166.658 1625.59 188.869C1624.56 205.461 1630.67 219.89 1635.61 235.257C1637.77 241.986 1640.93 253.848 1637.47 260.678C1632.56 270.359 1623.49 271.837 1614.59 276.419C1604.88 281.419 1596.16 288.376 1586.53 293.617C1567.45 303.993 1545.15 312.855 1524.5 301.238C1511.88 294.132 1502.5 282.188 1490.43 274.161C1480.05 267.248 1462.15 262.092 1454.62 275.73C1443.75 295.404 1467.97 298.677 1478.03 305.892C1487.34 312.572 1492.94 322.869 1501.65 330.127C1511.25 338.132 1542.82 342.1 1527.81 362.787C1524.46 367.411 1520.52 371.236 1517.44 376.146C1513.62 382.234 1509.11 388.997 1502.61 392.492C1493.42 397.424 1489.91 391.819 1487.7 382.729C1482.9 362.997 1486.01 343.285 1466.02 330.907C1448.25 319.908 1428.2 325.413 1409.07 321.337C1392.65 317.837 1380.39 306.2 1364.67 301.555" stroke="#6D5DD3" stroke-width="11.7506" stroke-miterlimit="1.5" stroke-linecap="round" stroke-linejoin="round"/>
<path d="M1189.36 201.875C1190.73 203.725 1192.32 205.54 1194.12 206.981C1205.8 216.339 1214.88 200.001 1218.67 191.537C1219.52 189.65 1220.2 187.662 1220.9 185.716C1221.83 183.141 1222.94 180.615 1224.22 178.201C1226.01 174.834 1228.03 171.323 1230.56 168.447C1237.52 160.531 1248.57 158.637 1255.7 167.3C1259.25 171.609 1261.08 177.366 1261.9 182.814C1263.61 194.074 1261.25 209.587 1252.92 217.967C1248.06 222.86 1241.48 225.478 1235.66 228.998C1228.07 233.595 1221.11 239.116 1215.21 245.766C1210.99 250.525 1207.33 256.023 1204.8 261.871C1201.7 269.061 1199.71 276.62 1194.47 282.653C1185.31 293.216 1167.47 301.015 1171.1 317.71C1173.76 329.963 1193.78 326.044 1201.58 322.701C1203.82 321.741 1205.99 320.599 1207.98 319.184C1224.54 307.406 1222.36 282.802 1233.3 266.867C1237.81 260.306 1248.06 251.799 1255.21 259.985C1270.86 277.886 1250.7 299.77 1244.63 316.487C1240.66 327.397 1243.08 341.55 1231.93 348.534C1229.69 349.932 1227.27 350.997 1224.76 351.784C1216.32 354.429 1207.4 354.895 1199 351.854C1191.79 349.244 1185.09 343.567 1176.98 344.238" stroke="#6D5DD3" stroke-width="11.7506" stroke-miterlimit="1.5" stroke-linecap="round" stroke-linejoin="round"/>
<path d="M1109.91 297.656C1098.15 312.915 1079.57 318.049 1065.58 330.46C1058.77 336.496 1052.24 342.922 1054.25 352.829C1056.11 362.022 1067.49 363.76 1075.08 362.433C1090.71 359.702 1112.91 345.075 1127.36 353.772C1137.34 359.78 1143.08 370.521 1153.13 376.287C1163.62 382.305 1174.77 379.452 1185.84 382.831C1195.05 385.642 1201.61 392.892 1210.49 396.129C1224.41 401.203 1243.67 394.406 1253.74 407.181C1264.32 420.613 1261.39 435.553 1262.98 451.3C1264.1 462.377 1267.95 472.591 1270.96 483.213" stroke="#6D5DD3" stroke-width="11.7506" stroke-miterlimit="1.5" stroke-linecap="round" stroke-linejoin="round"/>
<path d="M1148.89 455.596C1174.28 470.102 1191.98 481.436 1222.42 479.224C1240.37 477.919 1243.65 450.318 1230.78 440.181C1221.57 432.925 1207.52 434.878 1196.61 434.832C1181.34 434.767 1164.51 432.526 1150.52 426.106C1137.09 419.947 1128.02 407.603 1115.93 399.488C1112.71 397.326 1105.45 392.488 1102.55 396.699C1091.89 412.14 1108.66 429.641 1115.4 442.921C1121.08 454.11 1123.4 467.611 1125.23 479.943" stroke="#6D5DD3" stroke-width="11.7506" stroke-miterlimit="1.5" stroke-linecap="round" stroke-linejoin="round"/>
<path d="M1429.33 404.582C1437.77 393.154 1447.76 393.219 1457.01 404.163C1468.22 417.411 1470.88 436.84 1491.38 437.902C1521.97 439.487 1525.94 398.966 1552.36 386.807" stroke="#6D5DD3" stroke-width="11.7506" stroke-miterlimit="1.5" stroke-linecap="round" stroke-linejoin="round"/>
<path d="M1550.06 480.4C1533.34 499.537 1497.31 523.395 1476.04 502.686C1438.86 466.475 1438.24 524.009 1437.02 541.454" stroke="#6D5DD3" stroke-width="11.7506" stroke-miterlimit="1.5" stroke-linecap="round" stroke-linejoin="round"/>
<path d="M1550.06 480.4C1533.34 499.537 1497.31 523.395 1476.04 502.686C1438.86 466.475 1438.24 524.009 1437.02 541.454" stroke="#6D5DD3" stroke-width="11.7506" stroke-miterlimit="1.5" stroke-linecap="round" stroke-linejoin="round"/>
<path d="M1550.06 -30.4951C1533.34 -11.3578 1497.31 12.5004 1476.04 -8.20868C1451.98 -31.6429 1443.23 -15.8163 1439.72 2.99905" stroke="#6D5DD3" stroke-width="11.7506" stroke-miterlimit="1.5" stroke-linecap="round" stroke-linejoin="round"/>
<path d="M1449.58 -37.4927C1443.25 -18.8973 1439.3 39.6634 1406.56 36.8055" stroke="#6D5DD3" stroke-width="11.7506" stroke-miterlimit="1.5" stroke-linecap="round" stroke-linejoin="round"/>
<path d="M1440.84 -66.4375C1430.23 -58.5856 1421.11 -49.5981 1415.2 -36.8124C1408.88 -23.1429 1407.51 -7.97582 1394.77 0.667647C1376.82 12.8483 1361.63 -2.34739 1343.44 -2.90657C1316.62 -3.73064 1286.95 33.1415 1227.41 -3.00583" stroke="#6D5DD3" stroke-width="11.7506" stroke-miterlimit="1.5" stroke-linecap="round" stroke-linejoin="round"/>
<path d="M1440.84 444.79C1430.24 452.642 1421.11 461.629 1415.2 474.415C1408.88 488.085 1407.51 503.252 1394.77 511.895C1376.82 524.076 1361.63 508.88 1343.44 508.321C1313.86 504.344 1298.3 544.204 1228.35 509.002" stroke="#6D5DD3" stroke-width="11.7506" stroke-miterlimit="1.5" stroke-linecap="round" stroke-linejoin="round"/>
<path d="M1300.78 484.127C1292.9 445.845 1322.17 438.541 1366.82 477.774" stroke="#6D5DD3" stroke-width="11.7506" stroke-miterlimit="1.5" stroke-linecap="round" stroke-linejoin="round"/>
<path d="M1247.46 45.272C1299.41 51.7341 1295.93 28.868 1366.82 22.9187" stroke="#6D5DD3" stroke-width="11.7506" stroke-miterlimit="1.5" stroke-linecap="round" stroke-linejoin="round"/>
<path d="M1205.51 92.8381C1222.59 90.6744 1239.88 88.3887 1255.88 81.8027" stroke="#6D5DD3" stroke-width="11.7506" stroke-miterlimit="1.5" stroke-linecap="round" stroke-linejoin="round"/>
<path d="M1316.91 311.695C1314.11 319.824 1311.43 328.331 1310.39 336.882" stroke="#6D5DD3" stroke-width="11.7506" stroke-miterlimit="1.5" stroke-linecap="round" stroke-linejoin="round"/>
<path d="M1289.23 76.4207C1285.97 76.9577 1281.96 77.4614 1279.17 79.4452C1274.2 82.9796 1273.53 89.6667 1273.99 95.3678C1274.96 107.394 1279.72 118.825 1281.28 130.781C1282.87 142.971 1281.47 154.636 1281.77 166.797C1281.99 175.775 1284.27 187.055 1295.33 185.891C1317.91 183.513 1313.84 156.071 1310.28 140.908C1309.44 137.337 1308.76 133.763 1308.31 130.116C1307.72 125.285 1307.17 120.315 1307.38 115.442C1307.76 106.159 1309.52 96.8524 1311.82 87.8745C1313.69 80.5922 1315.96 73.1423 1320.26 66.9212C1332.47 49.2611 1358.55 44.9185 1378.18 48.0486C1387.21 49.489 1395.73 52.8373 1404.4 55.6468" stroke="#6D5DD3" stroke-width="11.7506" stroke-miterlimit="1.5" stroke-linecap="round" stroke-linejoin="round"/>
<path d="M1597.02 228.909C1603.99 266.072 1549.46 292.12 1524.35 265.678C1508.39 248.871 1506.02 223.894 1514.61 203.019C1518.7 193.098 1536.51 175.22 1527.06 165.528C1523.18 161.553 1516.3 163.08 1511.61 164.268C1498.52 167.589 1463.5 191.199 1463.32 161.613C1463.3 158.577 1463.74 155.488 1464.77 152.624C1469 140.862 1482.42 136.286 1493.58 133.619C1517.99 127.785 1555.37 128.673 1569.67 153.918C1576.58 166.102 1568.2 174.099 1560.6 183.292C1553.62 191.743 1545.72 202.313 1541.73 212.565C1537.9 222.387 1537.84 234.415 1546.71 241.456C1554.2 247.414 1564.74 241.712 1568.63 234.352C1572.51 226.993 1571.69 218.255 1575.49 210.927C1579.29 203.631 1585.81 198.134 1589.83 190.951C1594.42 182.76 1596.1 173.209 1599.97 164.64C1603.23 157.425 1608.16 146.984 1605.08 138.948C1601.74 130.208 1587.41 132.721 1579.75 126.723C1570.34 119.353 1561.39 110.882 1550.52 105.609C1527.08 94.2336 1495.58 94.8849 1471.15 102.997C1458.37 107.242 1448.71 118.789 1435.47 121.356C1418.56 124.636 1404.7 112.268 1389.4 114.959C1378.55 116.867 1373.8 132.89 1381.21 140.702C1395.71 155.997 1416.73 134.443 1432.16 143.315" stroke="#6D5DD3" stroke-width="11.7506" stroke-miterlimit="1.5" stroke-linecap="round" stroke-linejoin="round"/>
<path d="M1443.33 354.171C1422.5 360.325 1405.1 368.388 1398.86 390.992C1397.36 396.4 1396.61 401.82 1396.91 407.433C1397.74 422.587 1404.43 444.673 1380.55 444.329C1353.97 443.947 1361.09 403.166 1363.71 386.602C1364.62 380.848 1365.13 373.883 1368.45 368.908C1374.1 360.446 1385.63 358.029 1390.83 349.493C1394.26 343.854 1390.14 337.573 1385.7 334.06C1361.74 315.089 1329.33 342.676 1327.69 368.29C1326.76 382.756 1335.16 398.424 1328.83 412.406C1323.22 424.796 1309.08 423.481 1301.6 413.636C1294.9 404.812 1284.36 393.348 1283.81 382.729C1283.2 371.158 1285.32 360.981 1283.81 349.493C1282.12 336.657 1281.05 314.175 1291.29 305.892" stroke="#6D5DD3" stroke-width="11.7506" stroke-miterlimit="1.5" stroke-linecap="round" stroke-linejoin="round"/>
</g>
</g>
</g>
<defs>
<clipPath id="clip0_3437_94268">
<rect width="1440" height="900" fill="white"/>
</clipPath>
<clipPath id="clip1_3437_94268">
<rect x="-293" y="511.106" width="510.894" height="510.894" rx="20.4358" fill="white"/>
</clipPath>
<clipPath id="clip2_3437_94268">
<rect x="217.895" y="511.106" width="510.894" height="510.894" rx="20.4358" fill="white"/>
</clipPath>
<clipPath id="clip3_3437_94268">
<rect x="729" y="511.106" width="510.894" height="510.894" rx="20.4358" fill="white"/>
</clipPath>
<clipPath id="clip4_3437_94268">
<rect x="1239.89" y="511.106" width="510.894" height="510.894" rx="20.4358" fill="white"/>
</clipPath>
<clipPath id="clip5_3437_94268">
<rect x="-293" width="510.894" height="510.894" rx="20.4358" fill="white"/>
</clipPath>
<clipPath id="clip6_3437_94268">
<rect x="217.895" width="510.894" height="510.894" rx="20.4358" fill="white"/>
</clipPath>
<clipPath id="clip7_3437_94268">
<rect x="729" width="510.894" height="510.894" rx="20.4358" fill="white"/>
</clipPath>
<clipPath id="clip8_3437_94268">
<rect x="1239.89" width="510.894" height="510.894" rx="20.4358" fill="white"/>
</clipPath>
</defs>
</svg>
