<svg width="1440" height="1108" viewBox="0 0 1440 1108" fill="none" xmlns="http://www.w3.org/2000/svg">
<g clip-path="url(#clip0_3663_90265)">
<rect width="1440" height="1108" fill="#F3F2FB"/>
<g opacity="0.3">
<g clip-path="url(#clip1_3663_90265)">
<rect x="-376.827" y="553.033" width="552.803" height="552.803" rx="22.1121" fill="white"/>
<path d="M90.0706 686.787C88.7201 684.139 86.6969 679.762 83.8671 678.456C79.2246 676.313 74.2814 679.901 70.1133 681.778C62.3984 685.252 53.6978 687.479 46.3743 681.909C37.9202 675.48 35.3983 663.322 26.972 656.709C16.4427 648.445 2.75974 646.916 -8.94256 641.357C-18.8643 636.645 -27.058 628.835 -36.9896 624.063C-54.6622 615.572 -82.3267 611.48 -101.704 613.361C-118.854 615.026 -136.18 619.618 -152.443 625.505C-162.367 629.097 -171.455 634.481 -181.895 636.429C-206.779 641.071 -236.204 625.826 -256.995 646.23C-274.805 663.705 -275.527 692.164 -266.577 714.498C-261.358 727.521 -248.873 739.909 -256.548 754.537C-262.82 766.489 -276.675 770.264 -287.669 775.518C-307.727 785.104 -325.079 801.692 -323.237 827.122" stroke="#F3F2FB" stroke-width="12.7145" stroke-miterlimit="1.5" stroke-linecap="round" stroke-linejoin="round"/>
<path d="M120.142 769.569C112.445 757.27 109.388 738.177 97.6716 729.108C77.2284 713.284 42.0054 733.362 40.5095 757.395C39.3923 775.348 46.0016 790.961 51.3445 807.589C53.6834 814.87 57.1047 827.704 53.3583 835.095C48.0497 845.571 38.2331 847.169 28.6032 852.127C18.0933 857.538 8.66745 865.065 -1.76118 870.736C-22.4056 881.963 -46.5355 891.552 -68.8732 878.982C-82.5352 871.294 -92.6852 858.369 -105.735 849.684C-116.977 842.203 -136.342 836.625 -144.491 851.382C-156.246 872.67 -130.044 876.211 -119.161 884.017C-109.084 891.245 -103.028 902.388 -93.6028 910.241C-83.209 918.902 -49.0486 923.196 -65.2927 945.58C-68.9235 950.584 -73.1818 954.722 -76.5157 960.035C-80.6518 966.623 -85.5242 973.94 -92.5652 977.722C-102.505 983.059 -106.304 976.993 -108.696 967.157C-113.889 945.808 -110.526 924.479 -132.154 911.085C-151.375 899.184 -173.079 905.141 -193.774 900.73C-211.545 896.943 -224.806 884.351 -241.814 879.325" stroke="#F3F2FB" stroke-width="12.7145" stroke-miterlimit="1.5" stroke-linecap="round" stroke-linejoin="round"/>
<path d="M121.298 771.468C122.776 773.47 124.495 775.434 126.443 776.993C139.09 787.118 148.906 769.44 153.012 760.281C153.927 758.239 154.668 756.089 155.425 753.983C156.426 751.197 157.629 748.464 159.018 745.851C160.957 742.208 163.135 738.41 165.871 735.297C173.404 726.732 185.363 724.682 193.08 734.056C196.917 738.719 198.896 744.948 199.791 750.843C201.638 763.027 199.084 779.812 190.073 788.88C184.816 794.174 177.69 797.007 171.399 800.815C163.186 805.789 155.657 811.763 149.27 818.959C144.698 824.108 140.737 830.057 138.007 836.385C134.651 844.165 132.491 852.344 126.829 858.872C116.914 870.301 97.6129 878.74 101.535 896.804C104.414 910.063 126.08 905.822 134.516 902.205C136.939 901.166 139.296 899.931 141.448 898.399C159.364 885.655 156.999 859.033 168.847 841.791C173.726 834.691 184.805 825.487 192.55 834.344C209.482 853.714 187.674 877.393 181.096 895.481C176.806 907.286 179.426 922.6 167.354 930.157C164.937 931.67 162.322 932.822 159.604 933.674C150.472 936.536 140.815 937.04 131.728 933.749C123.927 930.925 116.679 924.782 107.9 925.508" stroke="#F3F2FB" stroke-width="12.7145" stroke-miterlimit="1.5" stroke-linecap="round" stroke-linejoin="round"/>
<path d="M80.1693 759.791C75.5263 783.392 94.3337 797.561 94.6543 819.93C95.0429 847.002 65.8865 880.435 50.7656 901.475" stroke="#F3F2FB" stroke-width="12.7145" stroke-miterlimit="1.5" stroke-linecap="round" stroke-linejoin="round"/>
<path d="M29.6771 884.08C16.956 900.591 5.23544 895.666 -9.90364 909.094C-17.267 915.625 -30.2894 927.949 -28.1185 938.669C-26.1052 948.616 -14.0309 959.205 -5.81289 957.769C11.0929 954.814 38.575 926.415 54.2055 935.825C65.0051 942.327 71.2153 953.948 82.095 960.188C93.4479 966.699 105.512 963.612 117.487 967.268C127.45 970.31 134.547 978.155 144.158 981.657C159.223 987.148 180.067 979.792 190.958 993.615C202.406 1008.15 199.233 1024.31 200.952 1041.35C202.163 1053.34 206.337 1064.39 209.587 1075.88" stroke="#F3F2FB" stroke-width="12.7145" stroke-miterlimit="1.5" stroke-linecap="round" stroke-linejoin="round"/>
<path d="M77.5043 1046C104.977 1061.7 124.135 1073.96 157.071 1071.57C176.49 1070.16 180.033 1040.29 166.115 1029.32C156.153 1021.47 140.944 1023.58 129.139 1023.53C112.613 1023.46 94.4123 1021.04 79.2661 1014.09C64.7345 1007.43 54.9278 994.072 41.8402 985.291C38.3548 982.952 30.5066 977.717 27.3623 982.273C15.833 998.981 33.976 1017.92 41.2714 1032.29C47.4185 1044.39 49.9294 1059 51.9057 1072.35" stroke="#F3F2FB" stroke-width="12.7145" stroke-miterlimit="1.5" stroke-linecap="round" stroke-linejoin="round"/>
<path d="M-139.785 1037.66C-128.981 1055.01 -109.202 1067.72 -88.1522 1062.09C-71.1529 1057.54 -54.084 1042.95 -42.1357 1030.52C-35.0869 1023.19 -22.2293 998.75 -10.0682 1002.6C-1.20561 1005.41 3.53911 1015.32 5.19918 1023.81C8.68516 1041.65 2.00342 1059.51 11.1855 1076.38" stroke="#F3F2FB" stroke-width="12.7145" stroke-miterlimit="1.5" stroke-linecap="round" stroke-linejoin="round"/>
<path d="M-141.996 587.544C-117.488 582.154 -91.4798 575.26 -66.3604 580.252C-45.8453 584.328 -27.9831 596.306 -7.88871 601.661C24.3751 610.258 43.1627 603.459 64.476 635.023" stroke="#F3F2FB" stroke-width="12.7145" stroke-miterlimit="1.5" stroke-linecap="round" stroke-linejoin="round"/>
<path d="M111.52 593.784C99.2875 610.979 84.2054 631.468 87.1927 653.929" stroke="#F3F2FB" stroke-width="12.7145" stroke-miterlimit="1.5" stroke-linecap="round" stroke-linejoin="round"/>
<path d="M146.626 598.482C136.621 612.07 119.637 626.274 116.675 643.694C114.976 653.689 119.25 663.473 118.778 673.559C118.529 678.888 119.125 703.333 125.152 706.166C139.401 712.863 159.142 683.684 175.147 682.85" stroke="#F3F2FB" stroke-width="12.7145" stroke-miterlimit="1.5" stroke-linecap="round" stroke-linejoin="round"/>
<path d="M139.105 653.486C157.582 651.145 176.296 648.672 193.612 641.546" stroke="#F3F2FB" stroke-width="12.7145" stroke-miterlimit="1.5" stroke-linecap="round" stroke-linejoin="round"/>
<path d="M19.3672 576.65C40.9199 585.87 66.3533 543.042 155.566 540.166" stroke="#F3F2FB" stroke-width="12.7145" stroke-miterlimit="1.5" stroke-linecap="round" stroke-linejoin="round"/>
<path d="M19.3672 576.65C40.9199 585.87 66.3533 543.042 155.566 540.166" stroke="#F3F2FB" stroke-width="12.7145" stroke-miterlimit="1.5" stroke-linecap="round" stroke-linejoin="round"/>
<path d="M19.3672 1129.79C40.9199 1139.01 94.6574 1068.92 200.184 1118.8" stroke="#F3F2FB" stroke-width="12.7145" stroke-miterlimit="1.5" stroke-linecap="round" stroke-linejoin="round"/>
<path d="M19.3672 577.092C44.3174 585.557 95.1201 515.252 206.751 570.295" stroke="#F3F2FB" stroke-width="12.7145" stroke-miterlimit="1.5" stroke-linecap="round" stroke-linejoin="round"/>
<path d="M9.59629 800.719C17.1404 840.931 -41.8703 869.115 -69.0356 840.505C-86.303 822.318 -88.868 795.292 -79.5726 772.705C-75.1551 761.97 -55.8783 742.626 -66.1046 732.138C-70.2987 727.837 -77.7516 729.49 -82.8197 730.775C-96.9859 734.368 -134.883 759.916 -135.078 727.902C-135.098 724.617 -134.622 721.275 -133.507 718.176C-128.927 705.45 -114.404 700.498 -102.33 697.612C-75.9235 691.3 -35.4682 692.261 -19.9947 719.576C-12.5263 732.759 -21.5929 741.413 -29.8109 751.359C-37.366 760.504 -45.9112 771.941 -50.2331 783.034C-54.3741 793.662 -54.4377 806.677 -44.8477 814.296C-36.7347 820.742 -25.3331 814.573 -21.1268 806.609C-16.9217 798.645 -17.8189 789.191 -13.6972 781.262C-9.59371 773.367 -2.53773 767.42 1.81725 759.648C6.78198 750.785 8.60237 740.45 12.7854 731.178C16.3085 723.371 21.643 712.074 18.3179 703.378C14.7009 693.921 -0.806344 696.64 -9.09066 690.151C-19.2705 682.176 -28.9573 673.01 -40.7154 667.304C-66.0842 654.996 -100.163 655.701 -126.6 664.478C-140.432 669.071 -150.881 681.566 -165.204 684.344C-183.5 687.892 -198.504 674.51 -215.056 677.421C-226.796 679.486 -231.933 696.823 -223.92 705.277C-208.231 721.826 -185.486 698.504 -168.79 708.104" stroke="#F3F2FB" stroke-width="12.7145" stroke-miterlimit="1.5" stroke-linecap="round" stroke-linejoin="round"/>
</g>
</g>
<g opacity="0.3">
<g clip-path="url(#clip2_3663_90265)">
<rect x="175.977" y="553.033" width="552.803" height="552.803" rx="22.1121" fill="white"/>
<path d="M642.874 686.787C641.524 684.139 639.501 679.762 636.671 678.456C632.028 676.313 627.085 679.901 622.917 681.778C615.202 685.252 606.502 687.479 599.178 681.909C590.724 675.48 588.202 663.322 579.776 656.709C569.246 648.445 555.563 646.916 543.861 641.357C533.939 636.645 525.746 628.835 515.814 624.063C498.142 615.572 470.477 611.48 451.1 613.361C433.95 615.026 416.624 619.618 400.361 625.505C390.437 629.097 381.349 634.481 370.909 636.429C346.025 641.071 316.6 625.826 295.808 646.23C277.999 663.705 277.277 692.164 286.227 714.498C291.446 727.521 303.931 739.909 296.255 754.537C289.984 766.489 276.129 770.264 265.135 775.518C245.076 785.104 227.725 801.692 229.567 827.122" stroke="#F3F2FB" stroke-width="12.7145" stroke-miterlimit="1.5" stroke-linecap="round" stroke-linejoin="round"/>
<path d="M336.366 784.913C334.722 779.748 332.178 773.883 332.423 768.388C333.051 754.235 347.35 744.333 359.625 740.645C365.071 739.008 382.649 734.337 387.876 737.457C392.571 740.259 394.552 746.376 396.089 751.288C396.946 754.021 398.708 757.901 398.146 760.805C397.369 764.826 392.115 765.361 388.889 766.236C381.842 768.15 375.449 771.825 369.997 776.649C363.228 782.638 358.419 790.56 356.217 799.297C354.635 805.578 355.226 815.019 348.437 818.523C343.129 821.262 334.83 815.291 330.473 812.85C319.903 806.929 307.789 801.411 295.395 803.072C283.82 804.624 275.368 809.254 268.135 818.299C264.743 822.542 262.587 829.398 265.936 834.305C269.55 839.6 276.55 839.061 282.048 837.71C289.386 835.906 298.239 833.87 305.791 835.443C325.007 839.445 342.024 865.135 363.146 858.156C374.93 854.262 377.788 835.477 384.272 826.153C396.607 808.416 419.135 803.573 439.498 806.088" stroke="#F3F2FB" stroke-width="12.7145" stroke-miterlimit="1.5" stroke-linecap="round" stroke-linejoin="round"/>
<path d="M672.947 769.569C665.25 757.27 662.193 738.177 650.476 729.108C630.033 713.284 594.81 733.362 593.314 757.395C592.197 775.348 598.806 790.961 604.149 807.589C606.488 814.87 609.909 827.704 606.163 835.095C600.854 845.571 591.038 847.169 581.408 852.127C570.898 857.538 561.472 865.065 551.044 870.736C530.399 881.963 506.269 891.552 483.931 878.982C470.269 871.294 460.119 858.369 447.069 849.684C435.828 842.203 416.462 836.625 408.314 851.382C396.559 872.67 422.761 876.211 433.644 884.017C443.721 891.245 449.777 902.388 459.202 910.241C469.596 918.902 503.756 923.196 487.512 945.58C483.881 950.584 479.623 954.722 476.289 960.035C472.153 966.623 467.281 973.94 460.239 977.722C450.299 983.059 446.501 976.993 444.109 967.157C438.916 945.808 442.279 924.479 420.65 911.085C401.429 899.184 379.725 905.141 359.031 900.73C341.26 896.943 327.998 884.351 310.99 879.325" stroke="#F3F2FB" stroke-width="12.7145" stroke-miterlimit="1.5" stroke-linecap="round" stroke-linejoin="round"/>
<path d="M674.102 771.468C675.58 773.47 677.299 775.434 679.247 776.993C691.893 787.118 701.71 769.44 705.815 760.281C706.731 758.239 707.472 756.089 708.229 753.983C709.23 751.197 710.432 748.464 711.821 745.851C713.761 742.208 715.939 738.41 718.675 735.297C726.208 726.732 738.167 724.682 745.884 734.056C749.721 738.719 751.7 744.948 752.595 750.843C754.442 763.027 751.888 779.812 742.877 788.88C737.62 794.174 730.494 797.007 724.203 800.815C715.99 805.789 708.46 811.763 702.073 818.959C697.502 824.108 693.541 830.057 690.811 836.385C687.455 844.165 685.295 852.344 679.633 858.872C669.718 870.301 650.417 878.74 654.339 896.804C657.218 910.063 678.883 905.822 687.32 902.205C689.743 901.166 692.1 899.931 694.252 898.399C712.168 885.655 709.803 859.033 721.65 841.791C726.529 834.691 737.609 825.487 745.353 834.344C762.286 853.714 740.478 877.393 733.899 895.481C729.61 907.286 732.23 922.6 720.158 930.157C717.74 931.67 715.126 932.822 712.407 933.674C703.276 936.536 693.619 937.04 684.532 933.749C676.731 930.925 669.483 924.782 660.704 925.508" stroke="#F3F2FB" stroke-width="12.7145" stroke-miterlimit="1.5" stroke-linecap="round" stroke-linejoin="round"/>
<path d="M121.298 771.468C122.777 773.47 124.495 775.434 126.443 776.993C139.09 787.118 148.907 769.44 153.011 760.281C153.927 758.239 154.668 756.089 155.425 753.983C156.426 751.197 157.628 748.464 159.018 745.851C160.957 742.208 163.135 738.41 165.872 735.297C173.405 726.732 185.366 724.682 193.079 734.056C196.916 738.719 198.899 744.948 199.792 750.843C201.639 763.027 199.082 779.812 190.076 788.88C184.817 794.174 177.689 797.007 171.4 800.815C163.186 805.789 155.656 811.763 149.27 818.959C144.699 824.108 140.737 830.057 138.007 836.385C134.651 844.165 132.491 852.344 126.829 858.872C116.914 870.301 97.6129 878.74 101.535 896.804C104.414 910.063 126.08 905.822 134.516 902.205C136.939 901.166 139.296 899.931 141.448 898.399C159.364 885.655 156.999 859.033 168.846 841.791C173.725 834.691 184.807 825.487 192.551 834.344C209.483 853.714 187.672 877.393 181.097 895.481C176.806 907.286 179.425 922.6 167.354 930.157C164.937 931.67 162.322 932.822 159.604 933.674C150.472 936.536 140.815 937.04 131.728 933.749C123.928 930.925 116.679 924.782 107.9 925.508" stroke="#F3F2FB" stroke-width="12.7145" stroke-miterlimit="1.5" stroke-linecap="round" stroke-linejoin="round"/>
<path d="M632.974 759.791C628.331 783.392 647.138 797.561 647.459 819.93C647.848 847.002 618.691 880.435 603.57 901.475" stroke="#F3F2FB" stroke-width="12.7145" stroke-miterlimit="1.5" stroke-linecap="round" stroke-linejoin="round"/>
<path d="M582.481 884.08C569.76 900.591 558.039 895.666 542.9 909.094C535.537 915.625 522.514 927.949 524.685 938.669C526.699 948.616 538.773 959.205 546.991 957.769C563.897 954.814 591.379 926.415 607.009 935.825C617.809 942.327 624.019 953.948 634.899 960.188C646.252 966.699 658.316 963.612 670.29 967.268C680.254 970.31 687.35 978.155 696.962 981.657C712.027 987.148 732.871 979.792 743.761 993.615C755.21 1008.15 752.037 1024.31 753.756 1041.35C754.967 1053.34 759.14 1064.39 762.391 1075.88" stroke="#F3F2FB" stroke-width="12.7145" stroke-miterlimit="1.5" stroke-linecap="round" stroke-linejoin="round"/>
<path d="M35.3265 875.105C22.6054 891.616 2.49828 897.172 -12.6408 910.601C-20.0041 917.132 -27.0712 924.084 -24.9003 934.805C-22.887 944.752 -10.5739 946.633 -2.35588 945.197C14.55 942.242 38.5753 926.415 54.2064 935.825C65.0054 942.326 71.2162 953.947 82.0954 960.187C93.4483 966.699 105.513 963.612 117.487 967.268C127.451 970.31 134.547 978.154 144.159 981.657C159.224 987.147 180.066 979.792 190.956 993.615C202.406 1008.15 199.232 1024.31 200.953 1041.35C202.164 1053.34 206.337 1064.39 209.587 1075.88" stroke="#F3F2FB" stroke-width="12.7145" stroke-miterlimit="1.5" stroke-linecap="round" stroke-linejoin="round"/>
<path d="M630.308 1046C657.781 1061.7 676.939 1073.96 709.875 1071.57C729.294 1070.16 732.837 1040.29 718.919 1029.32C708.957 1021.47 693.748 1023.58 681.943 1023.53C665.417 1023.46 647.216 1021.04 632.07 1014.09C617.538 1007.43 607.732 994.072 594.644 985.291C591.158 982.952 583.31 977.717 580.166 982.273C568.637 998.981 586.78 1017.92 594.075 1032.29C600.222 1044.39 602.733 1059 604.709 1072.35" stroke="#F3F2FB" stroke-width="12.7145" stroke-miterlimit="1.5" stroke-linecap="round" stroke-linejoin="round"/>
<path d="M77.5053 1046C104.978 1061.7 124.137 1073.96 157.072 1071.57C176.489 1070.16 180.035 1040.29 166.116 1029.32C156.154 1021.47 140.945 1023.58 129.14 1023.53C112.614 1023.46 94.4134 1021.04 79.2671 1014.09C64.7355 1007.43 54.9288 994.072 41.8412 985.291C38.3558 982.952 30.5076 977.717 27.3633 982.273C15.834 998.981 33.977 1017.92 41.2723 1032.29C47.4195 1044.39 49.9304 1059 51.9066 1072.35" stroke="#F3F2FB" stroke-width="12.7145" stroke-miterlimit="1.5" stroke-linecap="round" stroke-linejoin="round"/>
<path d="M380.956 990.802C390.088 978.437 400.889 978.508 410.906 990.35C423.034 1004.68 425.911 1025.71 448.093 1026.86C481.194 1028.57 485.486 984.726 514.071 971.569" stroke="#F3F2FB" stroke-width="12.7145" stroke-miterlimit="1.5" stroke-linecap="round" stroke-linejoin="round"/>
<path d="M413.019 1037.66C423.823 1055.01 443.601 1067.72 464.652 1062.09C481.651 1057.54 498.72 1042.95 510.668 1030.52C517.717 1023.19 530.574 998.75 542.736 1002.6C551.598 1005.41 556.343 1015.32 558.003 1023.81C561.489 1041.65 554.807 1059.51 563.989 1076.38" stroke="#F3F2FB" stroke-width="12.7145" stroke-miterlimit="1.5" stroke-linecap="round" stroke-linejoin="round"/>
<path d="M535.694 1042.37C535.694 1055.86 524.644 1067.9 533.773 1111.83" stroke="#F3F2FB" stroke-width="12.7145" stroke-miterlimit="1.5" stroke-linecap="round" stroke-linejoin="round"/>
<path d="M535.694 489.563C535.694 503.055 524.644 515.093 533.773 559.025" stroke="#F3F2FB" stroke-width="12.7145" stroke-miterlimit="1.5" stroke-linecap="round" stroke-linejoin="round"/>
<path d="M511.58 1072.84C493.492 1093.55 454.505 1119.36 431.497 1096.96C391.263 1057.77 390.592 1120.03 389.273 1138.9" stroke="#F3F2FB" stroke-width="12.7145" stroke-miterlimit="1.5" stroke-linecap="round" stroke-linejoin="round"/>
<path d="M511.58 1072.84C493.492 1093.55 454.505 1119.36 431.497 1096.96C391.263 1057.77 390.592 1120.03 389.273 1138.9" stroke="#F3F2FB" stroke-width="12.7145" stroke-miterlimit="1.5" stroke-linecap="round" stroke-linejoin="round"/>
<path d="M511.581 520.036C493.492 540.743 454.506 566.559 431.497 544.151C405.459 518.794 395.992 535.919 392.194 556.278" stroke="#F3F2FB" stroke-width="12.7145" stroke-miterlimit="1.5" stroke-linecap="round" stroke-linejoin="round"/>
<path d="M402.862 512.464C396.011 532.585 391.735 595.95 356.31 592.857" stroke="#F3F2FB" stroke-width="12.7145" stroke-miterlimit="1.5" stroke-linecap="round" stroke-linejoin="round"/>
<path d="M393.406 481.146C381.932 489.642 372.062 499.366 365.665 513.201C358.825 527.992 357.341 544.403 343.56 553.755C324.14 566.935 307.701 550.493 288.015 549.888C258.998 548.996 226.888 588.893 162.467 549.781" stroke="#F3F2FB" stroke-width="12.7145" stroke-miterlimit="1.5" stroke-linecap="round" stroke-linejoin="round"/>
<path d="M393.406 1034.31C381.931 1042.81 372.062 1052.53 365.665 1066.36C358.824 1081.16 357.341 1097.57 343.56 1106.92C324.14 1120.1 307.701 1103.66 288.015 1103.05C256.013 1098.75 239.173 1141.88 163.49 1103.79" stroke="#F3F2FB" stroke-width="12.7145" stroke-miterlimit="1.5" stroke-linecap="round" stroke-linejoin="round"/>
<path d="M241.853 1076.87C233.332 1035.45 265.005 1027.55 313.319 1070" stroke="#F3F2FB" stroke-width="12.7145" stroke-miterlimit="1.5" stroke-linecap="round" stroke-linejoin="round"/>
<path d="M410.808 587.544C435.316 582.154 461.324 575.26 486.443 580.252C506.958 584.328 524.821 596.306 544.915 601.661C577.179 610.258 595.966 603.459 617.28 635.023" stroke="#F3F2FB" stroke-width="12.7145" stroke-miterlimit="1.5" stroke-linecap="round" stroke-linejoin="round"/>
<path d="M664.324 593.784C652.091 610.979 637.009 631.468 639.996 653.929" stroke="#F3F2FB" stroke-width="12.7145" stroke-miterlimit="1.5" stroke-linecap="round" stroke-linejoin="round"/>
<path d="M699.43 598.482C689.425 612.07 672.441 626.274 669.479 643.694C667.779 653.689 672.054 663.473 671.581 673.559C671.333 678.888 671.929 703.333 677.955 706.166C692.204 712.863 711.946 683.684 727.951 682.85" stroke="#F3F2FB" stroke-width="12.7145" stroke-miterlimit="1.5" stroke-linecap="round" stroke-linejoin="round"/>
<path d="M184.166 602.018C240.372 609.01 236.605 584.268 313.319 577.831" stroke="#F3F2FB" stroke-width="12.7145" stroke-miterlimit="1.5" stroke-linecap="round" stroke-linejoin="round"/>
<path d="M138.772 653.486C157.249 651.145 175.963 648.672 193.279 641.546" stroke="#F3F2FB" stroke-width="12.7145" stroke-miterlimit="1.5" stroke-linecap="round" stroke-linejoin="round"/>
<path d="M691.908 653.486C710.385 651.145 729.099 648.672 746.415 641.546" stroke="#F3F2FB" stroke-width="12.7145" stroke-miterlimit="1.5" stroke-linecap="round" stroke-linejoin="round"/>
<path d="M259.313 890.297C256.282 899.092 253.379 908.297 252.254 917.55" stroke="#F3F2FB" stroke-width="12.7145" stroke-miterlimit="1.5" stroke-linecap="round" stroke-linejoin="round"/>
<path d="M572.171 576.65C593.724 585.87 619.157 543.042 708.37 540.166" stroke="#F3F2FB" stroke-width="12.7145" stroke-miterlimit="1.5" stroke-linecap="round" stroke-linejoin="round"/>
<path d="M572.171 576.65C593.724 585.87 619.157 543.042 708.37 540.166" stroke="#F3F2FB" stroke-width="12.7145" stroke-miterlimit="1.5" stroke-linecap="round" stroke-linejoin="round"/>
<path d="M572.171 1129.79C593.724 1139.01 647.461 1068.92 752.987 1118.8" stroke="#F3F2FB" stroke-width="12.7145" stroke-miterlimit="1.5" stroke-linecap="round" stroke-linejoin="round"/>
<path d="M572.171 577.092C597.121 585.557 647.924 515.252 759.555 570.295" stroke="#F3F2FB" stroke-width="12.7145" stroke-miterlimit="1.5" stroke-linecap="round" stroke-linejoin="round"/>
<path d="M229.359 635.722C225.832 636.303 221.497 636.848 218.478 638.995C213.097 642.819 212.371 650.055 212.87 656.224C213.923 669.237 219.074 681.605 220.757 694.542C222.473 707.732 220.966 720.354 221.291 733.513C221.531 743.227 223.991 755.432 235.957 754.173C260.397 751.6 255.99 721.906 252.134 705.499C251.226 701.635 250.491 697.768 250.006 693.823C249.363 688.595 248.777 683.217 248.994 677.945C249.411 667.9 251.313 657.83 253.803 648.116C255.823 640.236 258.278 632.175 262.932 625.443C276.146 606.335 304.369 601.636 325.604 605.023C335.378 606.581 344.596 610.204 353.98 613.244" stroke="#F3F2FB" stroke-width="12.7145" stroke-miterlimit="1.5" stroke-linecap="round" stroke-linejoin="round"/>
<path d="M562.4 800.719C569.944 840.931 510.933 869.115 483.768 840.505C466.501 822.318 463.936 795.292 473.231 772.705C477.649 761.97 496.925 742.626 486.699 732.138C482.505 727.837 475.052 729.49 469.984 730.775C455.818 734.368 417.921 759.916 417.725 727.902C417.705 724.617 418.181 721.275 419.297 718.176C423.876 705.45 438.4 700.498 450.474 697.612C476.88 691.3 517.335 692.261 532.809 719.576C540.277 732.759 531.211 741.413 522.993 751.359C515.438 760.504 506.892 771.941 502.571 783.034C498.43 793.662 498.366 806.677 507.956 814.296C516.069 820.742 527.471 814.573 531.677 806.609C535.882 798.645 534.985 789.191 539.107 781.262C543.21 773.367 550.266 767.42 554.621 759.648C559.586 750.785 561.406 740.45 565.589 731.178C569.112 723.371 574.447 712.074 571.122 703.378C567.505 693.921 551.997 696.64 543.713 690.151C533.533 682.176 523.846 673.01 512.088 667.304C486.72 654.996 452.641 655.701 426.204 664.478C412.372 669.071 401.922 681.566 387.6 684.344C369.304 687.892 354.299 674.51 337.747 677.421C326.008 679.486 320.871 696.823 328.884 705.277C344.573 721.826 367.317 698.504 384.014 708.104" stroke="#F3F2FB" stroke-width="12.7145" stroke-miterlimit="1.5" stroke-linecap="round" stroke-linejoin="round"/>
<path d="M396.103 936.257C373.562 942.917 354.74 951.641 347.981 976.099C346.365 981.951 345.545 987.815 345.875 993.889C346.767 1010.29 354.007 1034.18 328.171 1033.81C299.412 1033.4 307.12 989.272 309.949 971.348C310.931 965.123 311.486 957.586 315.081 952.203C321.196 943.047 333.668 940.432 339.292 931.195C343.005 925.094 338.542 918.298 333.742 914.496C307.817 893.969 272.752 923.82 270.973 951.535C269.969 967.187 279.057 984.14 272.206 999.27C266.135 1012.68 250.837 1011.25 242.747 1000.6C235.493 991.052 224.089 978.648 223.49 967.158C222.838 954.638 225.127 943.626 223.49 931.195C221.662 917.307 220.505 892.98 231.585 884.018" stroke="#F3F2FB" stroke-width="12.7145" stroke-miterlimit="1.5" stroke-linecap="round" stroke-linejoin="round"/>
</g>
</g>
<g opacity="0.3">
<g clip-path="url(#clip3_3663_90265)">
<rect x="729.009" y="553.033" width="552.803" height="552.803" rx="22.1121" fill="white"/>
<path d="M1195.91 686.787C1194.56 684.139 1192.53 679.762 1189.7 678.456C1185.06 676.313 1180.12 679.901 1175.95 681.778C1168.24 685.252 1159.53 687.479 1152.21 681.909C1143.76 675.48 1141.24 663.322 1132.81 656.709C1122.28 648.445 1108.6 646.916 1096.89 641.357C1086.97 636.645 1078.78 628.835 1068.85 624.063C1051.17 615.572 1023.51 611.48 1004.13 613.361C986.983 615.026 969.657 619.618 953.394 625.505C943.47 629.097 934.382 634.481 923.942 636.429C899.058 641.071 869.633 625.826 848.841 646.23C831.032 663.705 830.31 692.164 839.26 714.498C844.479 727.521 856.964 739.909 849.289 754.537C843.017 766.489 829.162 770.264 818.168 775.518C798.11 785.104 780.758 801.692 782.6 827.122" stroke="#F3F2FB" stroke-width="12.7145" stroke-miterlimit="1.5" stroke-linecap="round" stroke-linejoin="round"/>
<path d="M889.398 784.913C887.754 779.748 885.21 773.883 885.455 768.388C886.083 754.235 900.382 744.333 912.657 740.645C918.103 739.008 935.681 734.337 940.908 737.457C945.604 740.259 947.584 746.376 949.122 751.288C949.978 754.021 951.74 757.901 951.178 760.805C950.401 764.826 945.147 765.361 941.921 766.236C934.874 768.15 928.481 771.825 923.029 776.649C916.26 782.638 911.451 790.56 909.25 799.297C907.667 805.578 908.258 815.019 901.469 818.523C896.161 821.262 887.862 815.291 883.506 812.85C872.935 806.929 860.821 801.411 848.427 803.072C836.852 804.624 828.4 809.254 821.167 818.299C817.775 822.542 815.62 829.398 818.969 834.305C822.582 839.6 829.582 839.061 835.08 837.71C842.418 835.906 851.272 833.87 858.823 835.443C878.039 839.445 895.056 865.135 916.178 858.156C927.963 854.262 930.82 835.477 937.304 826.153C949.64 808.416 972.168 803.573 992.531 806.088" stroke="#F3F2FB" stroke-width="12.7145" stroke-miterlimit="1.5" stroke-linecap="round" stroke-linejoin="round"/>
<path d="M1225.98 769.569C1218.28 757.27 1215.23 738.177 1203.51 729.108C1183.07 713.284 1147.84 733.362 1146.35 757.395C1145.23 775.348 1151.84 790.961 1157.18 807.589C1159.52 814.87 1162.94 827.704 1159.2 835.095C1153.89 845.571 1144.07 847.169 1134.44 852.127C1123.93 857.538 1114.5 865.065 1104.08 870.736C1083.43 881.963 1059.3 891.552 1036.96 878.982C1023.3 871.294 1013.15 858.369 1000.1 849.684C988.86 842.203 969.495 836.625 961.346 851.382C949.591 872.67 975.793 876.211 986.676 884.017C996.753 891.245 1002.81 902.388 1012.23 910.241C1022.63 918.902 1056.79 923.196 1040.54 945.58C1036.91 950.584 1032.66 954.722 1029.32 960.035C1025.19 966.623 1020.31 973.94 1013.27 977.722C1003.33 983.059 999.533 976.993 997.141 967.157C991.948 945.808 995.311 924.479 973.683 911.085C954.462 899.184 932.758 905.141 912.063 900.73C894.292 896.943 881.031 884.351 864.022 879.325" stroke="#F3F2FB" stroke-width="12.7145" stroke-miterlimit="1.5" stroke-linecap="round" stroke-linejoin="round"/>
<path d="M1227.13 771.468C1228.61 773.47 1230.33 775.434 1232.28 776.993C1244.93 787.118 1254.74 769.44 1258.85 760.281C1259.76 758.239 1260.5 756.089 1261.26 753.983C1262.26 751.197 1263.46 748.464 1264.85 745.851C1266.79 742.208 1268.97 738.41 1271.71 735.297C1279.24 726.732 1291.2 724.682 1298.92 734.056C1302.75 738.719 1304.73 744.948 1305.63 750.843C1307.47 763.027 1304.92 779.812 1295.91 788.88C1290.65 794.174 1283.53 797.007 1277.24 800.815C1269.02 805.789 1261.49 811.763 1255.11 818.959C1250.53 824.108 1246.57 830.057 1243.84 836.385C1240.49 844.165 1238.33 852.344 1232.67 858.872C1222.75 870.301 1203.45 878.74 1207.37 896.804C1210.25 910.063 1231.92 905.822 1240.35 902.205C1242.78 901.166 1245.13 899.931 1247.28 898.399C1265.2 885.655 1262.84 859.033 1274.68 841.791C1279.56 834.691 1290.64 825.487 1298.39 834.344C1315.32 853.714 1293.51 877.393 1286.93 895.481C1282.64 907.286 1285.26 922.6 1273.19 930.157C1270.77 931.67 1268.16 932.822 1265.44 933.674C1256.31 936.536 1246.65 937.04 1237.56 933.749C1229.76 930.925 1222.51 924.782 1213.74 925.508" stroke="#F3F2FB" stroke-width="12.7145" stroke-miterlimit="1.5" stroke-linecap="round" stroke-linejoin="round"/>
<path d="M674.331 771.468C675.809 773.47 677.527 775.434 679.475 776.993C692.122 787.118 701.939 769.44 706.044 760.281C706.959 758.239 707.7 756.089 708.457 753.983C709.459 751.197 710.661 748.464 712.05 745.851C713.989 742.208 716.167 738.41 718.904 735.297C726.437 726.732 738.398 724.682 746.112 734.056C749.948 738.719 751.931 744.948 752.824 750.843C754.671 763.027 752.114 779.812 743.108 788.88C737.849 794.174 730.721 797.007 724.432 800.815C716.218 805.789 708.689 811.763 702.302 818.959C697.731 824.108 693.769 830.057 691.039 836.385C687.683 844.165 685.523 852.344 679.861 858.872C669.946 870.301 650.645 878.74 654.567 896.804C657.446 910.063 679.112 905.822 687.548 902.205C689.971 901.166 692.328 899.931 694.48 898.399C712.396 885.655 710.032 859.033 721.879 841.791C726.758 834.691 737.84 825.487 745.583 834.344C762.515 853.714 740.705 877.393 734.129 895.481C729.838 907.286 732.457 922.6 720.386 930.157C717.969 931.67 715.354 932.822 712.636 933.674C703.504 936.536 693.847 937.04 684.76 933.749C676.96 930.925 669.711 924.782 660.932 925.508" stroke="#F3F2FB" stroke-width="12.7145" stroke-miterlimit="1.5" stroke-linecap="round" stroke-linejoin="round"/>
<path d="M1186.01 759.791C1181.36 783.392 1200.17 797.561 1200.49 819.93C1200.88 847.002 1171.72 880.435 1156.6 901.475" stroke="#F3F2FB" stroke-width="12.7145" stroke-miterlimit="1.5" stroke-linecap="round" stroke-linejoin="round"/>
<path d="M1135.51 884.08C1122.79 900.591 1111.07 895.666 1095.93 909.094C1088.57 915.625 1075.55 927.949 1077.72 938.669C1079.73 948.616 1091.81 959.205 1100.02 957.769C1116.93 954.814 1144.41 926.415 1160.04 935.825C1170.84 942.327 1177.05 953.948 1187.93 960.188C1199.28 966.699 1211.35 963.612 1223.32 967.268C1233.29 970.31 1240.38 978.155 1249.99 981.657C1265.06 987.148 1285.9 979.792 1296.79 993.615C1308.24 1008.15 1305.07 1024.31 1306.79 1041.35C1308 1053.34 1312.17 1064.39 1315.42 1075.88" stroke="#F3F2FB" stroke-width="12.7145" stroke-miterlimit="1.5" stroke-linecap="round" stroke-linejoin="round"/>
<path d="M588.359 875.105C575.638 891.616 555.531 897.172 540.391 910.601C533.028 917.132 525.961 924.084 528.132 934.805C530.145 944.752 542.458 946.633 550.676 945.197C567.582 942.242 591.608 926.415 607.239 935.825C618.038 942.326 624.248 953.947 635.128 960.187C646.481 966.699 658.545 963.612 670.519 967.268C680.483 970.31 687.579 978.154 697.191 981.657C712.256 987.147 733.098 979.792 743.988 993.615C755.438 1008.15 752.264 1024.31 753.985 1041.35C755.196 1053.34 759.369 1064.39 762.62 1075.88" stroke="#F3F2FB" stroke-width="12.7145" stroke-miterlimit="1.5" stroke-linecap="round" stroke-linejoin="round"/>
<path d="M1183.34 1046C1210.81 1061.7 1229.97 1073.96 1262.91 1071.57C1282.33 1070.16 1285.87 1040.29 1271.95 1029.32C1261.99 1021.47 1246.78 1023.58 1234.98 1023.53C1218.45 1023.46 1200.25 1021.04 1185.1 1014.09C1170.57 1007.43 1160.76 994.072 1147.68 985.291C1144.19 982.952 1136.34 977.717 1133.2 982.273C1121.67 998.981 1139.81 1017.92 1147.11 1032.29C1153.26 1044.39 1155.77 1059 1157.74 1072.35" stroke="#F3F2FB" stroke-width="12.7145" stroke-miterlimit="1.5" stroke-linecap="round" stroke-linejoin="round"/>
<path d="M630.538 1046C658.01 1061.7 677.169 1073.96 710.104 1071.57C729.521 1070.16 733.067 1040.29 719.148 1029.32C709.186 1021.47 693.977 1023.58 682.172 1023.53C665.646 1023.46 647.446 1021.04 632.299 1014.09C617.768 1007.43 607.961 994.072 594.873 985.291C591.388 982.952 583.54 977.717 580.395 982.273C568.866 998.981 587.009 1017.92 594.305 1032.29C600.452 1044.39 602.963 1059 604.939 1072.35" stroke="#F3F2FB" stroke-width="12.7145" stroke-miterlimit="1.5" stroke-linecap="round" stroke-linejoin="round"/>
<path d="M933.989 990.802C943.122 978.437 953.922 978.508 963.94 990.35C976.067 1004.68 978.944 1025.71 1001.13 1026.86C1034.23 1028.57 1038.52 984.726 1067.1 971.569" stroke="#F3F2FB" stroke-width="12.7145" stroke-miterlimit="1.5" stroke-linecap="round" stroke-linejoin="round"/>
<path d="M966.052 1037.66C976.856 1055.01 996.635 1067.72 1017.68 1062.09C1034.68 1057.54 1051.75 1042.95 1063.7 1030.52C1070.75 1023.19 1083.61 998.75 1095.77 1002.6C1104.63 1005.41 1109.38 1015.32 1111.04 1023.81C1114.52 1041.65 1107.84 1059.51 1117.02 1076.38" stroke="#F3F2FB" stroke-width="12.7145" stroke-miterlimit="1.5" stroke-linecap="round" stroke-linejoin="round"/>
<path d="M1088.73 1042.37C1088.73 1055.86 1077.68 1067.9 1086.81 1111.83" stroke="#F3F2FB" stroke-width="12.7145" stroke-miterlimit="1.5" stroke-linecap="round" stroke-linejoin="round"/>
<path d="M1088.73 489.563C1088.73 503.055 1077.68 515.093 1086.81 559.025" stroke="#F3F2FB" stroke-width="12.7145" stroke-miterlimit="1.5" stroke-linecap="round" stroke-linejoin="round"/>
<path d="M1064.61 1072.84C1046.53 1093.55 1007.54 1119.36 984.53 1096.96C944.296 1057.77 943.626 1120.03 942.307 1138.9" stroke="#F3F2FB" stroke-width="12.7145" stroke-miterlimit="1.5" stroke-linecap="round" stroke-linejoin="round"/>
<path d="M1064.61 1072.84C1046.53 1093.55 1007.54 1119.36 984.53 1096.96C944.296 1057.77 943.626 1120.03 942.307 1138.9" stroke="#F3F2FB" stroke-width="12.7145" stroke-miterlimit="1.5" stroke-linecap="round" stroke-linejoin="round"/>
<path d="M1064.61 520.036C1046.52 540.743 1007.54 566.559 984.529 544.151C958.492 518.794 949.024 535.919 945.227 556.278" stroke="#F3F2FB" stroke-width="12.7145" stroke-miterlimit="1.5" stroke-linecap="round" stroke-linejoin="round"/>
<path d="M955.895 512.464C949.044 532.585 944.769 595.95 909.343 592.857" stroke="#F3F2FB" stroke-width="12.7145" stroke-miterlimit="1.5" stroke-linecap="round" stroke-linejoin="round"/>
<path d="M946.438 481.146C934.964 489.642 925.095 499.366 918.697 513.201C911.857 527.992 910.373 544.403 896.592 553.755C877.172 566.935 860.733 550.493 841.047 549.888C812.03 548.996 779.921 588.893 715.499 549.781" stroke="#F3F2FB" stroke-width="12.7145" stroke-miterlimit="1.5" stroke-linecap="round" stroke-linejoin="round"/>
<path d="M946.438 1034.31C934.964 1042.81 925.094 1052.53 918.697 1066.36C911.856 1081.16 910.373 1097.57 896.592 1106.92C877.172 1120.1 860.733 1103.66 841.047 1103.05C809.045 1098.75 792.205 1141.88 716.522 1103.79" stroke="#F3F2FB" stroke-width="12.7145" stroke-miterlimit="1.5" stroke-linecap="round" stroke-linejoin="round"/>
<path d="M794.885 1076.87C786.364 1035.45 818.038 1027.55 866.352 1070" stroke="#F3F2FB" stroke-width="12.7145" stroke-miterlimit="1.5" stroke-linecap="round" stroke-linejoin="round"/>
<path d="M963.84 587.544C988.348 582.154 1014.36 575.26 1039.48 580.252C1059.99 584.328 1077.85 596.306 1097.95 601.661C1130.21 610.258 1149 603.459 1170.31 635.023" stroke="#F3F2FB" stroke-width="12.7145" stroke-miterlimit="1.5" stroke-linecap="round" stroke-linejoin="round"/>
<path d="M1217.36 593.784C1205.12 610.979 1190.04 631.468 1193.03 653.929" stroke="#F3F2FB" stroke-width="12.7145" stroke-miterlimit="1.5" stroke-linecap="round" stroke-linejoin="round"/>
<path d="M1252.46 598.482C1242.46 612.07 1225.47 626.274 1222.51 643.694C1220.81 653.689 1225.09 663.473 1224.61 673.559C1224.36 678.888 1224.96 703.333 1230.99 706.166C1245.24 712.863 1264.98 683.684 1280.98 682.85" stroke="#F3F2FB" stroke-width="12.7145" stroke-miterlimit="1.5" stroke-linecap="round" stroke-linejoin="round"/>
<path d="M737.198 602.018C793.404 609.01 789.637 584.268 866.351 577.831" stroke="#F3F2FB" stroke-width="12.7145" stroke-miterlimit="1.5" stroke-linecap="round" stroke-linejoin="round"/>
<path d="M691.805 653.486C710.282 651.145 728.995 648.672 746.311 641.546" stroke="#F3F2FB" stroke-width="12.7145" stroke-miterlimit="1.5" stroke-linecap="round" stroke-linejoin="round"/>
<path d="M1244.94 653.486C1263.42 651.145 1282.13 648.672 1299.45 641.546" stroke="#F3F2FB" stroke-width="12.7145" stroke-miterlimit="1.5" stroke-linecap="round" stroke-linejoin="round"/>
<path d="M812.346 890.297C809.315 899.092 806.412 908.297 805.287 917.55" stroke="#F3F2FB" stroke-width="12.7145" stroke-miterlimit="1.5" stroke-linecap="round" stroke-linejoin="round"/>
<path d="M1125.2 576.65C1146.76 585.87 1172.19 543.042 1261.4 540.166" stroke="#F3F2FB" stroke-width="12.7145" stroke-miterlimit="1.5" stroke-linecap="round" stroke-linejoin="round"/>
<path d="M1125.2 576.65C1146.76 585.87 1172.19 543.042 1261.4 540.166" stroke="#F3F2FB" stroke-width="12.7145" stroke-miterlimit="1.5" stroke-linecap="round" stroke-linejoin="round"/>
<path d="M1125.2 1129.79C1146.76 1139.01 1200.49 1068.92 1306.02 1118.8" stroke="#F3F2FB" stroke-width="12.7145" stroke-miterlimit="1.5" stroke-linecap="round" stroke-linejoin="round"/>
<path d="M1125.2 577.092C1150.15 585.557 1200.96 515.252 1312.59 570.295" stroke="#F3F2FB" stroke-width="12.7145" stroke-miterlimit="1.5" stroke-linecap="round" stroke-linejoin="round"/>
<path d="M782.391 635.722C778.864 636.303 774.529 636.848 771.51 638.995C766.129 642.819 765.403 650.055 765.902 656.224C766.955 669.237 772.106 681.605 773.789 694.542C775.506 707.732 773.998 720.354 774.323 733.513C774.563 743.227 777.023 755.432 788.989 754.173C813.429 751.6 809.022 721.906 805.167 705.499C804.258 701.635 803.524 697.768 803.038 693.823C802.395 688.595 801.809 683.217 802.027 677.945C802.443 667.9 804.345 657.83 806.836 648.116C808.855 640.236 811.31 632.175 815.965 625.443C829.178 606.335 857.401 601.636 878.636 605.023C888.411 606.581 897.629 610.204 907.012 613.244" stroke="#F3F2FB" stroke-width="12.7145" stroke-miterlimit="1.5" stroke-linecap="round" stroke-linejoin="round"/>
<path d="M1115.43 800.719C1122.98 840.931 1063.97 869.115 1036.8 840.505C1019.53 822.318 1016.97 795.292 1026.26 772.705C1030.68 761.97 1049.96 742.626 1039.73 732.138C1035.54 727.837 1028.09 729.49 1023.02 730.775C1008.85 734.368 970.954 759.916 970.758 727.902C970.739 724.617 971.215 721.275 972.33 718.176C976.91 705.45 991.433 700.498 1003.51 697.612C1029.91 691.3 1070.37 692.261 1085.84 719.576C1093.31 732.759 1084.24 741.413 1076.03 751.359C1068.47 760.504 1059.93 771.941 1055.6 783.034C1051.46 793.662 1051.4 806.677 1060.99 814.296C1069.1 820.742 1080.5 814.573 1084.71 806.609C1088.92 798.645 1088.02 789.191 1092.14 781.262C1096.24 773.367 1103.3 767.42 1107.65 759.648C1112.62 750.785 1114.44 740.45 1118.62 731.178C1122.15 723.371 1127.48 712.074 1124.15 703.378C1120.54 693.921 1105.03 696.64 1096.75 690.151C1086.57 682.176 1076.88 673.01 1065.12 667.304C1039.75 654.996 1005.67 655.701 979.237 664.478C965.405 669.071 954.955 681.566 940.633 684.344C922.337 687.892 907.333 674.51 890.78 677.421C879.041 679.486 873.904 696.823 881.917 705.277C897.606 721.826 920.351 698.504 937.047 708.104" stroke="#F3F2FB" stroke-width="12.7145" stroke-miterlimit="1.5" stroke-linecap="round" stroke-linejoin="round"/>
<path d="M949.135 936.257C926.594 942.917 907.772 951.641 901.013 976.099C899.397 981.951 898.577 987.815 898.908 993.889C899.799 1010.29 907.039 1034.18 881.203 1033.81C852.445 1033.4 860.152 989.272 862.981 971.348C863.963 965.123 864.518 957.586 868.114 952.203C874.228 943.047 886.7 940.432 892.324 931.195C896.037 925.094 891.575 918.298 886.774 914.496C860.849 893.969 825.784 923.82 824.006 951.535C823.002 967.187 832.089 984.14 825.238 999.27C819.167 1012.68 803.869 1011.25 795.779 1000.6C788.525 991.052 777.121 978.648 776.523 967.158C775.87 954.638 778.159 943.626 776.523 931.195C774.694 917.307 773.538 892.98 784.617 884.018" stroke="#F3F2FB" stroke-width="12.7145" stroke-miterlimit="1.5" stroke-linecap="round" stroke-linejoin="round"/>
</g>
</g>
<g opacity="0.3">
<g clip-path="url(#clip4_3663_90265)">
<rect x="1281.81" y="553.033" width="552.803" height="552.803" rx="22.1121" fill="white"/>
<path d="M1748.71 686.787C1747.36 684.139 1745.34 679.762 1742.51 678.456C1737.87 676.313 1732.92 679.901 1728.75 681.778C1721.04 685.252 1712.34 687.479 1705.01 681.909C1696.56 675.48 1694.04 663.322 1685.61 656.709C1675.08 648.445 1661.4 646.916 1649.7 641.357C1639.78 636.645 1631.58 628.835 1621.65 624.063C1603.98 615.572 1576.31 611.48 1556.94 613.361C1539.79 615.026 1522.46 619.618 1506.2 625.505C1496.27 629.097 1487.19 634.481 1476.75 636.429C1451.86 641.071 1422.44 625.826 1401.65 646.23C1383.84 663.705 1383.11 692.164 1392.06 714.498C1397.28 727.521 1409.77 739.909 1402.09 754.537C1395.82 766.489 1381.97 770.264 1370.97 775.518C1350.91 785.104 1333.56 801.692 1335.4 827.122" stroke="#F3F2FB" stroke-width="12.7145" stroke-miterlimit="1.5" stroke-linecap="round" stroke-linejoin="round"/>
<path d="M1442.2 784.913C1440.56 779.748 1438.01 773.883 1438.26 768.388C1438.89 754.235 1453.19 744.333 1465.46 740.645C1470.91 739.008 1488.49 734.337 1493.71 737.457C1498.41 740.259 1500.39 746.376 1501.93 751.288C1502.78 754.021 1504.54 757.901 1503.98 760.805C1503.2 764.826 1497.95 765.361 1494.72 766.236C1487.68 768.15 1481.28 771.825 1475.83 776.649C1469.06 782.638 1464.26 790.56 1462.05 799.297C1460.47 805.578 1461.06 815.019 1454.27 818.523C1448.97 821.262 1440.67 815.291 1436.31 812.85C1425.74 806.929 1413.63 801.411 1401.23 803.072C1389.66 804.624 1381.2 809.254 1373.97 818.299C1370.58 822.542 1368.42 829.398 1371.77 834.305C1375.39 839.6 1382.39 839.061 1387.88 837.71C1395.22 835.906 1404.08 833.87 1411.63 835.443C1430.84 839.445 1447.86 865.135 1468.98 858.156C1480.77 854.262 1483.62 835.477 1490.11 826.153C1502.44 808.416 1524.97 803.573 1545.33 806.088" stroke="#F3F2FB" stroke-width="12.7145" stroke-miterlimit="1.5" stroke-linecap="round" stroke-linejoin="round"/>
<path d="M1778.78 769.569C1771.09 757.27 1768.03 738.177 1756.31 729.108C1735.87 713.284 1700.65 733.362 1699.15 757.395C1698.03 775.348 1704.64 790.961 1709.99 807.589C1712.32 814.87 1715.75 827.704 1712 835.095C1706.69 845.571 1696.87 847.169 1687.24 852.127C1676.73 857.538 1667.31 865.065 1656.88 870.736C1636.23 881.963 1612.11 891.552 1589.77 878.982C1576.11 871.294 1565.96 858.369 1552.91 849.684C1541.66 842.203 1522.3 836.625 1514.15 851.382C1502.39 872.67 1528.6 876.211 1539.48 884.017C1549.56 891.245 1555.61 902.388 1565.04 910.241C1575.43 918.902 1609.59 923.196 1593.35 945.58C1589.72 950.584 1585.46 954.722 1582.12 960.035C1577.99 966.623 1573.12 973.94 1566.08 977.722C1556.14 983.059 1552.34 976.993 1549.94 967.157C1544.75 945.808 1548.11 924.479 1526.49 911.085C1507.27 899.184 1485.56 905.141 1464.87 900.73C1447.1 896.943 1433.83 884.351 1416.83 879.325" stroke="#F3F2FB" stroke-width="12.7145" stroke-miterlimit="1.5" stroke-linecap="round" stroke-linejoin="round"/>
<path d="M1227.13 771.468C1228.61 773.47 1230.33 775.434 1232.28 776.993C1244.93 787.118 1254.74 769.44 1258.85 760.281C1259.76 758.239 1260.5 756.089 1261.26 753.983C1262.26 751.197 1263.46 748.464 1264.85 745.851C1266.79 742.208 1268.97 738.41 1271.71 735.297C1279.24 726.732 1291.2 724.682 1298.92 734.056C1302.75 738.719 1304.73 744.948 1305.63 750.843C1307.47 763.027 1304.92 779.812 1295.91 788.88C1290.65 794.174 1283.52 797.007 1277.24 800.815C1269.02 805.789 1261.49 811.763 1255.11 818.959C1250.53 824.108 1246.57 830.057 1243.84 836.385C1240.49 844.165 1238.33 852.344 1232.66 858.872C1222.75 870.301 1203.45 878.74 1207.37 896.804C1210.25 910.063 1231.92 905.822 1240.35 902.205C1242.78 901.166 1245.13 899.931 1247.28 898.399C1265.2 885.655 1262.84 859.033 1274.68 841.791C1279.56 834.691 1290.64 825.487 1298.39 834.344C1315.32 853.714 1293.51 877.393 1286.93 895.481C1282.64 907.286 1285.26 922.6 1273.19 930.157C1270.77 931.67 1268.16 932.822 1265.44 933.674C1256.31 936.536 1246.65 937.04 1237.56 933.749C1229.76 930.925 1222.52 924.782 1213.74 925.508" stroke="#F3F2FB" stroke-width="12.7145" stroke-miterlimit="1.5" stroke-linecap="round" stroke-linejoin="round"/>
<path d="M1141.16 875.105C1128.44 891.616 1108.33 897.172 1093.2 910.601C1085.83 917.132 1078.76 924.084 1080.94 934.805C1082.95 944.752 1095.26 946.633 1103.48 945.197C1120.39 942.242 1144.41 926.415 1160.04 935.825C1170.84 942.326 1177.05 953.947 1187.93 960.187C1199.28 966.699 1211.35 963.612 1223.32 967.268C1233.29 970.31 1240.38 978.154 1249.99 981.657C1265.06 987.147 1285.9 979.792 1296.79 993.615C1308.24 1008.15 1305.07 1024.31 1306.79 1041.35C1308 1053.34 1312.17 1064.39 1315.42 1075.88" stroke="#F3F2FB" stroke-width="12.7145" stroke-miterlimit="1.5" stroke-linecap="round" stroke-linejoin="round"/>
<path d="M1183.34 1046C1210.81 1061.7 1229.97 1073.96 1262.91 1071.57C1282.32 1070.16 1285.87 1040.29 1271.95 1029.32C1261.99 1021.47 1246.78 1023.58 1234.98 1023.53C1218.45 1023.46 1200.25 1021.04 1185.1 1014.09C1170.57 1007.43 1160.76 994.072 1147.68 985.291C1144.19 982.952 1136.34 977.717 1133.2 982.273C1121.67 998.981 1139.81 1017.92 1147.11 1032.29C1153.26 1044.39 1155.77 1059 1157.74 1072.35" stroke="#F3F2FB" stroke-width="12.7145" stroke-miterlimit="1.5" stroke-linecap="round" stroke-linejoin="round"/>
<path d="M1499.24 481.146C1487.77 489.642 1477.9 499.366 1471.5 513.201C1464.66 527.992 1463.18 544.403 1449.4 553.755C1429.98 566.935 1413.54 550.493 1393.85 549.888C1364.83 548.996 1332.72 588.893 1268.3 549.781" stroke="#F3F2FB" stroke-width="12.7145" stroke-miterlimit="1.5" stroke-linecap="round" stroke-linejoin="round"/>
<path d="M1499.24 1034.31C1487.77 1042.81 1477.9 1052.53 1471.5 1066.36C1464.66 1081.16 1463.18 1097.57 1449.4 1106.92C1429.98 1120.1 1413.54 1103.66 1393.85 1103.05C1361.85 1098.75 1345.01 1141.88 1269.33 1103.79" stroke="#F3F2FB" stroke-width="12.7145" stroke-miterlimit="1.5" stroke-linecap="round" stroke-linejoin="round"/>
<path d="M1347.69 1076.87C1339.17 1035.45 1370.84 1027.55 1419.16 1070" stroke="#F3F2FB" stroke-width="12.7145" stroke-miterlimit="1.5" stroke-linecap="round" stroke-linejoin="round"/>
<path d="M1290 602.018C1346.21 609.01 1342.44 584.268 1419.15 577.831" stroke="#F3F2FB" stroke-width="12.7145" stroke-miterlimit="1.5" stroke-linecap="round" stroke-linejoin="round"/>
<path d="M1244.61 653.486C1263.09 651.145 1281.8 648.672 1299.12 641.546" stroke="#F3F2FB" stroke-width="12.7145" stroke-miterlimit="1.5" stroke-linecap="round" stroke-linejoin="round"/>
<path d="M1365.15 890.297C1362.12 899.092 1359.22 908.297 1358.09 917.55" stroke="#F3F2FB" stroke-width="12.7145" stroke-miterlimit="1.5" stroke-linecap="round" stroke-linejoin="round"/>
<path d="M1335.2 635.722C1331.67 636.303 1327.33 636.848 1324.31 638.995C1318.93 642.819 1318.21 650.055 1318.71 656.224C1319.76 669.237 1324.91 681.605 1326.59 694.542C1328.31 707.732 1326.8 720.354 1327.13 733.513C1327.37 743.227 1329.83 755.432 1341.79 754.173C1366.23 751.6 1361.83 721.906 1357.97 705.499C1357.06 701.635 1356.33 697.768 1355.84 693.823C1355.2 688.595 1354.61 683.217 1354.83 677.945C1355.25 667.9 1357.15 657.83 1359.64 648.116C1361.66 640.236 1364.11 632.175 1368.77 625.443C1381.98 606.335 1410.2 601.636 1431.44 605.023C1441.21 606.581 1450.43 610.204 1459.82 613.244" stroke="#F3F2FB" stroke-width="12.7145" stroke-miterlimit="1.5" stroke-linecap="round" stroke-linejoin="round"/>
<path d="M1668.24 800.719C1675.78 840.931 1616.77 869.115 1589.61 840.505C1572.34 822.318 1569.77 795.292 1579.07 772.705C1583.49 761.97 1602.76 742.626 1592.54 732.138C1588.34 727.837 1580.89 729.49 1575.82 730.775C1561.65 734.368 1523.76 759.916 1523.56 727.902C1523.54 724.617 1524.02 721.275 1525.13 718.176C1529.71 705.45 1544.24 700.498 1556.31 697.612C1582.72 691.3 1623.17 692.261 1638.65 719.576C1646.11 732.759 1637.05 741.413 1628.83 751.359C1621.27 760.504 1612.73 771.941 1608.41 783.034C1604.27 793.662 1604.2 806.677 1613.79 814.296C1621.91 820.742 1633.31 814.573 1637.51 806.609C1641.72 798.645 1640.82 789.191 1644.94 781.262C1649.05 773.367 1656.1 767.42 1660.46 759.648C1665.42 750.785 1667.24 740.45 1671.43 731.178C1674.95 723.371 1680.28 712.074 1676.96 703.378C1673.34 693.921 1657.83 696.64 1649.55 690.151C1639.37 682.176 1629.68 673.01 1617.93 667.304C1592.56 654.996 1558.48 655.701 1532.04 664.478C1518.21 669.071 1507.76 681.566 1493.44 684.344C1475.14 687.892 1460.14 674.51 1443.58 677.421C1431.84 679.486 1426.71 696.823 1434.72 705.277C1450.41 721.826 1473.15 698.504 1489.85 708.104" stroke="#F3F2FB" stroke-width="12.7145" stroke-miterlimit="1.5" stroke-linecap="round" stroke-linejoin="round"/>
<path d="M1501.94 936.257C1479.4 942.917 1460.58 951.641 1453.82 976.099C1452.2 981.951 1451.38 987.815 1451.71 993.889C1452.6 1010.29 1459.84 1034.18 1434.01 1033.81C1405.25 1033.4 1412.96 989.272 1415.78 971.348C1416.77 965.123 1417.32 957.586 1420.92 952.203C1427.03 943.047 1439.5 940.432 1445.13 931.195C1448.84 925.094 1444.38 918.298 1439.58 914.496C1413.65 893.969 1378.59 923.82 1376.81 951.535C1375.81 967.187 1384.89 984.14 1378.04 999.27C1371.97 1012.68 1356.67 1011.25 1348.58 1000.6C1341.33 991.052 1329.92 978.648 1329.33 967.158C1328.67 954.638 1330.96 943.626 1329.33 931.195C1327.5 917.307 1326.34 892.98 1337.42 884.018" stroke="#F3F2FB" stroke-width="12.7145" stroke-miterlimit="1.5" stroke-linecap="round" stroke-linejoin="round"/>
</g>
</g>
<g opacity="0.3">
<g clip-path="url(#clip5_3663_90265)">
<rect x="-376.827" width="552.803" height="552.803" rx="22.1121" fill="white"/>
<path d="M90.0706 133.755C88.7201 131.107 86.6969 126.73 83.8671 125.423C79.2246 123.28 74.2814 126.868 70.1133 128.746C62.3984 132.219 53.6978 134.446 46.3743 128.876C37.9202 122.447 35.3983 110.289 26.972 103.676C16.4427 95.4126 2.75974 93.883 -8.94256 88.3246C-18.8643 83.6125 -27.058 75.8025 -36.9896 71.0301C-54.6622 62.5396 -82.3267 58.4478 -101.704 60.3284C-118.854 61.9935 -136.18 66.585 -152.443 72.4724C-162.367 76.0645 -171.455 81.4483 -181.895 83.3963C-206.779 88.0388 -236.204 72.7936 -256.995 93.197C-274.805 110.673 -275.527 139.131 -266.577 161.465C-261.358 174.488 -248.873 186.876 -256.548 201.504C-262.82 213.457 -276.675 217.231 -287.669 222.486C-307.727 232.072 -325.079 248.659 -323.237 274.089" stroke="#F3F2FB" stroke-width="12.7145" stroke-miterlimit="1.5" stroke-linecap="round" stroke-linejoin="round"/>
<path d="M120.142 216.536C112.445 204.237 109.388 185.144 97.6716 176.074C77.2284 160.25 42.0054 180.329 40.5095 204.362C39.3923 222.315 46.0016 237.928 51.3445 254.556C53.6834 261.837 57.1047 274.671 53.3583 282.062C48.0497 292.537 38.2331 294.136 28.6032 299.094C18.0933 304.504 8.66745 312.032 -1.76118 317.703C-22.4056 328.93 -46.5355 338.518 -68.8732 325.949C-82.5352 318.26 -92.6852 305.336 -105.735 296.651C-116.977 289.17 -136.342 283.592 -144.491 298.349C-156.246 319.636 -130.044 323.178 -119.161 330.984C-109.084 338.212 -103.028 349.354 -93.6028 357.208C-83.209 365.869 -49.0486 370.163 -65.2927 392.547C-68.9235 397.551 -73.1818 401.689 -76.5157 407.001C-80.6518 413.59 -85.5242 420.907 -92.5652 424.688C-102.505 430.026 -106.304 423.96 -108.696 414.124C-113.889 392.774 -110.526 371.446 -132.154 358.052C-151.375 346.151 -173.079 352.107 -193.774 347.697C-211.545 343.909 -224.806 331.318 -241.814 326.292" stroke="#F3F2FB" stroke-width="12.7145" stroke-miterlimit="1.5" stroke-linecap="round" stroke-linejoin="round"/>
<path d="M121.298 218.435C122.776 220.437 124.495 222.401 126.443 223.96C139.09 234.086 148.906 216.407 153.012 207.249C153.927 205.207 154.668 203.056 155.425 200.95C156.426 198.164 157.629 195.431 159.018 192.819C160.957 189.175 163.135 185.377 165.871 182.265C173.404 173.699 185.363 171.65 193.08 181.024C196.917 185.686 198.896 191.915 199.791 197.811C201.638 209.994 199.084 226.78 190.073 235.847C184.816 241.142 177.69 243.974 171.399 247.782C163.186 252.756 155.657 258.731 149.27 265.926C144.698 271.075 140.737 277.025 138.007 283.352C134.651 291.133 132.491 299.311 126.829 305.839C116.914 317.269 97.6129 325.707 101.535 343.772C104.414 357.03 126.08 352.789 134.516 349.172C136.939 348.133 139.296 346.898 141.448 345.367C159.364 332.622 156.999 306 168.847 288.758C173.726 281.659 184.805 272.455 192.55 281.312C209.482 300.681 187.674 324.361 181.096 342.448C176.806 354.253 179.426 369.568 167.354 377.124C164.937 378.638 162.322 379.789 159.604 380.641C150.472 383.503 140.815 384.007 131.728 380.717C123.927 377.892 116.679 371.75 107.9 372.475" stroke="#F3F2FB" stroke-width="12.7145" stroke-miterlimit="1.5" stroke-linecap="round" stroke-linejoin="round"/>
<path d="M80.1693 206.758C75.5263 230.359 94.3337 244.528 94.6543 266.897C95.0429 293.969 65.8865 327.402 50.7656 348.441" stroke="#F3F2FB" stroke-width="12.7145" stroke-miterlimit="1.5" stroke-linecap="round" stroke-linejoin="round"/>
<path d="M29.6771 331.047C16.956 347.557 5.23544 342.633 -9.90364 356.061C-17.267 362.592 -30.2894 374.916 -28.1185 385.636C-26.1052 395.583 -14.0309 406.172 -5.81289 404.736C11.0929 401.781 38.575 373.382 54.2055 382.792C65.0051 389.294 71.2153 400.915 82.095 407.155C93.4479 413.666 105.512 410.579 117.487 414.235C127.45 417.277 134.547 425.121 144.158 428.624C159.223 434.114 180.067 426.759 190.958 440.582C202.406 455.116 199.233 471.281 200.952 488.321C202.163 500.306 206.337 511.358 209.587 522.851" stroke="#F3F2FB" stroke-width="12.7145" stroke-miterlimit="1.5" stroke-linecap="round" stroke-linejoin="round"/>
<path d="M77.5043 492.969C104.977 508.665 124.135 520.929 157.071 518.535C176.49 517.123 180.033 487.258 166.115 476.289C156.153 468.439 140.944 470.551 129.139 470.501C112.613 470.431 94.4123 468.007 79.2661 461.06C64.7345 454.395 54.9278 441.039 41.8402 432.258C38.3548 429.919 30.5066 424.684 27.3623 429.24C15.833 445.948 33.976 464.885 41.2714 479.254C47.4185 491.361 49.9294 505.969 51.9057 519.313" stroke="#F3F2FB" stroke-width="12.7145" stroke-miterlimit="1.5" stroke-linecap="round" stroke-linejoin="round"/>
<path d="M-139.785 484.627C-128.981 501.98 -109.202 514.682 -88.1522 509.054C-71.1529 504.509 -54.084 489.912 -42.1357 477.485C-35.0869 470.153 -22.2293 445.717 -10.0682 449.572C-1.20561 452.38 3.53911 462.291 5.19918 470.781C8.68516 488.612 2.00342 506.475 11.1855 523.348" stroke="#F3F2FB" stroke-width="12.7145" stroke-miterlimit="1.5" stroke-linecap="round" stroke-linejoin="round"/>
<path d="M-141.996 34.5113C-117.488 29.1215 -91.4798 22.2273 -66.3604 27.2194C-45.8453 31.2957 -27.9831 43.2733 -7.88871 48.628C24.3751 57.2257 43.1627 50.4264 64.476 81.9902" stroke="#F3F2FB" stroke-width="12.7145" stroke-miterlimit="1.5" stroke-linecap="round" stroke-linejoin="round"/>
<path d="M111.52 40.751C99.2875 57.9465 84.2054 78.435 87.1927 100.896" stroke="#F3F2FB" stroke-width="12.7145" stroke-miterlimit="1.5" stroke-linecap="round" stroke-linejoin="round"/>
<path d="M146.626 45.4497C136.621 59.0376 119.637 73.2408 116.675 90.6613C114.976 100.657 119.25 110.441 118.778 120.527C118.529 125.855 119.125 150.301 125.152 153.133C139.401 159.83 159.142 130.651 175.147 129.817" stroke="#F3F2FB" stroke-width="12.7145" stroke-miterlimit="1.5" stroke-linecap="round" stroke-linejoin="round"/>
<path d="M139.105 100.454C157.582 98.1126 176.296 95.6394 193.612 88.5132" stroke="#F3F2FB" stroke-width="12.7145" stroke-miterlimit="1.5" stroke-linecap="round" stroke-linejoin="round"/>
<path d="M19.3672 23.6174C40.9199 32.8373 66.3533 -9.99052 155.566 -12.8667" stroke="#F3F2FB" stroke-width="12.7145" stroke-miterlimit="1.5" stroke-linecap="round" stroke-linejoin="round"/>
<path d="M19.3672 23.6174C40.9199 32.8373 66.3533 -9.99052 155.566 -12.8667" stroke="#F3F2FB" stroke-width="12.7145" stroke-miterlimit="1.5" stroke-linecap="round" stroke-linejoin="round"/>
<path d="M19.3672 576.755C40.9199 585.975 94.6574 515.886 200.184 565.766" stroke="#F3F2FB" stroke-width="12.7145" stroke-miterlimit="1.5" stroke-linecap="round" stroke-linejoin="round"/>
<path d="M19.3672 24.0588C44.3174 32.5238 95.1201 -37.7809 206.751 17.2623" stroke="#F3F2FB" stroke-width="12.7145" stroke-miterlimit="1.5" stroke-linecap="round" stroke-linejoin="round"/>
<path d="M9.59629 247.687C17.1404 287.899 -41.8703 316.083 -69.0356 287.472C-86.303 269.286 -88.868 242.26 -79.5726 219.673C-75.1551 208.938 -55.8783 189.593 -66.1046 179.106C-70.2987 174.805 -77.7516 176.458 -82.8197 177.743C-96.9859 181.336 -134.883 206.884 -135.078 174.87C-135.098 171.585 -134.622 168.243 -133.507 165.144C-128.927 152.417 -114.404 147.465 -102.33 144.58C-75.9235 138.267 -35.4682 139.229 -19.9947 166.544C-12.5263 179.727 -21.5929 188.381 -29.8109 198.327C-37.366 207.472 -45.9112 218.909 -50.2331 230.002C-54.3741 240.63 -54.4377 253.645 -44.8477 261.263C-36.7347 267.71 -25.3331 261.54 -21.1268 253.577C-16.9217 245.613 -17.8189 236.159 -13.6972 228.229C-9.59371 220.335 -2.53773 214.387 1.81725 206.615C6.78198 197.752 8.60237 187.418 12.7854 178.146C16.3085 170.339 21.643 159.042 18.3179 150.346C14.7009 140.889 -0.806344 143.608 -9.09066 137.119C-19.2705 129.144 -28.9573 119.977 -40.7154 114.272C-66.0842 101.964 -100.163 102.668 -126.6 111.446C-140.432 116.039 -150.881 128.534 -165.204 131.311C-183.5 134.86 -198.504 121.478 -215.056 124.389C-226.796 126.454 -231.933 143.791 -223.92 152.244C-208.231 168.794 -185.486 145.471 -168.79 155.071" stroke="#F3F2FB" stroke-width="12.7145" stroke-miterlimit="1.5" stroke-linecap="round" stroke-linejoin="round"/>
</g>
</g>
<g opacity="0.3">
<g clip-path="url(#clip6_3663_90265)">
<rect x="175.977" width="552.803" height="552.803" rx="22.1121" fill="white"/>
<path d="M642.874 133.755C641.524 131.107 639.501 126.73 636.671 125.423C632.028 123.28 627.085 126.868 622.917 128.746C615.202 132.219 606.502 134.446 599.178 128.876C590.724 122.447 588.202 110.289 579.776 103.676C569.246 95.4126 555.563 93.883 543.861 88.3246C533.939 83.6125 525.746 75.8025 515.814 71.0301C498.142 62.5396 470.477 58.4478 451.1 60.3284C433.95 61.9935 416.624 66.585 400.361 72.4724C390.437 76.0645 381.349 81.4483 370.909 83.3963C346.025 88.0388 316.6 72.7936 295.808 93.197C277.999 110.673 277.277 139.131 286.227 161.465C291.446 174.488 303.931 186.876 296.255 201.504C289.984 213.457 276.129 217.231 265.135 222.486C245.076 232.072 227.725 248.659 229.567 274.089" stroke="#F3F2FB" stroke-width="12.7145" stroke-miterlimit="1.5" stroke-linecap="round" stroke-linejoin="round"/>
<path d="M336.366 231.88C334.722 226.715 332.178 220.85 332.423 215.355C333.051 201.202 347.35 191.301 359.625 187.612C365.071 185.975 382.649 181.304 387.876 184.424C392.571 187.226 394.552 193.343 396.089 198.255C396.946 200.988 398.708 204.868 398.146 207.772C397.369 211.793 392.115 212.328 388.889 213.204C381.842 215.117 375.449 218.793 369.997 223.616C363.228 229.605 358.419 237.527 356.217 246.265C354.635 252.545 355.226 261.986 348.437 265.49C343.129 268.229 334.83 262.258 330.473 259.817C319.903 253.896 307.789 248.379 295.395 250.039C283.82 251.591 275.368 256.221 268.135 265.266C264.743 269.509 262.587 276.365 265.936 281.273C269.55 286.567 276.55 286.028 282.048 284.677C289.386 282.873 298.239 280.838 305.791 282.41C325.007 286.412 342.024 312.102 363.146 305.123C374.93 301.229 377.788 282.444 384.272 273.12C396.607 255.383 419.135 250.541 439.498 253.055" stroke="#F3F2FB" stroke-width="12.7145" stroke-miterlimit="1.5" stroke-linecap="round" stroke-linejoin="round"/>
<path d="M672.947 216.536C665.25 204.237 662.193 185.144 650.476 176.074C630.033 160.25 594.81 180.329 593.314 204.362C592.197 222.315 598.806 237.928 604.149 254.556C606.488 261.837 609.909 274.671 606.163 282.062C600.854 292.537 591.038 294.136 581.408 299.094C570.898 304.504 561.472 312.032 551.044 317.703C530.399 328.93 506.269 338.518 483.931 325.949C470.269 318.26 460.119 305.336 447.069 296.651C435.828 289.17 416.462 283.592 408.314 298.349C396.559 319.636 422.761 323.178 433.644 330.984C443.721 338.212 449.777 349.354 459.202 357.208C469.596 365.869 503.756 370.163 487.512 392.547C483.881 397.551 479.623 401.689 476.289 407.001C472.153 413.59 467.281 420.907 460.239 424.688C450.299 430.026 446.501 423.96 444.109 414.124C438.916 392.774 442.279 371.446 420.65 358.052C401.429 346.151 379.725 352.107 359.031 347.697C341.26 343.909 327.998 331.318 310.99 326.292" stroke="#F3F2FB" stroke-width="12.7145" stroke-miterlimit="1.5" stroke-linecap="round" stroke-linejoin="round"/>
<path d="M674.102 218.435C675.58 220.437 677.299 222.401 679.247 223.96C691.893 234.086 701.71 216.407 705.815 207.249C706.731 205.207 707.472 203.056 708.229 200.95C709.23 198.164 710.432 195.431 711.821 192.819C713.761 189.175 715.939 185.377 718.675 182.265C726.208 173.699 738.167 171.65 745.884 181.024C749.721 185.686 751.7 191.915 752.595 197.811C754.442 209.994 751.888 226.78 742.877 235.847C737.62 241.142 730.494 243.974 724.203 247.782C715.99 252.756 708.46 258.731 702.073 265.926C697.502 271.075 693.541 277.025 690.811 283.352C687.455 291.133 685.295 299.311 679.633 305.839C669.718 317.269 650.417 325.707 654.339 343.772C657.218 357.03 678.883 352.789 687.32 349.172C689.743 348.133 692.1 346.898 694.252 345.367C712.168 332.622 709.803 306 721.65 288.758C726.529 281.659 737.609 272.455 745.353 281.312C762.286 300.681 740.478 324.361 733.899 342.448C729.61 354.253 732.23 369.568 720.158 377.124C717.74 378.638 715.126 379.789 712.407 380.641C703.276 383.503 693.619 384.007 684.532 380.717C676.731 377.892 669.483 371.75 660.704 372.475" stroke="#F3F2FB" stroke-width="12.7145" stroke-miterlimit="1.5" stroke-linecap="round" stroke-linejoin="round"/>
<path d="M121.298 218.435C122.777 220.437 124.495 222.401 126.443 223.96C139.09 234.086 148.907 216.407 153.011 207.249C153.927 205.207 154.668 203.056 155.425 200.95C156.426 198.164 157.628 195.431 159.018 192.819C160.957 189.175 163.135 185.377 165.872 182.265C173.405 173.699 185.366 171.65 193.079 181.024C196.916 185.686 198.899 191.915 199.792 197.811C201.639 209.994 199.082 226.78 190.076 235.847C184.817 241.142 177.689 243.974 171.4 247.782C163.186 252.756 155.656 258.731 149.27 265.926C144.699 271.075 140.737 277.025 138.007 283.352C134.651 291.133 132.491 299.311 126.829 305.839C116.914 317.269 97.6129 325.707 101.535 343.772C104.414 357.03 126.08 352.789 134.516 349.172C136.939 348.133 139.296 346.898 141.448 345.367C159.364 332.622 156.999 306 168.846 288.758C173.725 281.659 184.807 272.455 192.551 281.312C209.483 300.681 187.672 324.361 181.097 342.448C176.806 354.253 179.425 369.568 167.354 377.124C164.937 378.638 162.322 379.789 159.604 380.641C150.472 383.503 140.815 384.007 131.728 380.717C123.928 377.892 116.679 371.75 107.9 372.475" stroke="#F3F2FB" stroke-width="12.7145" stroke-miterlimit="1.5" stroke-linecap="round" stroke-linejoin="round"/>
<path d="M632.974 206.758C628.331 230.359 647.138 244.528 647.459 266.897C647.848 293.969 618.691 327.402 603.57 348.441" stroke="#F3F2FB" stroke-width="12.7145" stroke-miterlimit="1.5" stroke-linecap="round" stroke-linejoin="round"/>
<path d="M582.481 331.047C569.76 347.557 558.039 342.633 542.9 356.061C535.537 362.592 522.514 374.916 524.685 385.636C526.699 395.583 538.773 406.172 546.991 404.736C563.897 401.781 591.379 373.382 607.009 382.792C617.809 389.294 624.019 400.915 634.899 407.155C646.252 413.666 658.316 410.579 670.29 414.235C680.254 417.277 687.35 425.121 696.962 428.624C712.027 434.114 732.871 426.759 743.761 440.582C755.21 455.116 752.037 471.281 753.756 488.321C754.967 500.306 759.14 511.358 762.391 522.851" stroke="#F3F2FB" stroke-width="12.7145" stroke-miterlimit="1.5" stroke-linecap="round" stroke-linejoin="round"/>
<path d="M35.3265 322.073C22.6054 338.583 2.49828 344.139 -12.6408 357.568C-20.0041 364.099 -27.0712 371.052 -24.9003 381.772C-22.887 391.719 -10.5739 393.6 -2.35588 392.164C14.55 389.209 38.5753 373.382 54.2064 382.792C65.0054 389.294 71.2162 400.915 82.0954 407.155C93.4483 413.666 105.513 410.579 117.487 414.235C127.451 417.277 134.547 425.121 144.159 428.624C159.224 434.114 180.066 426.759 190.956 440.582C202.406 455.116 199.232 471.282 200.953 488.321C202.164 500.306 206.337 511.358 209.587 522.851" stroke="#F3F2FB" stroke-width="12.7145" stroke-miterlimit="1.5" stroke-linecap="round" stroke-linejoin="round"/>
<path d="M630.308 492.969C657.781 508.665 676.939 520.929 709.875 518.535C729.294 517.123 732.837 487.258 718.919 476.289C708.957 468.439 693.748 470.551 681.943 470.501C665.417 470.431 647.216 468.007 632.07 461.06C617.538 454.395 607.732 441.039 594.644 432.258C591.158 429.919 583.31 424.684 580.166 429.24C568.637 445.948 586.78 464.885 594.075 479.254C600.222 491.361 602.733 505.969 604.709 519.313" stroke="#F3F2FB" stroke-width="12.7145" stroke-miterlimit="1.5" stroke-linecap="round" stroke-linejoin="round"/>
<path d="M77.5053 492.969C104.978 508.665 124.137 520.929 157.072 518.535C176.489 517.123 180.035 487.258 166.116 476.289C156.154 468.439 140.945 470.551 129.14 470.501C112.614 470.431 94.4134 468.007 79.2671 461.06C64.7355 454.395 54.9288 441.039 41.8412 432.258C38.3558 429.919 30.5076 424.684 27.3633 429.24C15.834 445.948 33.977 464.885 41.2723 479.254C47.4195 491.361 49.9304 505.969 51.9066 519.313" stroke="#F3F2FB" stroke-width="12.7145" stroke-miterlimit="1.5" stroke-linecap="round" stroke-linejoin="round"/>
<path d="M380.956 437.77C390.088 425.405 400.889 425.476 410.906 437.318C423.034 451.652 425.911 472.675 448.093 473.824C481.194 475.539 485.486 431.694 514.071 418.537" stroke="#F3F2FB" stroke-width="12.7145" stroke-miterlimit="1.5" stroke-linecap="round" stroke-linejoin="round"/>
<path d="M413.019 484.627C423.823 501.98 443.601 514.682 464.652 509.054C481.651 504.509 498.72 489.912 510.668 477.485C517.717 470.153 530.574 445.717 542.736 449.572C551.598 452.38 556.343 462.291 558.003 470.781C561.489 488.612 554.807 506.475 563.989 523.348" stroke="#F3F2FB" stroke-width="12.7145" stroke-miterlimit="1.5" stroke-linecap="round" stroke-linejoin="round"/>
<path d="M535.694 489.334C535.694 502.826 524.644 514.864 533.773 558.796" stroke="#F3F2FB" stroke-width="12.7145" stroke-miterlimit="1.5" stroke-linecap="round" stroke-linejoin="round"/>
<path d="M535.694 -63.4692C535.694 -49.9775 524.644 -37.9397 533.773 5.99274" stroke="#F3F2FB" stroke-width="12.7145" stroke-miterlimit="1.5" stroke-linecap="round" stroke-linejoin="round"/>
<path d="M511.58 519.808C493.492 540.515 454.505 566.33 431.497 543.922C391.263 504.741 390.592 566.994 389.273 585.87" stroke="#F3F2FB" stroke-width="12.7145" stroke-miterlimit="1.5" stroke-linecap="round" stroke-linejoin="round"/>
<path d="M511.58 519.808C493.492 540.515 454.505 566.33 431.497 543.922C391.263 504.741 390.592 566.994 389.273 585.87" stroke="#F3F2FB" stroke-width="12.7145" stroke-miterlimit="1.5" stroke-linecap="round" stroke-linejoin="round"/>
<path d="M511.581 -32.9966C493.492 -12.2894 454.506 13.5259 431.497 -8.88197C405.459 -34.2386 395.992 -17.1136 392.194 3.24515" stroke="#F3F2FB" stroke-width="12.7145" stroke-miterlimit="1.5" stroke-linecap="round" stroke-linejoin="round"/>
<path d="M402.862 -40.5684C396.011 -20.4475 391.735 42.9169 356.31 39.8246" stroke="#F3F2FB" stroke-width="12.7145" stroke-miterlimit="1.5" stroke-linecap="round" stroke-linejoin="round"/>
<path d="M393.406 -71.8872C381.932 -63.3912 372.062 -53.6664 365.665 -39.832C358.825 -25.0411 357.341 -8.62984 343.56 0.722654C324.14 13.9025 307.701 -2.53971 288.015 -3.14476C258.998 -4.03643 226.888 35.8604 162.467 -3.25217" stroke="#F3F2FB" stroke-width="12.7145" stroke-miterlimit="1.5" stroke-linecap="round" stroke-linejoin="round"/>
<path d="M393.406 481.277C381.931 489.773 372.062 499.498 365.665 513.332C358.824 528.123 357.341 544.534 343.56 553.887C324.14 567.067 307.701 550.624 288.015 550.019C256.013 545.716 239.173 588.845 163.49 550.757" stroke="#F3F2FB" stroke-width="12.7145" stroke-miterlimit="1.5" stroke-linecap="round" stroke-linejoin="round"/>
<path d="M241.853 523.841C233.332 482.418 265.005 474.515 313.319 516.967" stroke="#F3F2FB" stroke-width="12.7145" stroke-miterlimit="1.5" stroke-linecap="round" stroke-linejoin="round"/>
<path d="M410.808 34.5113C435.316 29.1215 461.324 22.2273 486.443 27.2194C506.958 31.2957 524.821 43.2733 544.915 48.628C577.179 57.2257 595.966 50.4264 617.28 81.9902" stroke="#F3F2FB" stroke-width="12.7145" stroke-miterlimit="1.5" stroke-linecap="round" stroke-linejoin="round"/>
<path d="M664.324 40.751C652.091 57.9465 637.009 78.435 639.996 100.896" stroke="#F3F2FB" stroke-width="12.7145" stroke-miterlimit="1.5" stroke-linecap="round" stroke-linejoin="round"/>
<path d="M699.43 45.4497C689.425 59.0376 672.441 73.2408 669.479 90.6613C667.779 100.657 672.054 110.441 671.581 120.527C671.333 125.855 671.929 150.301 677.955 153.133C692.204 159.83 711.946 130.651 727.951 129.817" stroke="#F3F2FB" stroke-width="12.7145" stroke-miterlimit="1.5" stroke-linecap="round" stroke-linejoin="round"/>
<path d="M184.166 48.9854C240.372 55.9776 236.605 31.2357 313.319 24.7984" stroke="#F3F2FB" stroke-width="12.7145" stroke-miterlimit="1.5" stroke-linecap="round" stroke-linejoin="round"/>
<path d="M138.772 100.454C157.249 98.1126 175.963 95.6394 193.279 88.5132" stroke="#F3F2FB" stroke-width="12.7145" stroke-miterlimit="1.5" stroke-linecap="round" stroke-linejoin="round"/>
<path d="M691.908 100.454C710.385 98.1126 729.099 95.6394 746.415 88.5132" stroke="#F3F2FB" stroke-width="12.7145" stroke-miterlimit="1.5" stroke-linecap="round" stroke-linejoin="round"/>
<path d="M259.313 337.264C256.282 346.059 253.379 355.264 252.254 364.517" stroke="#F3F2FB" stroke-width="12.7145" stroke-miterlimit="1.5" stroke-linecap="round" stroke-linejoin="round"/>
<path d="M572.171 23.6174C593.724 32.8373 619.157 -9.99052 708.37 -12.8667" stroke="#F3F2FB" stroke-width="12.7145" stroke-miterlimit="1.5" stroke-linecap="round" stroke-linejoin="round"/>
<path d="M572.171 23.6174C593.724 32.8373 619.157 -9.99052 708.37 -12.8667" stroke="#F3F2FB" stroke-width="12.7145" stroke-miterlimit="1.5" stroke-linecap="round" stroke-linejoin="round"/>
<path d="M572.171 576.755C593.724 585.975 647.461 515.886 752.987 565.766" stroke="#F3F2FB" stroke-width="12.7145" stroke-miterlimit="1.5" stroke-linecap="round" stroke-linejoin="round"/>
<path d="M572.171 24.0588C597.121 32.5238 647.924 -37.7809 759.555 17.2623" stroke="#F3F2FB" stroke-width="12.7145" stroke-miterlimit="1.5" stroke-linecap="round" stroke-linejoin="round"/>
<path d="M229.359 82.6896C225.832 83.2706 221.497 83.8157 218.478 85.9622C213.097 89.7865 212.371 97.0222 212.87 103.191C213.923 116.204 219.074 128.572 220.757 141.509C222.473 154.699 220.966 167.321 221.291 180.48C221.531 190.194 223.991 202.399 235.957 201.14C260.397 198.567 255.99 168.873 252.134 152.467C251.226 148.603 250.491 144.736 250.006 140.79C249.363 135.563 248.777 130.184 248.994 124.912C249.411 114.868 251.313 104.797 253.803 95.0829C255.823 87.2033 258.278 79.1423 262.932 72.4108C276.146 53.3021 304.369 48.6032 325.604 51.9901C335.378 53.5486 344.596 57.1716 353.98 60.2115" stroke="#F3F2FB" stroke-width="12.7145" stroke-miterlimit="1.5" stroke-linecap="round" stroke-linejoin="round"/>
<path d="M562.4 247.687C569.944 287.899 510.933 316.083 483.768 287.472C466.501 269.286 463.936 242.26 473.231 219.673C477.649 208.938 496.925 189.593 486.699 179.106C482.505 174.805 475.052 176.458 469.984 177.743C455.818 181.336 417.921 206.884 417.725 174.87C417.705 171.585 418.181 168.243 419.297 165.144C423.876 152.417 438.4 147.465 450.474 144.58C476.88 138.267 517.335 139.229 532.809 166.544C540.277 179.727 531.211 188.381 522.993 198.327C515.438 207.472 506.892 218.909 502.571 230.002C498.43 240.63 498.366 253.645 507.956 261.263C516.069 267.71 527.471 261.54 531.677 253.577C535.882 245.613 534.985 236.159 539.107 228.229C543.21 220.335 550.266 214.387 554.621 206.615C559.586 197.752 561.406 187.418 565.589 178.146C569.112 170.339 574.447 159.042 571.122 150.346C567.505 140.889 551.997 143.608 543.713 137.119C533.533 129.144 523.846 119.977 512.088 114.272C486.72 101.964 452.641 102.668 426.204 111.446C412.372 116.039 401.922 128.534 387.6 131.311C369.304 134.86 354.299 121.478 337.747 124.389C326.008 126.454 320.871 143.791 328.884 152.244C344.573 168.794 367.317 145.471 384.014 155.071" stroke="#F3F2FB" stroke-width="12.7145" stroke-miterlimit="1.5" stroke-linecap="round" stroke-linejoin="round"/>
<path d="M396.103 383.224C373.562 389.883 354.74 398.608 347.981 423.066C346.365 428.917 345.545 434.782 345.875 440.856C346.767 457.252 354.007 481.15 328.171 480.778C299.412 480.365 307.12 436.239 309.949 418.315C310.931 412.089 311.486 404.553 315.081 399.17C321.196 390.014 333.668 387.399 339.292 378.162C343.005 372.061 338.542 365.265 333.742 361.463C307.817 340.936 272.752 370.787 270.973 398.502C269.969 414.154 279.057 431.107 272.206 446.237C266.135 459.643 250.837 458.219 242.747 447.567C235.493 438.019 224.089 425.615 223.49 414.124C222.838 401.605 225.127 390.593 223.49 378.162C221.662 364.274 220.505 339.947 231.585 330.984" stroke="#F3F2FB" stroke-width="12.7145" stroke-miterlimit="1.5" stroke-linecap="round" stroke-linejoin="round"/>
</g>
</g>
<g opacity="0.3">
<g clip-path="url(#clip7_3663_90265)">
<rect x="729.009" width="552.803" height="552.803" rx="22.1121" fill="white"/>
<path d="M1195.91 133.755C1194.56 131.107 1192.53 126.73 1189.7 125.423C1185.06 123.28 1180.12 126.868 1175.95 128.746C1168.24 132.219 1159.53 134.446 1152.21 128.876C1143.76 122.447 1141.24 110.289 1132.81 103.676C1122.28 95.4126 1108.6 93.883 1096.89 88.3246C1086.97 83.6125 1078.78 75.8025 1068.85 71.0301C1051.17 62.5396 1023.51 58.4478 1004.13 60.3284C986.983 61.9935 969.657 66.585 953.394 72.4724C943.47 76.0645 934.382 81.4483 923.942 83.3963C899.058 88.0388 869.633 72.7936 848.841 93.197C831.032 110.673 830.31 139.131 839.26 161.465C844.479 174.488 856.964 186.876 849.289 201.504C843.017 213.457 829.162 217.231 818.168 222.486C798.11 232.072 780.758 248.659 782.6 274.089" stroke="#F3F2FB" stroke-width="12.7145" stroke-miterlimit="1.5" stroke-linecap="round" stroke-linejoin="round"/>
<path d="M889.398 231.88C887.754 226.715 885.21 220.85 885.455 215.355C886.083 201.202 900.382 191.301 912.657 187.612C918.103 185.975 935.681 181.304 940.908 184.424C945.604 187.226 947.584 193.343 949.122 198.255C949.978 200.988 951.74 204.868 951.178 207.772C950.401 211.793 945.147 212.328 941.921 213.204C934.874 215.117 928.481 218.793 923.029 223.616C916.26 229.605 911.451 237.527 909.25 246.265C907.667 252.545 908.258 261.986 901.469 265.49C896.161 268.229 887.862 262.258 883.506 259.817C872.935 253.896 860.821 248.379 848.427 250.039C836.852 251.591 828.4 256.221 821.167 265.266C817.775 269.509 815.62 276.365 818.969 281.273C822.582 286.567 829.582 286.028 835.08 284.677C842.418 282.873 851.272 280.838 858.823 282.41C878.039 286.412 895.056 312.102 916.178 305.123C927.963 301.229 930.82 282.444 937.304 273.12C949.64 255.383 972.168 250.541 992.531 253.055" stroke="#F3F2FB" stroke-width="12.7145" stroke-miterlimit="1.5" stroke-linecap="round" stroke-linejoin="round"/>
<path d="M1225.98 216.536C1218.28 204.237 1215.23 185.144 1203.51 176.074C1183.07 160.25 1147.84 180.329 1146.35 204.362C1145.23 222.315 1151.84 237.928 1157.18 254.556C1159.52 261.837 1162.94 274.671 1159.2 282.062C1153.89 292.537 1144.07 294.136 1134.44 299.094C1123.93 304.504 1114.5 312.032 1104.08 317.703C1083.43 328.93 1059.3 338.518 1036.96 325.949C1023.3 318.26 1013.15 305.336 1000.1 296.651C988.86 289.17 969.495 283.592 961.346 298.349C949.591 319.636 975.793 323.178 986.676 330.984C996.753 338.212 1002.81 349.354 1012.23 357.208C1022.63 365.869 1056.79 370.163 1040.54 392.547C1036.91 397.551 1032.66 401.689 1029.32 407.001C1025.19 413.59 1020.31 420.907 1013.27 424.688C1003.33 430.026 999.533 423.96 997.141 414.124C991.948 392.774 995.311 371.446 973.683 358.052C954.462 346.151 932.758 352.107 912.063 347.697C894.292 343.909 881.031 331.318 864.022 326.292" stroke="#F3F2FB" stroke-width="12.7145" stroke-miterlimit="1.5" stroke-linecap="round" stroke-linejoin="round"/>
<path d="M1227.13 218.435C1228.61 220.437 1230.33 222.401 1232.28 223.96C1244.93 234.086 1254.74 216.407 1258.85 207.249C1259.76 205.207 1260.5 203.056 1261.26 200.95C1262.26 198.164 1263.46 195.431 1264.85 192.819C1266.79 189.175 1268.97 185.377 1271.71 182.265C1279.24 173.699 1291.2 171.65 1298.92 181.024C1302.75 185.686 1304.73 191.915 1305.63 197.811C1307.47 209.994 1304.92 226.78 1295.91 235.847C1290.65 241.142 1283.53 243.974 1277.24 247.782C1269.02 252.756 1261.49 258.731 1255.11 265.926C1250.53 271.075 1246.57 277.025 1243.84 283.352C1240.49 291.133 1238.33 299.311 1232.67 305.839C1222.75 317.269 1203.45 325.707 1207.37 343.772C1210.25 357.03 1231.92 352.789 1240.35 349.172C1242.78 348.133 1245.13 346.898 1247.28 345.367C1265.2 332.622 1262.84 306 1274.68 288.758C1279.56 281.659 1290.64 272.455 1298.39 281.312C1315.32 300.681 1293.51 324.361 1286.93 342.448C1282.64 354.253 1285.26 369.568 1273.19 377.124C1270.77 378.638 1268.16 379.789 1265.44 380.641C1256.31 383.503 1246.65 384.007 1237.56 380.717C1229.76 377.892 1222.51 371.75 1213.74 372.475" stroke="#F3F2FB" stroke-width="12.7145" stroke-miterlimit="1.5" stroke-linecap="round" stroke-linejoin="round"/>
<path d="M674.331 218.435C675.809 220.437 677.527 222.401 679.475 223.96C692.122 234.086 701.939 216.407 706.044 207.249C706.959 205.207 707.7 203.056 708.457 200.95C709.459 198.164 710.661 195.431 712.05 192.819C713.989 189.175 716.167 185.377 718.904 182.265C726.437 173.699 738.398 171.65 746.112 181.024C749.948 185.686 751.931 191.915 752.824 197.811C754.671 209.994 752.114 226.78 743.108 235.847C737.849 241.142 730.721 243.974 724.432 247.782C716.218 252.756 708.689 258.731 702.302 265.926C697.731 271.075 693.769 277.025 691.039 283.352C687.683 291.133 685.523 299.311 679.861 305.839C669.946 317.269 650.645 325.707 654.567 343.772C657.446 357.03 679.112 352.789 687.548 349.172C689.971 348.133 692.328 346.898 694.48 345.367C712.396 332.622 710.032 306 721.879 288.758C726.758 281.659 737.84 272.455 745.583 281.312C762.515 300.681 740.705 324.361 734.129 342.448C729.838 354.253 732.457 369.568 720.386 377.124C717.969 378.638 715.354 379.789 712.636 380.641C703.504 383.503 693.847 384.007 684.76 380.717C676.96 377.892 669.711 371.75 660.932 372.475" stroke="#F3F2FB" stroke-width="12.7145" stroke-miterlimit="1.5" stroke-linecap="round" stroke-linejoin="round"/>
<path d="M1186.01 206.758C1181.36 230.359 1200.17 244.528 1200.49 266.897C1200.88 293.969 1171.72 327.402 1156.6 348.441" stroke="#F3F2FB" stroke-width="12.7145" stroke-miterlimit="1.5" stroke-linecap="round" stroke-linejoin="round"/>
<path d="M1135.51 331.047C1122.79 347.557 1111.07 342.633 1095.93 356.061C1088.57 362.592 1075.55 374.916 1077.72 385.636C1079.73 395.583 1091.81 406.172 1100.02 404.736C1116.93 401.781 1144.41 373.382 1160.04 382.792C1170.84 389.294 1177.05 400.915 1187.93 407.155C1199.28 413.666 1211.35 410.579 1223.32 414.235C1233.29 417.277 1240.38 425.121 1249.99 428.624C1265.06 434.114 1285.9 426.759 1296.79 440.582C1308.24 455.116 1305.07 471.281 1306.79 488.321C1308 500.306 1312.17 511.358 1315.42 522.851" stroke="#F3F2FB" stroke-width="12.7145" stroke-miterlimit="1.5" stroke-linecap="round" stroke-linejoin="round"/>
<path d="M588.359 322.073C575.638 338.583 555.531 344.139 540.391 357.568C533.028 364.099 525.961 371.052 528.132 381.772C530.145 391.719 542.458 393.6 550.676 392.164C567.582 389.209 591.608 373.382 607.239 382.792C618.038 389.294 624.248 400.915 635.128 407.155C646.481 413.666 658.545 410.579 670.519 414.235C680.483 417.277 687.579 425.121 697.191 428.624C712.256 434.114 733.098 426.759 743.988 440.582C755.438 455.116 752.264 471.282 753.985 488.321C755.196 500.306 759.369 511.358 762.62 522.851" stroke="#F3F2FB" stroke-width="12.7145" stroke-miterlimit="1.5" stroke-linecap="round" stroke-linejoin="round"/>
<path d="M1183.34 492.969C1210.81 508.665 1229.97 520.929 1262.91 518.535C1282.33 517.123 1285.87 487.258 1271.95 476.289C1261.99 468.439 1246.78 470.551 1234.98 470.501C1218.45 470.431 1200.25 468.007 1185.1 461.06C1170.57 454.395 1160.76 441.039 1147.68 432.258C1144.19 429.919 1136.34 424.684 1133.2 429.24C1121.67 445.948 1139.81 464.885 1147.11 479.254C1153.26 491.361 1155.77 505.969 1157.74 519.313" stroke="#F3F2FB" stroke-width="12.7145" stroke-miterlimit="1.5" stroke-linecap="round" stroke-linejoin="round"/>
<path d="M630.538 492.969C658.01 508.665 677.169 520.929 710.104 518.535C729.521 517.123 733.067 487.258 719.148 476.289C709.186 468.439 693.977 470.551 682.172 470.501C665.646 470.431 647.446 468.007 632.299 461.06C617.768 454.395 607.961 441.039 594.873 432.258C591.388 429.919 583.54 424.684 580.395 429.24C568.866 445.948 587.009 464.885 594.305 479.254C600.452 491.361 602.963 505.969 604.939 519.313" stroke="#F3F2FB" stroke-width="12.7145" stroke-miterlimit="1.5" stroke-linecap="round" stroke-linejoin="round"/>
<path d="M933.989 437.77C943.122 425.405 953.922 425.476 963.94 437.318C976.067 451.652 978.944 472.675 1001.13 473.824C1034.23 475.539 1038.52 431.694 1067.1 418.537" stroke="#F3F2FB" stroke-width="12.7145" stroke-miterlimit="1.5" stroke-linecap="round" stroke-linejoin="round"/>
<path d="M966.052 484.627C976.856 501.98 996.635 514.682 1017.68 509.054C1034.68 504.509 1051.75 489.912 1063.7 477.485C1070.75 470.153 1083.61 445.717 1095.77 449.572C1104.63 452.38 1109.38 462.291 1111.04 470.781C1114.52 488.612 1107.84 506.475 1117.02 523.348" stroke="#F3F2FB" stroke-width="12.7145" stroke-miterlimit="1.5" stroke-linecap="round" stroke-linejoin="round"/>
<path d="M1088.73 489.334C1088.73 502.826 1077.68 514.864 1086.81 558.796" stroke="#F3F2FB" stroke-width="12.7145" stroke-miterlimit="1.5" stroke-linecap="round" stroke-linejoin="round"/>
<path d="M1088.73 -63.4692C1088.73 -49.9775 1077.68 -37.9397 1086.81 5.99274" stroke="#F3F2FB" stroke-width="12.7145" stroke-miterlimit="1.5" stroke-linecap="round" stroke-linejoin="round"/>
<path d="M1064.61 519.808C1046.53 540.515 1007.54 566.33 984.53 543.922C944.296 504.741 943.626 566.994 942.307 585.87" stroke="#F3F2FB" stroke-width="12.7145" stroke-miterlimit="1.5" stroke-linecap="round" stroke-linejoin="round"/>
<path d="M1064.61 519.808C1046.53 540.515 1007.54 566.33 984.53 543.922C944.296 504.741 943.626 566.994 942.307 585.87" stroke="#F3F2FB" stroke-width="12.7145" stroke-miterlimit="1.5" stroke-linecap="round" stroke-linejoin="round"/>
<path d="M1064.61 -32.9966C1046.52 -12.2894 1007.54 13.5259 984.529 -8.88197C958.492 -34.2386 949.024 -17.1136 945.227 3.24515" stroke="#F3F2FB" stroke-width="12.7145" stroke-miterlimit="1.5" stroke-linecap="round" stroke-linejoin="round"/>
<path d="M955.895 -40.5684C949.044 -20.4475 944.769 42.9169 909.343 39.8246" stroke="#F3F2FB" stroke-width="12.7145" stroke-miterlimit="1.5" stroke-linecap="round" stroke-linejoin="round"/>
<path d="M946.438 -71.8872C934.964 -63.3912 925.095 -53.6664 918.697 -39.832C911.857 -25.0411 910.373 -8.62984 896.592 0.722654C877.172 13.9025 860.733 -2.53971 841.047 -3.14476C812.03 -4.03643 779.921 35.8604 715.499 -3.25217" stroke="#F3F2FB" stroke-width="12.7145" stroke-miterlimit="1.5" stroke-linecap="round" stroke-linejoin="round"/>
<path d="M946.438 481.277C934.964 489.773 925.094 499.498 918.697 513.332C911.856 528.123 910.373 544.534 896.592 553.887C877.172 567.067 860.733 550.624 841.047 550.019C809.045 545.716 792.205 588.845 716.522 550.757" stroke="#F3F2FB" stroke-width="12.7145" stroke-miterlimit="1.5" stroke-linecap="round" stroke-linejoin="round"/>
<path d="M794.885 523.841C786.364 482.418 818.038 474.515 866.352 516.967" stroke="#F3F2FB" stroke-width="12.7145" stroke-miterlimit="1.5" stroke-linecap="round" stroke-linejoin="round"/>
<path d="M963.84 34.5113C988.348 29.1215 1014.36 22.2273 1039.48 27.2194C1059.99 31.2957 1077.85 43.2733 1097.95 48.628C1130.21 57.2257 1149 50.4264 1170.31 81.9902" stroke="#F3F2FB" stroke-width="12.7145" stroke-miterlimit="1.5" stroke-linecap="round" stroke-linejoin="round"/>
<path d="M1217.36 40.751C1205.12 57.9465 1190.04 78.435 1193.03 100.896" stroke="#F3F2FB" stroke-width="12.7145" stroke-miterlimit="1.5" stroke-linecap="round" stroke-linejoin="round"/>
<path d="M1252.46 45.4497C1242.46 59.0376 1225.47 73.2408 1222.51 90.6613C1220.81 100.657 1225.09 110.441 1224.61 120.527C1224.36 125.855 1224.96 150.301 1230.99 153.133C1245.24 159.83 1264.98 130.651 1280.98 129.817" stroke="#F3F2FB" stroke-width="12.7145" stroke-miterlimit="1.5" stroke-linecap="round" stroke-linejoin="round"/>
<path d="M737.198 48.9854C793.404 55.9776 789.637 31.2357 866.351 24.7984" stroke="#F3F2FB" stroke-width="12.7145" stroke-miterlimit="1.5" stroke-linecap="round" stroke-linejoin="round"/>
<path d="M691.805 100.454C710.282 98.1126 728.995 95.6394 746.311 88.5132" stroke="#F3F2FB" stroke-width="12.7145" stroke-miterlimit="1.5" stroke-linecap="round" stroke-linejoin="round"/>
<path d="M1244.94 100.454C1263.42 98.1126 1282.13 95.6394 1299.45 88.5132" stroke="#F3F2FB" stroke-width="12.7145" stroke-miterlimit="1.5" stroke-linecap="round" stroke-linejoin="round"/>
<path d="M812.346 337.264C809.315 346.059 806.412 355.264 805.287 364.517" stroke="#F3F2FB" stroke-width="12.7145" stroke-miterlimit="1.5" stroke-linecap="round" stroke-linejoin="round"/>
<path d="M1125.2 23.6174C1146.76 32.8373 1172.19 -9.99052 1261.4 -12.8667" stroke="#F3F2FB" stroke-width="12.7145" stroke-miterlimit="1.5" stroke-linecap="round" stroke-linejoin="round"/>
<path d="M1125.2 23.6174C1146.76 32.8373 1172.19 -9.99052 1261.4 -12.8667" stroke="#F3F2FB" stroke-width="12.7145" stroke-miterlimit="1.5" stroke-linecap="round" stroke-linejoin="round"/>
<path d="M1125.2 576.755C1146.76 585.975 1200.49 515.886 1306.02 565.766" stroke="#F3F2FB" stroke-width="12.7145" stroke-miterlimit="1.5" stroke-linecap="round" stroke-linejoin="round"/>
<path d="M1125.2 24.0588C1150.15 32.5238 1200.96 -37.7809 1312.59 17.2623" stroke="#F3F2FB" stroke-width="12.7145" stroke-miterlimit="1.5" stroke-linecap="round" stroke-linejoin="round"/>
<path d="M782.391 82.6896C778.864 83.2706 774.529 83.8157 771.51 85.9622C766.129 89.7865 765.403 97.0222 765.902 103.191C766.955 116.204 772.106 128.572 773.789 141.509C775.506 154.699 773.998 167.321 774.323 180.48C774.563 190.194 777.023 202.399 788.989 201.14C813.429 198.567 809.022 168.873 805.167 152.467C804.258 148.603 803.524 144.736 803.038 140.79C802.395 135.563 801.809 130.184 802.027 124.912C802.443 114.868 804.345 104.797 806.836 95.0829C808.855 87.2033 811.31 79.1423 815.965 72.4108C829.178 53.3021 857.401 48.6032 878.636 51.9901C888.411 53.5486 897.629 57.1716 907.012 60.2115" stroke="#F3F2FB" stroke-width="12.7145" stroke-miterlimit="1.5" stroke-linecap="round" stroke-linejoin="round"/>
<path d="M1115.43 247.687C1122.98 287.899 1063.97 316.083 1036.8 287.472C1019.53 269.286 1016.97 242.26 1026.26 219.673C1030.68 208.938 1049.96 189.593 1039.73 179.106C1035.54 174.805 1028.09 176.458 1023.02 177.743C1008.85 181.336 970.954 206.884 970.758 174.87C970.739 171.585 971.215 168.243 972.33 165.144C976.91 152.417 991.433 147.465 1003.51 144.58C1029.91 138.267 1070.37 139.229 1085.84 166.544C1093.31 179.727 1084.24 188.381 1076.03 198.327C1068.47 207.472 1059.93 218.909 1055.6 230.002C1051.46 240.63 1051.4 253.645 1060.99 261.263C1069.1 267.71 1080.5 261.54 1084.71 253.577C1088.92 245.613 1088.02 236.159 1092.14 228.229C1096.24 220.335 1103.3 214.387 1107.65 206.615C1112.62 197.752 1114.44 187.418 1118.62 178.146C1122.15 170.339 1127.48 159.042 1124.15 150.346C1120.54 140.889 1105.03 143.608 1096.75 137.119C1086.57 129.144 1076.88 119.977 1065.12 114.272C1039.75 101.964 1005.67 102.668 979.237 111.446C965.405 116.039 954.955 128.534 940.633 131.311C922.337 134.86 907.333 121.478 890.78 124.389C879.041 126.454 873.904 143.791 881.917 152.244C897.606 168.794 920.351 145.471 937.047 155.071" stroke="#F3F2FB" stroke-width="12.7145" stroke-miterlimit="1.5" stroke-linecap="round" stroke-linejoin="round"/>
<path d="M949.135 383.224C926.594 389.883 907.772 398.608 901.013 423.066C899.397 428.917 898.577 434.782 898.908 440.856C899.799 457.252 907.039 481.15 881.203 480.778C852.445 480.365 860.152 436.239 862.981 418.315C863.963 412.089 864.518 404.553 868.114 399.17C874.228 390.014 886.7 387.399 892.324 378.162C896.037 372.061 891.575 365.265 886.774 361.463C860.849 340.936 825.784 370.787 824.006 398.502C823.002 414.154 832.089 431.107 825.238 446.237C819.167 459.643 803.869 458.219 795.779 447.567C788.525 438.019 777.121 425.615 776.523 414.124C775.87 401.605 778.159 390.593 776.523 378.162C774.694 364.274 773.538 339.947 784.617 330.984" stroke="#F3F2FB" stroke-width="12.7145" stroke-miterlimit="1.5" stroke-linecap="round" stroke-linejoin="round"/>
</g>
</g>
<g opacity="0.3">
<g clip-path="url(#clip8_3663_90265)">
<rect x="1281.81" width="552.803" height="552.803" rx="22.1121" fill="white"/>
<path d="M1748.71 133.755C1747.36 131.107 1745.34 126.73 1742.51 125.423C1737.87 123.28 1732.92 126.868 1728.75 128.746C1721.04 132.219 1712.34 134.446 1705.01 128.876C1696.56 122.447 1694.04 110.289 1685.61 103.676C1675.08 95.4126 1661.4 93.883 1649.7 88.3246C1639.78 83.6125 1631.58 75.8025 1621.65 71.0301C1603.98 62.5396 1576.31 58.4478 1556.94 60.3284C1539.79 61.9935 1522.46 66.585 1506.2 72.4724C1496.27 76.0645 1487.19 81.4483 1476.75 83.3963C1451.86 88.0388 1422.44 72.7936 1401.65 93.197C1383.84 110.673 1383.11 139.131 1392.06 161.465C1397.28 174.488 1409.77 186.876 1402.09 201.504C1395.82 213.457 1381.97 217.231 1370.97 222.486C1350.91 232.072 1333.56 248.659 1335.4 274.089" stroke="#F3F2FB" stroke-width="12.7145" stroke-miterlimit="1.5" stroke-linecap="round" stroke-linejoin="round"/>
<path d="M1442.2 231.88C1440.56 226.715 1438.01 220.85 1438.26 215.355C1438.89 201.202 1453.19 191.301 1465.46 187.612C1470.91 185.975 1488.49 181.304 1493.71 184.424C1498.41 187.226 1500.39 193.343 1501.93 198.255C1502.78 200.988 1504.54 204.868 1503.98 207.772C1503.2 211.793 1497.95 212.328 1494.72 213.204C1487.68 215.117 1481.28 218.793 1475.83 223.616C1469.06 229.605 1464.26 237.527 1462.05 246.265C1460.47 252.545 1461.06 261.986 1454.27 265.49C1448.97 268.229 1440.67 262.258 1436.31 259.817C1425.74 253.896 1413.63 248.379 1401.23 250.039C1389.66 251.591 1381.2 256.221 1373.97 265.266C1370.58 269.509 1368.42 276.365 1371.77 281.273C1375.39 286.567 1382.39 286.028 1387.88 284.677C1395.22 282.873 1404.08 280.838 1411.63 282.41C1430.84 286.412 1447.86 312.102 1468.98 305.123C1480.77 301.229 1483.62 282.444 1490.11 273.12C1502.44 255.383 1524.97 250.541 1545.33 253.055" stroke="#F3F2FB" stroke-width="12.7145" stroke-miterlimit="1.5" stroke-linecap="round" stroke-linejoin="round"/>
<path d="M1778.78 216.536C1771.09 204.237 1768.03 185.144 1756.31 176.074C1735.87 160.25 1700.65 180.329 1699.15 204.362C1698.03 222.315 1704.64 237.928 1709.99 254.556C1712.32 261.837 1715.75 274.671 1712 282.062C1706.69 292.537 1696.87 294.136 1687.24 299.094C1676.73 304.504 1667.31 312.032 1656.88 317.703C1636.23 328.93 1612.11 338.518 1589.77 325.949C1576.11 318.26 1565.96 305.336 1552.91 296.651C1541.66 289.17 1522.3 283.592 1514.15 298.349C1502.39 319.636 1528.6 323.178 1539.48 330.984C1549.56 338.212 1555.61 349.354 1565.04 357.208C1575.43 365.869 1609.59 370.163 1593.35 392.547C1589.72 397.551 1585.46 401.689 1582.12 407.001C1577.99 413.59 1573.12 420.907 1566.08 424.688C1556.14 430.026 1552.34 423.96 1549.94 414.124C1544.75 392.774 1548.11 371.446 1526.49 358.052C1507.27 346.151 1485.56 352.107 1464.87 347.697C1447.1 343.909 1433.83 331.318 1416.83 326.292" stroke="#F3F2FB" stroke-width="12.7145" stroke-miterlimit="1.5" stroke-linecap="round" stroke-linejoin="round"/>
<path d="M1227.13 218.435C1228.61 220.437 1230.33 222.401 1232.28 223.96C1244.93 234.086 1254.74 216.407 1258.85 207.249C1259.76 205.207 1260.5 203.056 1261.26 200.95C1262.26 198.164 1263.46 195.431 1264.85 192.819C1266.79 189.175 1268.97 185.377 1271.71 182.265C1279.24 173.699 1291.2 171.65 1298.92 181.024C1302.75 185.686 1304.73 191.915 1305.63 197.811C1307.47 209.994 1304.92 226.78 1295.91 235.847C1290.65 241.142 1283.52 243.974 1277.24 247.782C1269.02 252.756 1261.49 258.731 1255.11 265.926C1250.53 271.075 1246.57 277.025 1243.84 283.352C1240.49 291.133 1238.33 299.311 1232.66 305.839C1222.75 317.269 1203.45 325.707 1207.37 343.772C1210.25 357.03 1231.92 352.789 1240.35 349.172C1242.78 348.133 1245.13 346.898 1247.28 345.367C1265.2 332.622 1262.84 306 1274.68 288.758C1279.56 281.659 1290.64 272.455 1298.39 281.312C1315.32 300.681 1293.51 324.361 1286.93 342.448C1282.64 354.253 1285.26 369.568 1273.19 377.124C1270.77 378.638 1268.16 379.789 1265.44 380.641C1256.31 383.503 1246.65 384.007 1237.56 380.717C1229.76 377.892 1222.52 371.75 1213.74 372.475" stroke="#F3F2FB" stroke-width="12.7145" stroke-miterlimit="1.5" stroke-linecap="round" stroke-linejoin="round"/>
<path d="M1141.16 322.073C1128.44 338.583 1108.33 344.139 1093.2 357.568C1085.83 364.099 1078.76 371.052 1080.94 381.772C1082.95 391.719 1095.26 393.6 1103.48 392.164C1120.39 389.209 1144.41 373.382 1160.04 382.792C1170.84 389.294 1177.05 400.915 1187.93 407.155C1199.28 413.666 1211.35 410.579 1223.32 414.235C1233.29 417.277 1240.38 425.121 1249.99 428.624C1265.06 434.114 1285.9 426.759 1296.79 440.582C1308.24 455.116 1305.07 471.282 1306.79 488.321C1308 500.306 1312.17 511.358 1315.42 522.851" stroke="#F3F2FB" stroke-width="12.7145" stroke-miterlimit="1.5" stroke-linecap="round" stroke-linejoin="round"/>
<path d="M1183.34 492.969C1210.81 508.665 1229.97 520.929 1262.91 518.535C1282.32 517.123 1285.87 487.258 1271.95 476.289C1261.99 468.439 1246.78 470.551 1234.98 470.501C1218.45 470.431 1200.25 468.007 1185.1 461.06C1170.57 454.395 1160.76 441.039 1147.68 432.258C1144.19 429.919 1136.34 424.684 1133.2 429.24C1121.67 445.948 1139.81 464.885 1147.11 479.254C1153.26 491.361 1155.77 505.969 1157.74 519.313" stroke="#F3F2FB" stroke-width="12.7145" stroke-miterlimit="1.5" stroke-linecap="round" stroke-linejoin="round"/>
<path d="M1499.24 -71.8872C1487.77 -63.3912 1477.9 -53.6664 1471.5 -39.832C1464.66 -25.0411 1463.18 -8.62984 1449.4 0.722654C1429.98 13.9025 1413.54 -2.53971 1393.85 -3.14476C1364.83 -4.03643 1332.72 35.8604 1268.3 -3.25217" stroke="#F3F2FB" stroke-width="12.7145" stroke-miterlimit="1.5" stroke-linecap="round" stroke-linejoin="round"/>
<path d="M1499.24 481.277C1487.77 489.773 1477.9 499.498 1471.5 513.332C1464.66 528.123 1463.18 544.534 1449.4 553.887C1429.98 567.067 1413.54 550.624 1393.85 550.019C1361.85 545.716 1345.01 588.845 1269.33 550.757" stroke="#F3F2FB" stroke-width="12.7145" stroke-miterlimit="1.5" stroke-linecap="round" stroke-linejoin="round"/>
<path d="M1347.69 523.841C1339.17 482.418 1370.84 474.515 1419.16 516.967" stroke="#F3F2FB" stroke-width="12.7145" stroke-miterlimit="1.5" stroke-linecap="round" stroke-linejoin="round"/>
<path d="M1290 48.9854C1346.21 55.9776 1342.44 31.2357 1419.15 24.7984" stroke="#F3F2FB" stroke-width="12.7145" stroke-miterlimit="1.5" stroke-linecap="round" stroke-linejoin="round"/>
<path d="M1244.61 100.454C1263.09 98.1126 1281.8 95.6394 1299.12 88.5132" stroke="#F3F2FB" stroke-width="12.7145" stroke-miterlimit="1.5" stroke-linecap="round" stroke-linejoin="round"/>
<path d="M1365.15 337.264C1362.12 346.059 1359.22 355.264 1358.09 364.517" stroke="#F3F2FB" stroke-width="12.7145" stroke-miterlimit="1.5" stroke-linecap="round" stroke-linejoin="round"/>
<path d="M1335.2 82.6896C1331.67 83.2706 1327.33 83.8157 1324.31 85.9622C1318.93 89.7865 1318.21 97.0222 1318.71 103.191C1319.76 116.204 1324.91 128.572 1326.59 141.509C1328.31 154.699 1326.8 167.321 1327.13 180.48C1327.37 190.194 1329.83 202.399 1341.79 201.14C1366.23 198.567 1361.83 168.873 1357.97 152.467C1357.06 148.603 1356.33 144.736 1355.84 140.79C1355.2 135.563 1354.61 130.184 1354.83 124.912C1355.25 114.868 1357.15 104.797 1359.64 95.0829C1361.66 87.2033 1364.11 79.1423 1368.77 72.4108C1381.98 53.3021 1410.2 48.6032 1431.44 51.9901C1441.21 53.5486 1450.43 57.1716 1459.82 60.2115" stroke="#F3F2FB" stroke-width="12.7145" stroke-miterlimit="1.5" stroke-linecap="round" stroke-linejoin="round"/>
<path d="M1668.24 247.687C1675.78 287.899 1616.77 316.083 1589.61 287.472C1572.34 269.286 1569.77 242.26 1579.07 219.673C1583.49 208.938 1602.76 189.593 1592.54 179.106C1588.34 174.805 1580.89 176.458 1575.82 177.743C1561.65 181.336 1523.76 206.884 1523.56 174.87C1523.54 171.585 1524.02 168.243 1525.13 165.144C1529.71 152.417 1544.24 147.465 1556.31 144.58C1582.72 138.267 1623.17 139.229 1638.65 166.544C1646.11 179.727 1637.05 188.381 1628.83 198.327C1621.27 207.472 1612.73 218.909 1608.41 230.002C1604.27 240.63 1604.2 253.645 1613.79 261.263C1621.91 267.71 1633.31 261.54 1637.51 253.577C1641.72 245.613 1640.82 236.159 1644.94 228.229C1649.05 220.335 1656.1 214.387 1660.46 206.615C1665.42 197.752 1667.24 187.418 1671.43 178.146C1674.95 170.339 1680.28 159.042 1676.96 150.346C1673.34 140.889 1657.83 143.608 1649.55 137.119C1639.37 129.144 1629.68 119.977 1617.93 114.272C1592.56 101.964 1558.48 102.668 1532.04 111.446C1518.21 116.039 1507.76 128.534 1493.44 131.311C1475.14 134.86 1460.14 121.478 1443.58 124.389C1431.84 126.454 1426.71 143.791 1434.72 152.244C1450.41 168.794 1473.15 145.471 1489.85 155.071" stroke="#F3F2FB" stroke-width="12.7145" stroke-miterlimit="1.5" stroke-linecap="round" stroke-linejoin="round"/>
<path d="M1501.94 383.224C1479.4 389.883 1460.58 398.608 1453.82 423.066C1452.2 428.917 1451.38 434.782 1451.71 440.856C1452.6 457.252 1459.84 481.15 1434.01 480.778C1405.25 480.365 1412.96 436.239 1415.78 418.315C1416.77 412.089 1417.32 404.553 1420.92 399.17C1427.03 390.014 1439.5 387.399 1445.13 378.162C1448.84 372.061 1444.38 365.265 1439.58 361.463C1413.65 340.936 1378.59 370.787 1376.81 398.502C1375.81 414.154 1384.89 431.107 1378.04 446.237C1371.97 459.643 1356.67 458.219 1348.58 447.567C1341.33 438.019 1329.92 425.615 1329.33 414.124C1328.67 401.605 1330.96 390.593 1329.33 378.162C1327.5 364.274 1326.34 339.947 1337.42 330.984" stroke="#F3F2FB" stroke-width="12.7145" stroke-miterlimit="1.5" stroke-linecap="round" stroke-linejoin="round"/>
</g>
</g>
</g>
<defs>
<clipPath id="clip0_3663_90265">
<rect width="1440" height="1108" fill="white"/>
</clipPath>
<clipPath id="clip1_3663_90265">
<rect x="-376.827" y="553.033" width="552.803" height="552.803" rx="22.1121" fill="white"/>
</clipPath>
<clipPath id="clip2_3663_90265">
<rect x="175.977" y="553.033" width="552.803" height="552.803" rx="22.1121" fill="white"/>
</clipPath>
<clipPath id="clip3_3663_90265">
<rect x="729.009" y="553.033" width="552.803" height="552.803" rx="22.1121" fill="white"/>
</clipPath>
<clipPath id="clip4_3663_90265">
<rect x="1281.81" y="553.033" width="552.803" height="552.803" rx="22.1121" fill="white"/>
</clipPath>
<clipPath id="clip5_3663_90265">
<rect x="-376.827" width="552.803" height="552.803" rx="22.1121" fill="white"/>
</clipPath>
<clipPath id="clip6_3663_90265">
<rect x="175.977" width="552.803" height="552.803" rx="22.1121" fill="white"/>
</clipPath>
<clipPath id="clip7_3663_90265">
<rect x="729.009" width="552.803" height="552.803" rx="22.1121" fill="white"/>
</clipPath>
<clipPath id="clip8_3663_90265">
<rect x="1281.81" width="552.803" height="552.803" rx="22.1121" fill="white"/>
</clipPath>
</defs>
</svg>
