<svg width="52" height="53" viewBox="0 0 52 53" fill="none" xmlns="http://www.w3.org/2000/svg">
<path d="M18.691 7.9825C17.3089 7.9825 15.4148 7.9825 15.3124 11.2999C15.21 14.6174 15.1077 40.0138 15.8755 42.7592C16.4802 44.9217 19.1656 45.0546 21.8663 45.0134C22.5945 45.0023 26.789 44.9785 26.789 44.9785C26.789 44.9785 30.9833 45.0024 31.7116 45.0134C34.4122 45.0545 37.0977 44.9216 37.7024 42.7592C38.4703 40.0138 38.3679 14.6174 38.2655 11.2999C38.1631 7.98242 36.2692 7.98242 34.887 7.98242H26.789L18.691 7.9825Z" fill="#7738C7"/>
<path d="M19.5334 9.9082C18.295 9.9082 16.598 9.90812 16.5063 12.8805C16.4145 15.8529 16.3229 38.6073 17.0108 41.0672C17.5526 43.0047 19.9587 43.1238 22.3784 43.0869C23.0309 43.0771 26.7891 43.0557 26.7891 43.0557C26.7891 43.0557 30.5471 43.077 31.1995 43.0869C33.6193 43.1238 36.0253 43.0047 36.5672 41.0672C37.2552 38.6073 37.1634 15.8529 37.0717 12.8805C36.98 9.90812 35.2831 9.9082 34.0448 9.9082H26.7891H19.5334Z" fill="#171D8F"/>
<path d="M18.0938 11.7903C18.0938 11.7903 34.1305 11.4668 35.2023 11.8105C36.274 12.1543 36.2135 14.399 35.5057 14.5002C34.7978 14.6013 18.9836 14.7226 18.1545 14.6215C17.3254 14.5204 17.0423 11.851 18.0938 11.7903Z" fill="white"/>
<path d="M20.6882 16C19.6108 16 18.1345 16 18.0547 17.9857C17.9749 19.9714 17.8952 26.004 18.4937 27.6474C18.965 28.9418 21.0581 29.0213 23.1631 28.9967C23.7308 28.99 27 28.9759 27 28.9759C27 28.9759 30.2693 28.99 30.8369 28.9967C32.9419 29.0213 35.035 28.9418 35.5064 27.6474C36.1049 26.004 36.0251 19.9714 35.9452 17.9857C35.8655 15.9999 34.3893 16 33.312 16H27H20.6882Z" fill="#7738C7"/>
<path d="M21.4842 17C20.4886 17 19.1244 17 19.0506 18.83C18.9769 20.6601 18.903 25.2387 19.4561 26.7534C19.8917 27.9463 21.8261 28.0196 23.7714 27.9969C24.296 27.9908 26.8942 27.9777 26.8942 27.9777C26.8942 27.9777 29.7039 27.9908 30.2286 27.9969C32.1738 28.0196 34.1082 27.9463 34.5438 26.7534C35.0969 25.2388 35.0232 20.6602 34.9494 18.83C34.8756 17 33.5113 17 32.5158 17H26.8942H21.4842Z" fill="white"/>
<path d="M19.9414 30C19.1634 30 18.0972 30 18.0395 30.4582C17.9819 30.9165 17.9243 32.3086 18.3566 32.6879C18.6969 32.9866 20.2087 33.0049 21.7289 32.9992C22.1388 32.9977 24.5 32.9944 24.5 32.9944C24.5 32.9944 26.8612 32.9977 27.2711 32.9992C28.7914 33.0049 30.303 32.9866 30.6434 32.6879C31.0757 32.3086 31.0181 30.9165 30.9605 30.4582C30.9028 30 29.8367 30 29.0587 30H24.5H19.9414Z" fill="#7738C7"/>
<path d="M18.8602 34.0116C20.6894 34.0669 28.9646 33.8459 30.1261 34.251C31.2875 34.6561 30.9972 36.387 30.8811 36.7738C30.7649 37.1605 19.5571 36.9579 18.686 36.8474C17.815 36.737 17.6697 34.0485 18.8602 34.0116Z" fill="#F6C21C"/>
<path d="M19.7471 35.0651C26.4584 34.8604 28.6077 35.1562 28.9879 35.7021C29.3681 36.2482 20.6682 35.9068 19.4693 35.7477C18.2703 35.5885 19.7471 35.0651 19.7471 35.0651Z" fill="white"/>
<path d="M20.6724 31.0651C26.7125 30.8604 28.647 31.1562 28.9891 31.7021C29.3313 32.2482 21.5014 31.9068 20.4224 31.7477C19.3433 31.5885 20.6724 31.0651 20.6724 31.0651Z" fill="white"/>
<path d="M34.2182 12.416C33.8202 12.4171 33.498 12.74 33.498 13.1381C33.498 13.537 33.8214 13.8603 34.2202 13.8603C34.3784 13.8603 34.5323 13.8083 34.6581 13.7123C34.845 13.8812 35.2825 14.264 35.3999 14.0032C35.5128 13.7524 35.2624 13.7325 34.8612 13.4706C34.9145 13.3679 34.9422 13.2539 34.9422 13.1381C34.9422 12.7393 34.6189 12.4161 34.2201 12.416C34.2195 12.416 34.2189 12.416 34.2182 12.416ZM34.2123 12.7236C34.2149 12.7236 34.2175 12.7236 34.2201 12.7236C34.4491 12.7236 34.6346 12.9092 34.6347 13.1381C34.6346 13.3671 34.4491 13.5527 34.2201 13.5527C33.9911 13.5527 33.8055 13.3671 33.8055 13.1381C33.8055 12.9122 33.9864 12.7278 34.2123 12.7236Z" fill="#7738C7"/>
</svg>
