<svg width="322" height="220" viewBox="0 0 322 220" fill="none" xmlns="http://www.w3.org/2000/svg">
<g clip-path="url(#clip0_2552_67595)">
<rect width="322" height="220" rx="5" fill="#17B6BA"/>
<mask id="mask0_2552_67595" style="mask-type:luminance" maskUnits="userSpaceOnUse" x="0" y="0" width="322" height="223">
<path d="M322 0H0V222.679H322V0Z" fill="white"/>
</mask>
<g mask="url(#mask0_2552_67595)">
<path d="M249.975 105.405C252.218 105.405 254.036 103.492 254.036 101.131C254.036 98.7708 252.218 96.8574 249.975 96.8574C247.732 96.8574 245.914 98.7708 245.914 101.131C245.914 103.492 247.732 105.405 249.975 105.405Z" fill="white"/>
<path opacity="0.22" d="M115.453 204.885C114.356 205.441 66.8359 228.579 46.3999 150.127C25.9639 71.6739 113.816 52.8754 141.604 61.4559C169.393 70.0364 214.751 11.6104 264.187 63.0934C313.624 114.576 267.053 169.334 256.016 181.19C244.98 193.045 247.436 193.045 238.446 193.455C229.456 193.864 155.49 184.449 115.453 204.885Z" fill="#F3F2FB"/>
<path d="M93.9868 59.7194C102.542 59.7194 109.478 52.8718 109.478 44.4251C109.478 35.9784 102.542 29.1309 93.9868 29.1309C85.4316 29.1309 78.4961 35.9784 78.4961 44.4251C78.4961 52.8718 85.4316 59.7194 93.9868 59.7194Z" fill="#FBE69A"/>
<path d="M61.1035 81.5809C61.6766 81.7119 97.7508 81.6464 97.7508 81.6464C97.7508 81.6464 94.8688 77.7328 92.0686 77.3889C89.2685 77.045 87.0415 78.5515 86.321 78.4042C85.6005 78.2568 84.7326 73.8192 79.902 73.77C75.0714 73.7209 74.6293 77.2907 71.78 77.4872C68.9308 77.6837 67.5225 76.4228 65.3119 77.1924C63.0849 77.962 61.1035 81.5809 61.1035 81.5809Z" fill="white"/>
<path d="M203.943 100.493C204.516 100.624 240.591 100.559 240.591 100.559C240.591 100.559 237.709 96.6449 234.909 96.301C232.108 95.9571 229.881 97.4636 229.161 97.3163C228.44 97.1689 227.572 92.7313 222.742 92.6821C217.911 92.633 217.469 96.2028 214.62 96.3993C211.771 96.5958 210.362 95.3349 208.152 96.1045C205.925 96.8905 203.943 100.493 203.943 100.493Z" fill="white"/>
<path d="M86.8633 135.862C87.4364 135.993 123.511 135.928 123.511 135.928C123.511 135.928 120.629 132.014 117.828 131.67C115.028 131.326 112.801 132.833 112.081 132.685C111.36 132.538 110.492 128.1 105.662 128.051C100.831 128.002 100.389 131.572 97.5398 131.768C94.6905 131.965 93.2823 130.704 91.0717 131.474C88.8447 132.26 86.8633 135.862 86.8633 135.862Z" fill="white"/>
<path d="M244.586 66.2372C245.159 66.3682 281.233 66.3027 281.233 66.3027C281.233 66.3027 278.351 62.389 275.551 62.0452C272.751 61.7013 270.524 63.2078 269.803 63.0604C269.083 62.913 268.215 58.4754 263.384 58.4263C258.554 58.3772 258.112 61.9469 255.262 62.1434C252.413 62.3399 251.005 61.079 248.794 61.8487C246.567 62.6347 244.586 66.2372 244.586 66.2372Z" fill="white"/>
<path d="M69.2266 139.891C69.2266 139.891 92.3481 174.999 92.2007 173.558C92.0533 172.117 103.172 156.938 103.172 156.938L81.2294 125.891L69.2266 139.891Z" fill="#9C7A0C"/>
<path d="M169.195 92.2726L182.099 110.858L193.365 94.4832L181.804 78.3047L169.195 92.2726Z" fill="#9C7A0C"/>
<path d="M-0.515399 188.872C10.001 178.999 50.6567 136.255 57.9927 125.775L81.2451 125.923L-0.499023 215.999" fill="#F6C21C"/>
<path d="M114.224 173.623L181.82 78.2715L158.715 78.3697L91.25 173.623H114.224Z" fill="#F6C21C"/>
<path d="M194.2 93.0257L237.61 31.3411L225.034 24.5455L260.568 14L266.201 47.667L254.215 40.4456C237.643 63.649 221.088 86.8688 204.516 110.072C196.886 110.154 189.271 110.236 181.641 110.318L194.2 93.0257Z" fill="#F6C21C"/>
<path d="M250.4 191.652C238.921 179.141 226.82 196.466 240.607 193.813C242.605 193.355 245.847 193.846 246.355 194.681L250.4 191.652Z" fill="#11923D"/>
<path d="M256.344 186.477C276.174 187.426 268.756 201.558 260.012 196.138C257.965 195.221 253.986 190.259 252.414 190.669L256.344 186.477Z" fill="#11923D"/>
<path d="M255.638 186.446C244.732 171.037 231.403 188.722 250.414 188.411C252.019 188.607 252.772 189.426 252.871 189.475L255.638 186.446Z" fill="#11923D"/>
<path d="M260.077 180.436C244.586 158.15 235.449 177.522 251.562 181.059C254.297 181.664 255.738 184.039 256.704 185.12C257.752 183.941 259.177 181.992 260.077 180.436Z" fill="#11923D"/>
<path d="M261.24 179.747C278.516 175.212 279.105 189.949 270.852 188.541C264.401 186.592 260.323 184.447 257.146 185.544L261.24 179.747Z" fill="#11923D"/>
<path d="M264.515 172.184C253.79 152.943 234.238 161.409 256.901 173.952C258.375 174.657 261.797 178.079 261.502 178.324L264.515 172.184Z" fill="#11923D"/>
<path d="M265.186 171.954C285.295 163.34 289.864 181.86 270.508 177.996C267.217 177.456 263.713 177.816 261.879 178.749L265.186 171.954Z" fill="#11923D"/>
<path d="M267.495 164.094C267.527 163.406 264.465 154.744 258.767 151.764C254.984 149.258 252.724 152.304 253.56 156.054C255.05 161.392 262.893 167.32 266.217 167.975L267.495 164.094Z" fill="#11923D"/>
<path d="M267.774 163.668C268.281 163.193 275.83 155.513 281.168 158.231C283.166 159.214 282.708 159.934 282.036 162.047C278.352 169.841 266.922 169.333 266.447 168.318L267.774 163.668Z" fill="#11923D"/>
<path d="M268.134 161.228C275.699 157.97 276.174 144.329 270.721 143.592C263.533 143.494 264.155 159.312 268.134 161.228Z" fill="#11923D"/>
<path d="M251.285 192.21C267.447 198.269 259.308 213.563 251.743 200.889C249.844 198.122 248.354 196.763 246.945 195.453L251.039 191.965L251.285 192.21Z" fill="#11923D"/>
<g opacity="0.32">
<g opacity="0.32">
<path opacity="0.32" d="M250.156 194.518C252.006 195.337 253.66 196.631 255.068 198.088C256.116 199.185 257.655 200.823 257.606 202.46C257.59 202.853 258.212 202.853 258.228 202.46C258.294 200.773 256.902 199.136 255.821 197.973C254.331 196.352 252.514 194.878 250.483 193.978C250.107 193.847 249.795 194.371 250.156 194.518Z" fill="#F7F2F2"/>
</g>
</g>
<g opacity="0.32">
<g opacity="0.32">
<path opacity="0.32" d="M247.927 193.159C245.88 191.129 241.934 189.459 239.117 190.883C238.757 191.063 239.068 191.587 239.428 191.407C240.542 190.834 241.999 190.965 243.178 191.227C244.816 191.604 246.306 192.39 247.501 193.585C247.779 193.863 248.205 193.438 247.927 193.159Z" fill="#F7F2F2"/>
</g>
</g>
<g opacity="0.32">
<g opacity="0.32">
<path opacity="0.32" d="M253.51 188.081C251.528 185.527 247.746 181.679 244.192 183.562C243.849 183.742 244.16 184.282 244.504 184.086C247.746 182.366 251.299 186.214 253.084 188.507C253.33 188.834 253.755 188.392 253.51 188.081Z" fill="#F7F2F2"/>
</g>
</g>
<g opacity="0.32">
<g opacity="0.32">
<path opacity="0.32" d="M255.084 188.771C255.412 188.656 256.345 189.246 256.672 189.393C257.606 189.835 258.506 190.343 259.407 190.85C260.308 191.358 261.192 191.882 262.043 192.455C262.322 192.635 263.321 193.159 263.37 193.487C263.435 193.88 264.025 193.716 263.959 193.323C263.877 192.832 263.026 192.39 262.666 192.144C261.7 191.489 260.701 190.9 259.702 190.326C258.687 189.753 257.671 189.197 256.607 188.705C256.198 188.509 255.395 188.018 254.904 188.181C254.544 188.312 254.707 188.902 255.084 188.771Z" fill="#F7F2F2"/>
</g>
</g>
<g opacity="0.32">
<g opacity="0.32">
<path opacity="0.32" d="M258.015 181.73C256.132 179.078 253.889 176.671 251.203 174.804C250.237 174.132 249.009 173.215 247.83 172.953C247.519 172.888 247.339 173.232 247.535 173.461C247.568 173.51 247.633 173.527 247.682 173.543C248.043 173.69 248.206 173.101 247.846 172.953C247.879 172.97 247.928 173.003 247.961 173.019C247.863 173.183 247.764 173.363 247.666 173.527C248.747 173.772 249.86 174.607 250.745 175.213C253.397 177.031 255.624 179.405 257.475 182.009C257.704 182.353 258.244 182.058 258.015 181.73Z" fill="#F7F2F2"/>
</g>
</g>
<g opacity="0.32">
<g opacity="0.32">
<path opacity="0.32" d="M259.523 183.251C261.635 182.415 263.911 182.17 266.171 182.415C267.726 182.579 269.724 182.939 270.903 184.053C271.198 184.331 271.624 183.889 271.345 183.611C270.117 182.448 268.185 182.055 266.564 181.842C264.14 181.531 261.635 181.76 259.359 182.661C258.999 182.808 259.146 183.398 259.523 183.251Z" fill="#F7F2F2"/>
</g>
</g>
<g opacity="0.32">
<g opacity="0.32">
<path opacity="0.32" d="M262.123 175.099C260.649 171.677 258.209 168.729 255.425 166.273C254.427 165.389 253.379 164.57 252.265 163.833C251.807 163.522 251.184 163.031 250.611 162.982C250.218 162.949 250.218 163.571 250.611 163.604C250.988 163.637 251.79 164.243 252.183 164.505C253.28 165.241 254.312 166.077 255.294 166.977C257.914 169.352 260.191 172.152 261.599 175.41C261.746 175.771 262.27 175.459 262.123 175.099Z" fill="#F7F2F2"/>
</g>
</g>
<g opacity="0.32">
<g opacity="0.32">
<path opacity="0.32" d="M264.088 175.753C267.953 173.805 272.964 172.789 277.172 174.263C277.549 174.394 277.712 173.805 277.336 173.674C272.98 172.134 267.773 173.199 263.777 175.229C263.417 175.409 263.728 175.933 264.088 175.753Z" fill="#F7F2F2"/>
</g>
</g>
<g opacity="0.32">
<g opacity="0.32">
<path opacity="0.32" d="M265.857 165.451C265.611 165.222 265.267 164.632 265.005 164.288C264.416 163.47 263.826 162.634 263.237 161.799C262.271 160.424 261.173 159.065 260.371 157.591C260.191 157.247 259.651 157.558 259.847 157.902C260.666 159.425 261.812 160.833 262.811 162.258C263.4 163.093 263.99 163.928 264.579 164.763C264.841 165.123 265.087 165.598 265.415 165.893C265.709 166.155 266.151 165.713 265.857 165.451Z" fill="#F7F2F2"/>
</g>
</g>
<g opacity="0.32">
<g opacity="0.32">
<path opacity="0.32" d="M268.593 167.007C270.018 166.303 271.475 165.665 272.916 165.01C274.521 164.289 276.11 163.487 277.763 162.864C278.124 162.733 277.976 162.128 277.6 162.275C275.962 162.881 274.357 163.683 272.769 164.404C271.279 165.091 269.756 165.746 268.282 166.467C267.938 166.663 268.25 167.187 268.593 167.007Z" fill="#F7F2F2"/>
</g>
</g>
<g opacity="0.32">
<g opacity="0.32">
<path opacity="0.32" d="M268.888 160.279C269.2 159.984 269.085 158.838 269.118 158.478C269.232 157.07 269.347 155.661 269.462 154.253C269.593 152.747 269.707 151.24 269.855 149.734C269.92 149.128 269.904 147.85 270.133 147.441C270.329 147.097 269.789 146.786 269.609 147.13C269.298 147.687 269.363 148.62 269.298 149.226C269.15 150.651 269.036 152.075 268.905 153.516C268.774 154.974 268.659 156.415 268.545 157.872C268.512 158.363 268.463 158.854 268.43 159.362C268.414 159.509 268.381 159.673 268.397 159.821C268.414 160.083 268.266 160.033 268.463 159.853C268.168 160.115 268.594 160.541 268.888 160.279Z" fill="#F7F2F2"/>
</g>
</g>
<path d="M268.296 160.605C268.329 160.949 267.232 167.467 264.006 174.622C260.78 181.778 257.833 185.315 252.412 190.67C246.992 196.025 246.665 195.844 246.665 195.844C246.665 195.844 245.617 194.993 245.731 194.944C245.846 194.895 250.824 193.405 259.192 181.926C259.192 181.926 264.939 172.526 266.233 167.598C267.527 162.685 268.296 160.605 268.296 160.605Z" fill="#4F2926"/>
<path d="M80.082 196.909C87.7292 188.574 95.7857 200.118 86.5993 198.35C85.2729 198.038 83.1114 198.366 82.7839 198.939L80.082 196.909Z" fill="#11923D"/>
<path d="M76.1374 193.469C62.9391 194.091 67.8844 203.507 73.6975 199.888C75.0566 199.282 77.7094 195.974 78.7574 196.253L76.1374 193.469Z" fill="#11923D"/>
<path d="M76.6113 193.454C83.8655 183.187 92.7407 194.961 80.0992 194.764C79.0185 194.895 78.5272 195.436 78.4617 195.469L76.6113 193.454Z" fill="#11923D"/>
<path d="M73.6484 189.441C83.9647 174.606 90.0398 187.509 79.3142 189.867C77.4966 190.277 76.5468 191.849 75.8918 192.569C75.2041 191.783 74.2543 190.489 73.6484 189.441Z" fill="#11923D"/>
<path d="M72.8784 188.984C61.3832 185.971 60.9902 195.764 66.4758 194.83C70.766 193.537 73.4843 192.096 75.5967 192.832L72.8784 188.984Z" fill="#11923D"/>
<path d="M70.6992 183.956C77.8387 171.151 90.8405 176.784 75.7591 185.135C74.7766 185.61 72.5005 187.886 72.697 188.05L70.6992 183.956Z" fill="#11923D"/>
<path d="M70.2577 183.793C56.8793 178.062 53.8336 190.392 66.7207 187.805C68.8986 187.445 71.2402 187.69 72.452 188.313L70.2577 183.793Z" fill="#11923D"/>
<path d="M68.7035 178.567C68.6708 178.109 70.7176 172.345 74.5166 170.363C77.022 168.693 78.5285 170.724 77.9718 173.213C76.9893 176.766 71.7656 180.713 69.555 181.138L68.7035 178.567Z" fill="#11923D"/>
<path d="M68.5392 178.29C68.2117 177.979 63.1846 172.87 59.6312 174.671C58.3048 175.326 58.616 175.801 59.0581 177.209C61.5143 182.4 69.1123 182.056 69.4398 181.385L68.5392 178.29Z" fill="#11923D"/>
<path d="M68.2761 176.671C63.2326 174.509 62.9215 165.421 66.5567 164.93C71.3546 164.864 70.9289 175.394 68.2761 176.671Z" fill="#11923D"/>
<path d="M79.5114 197.285C68.753 201.313 74.1731 211.498 79.2003 203.065C80.4611 201.215 81.46 200.331 82.3934 199.446L79.6751 197.121L79.5114 197.285Z" fill="#11923D"/>
<g opacity="0.32">
<g opacity="0.32">
<path opacity="0.32" d="M79.9848 198.384C78.6093 198.99 77.3648 200.005 76.3659 201.102C75.6454 201.905 74.7612 202.953 74.7776 204.099C74.7776 204.492 75.3998 204.492 75.3998 204.099C75.3834 203.002 76.3987 201.938 77.1028 201.201C78.0198 200.267 79.0842 199.432 80.2959 198.892C80.6562 198.761 80.3451 198.22 79.9848 198.384Z" fill="#F7F2F2"/>
</g>
</g>
<g opacity="0.32">
<g opacity="0.32">
<path opacity="0.32" d="M82.0971 198.268C83.3088 197.089 85.6668 196.008 87.3371 196.843C87.6973 197.024 88.0085 196.483 87.6482 196.319C85.6996 195.353 83.0796 196.45 81.655 197.842C81.3766 198.121 81.8187 198.546 82.0971 198.268Z" fill="#F7F2F2"/>
</g>
</g>
<g opacity="0.32">
<g opacity="0.32">
<path opacity="0.32" d="M78.3804 194.895C79.5594 193.405 81.8355 190.883 83.9643 191.964C84.3082 192.144 84.6193 191.62 84.2754 191.44C81.8355 190.195 79.3302 192.7 77.9547 194.469C77.709 194.78 78.1348 195.206 78.3804 194.895Z" fill="#F7F2F2"/>
</g>
</g>
<g opacity="0.32">
<g opacity="0.32">
<path opacity="0.32" d="M77.1179 194.503C76.7577 194.405 76.2664 194.683 75.9553 194.83C75.2348 195.158 74.5307 195.535 73.8429 195.928C73.1552 196.321 72.4674 196.714 71.8288 197.172C71.5504 197.352 71.0428 197.631 70.9609 197.991C70.879 198.367 71.4685 198.548 71.5504 198.155C71.5832 197.974 72.2545 197.614 72.451 197.483C73.0078 197.123 73.5645 196.779 74.1377 196.468C74.7108 196.14 75.3003 195.829 75.8898 195.535C76.1027 195.436 76.7577 195.043 76.9378 195.092C77.3308 195.207 77.4945 194.618 77.1179 194.503Z" fill="#F7F2F2"/>
</g>
</g>
<g opacity="0.32">
<g opacity="0.32">
<path opacity="0.32" d="M75.4655 190.572C76.6937 188.836 78.1674 187.264 79.9359 186.069C80.5254 185.676 81.2295 185.152 81.9337 184.972C81.8518 184.792 81.7699 184.595 81.7044 184.415C81.7208 184.399 81.7535 184.399 81.7699 184.382C81.4097 184.53 81.5734 185.119 81.9337 184.972C81.9664 184.956 81.9992 184.956 82.0155 184.939C82.3103 184.759 82.1138 184.284 81.7863 184.382C80.9839 184.579 80.1652 185.168 79.4938 185.643C77.7089 186.888 76.2188 188.493 74.9415 190.277C74.7123 190.572 75.2363 190.883 75.4655 190.572Z" fill="#F7F2F2"/>
</g>
</g>
<g opacity="0.32">
<g opacity="0.32">
<path opacity="0.32" d="M74.1545 190.833C72.5988 190.228 70.9286 190.08 69.2747 190.293C68.1776 190.44 66.9167 190.719 66.0816 191.488C65.7868 191.75 66.229 192.193 66.5237 191.931C67.3261 191.194 68.6361 190.964 69.6841 190.866C71.1578 190.719 72.6316 190.899 74.0071 191.423C74.3673 191.57 74.5311 190.981 74.1545 190.833Z" fill="#F7F2F2"/>
</g>
</g>
<g opacity="0.32">
<g opacity="0.32">
<path opacity="0.32" d="M72.7316 186.15C73.665 184.005 75.1387 182.171 76.8581 180.599C77.5131 180.01 78.2009 179.453 78.9214 178.962C79.1834 178.782 79.7237 178.372 79.953 178.356C80.346 178.323 80.346 177.701 79.953 177.734C79.56 177.766 79.1506 178.078 78.8231 178.29C78.0862 178.782 77.3821 179.322 76.7107 179.912C74.8276 181.565 73.1901 183.547 72.1912 185.839C72.0439 186.2 72.5842 186.527 72.7316 186.15Z" fill="#F7F2F2"/>
</g>
</g>
<g opacity="0.32">
<g opacity="0.32">
<path opacity="0.32" d="M71.2419 185.889C68.54 184.53 65.0849 183.826 62.1374 184.841C61.7608 184.972 61.9245 185.562 62.3011 185.431C65.0849 184.464 68.3599 185.119 70.9308 186.413C71.2746 186.593 71.6021 186.069 71.2419 185.889Z" fill="#F7F2F2"/>
</g>
</g>
<g opacity="0.32">
<g opacity="0.32">
<path opacity="0.32" d="M70.159 179.829C70.8304 179.142 71.338 178.192 71.8948 177.422C72.5661 176.473 73.3194 175.523 73.8761 174.508C74.0726 174.164 73.5323 173.853 73.3521 174.196C72.8281 175.163 72.1076 176.063 71.469 176.98C70.9286 177.75 70.3064 178.814 69.7333 179.404C69.4549 179.682 69.897 180.124 70.159 179.829Z" fill="#F7F2F2"/>
</g>
</g>
<g opacity="0.32">
<g opacity="0.32">
<path opacity="0.32" d="M68.2451 180.077C66.2146 179.078 64.1349 178.063 62.0226 177.277C61.6459 177.146 61.4986 177.735 61.8588 177.866C63.9221 178.636 65.9526 179.635 67.9339 180.601C68.2778 180.781 68.5889 180.257 68.2451 180.077Z" fill="#F7F2F2"/>
</g>
</g>
<g opacity="0.32">
<g opacity="0.32">
<path opacity="0.32" d="M68.2263 175.801C68.2755 175.932 68.21 175.539 68.1936 175.441C68.1608 175.113 68.1445 174.786 68.1117 174.458C68.0298 173.476 67.948 172.493 67.8661 171.494C67.7842 170.545 67.7023 169.611 67.6041 168.662C67.555 168.219 67.5877 167.63 67.3912 167.221C67.2111 166.86 66.6871 167.171 66.8672 167.532C66.9818 167.777 66.9982 168.645 67.0473 169.038C67.1456 170.021 67.2275 171.003 67.3093 171.986C67.3912 172.886 67.4567 173.787 67.5386 174.704C67.5713 175.081 67.5058 175.605 67.6532 175.965C67.7842 176.341 68.3737 176.178 68.2263 175.801Z" fill="#F7F2F2"/>
</g>
</g>
<path d="M68.1768 176.262C68.1441 176.491 68.8809 180.83 71.0261 185.595C73.1712 190.361 75.1362 192.719 78.7387 196.272C82.3412 199.825 82.5704 199.711 82.5704 199.711C82.5704 199.711 83.2746 199.138 83.1927 199.105C83.1108 199.072 79.8031 198.073 74.2356 190.442C74.2356 190.442 70.4202 184.187 69.5523 180.912C68.6844 177.637 68.1768 176.262 68.1768 176.262Z" fill="#4F2926"/>
<path d="M218.418 198.743C226.065 190.408 234.122 201.952 224.935 200.184C223.609 199.872 221.447 200.2 221.12 200.773L218.418 198.743Z" fill="#11923D"/>
<path d="M214.456 195.305C201.257 195.927 206.203 205.343 212.016 201.724C213.375 201.118 216.028 197.81 217.076 198.088L214.456 195.305Z" fill="#11923D"/>
<path d="M214.93 195.287C222.184 185.019 231.059 196.793 218.418 196.597C217.337 196.728 216.846 197.268 216.78 197.301L214.93 195.287Z" fill="#11923D"/>
<path d="M211.984 191.275C222.301 176.44 228.376 189.343 217.65 191.701C215.832 192.111 214.883 193.683 214.228 194.403C213.524 193.617 212.574 192.323 211.984 191.275Z" fill="#11923D"/>
<path d="M211.214 190.816C199.719 187.803 199.326 197.596 204.812 196.662C209.102 195.369 211.82 193.928 213.933 194.664L211.214 190.816Z" fill="#11923D"/>
<path d="M209.035 185.79C216.175 172.985 229.176 178.618 214.095 186.969C213.113 187.444 210.836 189.72 211.033 189.884L209.035 185.79Z" fill="#11923D"/>
<path d="M208.578 185.627C195.2 179.896 192.154 192.226 205.041 189.639C207.219 189.279 209.561 189.524 210.772 190.147L208.578 185.627Z" fill="#11923D"/>
<path d="M207.039 180.403C207.007 179.945 209.054 174.181 212.853 172.199C215.358 170.529 216.864 172.56 216.308 175.049C215.325 178.602 210.102 182.548 207.891 182.974L207.039 180.403Z" fill="#11923D"/>
<path d="M206.858 180.124C206.53 179.812 201.503 174.703 197.95 176.505C196.623 177.16 196.934 177.635 197.376 179.043C199.833 184.234 207.431 183.89 207.758 183.218L206.858 180.124Z" fill="#11923D"/>
<path d="M206.612 178.503C201.569 176.341 201.257 167.253 204.893 166.762C209.674 166.697 209.265 177.226 206.612 178.503Z" fill="#11923D"/>
<path d="M217.83 199.121C207.071 203.149 212.491 213.334 217.519 204.901C218.779 203.051 219.778 202.167 220.712 201.282L217.993 198.957L217.83 199.121Z" fill="#11923D"/>
<g opacity="0.32">
<g opacity="0.32">
<path opacity="0.32" d="M218.321 200.216C216.945 200.822 215.701 201.837 214.702 202.934C213.981 203.737 213.097 204.785 213.114 205.931C213.114 206.324 213.736 206.324 213.736 205.931C213.719 204.834 214.735 203.77 215.439 203.033C216.356 202.099 217.42 201.264 218.632 200.724C218.992 200.593 218.681 200.052 218.321 200.216Z" fill="#F7F2F2"/>
</g>
</g>
<g opacity="0.32">
<g opacity="0.32">
<path opacity="0.32" d="M220.431 200.1C221.643 198.921 224.001 197.84 225.671 198.675C226.031 198.856 226.342 198.315 225.982 198.151C224.034 197.185 221.414 198.282 219.989 199.674C219.711 199.953 220.136 200.378 220.431 200.1Z" fill="#F7F2F2"/>
</g>
</g>
<g opacity="0.32">
<g opacity="0.32">
<path opacity="0.32" d="M216.701 196.731C217.88 195.241 220.156 192.719 222.285 193.8C222.629 193.98 222.94 193.456 222.596 193.276C220.156 192.031 217.651 194.536 216.275 196.305C216.03 196.616 216.472 197.042 216.701 196.731Z" fill="#F7F2F2"/>
</g>
</g>
<g opacity="0.32">
<g opacity="0.32">
<path opacity="0.32" d="M215.438 196.337C215.078 196.239 214.587 196.517 214.276 196.664C213.555 196.992 212.851 197.369 212.163 197.762C211.475 198.155 210.788 198.548 210.149 199.006C209.871 199.186 209.363 199.465 209.281 199.825C209.199 200.201 209.789 200.382 209.871 199.989C209.903 199.808 210.575 199.448 210.771 199.317C211.328 198.957 211.885 198.613 212.458 198.302C213.031 197.974 213.621 197.663 214.21 197.369C214.423 197.27 215.078 196.877 215.258 196.926C215.667 197.041 215.815 196.452 215.438 196.337Z" fill="#F7F2F2"/>
</g>
</g>
<g opacity="0.32">
<g opacity="0.32">
<path opacity="0.32" d="M213.801 192.406C215.03 190.67 216.503 189.098 218.272 187.903C218.861 187.51 219.565 186.986 220.27 186.806C220.188 186.626 220.106 186.429 220.04 186.249C220.057 186.233 220.089 186.233 220.106 186.216C219.746 186.364 219.909 186.953 220.27 186.806C220.302 186.789 220.335 186.789 220.351 186.773C220.646 186.593 220.45 186.118 220.122 186.216C219.32 186.413 218.501 187.002 217.83 187.477C216.045 188.722 214.555 190.326 213.277 192.111C213.032 192.406 213.572 192.717 213.801 192.406Z" fill="#F7F2F2"/>
</g>
</g>
<g opacity="0.32">
<g opacity="0.32">
<path opacity="0.32" d="M212.49 192.669C210.935 192.064 209.265 191.916 207.611 192.129C206.514 192.276 205.253 192.555 204.418 193.324C204.123 193.586 204.565 194.029 204.86 193.767C205.662 193.03 206.972 192.8 208.02 192.702C209.494 192.555 210.968 192.735 212.343 193.259C212.687 193.406 212.851 192.817 212.49 192.669Z" fill="#F7F2F2"/>
</g>
</g>
<g opacity="0.32">
<g opacity="0.32">
<path opacity="0.32" d="M211.066 187.984C211.999 185.839 213.473 184.005 215.192 182.433C215.847 181.844 216.535 181.287 217.256 180.796C217.518 180.616 218.058 180.206 218.287 180.19C218.68 180.157 218.68 179.535 218.287 179.568C217.894 179.6 217.485 179.912 217.157 180.124C216.421 180.616 215.716 181.156 215.045 181.746C213.162 183.399 211.524 185.381 210.526 187.673C210.378 188.034 210.902 188.345 211.066 187.984Z" fill="#F7F2F2"/>
</g>
</g>
<g opacity="0.32">
<g opacity="0.32">
<path opacity="0.32" d="M209.576 187.723C206.874 186.364 203.419 185.66 200.471 186.675C200.095 186.806 200.258 187.396 200.635 187.265C203.419 186.298 206.694 186.953 209.265 188.247C209.609 188.427 209.92 187.903 209.576 187.723Z" fill="#F7F2F2"/>
</g>
</g>
<g opacity="0.32">
<g opacity="0.32">
<path opacity="0.32" d="M208.495 181.661C209.166 180.974 209.674 180.024 210.231 179.254C210.902 178.305 211.655 177.355 212.212 176.34C212.409 175.996 211.868 175.685 211.688 176.028C211.164 176.995 210.444 177.895 209.805 178.812C209.265 179.582 208.642 180.646 208.069 181.236C207.791 181.514 208.217 181.956 208.495 181.661Z" fill="#F7F2F2"/>
</g>
</g>
<g opacity="0.32">
<g opacity="0.32">
<path opacity="0.32" d="M206.561 181.909C204.531 180.91 202.451 179.895 200.339 179.109C199.962 178.978 199.815 179.567 200.175 179.698C202.238 180.468 204.269 181.467 206.25 182.433C206.611 182.613 206.922 182.089 206.561 181.909Z" fill="#F7F2F2"/>
</g>
</g>
<g opacity="0.32">
<g opacity="0.32">
<path opacity="0.32" d="M206.564 177.635C206.613 177.766 206.548 177.373 206.531 177.275C206.499 176.947 206.482 176.62 206.45 176.292C206.368 175.31 206.286 174.327 206.204 173.328C206.122 172.379 206.04 171.445 205.942 170.496C205.893 170.053 205.926 169.464 205.729 169.055C205.549 168.694 205.025 169.005 205.205 169.366C205.32 169.611 205.336 170.479 205.385 170.872C205.483 171.855 205.565 172.837 205.647 173.82C205.729 174.72 205.795 175.621 205.876 176.538C205.909 176.915 205.844 177.439 205.991 177.799C206.106 178.175 206.695 178.012 206.564 177.635Z" fill="#F7F2F2"/>
</g>
</g>
<path d="M206.513 178.094C206.48 178.323 207.217 182.662 209.362 187.428C211.507 192.193 213.472 194.551 217.075 198.104C220.677 201.657 220.906 201.543 220.906 201.543C220.906 201.543 221.61 200.97 221.529 200.937C221.447 200.904 218.139 199.905 212.572 192.274C212.572 192.274 208.756 186.019 207.888 182.744C207.02 179.469 206.513 178.094 206.513 178.094Z" fill="#4F2926"/>
<path d="M150.298 188.576H123.492V222.309H150.298V188.576Z" fill="#6D5DD3"/>
<path d="M150.299 188.461H142.275V222.193H150.299V188.461Z" fill="#0E0A2D"/>
<path d="M106.118 210.648H79.3125V222.438H106.118V210.648Z" fill="#6D5DD3"/>
<path d="M105.856 210.6H98.0781V222.39H105.856V210.6Z" fill="#0E0A2D"/>
<path d="M198.933 162.918H172.127V222.294H198.933V162.918Z" fill="#6D5DD3"/>
<path d="M198.95 162.688H190.91V222.243H198.95V162.688Z" fill="#0E0A2D"/>
<path d="M247.83 142.186H221.008V222.259H247.83V142.186Z" fill="#6D5DD3"/>
<path d="M247.796 141.891H239.789V221.964H247.796V141.891Z" fill="#0E0A2D"/>
</g>
</g>
<defs>
<clipPath id="clip0_2552_67595">
<rect width="322" height="220" rx="5" fill="white"/>
</clipPath>
</defs>
</svg>
