<svg width="322" height="220" viewBox="0 0 322 220" fill="none" xmlns="http://www.w3.org/2000/svg">
<rect width="322" height="220" rx="5" fill="#17B6BA"/>
<g clip-path="url(#clip0_2552_67540)">
<path opacity="0.22" d="M56.4471 216.79C52.3268 207.716 33.4907 164.627 48.9681 121.817C64.4455 79.0064 147.753 29.1774 182.326 69.1486C216.899 109.12 224.378 128.574 244.496 134.287C264.613 140 285.249 139.477 283.968 174.502C282.687 209.527 250.953 219.646 250.953 219.646L56.4471 216.79Z" fill="#F3F2FB"/>
<path opacity="0.22" d="M111.777 57.4629C111.777 57.4629 82.121 59.9361 73.3436 67.8432C64.5661 75.7504 64.1853 79.1292 68.1845 83.2744C72.1836 87.4196 85.4623 73.5385 91.5217 69.1321C97.5811 64.7256 103.381 61.7474 111.777 57.4629Z" fill="#F3F2FB"/>
<path d="M277.856 216.738H44.6914V219.769H277.856V216.738Z" fill="#E1AD81"/>
<path d="M174.848 55.0585C174.848 55.0585 182.777 57.9322 184.526 68.8002C186.274 79.6682 186.188 95.709 184.37 99.4536C182.552 103.198 181.271 107.047 177.462 108.719C173.654 110.391 172.147 110.879 172.147 110.879L172.546 116.069V129.48L146.75 127.878L146.906 81.7234L154.922 58.5767C154.939 58.5767 172.788 53.7871 174.848 55.0585Z" fill="#B35A5C"/>
<path d="M200.09 173.319C205.976 180.965 211.862 188.628 217.749 196.274C215.325 182.881 212.901 169.47 210.477 156.076L201.423 152.715L200.09 173.319Z" fill="#963C3C"/>
<path d="M142.94 119.762C126.683 122.235 118.183 128.522 113.405 134.549C104.887 145.277 102.359 182.932 102.359 182.932L132.587 181.173C131.877 192.982 131.167 204.807 130.475 216.616C137.486 215.588 144.498 214.561 151.51 213.533C169.168 213.342 186.81 213.133 204.468 212.941C202.772 199.948 201.075 186.973 199.361 173.98L201.318 176.209L211.549 143.797C208.295 139.93 205.698 136.708 203.932 134.479C197.457 126.328 196.522 124.517 193.111 122.566C189.251 120.371 184.68 119.414 183.191 119.1C180.196 118.473 176.838 117.776 175.47 117.724C175.228 117.724 174.068 117.689 172.631 117.271C172.613 117.271 172.579 117.254 172.579 117.254C169.238 121.26 165.896 125.283 162.538 129.289C161.811 129.759 161.17 129.916 160.754 129.968C156.876 130.56 151.648 125.805 149.778 122.374C149.501 121.869 148.463 119.866 146.749 119.518C146.506 119.466 146.264 119.448 146.056 119.431C144.706 119.379 143.632 119.57 142.94 119.762Z" fill="#559D77"/>
<path opacity="0.53" d="M148.705 121.19C148.705 121.19 128.016 129.254 122.251 146.967C116.486 164.662 116.053 182.079 116.053 182.079L111.691 141.307L133.937 142.299L123.931 126.99C123.931 126.99 131.808 181.644 130.821 181.644C129.834 181.644 104.004 174.085 104.004 174.085L203.447 152.767L179.244 118.352L181.927 197.214L143.632 181.086L134.612 174.207L162.78 211.531L199.655 174.433L193.596 210.817L165.584 173.58L201.906 194.393L135.617 193.679" stroke="white" stroke-width="2" stroke-miterlimit="10"/>
<path d="M185.531 116.801C185.531 116.801 182.467 117.759 182.311 118.96C182.155 120.162 182.865 120.511 183.315 120.615C183.765 120.72 185.877 119.918 186.258 119.849C186.604 119.744 185.531 116.801 185.531 116.801Z" fill="#963C3C"/>
<path d="M194.809 127.113L193.805 129.343L192.16 127.862" stroke="#192F35" stroke-miterlimit="10"/>
<path d="M181.738 124.988L186.032 120.947L212.018 106.735C212.018 106.735 215.619 103.548 216.675 105.62C217.731 107.693 214.615 109.556 214.615 109.556C214.615 109.556 188.317 125.04 188.161 125.04C188.005 125.04 182.136 126.416 182.136 126.416C182.136 126.416 179.661 127.078 181.738 124.988Z" fill="#6D5DD3"/>
<path d="M213.94 190.108C213.94 190.108 216.952 196.5 219.185 197.371C221.401 198.242 231.962 200.802 234.507 199.287C237.052 197.772 239.579 188.506 239.666 184.918C239.752 181.33 239.666 178.927 239.666 178.927C239.666 178.927 211.36 135.89 209.092 133.26C206.824 130.63 203.691 120.807 202.894 117.934C202.098 115.06 202.098 115.06 202.098 115.06L190.343 108.668C190.343 108.668 184.993 113.893 184.941 114.172C184.889 114.45 185.218 117.011 185.218 117.011L185.911 120.964C185.911 120.964 185.547 123.524 185.755 124.378C185.963 125.231 187.399 126.137 187.399 126.137L187.555 129.916C187.555 129.916 196.333 141.899 199.414 143.327L200.955 143.083L213.94 190.108Z" fill="#B35A5C"/>
<path d="M214.596 109.643C214.596 109.643 214.96 110.096 214.977 110.218C214.994 110.34 208.242 113.788 208.242 113.788C208.242 113.788 208.104 113.475 208.052 113.405C208 113.353 208 113.353 208 113.353L214.509 109.486L214.596 109.643Z" fill="#0E0A2D"/>
<path d="M161.189 83.0136C162.9 83.0136 164.288 81.4072 164.288 79.4257C164.288 77.4442 162.9 75.8379 161.189 75.8379C159.477 75.8379 158.09 77.4442 158.09 79.4257C158.09 81.4072 159.477 83.0136 161.189 83.0136Z" fill="#4E2B27"/>
<path d="M178.882 82.4374C180.594 82.4374 181.981 80.831 181.981 78.8496C181.981 76.8681 180.594 75.2617 178.882 75.2617C177.171 75.2617 175.783 76.8681 175.783 78.8496C175.783 80.831 177.171 82.4374 178.882 82.4374Z" fill="#4E2B27"/>
<path d="M158.21 97.1033C160.992 97.1033 163.248 94.9277 163.248 92.244C163.248 89.5603 160.992 87.3848 158.21 87.3848C155.428 87.3848 153.172 89.5603 153.172 92.244C153.172 94.9277 155.428 97.1033 158.21 97.1033Z" fill="#963C3C"/>
<path d="M180.872 94.7535C183.081 94.7535 184.871 93.0458 184.871 90.9392C184.871 88.8327 183.081 87.125 180.872 87.125C178.664 87.125 176.873 88.8327 176.873 90.9392C176.873 93.0458 178.664 94.7535 180.872 94.7535Z" fill="#963C3C"/>
<path d="M165.775 94.1602C165.775 94.1602 166.71 95.8322 169.619 97.2081C172.527 98.584 175.886 97.1384 175.886 97.1384" stroke="#4E2B27" stroke-miterlimit="10"/>
<path d="M160.67 73.1904C160.67 73.1904 167.612 71.3094 170.59 74.305C170.59 74.305 171.577 78.6244 171.144 82.9611C170.711 87.2979 171.802 89.6143 173.135 89.6143C174.468 89.6143 175.455 89.1789 175.455 89.1789" stroke="#111014" stroke-miterlimit="10"/>
<path d="M174.934 72.7727C175.037 72.7379 176.994 72.198 178.725 72.3025C180.439 72.407 181.564 73.0165 181.564 73.0165" stroke="#111014" stroke-miterlimit="10"/>
<path d="M171.974 110.705C171.974 110.705 165.153 111.663 162.504 110.793C159.873 109.922 159.354 109.695 159.354 109.695C159.354 109.695 161.362 113.335 164.738 114.659C168.114 115.983 172.026 115.669 172.026 115.669L171.974 110.705Z" fill="#963C3C"/>
<path d="M151.684 89.3365C152.03 88.2392 150.767 82.6485 153.814 80.1057C156.861 77.5628 160.531 75.6644 161.379 72.8952C162.245 70.1259 160.687 68.0533 161.327 66.3117C161.95 64.5874 165.119 65.3886 166.833 65.2667C168.546 65.1447 171.368 63.9952 172.788 61.4524C174.208 58.9096 174.571 55.2172 174.571 55.2172L172.528 51.4727L152.221 70.3523L149.555 88.6224L151.684 89.3365Z" fill="#963C3C"/>
<path d="M146.818 116.627C147.615 116.104 148.723 115.198 149.433 113.753C150.489 111.593 149.156 110.078 150.125 108.092C150.939 106.403 154.384 103.076 155.544 100.917C156.704 98.7571 156.271 93.7411 155.111 91.3028C153.951 88.8819 152.705 84.3361 151.493 83.5524C150.281 82.7686 146.039 90.4319 146.039 90.4319C146.039 90.4319 145.797 94.5597 145.555 98.6874C145.278 103.233 144.914 104.592 144.966 106.943C145.001 109.277 145.364 112.586 146.818 116.627Z" fill="#963C3C"/>
<path d="M181.912 54.9902C181.86 54.7812 179.004 43.8609 168.945 41.8928C158.887 39.9247 153.122 46.9437 150.213 50.3573C147.305 53.771 142.907 54.0845 141.488 54.2935C140.051 54.5025 135.463 57.7072 135.342 60.6332C135.238 63.5592 132.329 64.2558 129.992 65.4227C127.672 66.5897 125.595 72.7203 126.235 75.7508C126.876 78.7813 127.776 81.6551 124.435 83.3097C121.094 84.9642 116.021 86.9846 113.701 89.9106C111.381 92.8366 110.896 94.8569 110.896 94.8569C110.896 94.8569 119.051 105.289 119.051 105.133C119.051 104.976 122.444 102.677 122.444 102.677C122.444 102.677 123.396 104.384 122.704 106.143C122.011 107.902 121.163 108.755 121.163 108.755C121.163 108.755 126.98 113.075 135.549 114.764C144.119 116.471 146.283 116.14 146.283 115.879C146.283 115.618 148.291 115.513 148.776 112.517C149.261 109.539 148.032 106.77 152.118 103.461C156.186 100.169 155.926 95.2575 154.662 91.9135C153.399 88.5521 148.638 81.3242 155.822 77.4925C163.024 73.6608 159.995 68.9235 160.272 66.7464C160.531 64.5693 164.029 63.3327 166.729 64.2906C169.43 65.2486 173.135 59.3443 173.55 57.4285C173.966 55.5127 174.243 55.025 174.243 55.025C174.243 55.025 179.956 59.3443 181.964 62.7928C183.973 66.2587 184.907 81.7944 184.977 87.2284C185.098 95.6755 184.7 98.4273 183.159 101.44C182.414 102.903 180.25 106.996 175.576 109.382C174.174 110.096 172.893 110.48 171.992 110.689C171.958 111.141 171.923 111.612 171.888 112.065L172.044 115.652C172.044 115.652 185.617 112.065 189.27 107.101C189.27 107.101 191.659 105.185 191.815 103.914C191.971 102.642 191.971 100.883 191.971 100.883L193.962 103.6L204.592 100.012C204.592 100.012 205.856 97.9397 202.601 94.9788C199.346 92.018 192.594 93.6203 193.477 85.2429C193.477 85.2429 197.684 81.1674 193.962 77.8234C193.962 77.8234 188.405 77.9105 188.006 72.5462C187.608 67.1992 190.621 64.639 188.803 59.0482C186.985 53.4575 181.912 54.9902 181.912 54.9902Z" fill="#4D2724"/>
<path d="M172.649 54.3104C172.649 54.3104 159.751 53.2654 156.393 60.6675C153.034 68.0696 155.354 71.9535 149.294 71.5703C143.235 71.1872 143.754 81.6894 143.876 87.5414C143.997 93.376 136.258 95.7273 134.458 94.1598C132.657 92.6097 127.1 93.2541 124.901 94.9435C122.581 96.8942 118.582 104.418 118.582 104.418" stroke="#754440" stroke-width="3" stroke-miterlimit="10"/>
<path d="M178.033 171.368C178.033 171.368 188.316 171.176 189.009 171.176C189.684 171.176 191.433 170.602 191.433 170.602C191.433 170.602 191.277 171.925 189.13 172.5C186.966 173.075 177.669 173.075 177.669 173.075L174.536 176.279C174.536 176.279 173.03 179.519 170.415 182.985C167.801 186.451 164.217 190.474 164.217 190.474C158.297 202.666 152.358 214.84 146.438 227.032L163.161 189.307C163.161 189.307 169.723 182.306 171.61 179.432C173.497 176.558 173.653 175.948 173.653 175.948L178.033 171.368Z" fill="#963C3C"/>
<path d="M196.471 114.102L185.148 114.258" stroke="#963C3C" stroke-width="3" stroke-miterlimit="10"/>
<path d="M193.494 118.178L187.573 118.874L185.98 121.121" stroke="#963C3C" stroke-width="3" stroke-miterlimit="10"/>
<path d="M212.104 106.649C212.139 106.631 212.589 107.641 213.264 108.408C213.922 109.157 214.563 109.522 214.563 109.522L214.234 109.784C214.234 109.784 212.624 108.129 212.174 107.189C212.174 107.206 211.897 106.701 212.104 106.649Z" fill="#0E0A2D"/>
<path d="M158.557 164.419C158.591 164.279 164.581 159.646 164.581 159.646" stroke="#963C3C" stroke-width="3" stroke-miterlimit="10"/>
<path d="M168.27 167.135L173.1 162.363" stroke="#963C3C" stroke-width="3" stroke-miterlimit="10"/>
<path d="M173.1 170.619C173.134 170.375 177.566 166.16 177.566 166.16" stroke="#963C3C" stroke-width="3" stroke-miterlimit="10"/>
<path d="M105.287 175.88C105.287 175.88 110.931 223.271 112.61 226.911C114.29 230.551 120.245 236.02 130.148 236.02C140.068 236.02 144.188 231.962 146.162 227.607C148.153 223.253 159.441 197.599 159.441 197.599L163.094 189.604C163.094 189.604 169.863 182.115 171.681 179.189C173.498 176.263 173.654 175.828 173.654 175.828L181.653 167.729C181.635 167.52 181.479 165.865 180.371 165.482C180.319 165.465 180.146 165.413 179.852 165.413C178.709 165.378 177.757 166.057 177.272 166.458C178.986 164.786 180.545 163.566 181.67 162.765C183.851 161.198 185.046 160.71 185.202 159.526C185.375 158.289 184.388 156.669 183.124 156.495C181.808 156.304 177.982 159.108 177.982 159.108L172.789 162.574C172.789 162.574 179.904 157.244 180.475 156.217C181.029 155.189 180.527 152.942 179.973 152.524C179.419 152.106 179.056 151.27 175.853 151.915L164.461 159.804L169.949 154.945C169.949 154.945 171.421 152.089 169.793 151.201C168.166 150.312 167.352 150.365 165.569 151.113C163.786 151.862 145.989 166.214 145.989 166.214C145.989 166.214 148.88 177.796 142.578 186.957C142.578 186.957 134.857 198.731 134.545 198.313C134.234 197.895 133.783 174.051 133.783 174.051L105.287 175.88Z" fill="#B35A5C"/>
<path d="M102.307 182.898C107.276 183.089 112.625 183.124 118.287 182.898C123.844 182.671 129.072 182.253 133.92 181.679L134.024 172.5C123.757 172.988 113.491 173.475 103.207 173.963C102.948 175.165 102.723 176.471 102.567 177.899C102.359 179.71 102.29 181.4 102.307 182.898Z" fill="#559D77"/>
<path d="M133.021 170.967C133.419 174.572 133.835 178.16 134.233 181.765L131.203 182.131C131.809 178.421 132.415 174.694 133.021 170.967Z" fill="#19713E"/>
<path d="M145.937 129.43L198.515 129.569C198.515 129.569 202.376 129.587 201.406 136.153C200.437 142.719 193.477 173.581 193.477 173.581C193.477 173.581 192.715 175.723 190.084 176.629C187.452 177.535 127.222 176.716 127.136 176.176C127.049 175.636 126.131 174.26 126.495 171.073C126.876 167.886 135.203 132.843 135.203 132.843C135.203 132.843 136.484 128.663 145.937 129.43Z" fill="#FFCA72"/>
<path d="M165.568 143.571C165.568 143.571 168.044 145.644 166.987 148.309C165.931 150.974 162.988 149.789 162.988 149.789C162.988 149.789 164.512 152.506 167.23 151.914C169.948 151.322 170.71 147.421 170.346 146.236C169.983 145.052 167.576 142.857 165.568 143.571Z" fill="white"/>
<path d="M153.293 136.359C153.847 136.359 193.458 136.69 193.458 136.69L187.849 162.989" stroke="white" stroke-width="3" stroke-miterlimit="10"/>
<path d="M77.3606 172.885C77.5164 172.292 78.988 167.66 77.7241 163.48C76.4603 159.3 81.1347 153.988 85.082 150.487C89.0119 146.969 93.3227 144.652 93.3227 144.652C93.3227 144.652 88.0424 151.445 88.7176 155.642C89.3928 159.822 90.6566 168.043 88.8734 172.972C87.0902 177.901 85.1685 178.806 84.9435 180.896C84.7184 182.986 84.5799 182.621 84.5799 182.621L61.3292 182.551C61.3292 182.551 59.0266 180.165 56.3605 178.51C53.6944 176.856 52.0497 176.873 51.6861 172.989C51.3226 169.105 52.3613 166.493 50.8032 164.246C49.2451 161.999 48.8642 161.633 48.8642 161.633C48.8642 161.633 54.4388 162.678 55.8411 164.472C57.2435 166.266 57.4685 166.719 57.6243 166.197C57.7801 165.674 59.0266 161.198 54.058 158.359C49.0893 155.52 47.964 154.249 48.6391 146.638C49.3143 139.027 57.7801 128.629 57.7801 128.629C57.7801 128.629 57.7801 140.664 58.7496 142.893C59.7191 145.14 62.316 148.937 66.7653 149.773C71.2146 150.591 74.3482 151.567 74.9368 154.771C75.5255 157.976 73.1536 165.239 73.9673 168.6C74.7637 171.909 77.3606 172.885 77.3606 172.885Z" fill="#F0512A"/>
<path d="M56.5 145.383C56.5 145.749 58.1274 154.422 65.9353 163.827C73.7433 173.232 71.3541 181.836 71.3541 181.836" stroke="#963C3C" stroke-width="3" stroke-miterlimit="10"/>
<path d="M55.6172 154.787C55.6172 154.787 57.6947 156.285 59.5471 156.807C61.3996 157.33 61.3996 157.33 61.3996 157.33" stroke="#963C3C" stroke-width="3" stroke-miterlimit="10"/>
<path d="M68.6016 162.938C68.6016 162.938 69.2767 164.575 69.1902 166.229C69.1209 167.866 68.9651 168.18 68.9651 168.18" stroke="#963C3C" stroke-width="3" stroke-miterlimit="10"/>
<path d="M86.2758 156.652C86.2758 156.652 83.5231 165.326 83.0037 169.941C82.4843 174.574 81.0647 176.96 78.6929 178.824C76.3211 180.687 75.3516 182.777 75.3516 182.777" stroke="#963C3C" stroke-width="3" stroke-miterlimit="10"/>
<path d="M80.6328 178.108C80.6328 178.108 82.6411 177.289 83.524 176.157C84.4069 175.043 84.4935 174.59 84.4935 174.59" stroke="#963C3C" stroke-width="3" stroke-miterlimit="10"/>
<path d="M64.3769 181.766C64.1518 180.494 62.005 178.997 59.2524 175.566C56.4997 172.134 55.8418 169.365 55.8418 169.365" stroke="#963C3C" stroke-width="3" stroke-miterlimit="10"/>
<path d="M60.8108 178.996C60.2222 178.474 57.833 177.132 57.4002 176.314C56.9501 175.495 56.8809 175.199 56.8809 175.199" stroke="#963C3C" stroke-width="3" stroke-miterlimit="10"/>
<path d="M54.7344 181.558C65.4162 181.523 76.1153 181.488 86.7971 181.453C86.7971 181.453 81.3091 211.114 80.3396 214.092C79.3701 217.088 79.976 218.046 79.976 218.046C66.3164 219.003 62.5942 218.481 62.4557 217.593C62.3865 217.227 62.9751 216.774 63.0617 215.677C63.1482 214.318 62.3865 213.256 62.248 213.047C61.3304 211.706 59.1664 203.276 54.7344 181.558Z" fill="#F1CFAA"/>
<path d="M56.292 187.496C63.0439 193.017 67.7529 198.155 70.9038 201.969L79.8197 213.395L79.9755 218.062C79.9755 218.062 62.3514 218.184 62.4552 217.61C62.5591 217.035 63.5459 215.746 62.2302 213.046C60.9144 210.364 57.6078 195.264 56.9499 192.024C56.3093 188.785 56.1016 187.635 56.1016 187.635C56.1708 187.618 56.2228 187.548 56.292 187.496Z" fill="#E6B78B"/>
<path d="M242.902 98.3063C255.428 98.3063 265.581 90.61 265.581 81.116C265.581 71.6222 255.428 63.9258 242.902 63.9258C230.376 63.9258 220.223 71.6222 220.223 81.116C220.223 90.61 230.376 98.3063 242.902 98.3063Z" fill="#0E0A2D"/>
<path d="M227.531 87.1934L227.254 87.6462L218.961 101.492L233.711 94.8915L227.531 87.1934Z" fill="#5670C4"/>
<path d="M240.914 98.4098C253.439 98.4098 263.593 90.7135 263.593 81.2195C263.593 71.7257 253.439 64.0293 240.914 64.0293C228.388 64.0293 218.234 71.7257 218.234 81.2195C218.234 90.7135 228.388 98.4098 240.914 98.4098Z" fill="#6D5DD3"/>
<path d="M253.013 74.9656H229C228.446 74.9656 227.996 74.5128 227.996 73.9555C227.996 73.3981 228.446 72.9453 229 72.9453H253.013C253.567 72.9453 254.017 73.3981 254.017 73.9555C254.034 74.5128 253.567 74.9656 253.013 74.9656Z" fill="#F3F2FB"/>
<path d="M253.411 80.575H229.399C228.845 80.575 228.395 80.1222 228.395 79.5649C228.395 79.0075 228.845 78.5547 229.399 78.5547H253.411C253.965 78.5547 254.415 79.0075 254.415 79.5649C254.433 80.1222 253.965 80.575 253.411 80.575Z" fill="#F3F2FB"/>
<path d="M253.895 86.6531H229.883C229.329 86.6531 228.879 86.2003 228.879 85.643C228.879 85.0856 229.329 84.6328 229.883 84.6328H253.895C254.449 84.6328 254.9 85.0856 254.9 85.643C254.9 86.2003 254.449 86.6531 253.895 86.6531Z" fill="#F3F2FB"/>
</g>
<defs>
<clipPath id="clip0_2552_67540">
<rect width="277" height="187" fill="white" transform="translate(23 32)"/>
</clipPath>
</defs>
</svg>
