<svg width="1136" height="220" viewBox="0 0 1136 220" fill="none" xmlns="http://www.w3.org/2000/svg">
<g clip-path="url(#clip0_2552_68236)">
<rect width="1136" height="220" rx="9" fill="#F3F2FB"/>
<g clip-path="url(#clip1_2552_68236)">
<path d="M563.537 176.999H484.74L477.486 78.7033C477.378 77.247 477.572 75.7841 478.055 74.4071C478.537 73.03 479.298 71.7688 480.29 70.7031C481.281 69.6374 482.481 68.7903 483.814 68.2155C485.147 67.6407 486.584 67.3507 488.034 67.3637L560.053 68.0102C562.227 68.0297 564.341 68.7294 566.103 70.0123C567.865 71.2953 569.187 73.0981 569.886 75.1711C570.602 77.2922 571.969 79.129 573.79 80.4161C575.61 81.7031 577.79 82.3735 580.014 82.3305L589.312 82.1504C590.781 82.122 592.24 82.4048 593.593 82.9805C594.947 83.5562 596.165 84.4121 597.169 85.4924C598.173 86.5728 598.94 87.8535 599.421 89.2517C599.902 90.6498 600.085 92.1342 599.96 93.6083L580.215 164.278C579.192 167.939 577.009 171.164 573.998 173.46C570.988 175.757 567.314 176.999 563.537 176.999Z" fill="#5423E7"/>
<path opacity="0.5" d="M578.03 168.399H479.996L472.41 74.2324H581.042C582.879 74.2324 584.693 74.6414 586.354 75.43C588.015 76.2187 589.482 77.3675 590.651 78.7942C591.82 80.2209 592.661 81.8901 593.114 83.6825C593.567 85.4748 593.62 87.3458 593.271 89.1615L578.03 168.399Z" fill="white"/>
<path d="M568.1 177H478.789C476.222 177 473.75 176.021 471.87 174.26C469.991 172.499 468.843 170.087 468.658 167.508L462.026 74.9644C461.926 73.5628 462.113 72.1555 462.577 70.8301C463.041 69.5047 463.77 68.2897 464.721 67.2609C465.671 66.2321 466.822 65.4117 468.102 64.8506C469.381 64.2896 470.761 64 472.157 64H544.816C546.937 64 549.006 64.6691 550.731 65.9135C552.455 67.1578 553.75 68.9148 554.433 70.9379L554.562 71.3222C555.255 73.3771 556.58 75.1566 558.344 76.4035C560.108 77.6504 562.22 78.2999 564.374 78.2582L574.314 78.0657C575.735 78.0382 577.145 78.311 578.454 78.8665C579.763 79.4219 580.941 80.2477 581.914 81.2904C582.886 82.3331 583.63 83.5696 584.099 84.92C584.567 86.2705 584.749 87.7048 584.632 89.1304L578.223 167.61C578.014 170.169 576.857 172.555 574.981 174.295C573.106 176.034 570.65 177 568.1 177Z" fill="#DBD2FF"/>
<path d="M508.063 121.943L528.532 140.858L549.001 121.943L543.824 116.262L532.36 126.855V102.018H524.703V126.855L513.24 116.262L508.063 121.943Z" fill="white"/>
<path opacity="0.6" d="M502.594 119.739L523.062 138.655L543.531 119.739L538.354 114.058L526.89 124.651V99.8145H519.234V124.651L507.77 114.058L502.594 119.739Z" fill="#5423E7"/>
</g>
<g clip-path="url(#clip2_2552_68236)">
<path d="M20.9223 -9.34961C20.9223 -9.34961 6.03968 71.7166 58.5939 100.206" stroke="#6D5DD3" stroke-width="2" stroke-miterlimit="10"/>
<path d="M83.7081 -17.6875C83.7081 -17.6875 96.2654 21.3658 58.5938 100.116" stroke="#6D5DD3" stroke-width="2" stroke-miterlimit="10"/>
<path d="M59.1016 100.363C116.772 132.79 126.031 226.9 126.031 226.9" stroke="#6D5DD3" stroke-width="2" stroke-miterlimit="10"/>
<path d="M65.1049 225.047C65.1049 225.047 77.6621 150.234 58.5938 100.205" stroke="#6D5DD3" stroke-width="2" stroke-miterlimit="10"/>
<path d="M-20.9336 131.01L58.5954 100.205" stroke="#6D5DD3" stroke-width="2" stroke-miterlimit="10"/>
<path d="M-30.7031 89.7576C-30.7031 89.7576 16.3632 75.5314 21.4326 43.7454C21.4326 43.7454 51.4532 64.3607 82.9278 29.127C82.9278 29.127 84.6372 80.3726 143.703 77.8976C85.5674 110.02 58.5926 100.206 58.5926 100.206" stroke="#6D5DD3" stroke-width="2" stroke-miterlimit="10"/>
<path d="M68.5117 192.254C68.5117 192.254 83.8933 166.803 112.866 172.054C112.866 172.054 108.043 125.022 131.297 84.3633" stroke="#6D5DD3" stroke-width="2" stroke-miterlimit="10"/>
<path d="M68.916 158.287C68.916 158.287 79.7308 133.376 97.1927 138.979C97.1927 138.979 86.6864 116.655 103.165 96.0392C103.165 96.0392 70.7467 92.7393 74.4367 61.3828C74.4367 61.3828 45.2683 84.3504 30.5938 71.18C30.5938 71.18 25.3229 108.413 5.03125 121.102" stroke="#6D5DD3" stroke-width="2" stroke-miterlimit="10"/>
<path d="M65.9318 128.192C65.9318 128.192 67.4833 119.706 80.5278 117.124C80.5278 117.124 77.7451 103.628 82.3959 100.707C82.3959 100.707 70.2118 95.1673 65.7979 84.1366C65.7979 84.1366 50.2957 94.0308 38.6318 83.5684C38.6318 83.5684 30.4925 111.137 26.2598 112.729" stroke="#6D5DD3" stroke-width="2" stroke-miterlimit="10"/>
</g>
</g>
<defs>
<clipPath id="clip0_2552_68236">
<rect width="1136" height="220" rx="9" fill="white"/>
</clipPath>
<clipPath id="clip1_2552_68236">
<rect width="138" height="113" fill="white" transform="translate(462 64)"/>
</clipPath>
<clipPath id="clip2_2552_68236">
<rect width="179" height="245" fill="white" transform="translate(-31 -18)"/>
</clipPath>
</defs>
</svg>
