<svg width="178" height="82" viewBox="0 0 178 82" fill="none" xmlns="http://www.w3.org/2000/svg">
<path opacity="0.5" d="M100.765 53.4512H141.931L133.265 63.7139L141.931 73.9767H100.765V53.4512Z" fill="url(#paint0_linear_2035_53984)"/>
<rect width="14.5943" height="15.6973" transform="matrix(0.50248 0.864589 -0.865812 0.500369 81.314 10.2383)" fill="#6D5DD3"/>
<path opacity="0.5" d="M79.6396 53.4512H38.473L47.1397 63.7139L38.473 73.9767H79.6396V53.4512Z" fill="url(#paint1_linear_2035_53984)"/>
<rect opacity="0.5" x="54.7231" y="48.0488" width="70.9583" height="20.5255" fill="url(#paint2_linear_2035_53984)"/>
<rect width="3.7837" height="15.6973" transform="matrix(0.50248 0.864589 -0.865812 0.500369 86.7461 19.5859)" fill="url(#paint3_linear_2035_53984)"/>
<rect x="81.2646" y="10.2383" width="14.625" height="37.8102" fill="#6D5DD3"/>
<rect x="92.0981" y="10.2383" width="3.79167" height="37.8102" fill="url(#paint4_linear_2035_53984)"/>
<path d="M47.5178 33.2511C47.5178 31.6588 47.2199 30.082 46.6411 28.6108C46.0623 27.1397 45.2138 25.803 44.1443 24.677C43.0748 23.551 41.8051 22.6579 40.4077 22.0485C39.0103 21.4392 37.5125 21.1256 36 21.1256C39.0547 21.1256 41.9843 19.848 44.1443 17.574C46.3043 15.3001 47.5178 12.2159 47.5178 9C47.5178 12.2159 48.7313 15.3001 50.8913 17.574C53.0512 19.848 55.9809 21.1255 59.0356 21.1256C55.9808 21.1256 53.0513 22.403 50.8913 24.677C48.7313 26.951 47.5178 30.0352 47.5178 33.2511Z" fill="#BEBBF9"/>
<path d="M131.869 36.2252C131.869 35.2992 131.709 34.3822 131.398 33.5267C131.087 32.6712 130.631 31.8938 130.057 31.239C129.482 30.5842 128.8 30.0648 128.05 29.7104C127.299 29.356 126.494 29.1736 125.682 29.1736C127.323 29.1736 128.896 28.4307 130.057 27.1083C131.217 25.7859 131.869 23.9923 131.869 22.1221C131.869 23.9923 132.521 25.7859 133.681 27.1083C134.842 28.4307 136.416 29.1736 138.057 29.1736C136.416 29.1737 134.842 29.9166 133.681 31.239C132.521 32.5614 131.869 34.355 131.869 36.2252Z" fill="#BEBBF9"/>
<path d="M99.6812 20.6335C99.6964 20.1792 99.7163 19.7234 99.7408 19.2661C103.886 18.7703 108.064 18.7287 112.273 19.1414C112.203 19.6105 112.129 20.0752 112.053 20.5355C107.862 20.1257 103.738 20.1584 99.6812 20.6335ZM99.86 17.6226C99.912 17.1476 99.9639 16.6665 100.016 16.1796C104.268 15.6065 108.49 15.4981 112.681 15.8545C112.623 16.383 112.562 16.9041 112.498 17.4178C108.297 17.0318 104.085 17.1001 99.86 17.6226ZM100.626 25.3635C100.788 20.8116 101.2 15.9346 101.864 10.7325C102.564 10.5662 103.255 10.4074 103.937 10.256C105.431 13.7923 106.929 17.2485 108.43 20.6245C108.461 20.6275 108.493 20.6305 108.527 20.6335C109.013 17.2693 109.471 13.6246 109.902 9.69922C110.648 9.75563 111.391 9.82838 112.131 9.91746C111.529 15.5382 110.832 20.5607 110.04 24.9849C109.358 24.8988 108.683 24.826 108.013 24.7666C106.592 21.7558 105.121 18.653 103.602 15.4581C103.562 15.464 103.521 15.4685 103.478 15.4714C103.084 18.7999 102.757 21.9726 102.497 24.9893C101.864 25.1051 101.24 25.2298 100.626 25.3635Z" fill="#6D5DD3"/>
<defs>
<linearGradient id="paint0_linear_2035_53984" x1="133.265" y1="53.4512" x2="113.194" y2="61.0966" gradientUnits="userSpaceOnUse">
<stop stop-color="#5A48E7"/>
<stop offset="1" stop-color="#6D5DD3" stop-opacity="0"/>
</linearGradient>
<linearGradient id="paint1_linear_2035_53984" x1="47.1397" y1="53.4512" x2="67.2106" y2="61.0966" gradientUnits="userSpaceOnUse">
<stop stop-color="#5A48E7"/>
<stop offset="1" stop-color="#6D5DD3" stop-opacity="0"/>
</linearGradient>
<linearGradient id="paint2_linear_2035_53984" x1="74.494" y1="48.0488" x2="59.5663" y2="77.469" gradientUnits="userSpaceOnUse">
<stop stop-color="#6D5DD3"/>
<stop offset="1" stop-color="#6D5DD3" stop-opacity="0"/>
</linearGradient>
<linearGradient id="paint3_linear_2035_53984" x1="1.89185" y1="13.2" x2="1.89185" y2="2.85405" gradientUnits="userSpaceOnUse">
<stop stop-color="#DDD8FF"/>
<stop offset="1" stop-color="#DDD8FF" stop-opacity="0"/>
</linearGradient>
<linearGradient id="paint4_linear_2035_53984" x1="93.994" y1="42.0332" x2="93.994" y2="17.1129" gradientUnits="userSpaceOnUse">
<stop stop-color="#DDD8FF"/>
<stop offset="1" stop-color="#DDD8FF" stop-opacity="0"/>
</linearGradient>
</defs>
</svg>
