<svg width="178" height="82" viewBox="0 0 178 82" fill="none" xmlns="http://www.w3.org/2000/svg">
<g clip-path="url(#clip0_12292_38372)">
<path d="M156.334 39.04L153.788 13.4834L128.443 13.8637L128.546 20.9426L142.74 20.7297L128.801 36.5893L113.391 36.7476L99.3242 52.7514L104.541 57.4606L116.552 43.7957L131.962 43.6374L147.957 25.4389L149.383 39.7521L156.334 39.04Z" fill="url(#paint0_linear_12292_38372)"/>
<path opacity="0.6" d="M151.343 37.5566L148.797 12L123.453 12.3803L123.556 19.4592L137.75 19.2463L123.81 35.1059L108.4 35.2642L94.3335 51.268L99.5502 55.9772L111.561 42.3123L126.971 42.154L142.966 23.9555L144.393 38.2687L151.343 37.5566Z" fill="url(#paint1_linear_12292_38372)"/>
</g>
<path opacity="0.5" d="M76.0394 23H31.3335V67H76.0394V23Z" fill="url(#paint2_linear_12292_38372)"/>
<path opacity="0.5" d="M107.334 23H76.0396V67H107.334V23Z" fill="url(#paint3_linear_12292_38372)"/>
<path d="M59.4347 44.3889L53.3675 38.7036L47.3003 44.3889V23H59.4347V44.3889Z" fill="#F6C21C"/>
<path d="M112.334 23C112.334 22.2121 112.204 21.4318 111.953 20.7039C111.702 19.9759 111.333 19.3145 110.869 18.7573C110.405 18.2002 109.854 17.7582 109.247 17.4567C108.64 17.1552 107.99 17 107.333 17C108.66 17 109.931 16.3678 110.869 15.2426C111.807 14.1174 112.334 12.5913 112.334 11C112.334 12.5913 112.86 14.1174 113.798 15.2426C114.736 16.3678 116.007 17 117.333 17C116.007 17 114.736 17.6321 113.798 18.7573C112.86 19.8826 112.334 21.4087 112.334 23Z" fill="#BEBBF9"/>
<defs>
<linearGradient id="paint0_linear_12292_38372" x1="149.691" y1="16.654" x2="105.264" y2="46.1186" gradientUnits="userSpaceOnUse">
<stop stop-color="#DDD8FF"/>
<stop offset="1" stop-color="#DDD8FF" stop-opacity="0"/>
</linearGradient>
<linearGradient id="paint1_linear_12292_38372" x1="134.191" y1="25.3548" x2="99.1722" y2="48.6027" gradientUnits="userSpaceOnUse">
<stop stop-color="#5423E7"/>
<stop offset="1" stop-color="#5423E7" stop-opacity="0"/>
</linearGradient>
<linearGradient id="paint2_linear_12292_38372" x1="49.3335" y1="45" x2="56.2566" y2="79.6154" gradientUnits="userSpaceOnUse">
<stop stop-color="#2200FF"/>
<stop offset="1" stop-color="#6D5DD3" stop-opacity="0"/>
</linearGradient>
<linearGradient id="paint3_linear_12292_38372" x1="88.3345" y1="9.5" x2="100.58" y2="78.8928" gradientUnits="userSpaceOnUse">
<stop stop-color="#2200FF"/>
<stop offset="1" stop-color="#6D5DD3" stop-opacity="0"/>
</linearGradient>
<clipPath id="clip0_12292_38372">
<rect width="62" height="46" fill="white" transform="translate(94.3335 12)"/>
</clipPath>
</defs>
</svg>
