<svg width="236" height="142" viewBox="0 0 236 142" fill="none" xmlns="http://www.w3.org/2000/svg">
<path d="M235.234 68.5922C235.234 77.3484 228.136 84.4468 219.38 84.4468H116.227C111.99 84.4468 107.927 82.7764 104.931 79.8031C101.935 76.8298 100.252 72.7971 100.252 68.5922C100.252 64.3873 101.935 60.3547 104.931 57.3813C107.927 54.408 111.99 52.7376 116.227 52.7376H116.746C117.282 52.7373 117.796 52.5257 118.175 52.1495C118.554 51.7732 118.768 51.263 118.768 50.731V49.0226C118.768 48.4905 118.554 47.9804 118.175 47.6041C117.796 47.2279 117.282 47.0163 116.746 47.0159H17.147C12.9091 47.0159 8.84474 45.345 5.84809 42.3709C2.85145 39.3968 1.16797 35.3629 1.16797 31.1569C1.16797 26.9508 2.85145 22.917 5.84809 19.9428C8.84474 16.9687 12.9091 15.2979 17.147 15.2979H136.145C140.383 15.2979 144.447 16.9687 147.444 19.9428C150.44 22.917 152.124 26.9508 152.124 31.1569C152.124 35.3629 150.44 39.3968 147.444 42.3709C144.447 45.345 140.383 47.0159 136.145 47.0159C135.609 47.0163 135.095 47.2279 134.716 47.6041C134.337 47.9804 134.124 48.4905 134.123 49.0226V50.731C134.124 51.263 134.337 51.7732 134.716 52.1495C135.095 52.5257 135.609 52.7373 136.145 52.7376H219.38C228.136 52.7376 235.234 59.836 235.234 68.5922Z" fill="#8D7CFD"/>
<path d="M115.496 45.2812L110.486 51.3997L113.378 58.7685L106.724 63.026L107.195 70.9325L99.5551 72.9173L97.5776 80.5843L89.7009 80.113L85.459 86.7908L78.1174 83.8882L72.0213 88.916L65.9253 83.8882L58.5837 86.7916L54.341 80.113L46.4643 80.5843L44.4868 72.9165L36.848 70.9317L37.3175 63.026L30.6635 58.7685L33.5562 51.3997L28.5469 45.2812L33.5562 39.1627L30.6635 31.794L37.3175 27.5365L36.848 19.6308L44.4876 17.646L46.4651 9.97823L54.3418 10.4494L58.5829 3.77166L65.9253 6.67504L72.0213 1.64648L78.1174 6.67504L85.459 3.77166L89.7009 10.4494L97.5776 9.97823L99.5551 17.646L107.195 19.6308L106.725 27.5365L113.378 31.794L110.486 39.1627L115.496 45.2812Z" fill="#FCD147"/>
<path d="M63.8953 43.2412C67.2613 43.2412 69.9899 40.1374 69.9899 36.3086C69.9899 32.4798 67.2613 29.376 63.8953 29.376C60.5294 29.376 57.8008 32.4798 57.8008 36.3086C57.8008 40.1374 60.5294 43.2412 63.8953 43.2412Z" stroke="#1A0768" stroke-width="1.43471" stroke-miterlimit="10"/>
<path d="M62.6747 43.2412C66.265 43.2412 69.1755 40.1374 69.1755 36.3086C69.1755 32.4798 66.265 29.376 62.6747 29.376C59.0844 29.376 56.1738 32.4798 56.1738 36.3086C56.1738 40.1374 59.0844 43.2412 62.6747 43.2412Z" stroke="#5423E7" stroke-width="1.43471" stroke-miterlimit="10"/>
<path d="M80.1473 60.369C83.5132 60.369 86.2418 57.4477 86.2418 53.8442C86.2418 50.2406 83.5132 47.3193 80.1473 47.3193C76.7814 47.3193 74.0527 50.2406 74.0527 53.8442C74.0527 57.4477 76.7814 60.369 80.1473 60.369Z" stroke="#1A0768" stroke-width="1.43471" stroke-miterlimit="10"/>
<path d="M78.9266 60.369C82.517 60.369 85.4275 57.4477 85.4275 53.8442C85.4275 50.2406 82.517 47.3193 78.9266 47.3193C75.3363 47.3193 72.4258 50.2406 72.4258 53.8442C72.4258 57.4477 75.3363 60.369 78.9266 60.369Z" stroke="#5423E7" stroke-width="1.43471" stroke-miterlimit="10"/>
<path d="M52.9258 64.4476L91.9309 26.1143" stroke="#1A0768" stroke-width="4.30412" stroke-miterlimit="10"/>
<path d="M52.1133 63.6312L90.3058 25.2979" stroke="#5423E7" stroke-width="4.30412" stroke-miterlimit="10"/>
<path d="M66.956 80.3238L60.3716 82.926L56.5685 76.9383L49.5013 77.3612L47.7268 70.4786L40.8694 68.6976L41.2923 61.6044L35.3258 57.7873L37.9193 51.1804L33.4219 45.6876L37.9193 40.1956L35.3258 33.5871L41.2923 29.77L40.871 22.6768L47.7268 20.8966L49.5013 14.014L56.5677 14.4377L60.3716 8.44917L66.956 11.0522L72.4278 6.53906L77.8996 11.0522L84.484 8.44917L88.2871 14.4377L95.3543 14.0148L97.1288 20.8966L103.985 22.6768L103.564 29.77L109.53 33.5871L106.934 40.1956L111.432 45.6876L106.934 51.1804L109.53 57.7889L103.564 61.6052L103.985 68.6984L97.1272 70.4794L95.3535 77.3612L88.2863 76.9383L84.484 82.9252L77.8996 80.3214L72.4278 84.8369L66.956 80.3238Z" stroke="white" stroke-width="1.43471" stroke-miterlimit="10"/>
<path d="M112.006 87.7803L75.0059 54.7803" stroke="#8A6EFF" stroke-width="5.73883" stroke-miterlimit="10"/>
<path d="M41.0059 87.7803L78.0059 54.7803" stroke="#8A6EFF" stroke-width="5.73883" stroke-miterlimit="10"/>
<path d="M114.139 141.78H41.8724L28.0059 84.7803H128.006L114.139 141.78Z" fill="#D9CCFF"/>
<path d="M114.006 141.78L116.818 84.7803H128.006L114.006 141.78Z" fill="#2E2E82"/>
<path d="M63.0059 101.922V124.638C63.0031 126.266 62.3708 127.827 61.2474 128.978C60.124 130.13 58.6012 130.778 57.0125 130.78C56.7854 130.781 56.5584 130.767 56.333 130.738C54.8692 130.569 53.5174 129.854 52.535 128.729C51.5527 127.604 51.0084 126.148 51.0059 124.638V101.922C51.0084 100.413 51.5527 98.9566 52.535 97.8317C53.5174 96.7068 54.8692 95.9915 56.333 95.8221C56.5584 95.7939 56.7854 95.7799 57.0125 95.7803C57.7998 95.7792 58.5796 95.9374 59.3072 96.2457C60.0348 96.554 60.6959 97.0063 61.2526 97.5769C61.8093 98.1474 62.2508 98.8249 62.5516 99.5705C62.8525 100.316 63.0068 101.115 63.0059 101.922Z" fill="#4432B9"/>
<path d="M58.0059 130.738C57.7698 130.767 57.5323 130.781 57.2945 130.78C55.629 130.78 54.0315 130.134 52.8525 128.982C51.6735 127.831 51.0094 126.269 51.0059 124.638V101.922C51.0094 100.292 51.6735 98.7296 52.8525 97.5781C54.0315 96.4266 55.629 95.78 57.2945 95.7803C57.5323 95.7799 57.7698 95.7939 58.0059 95.8221C56.4734 95.9915 55.0581 96.7068 54.0296 97.8317C53.0011 98.9566 52.4313 100.413 52.4287 101.922V124.638C52.4313 126.148 53.0011 127.604 54.0296 128.729C55.0581 129.854 56.4734 130.569 58.0059 130.738Z" fill="#181875"/>
<path d="M86.0059 101.922V124.638C86.0057 126.267 85.3742 127.829 84.2504 128.981C83.1267 130.133 81.6025 130.78 80.0132 130.78C79.786 130.781 79.5591 130.767 79.3337 130.738C77.8698 130.569 76.5178 129.854 75.5353 128.729C74.5528 127.604 74.0084 126.148 74.0059 124.638V101.922C74.0084 100.412 74.5528 98.9564 75.5353 97.8315C76.5178 96.7065 77.8698 95.9913 79.3337 95.8221C79.5591 95.7938 79.786 95.7799 80.0132 95.7803C80.8004 95.7793 81.5801 95.9375 82.3076 96.2459C83.0351 96.5542 83.6962 97.0066 84.2528 97.5771C84.8095 98.1476 85.2509 98.8251 85.5517 99.5707C85.8525 100.316 86.0068 101.115 86.0059 101.922Z" fill="#4432B9"/>
<path d="M81.0059 130.738C80.7699 130.767 80.5323 130.781 80.2945 130.78C78.6292 130.781 77.0317 130.134 75.8527 128.982C74.6737 127.831 74.0095 126.269 74.0059 124.638V101.922C74.0095 100.292 74.6737 98.7295 75.8527 97.578C77.0317 96.4265 78.6292 95.78 80.2945 95.7803C80.5323 95.7799 80.7699 95.7939 81.0059 95.8221C79.4734 95.9913 78.0581 96.7065 77.0296 97.8315C76.0011 98.9564 75.4312 100.412 75.4285 101.922V124.638C75.4312 126.148 76.001 127.604 77.0296 128.729C78.0581 129.854 79.4734 130.569 81.0059 130.738Z" fill="#181875"/>
<path d="M108.006 101.922V124.638C108.003 126.269 107.368 127.831 106.242 128.982C105.116 130.134 103.59 130.78 101.999 130.78C101.772 130.78 101.545 130.766 101.32 130.739C99.8583 130.566 98.5096 129.849 97.5299 128.725C96.5502 127.6 96.0079 126.146 96.0059 124.638V101.922C96.0079 100.415 96.5502 98.9603 97.5299 97.8357C98.5096 96.7111 99.8583 95.9945 101.32 95.8221C101.545 95.7943 101.772 95.7803 101.999 95.7803C102.788 95.7775 103.569 95.9343 104.298 96.2418C105.027 96.5493 105.69 97.0014 106.248 97.5721C106.806 98.1428 107.249 98.8209 107.55 99.5674C107.852 100.314 108.007 101.114 108.006 101.922Z" fill="#4432B9"/>
<path d="M103.006 130.738C102.769 130.767 102.531 130.781 102.293 130.78C100.626 130.778 99.0288 130.13 97.8503 128.978C96.6718 127.827 96.0086 126.266 96.0059 124.638V101.922C96.0086 100.294 96.6719 98.7333 97.8504 97.582C99.0289 96.4308 100.626 95.7829 102.293 95.7803C102.531 95.7799 102.769 95.7939 103.006 95.8221C101.473 95.9945 100.058 96.711 99.0303 97.8357C98.0025 98.9603 97.4336 100.415 97.4315 101.922V124.638C97.4335 126.146 98.0025 127.6 99.0302 128.725C100.058 129.849 101.473 130.566 103.006 130.738Z" fill="#181875"/>
<path d="M35.0059 90.7803H122.006" stroke="#21168A" stroke-width="0.5" stroke-miterlimit="10"/>
<path d="M82.0059 133.78H108.006" stroke="#21168A" stroke-width="0.5" stroke-miterlimit="10"/>
<path d="M49.0059 133.78H72.0059" stroke="#21168A" stroke-width="0.5" stroke-miterlimit="10"/>
<path d="M9.48887 83.733C13.2764 83.733 16.3469 80.6535 16.3469 76.8548C16.3469 73.056 13.2764 69.9766 9.48887 69.9766C5.70129 69.9766 2.63086 73.056 2.63086 76.8548C2.63086 80.6535 5.70129 83.733 9.48887 83.733Z" fill="#BEBBF9"/>
<path d="M196.824 45.2792C199.854 45.2792 202.311 42.9696 202.311 40.1206C202.311 37.2715 199.854 34.9619 196.824 34.9619C193.794 34.9619 191.338 37.2715 191.338 40.1206C191.338 42.9696 193.794 45.2792 196.824 45.2792Z" fill="#BEBBF9"/>
<path d="M201.283 32.2106C202.609 32.2106 203.683 30.9788 203.683 29.4593C203.683 27.9398 202.609 26.708 201.283 26.708C199.957 26.708 198.883 27.9398 198.883 29.4593C198.883 30.9788 199.957 32.2106 201.283 32.2106Z" fill="#BEBBF9"/>
<path d="M163.564 41.1412C163.564 40.2379 163.395 39.3435 163.068 38.509C162.741 37.6745 162.261 36.9162 161.656 36.2775C161.051 35.6388 160.333 35.1322 159.542 34.7865C158.752 34.4409 157.904 34.263 157.049 34.263C158.777 34.263 160.434 33.5383 161.656 32.2484C162.878 30.9585 163.564 29.209 163.564 27.3848C163.564 29.209 164.25 30.9585 165.472 32.2484C166.694 33.5383 168.351 34.263 170.079 34.263C168.351 34.263 166.694 34.9876 165.472 36.2775C164.25 37.5674 163.564 39.317 163.564 41.1412Z" fill="#BEBBF9"/>
<path d="M29.8892 13.7092C29.8892 11.9762 29.1667 10.3142 27.8806 9.0888C26.5945 7.86339 24.8501 7.17494 23.0312 7.17494C23.9319 7.17494 24.8237 7.00594 25.6557 6.67756C26.4878 6.34918 27.2438 5.86785 27.8806 5.26108C28.5174 4.65432 29.0226 3.93397 29.3672 3.14119C29.7119 2.34841 29.8893 1.49872 29.8892 0.640625C29.8892 1.49872 30.0666 2.34842 30.4113 3.14119C30.7559 3.93397 31.2611 4.65432 31.8979 5.26108C32.5347 5.86785 33.2908 6.34914 34.1228 6.67752C34.9549 7.0059 35.8467 7.17491 36.7473 7.17491C35.8467 7.17491 34.9549 7.34391 34.1228 7.67229C33.2908 8.00067 32.5347 8.482 31.8979 9.08877C31.2611 9.69553 30.7559 10.4159 30.4113 11.2087C30.0666 12.0014 29.8892 12.8511 29.8892 13.7092Z" fill="#BEBBF9"/>
<path d="M178.888 75.5107H113.941V142H178.888V75.5107Z" fill="white"/>
<path d="M224.349 75.5107H178.887V142H224.349V75.5107Z" fill="#DBD7FF"/>
<path d="M154.765 107.832L145.951 99.2407L137.137 107.832V75.5107H154.765V107.832Z" fill="#A399FF"/>
</svg>
