<svg width="178" height="82" viewBox="0 0 178 82" fill="none" xmlns="http://www.w3.org/2000/svg">
<g opacity="0.5">
<path d="M143.333 26C143.333 23.7909 141.542 22 139.333 22H116.333V61H139.333C141.542 61 143.333 59.2091 143.333 57V26Z" fill="url(#paint0_linear_2374_82397)"/>
</g>
<g opacity="0.5">
<path d="M34.333 26C34.333 23.7909 36.1239 22 38.333 22H62.333V61H38.333C36.1239 61 34.333 59.2091 34.333 57V26Z" fill="url(#paint1_linear_2374_82397)"/>
</g>
<g opacity="0.5">
<rect x="62.333" y="11" width="54" height="59" rx="4" fill="url(#paint2_linear_2374_82397)"/>
<path opacity="0.6" d="M98.3121 36.6524H90.3184L87.9153 32.653L83.8413 36.6524H79.2842V17.8408H87.4631L89.8087 21.8402L93.7716 17.8408H98.3121V36.6524Z" fill="url(#paint3_linear_2374_82397)"/>
<path d="M102.836 23.6504H75.7002V26.1402H102.836V23.6504Z" fill="url(#paint4_linear_2374_82397)"/>
<path d="M102.836 28.0762H75.7002V30.5659H102.836V28.0762Z" fill="url(#paint5_linear_2374_82397)"/>
</g>
<defs>
<linearGradient id="paint0_linear_2374_82397" x1="124.349" y1="78.2391" x2="144.279" y2="22.5581" gradientUnits="userSpaceOnUse">
<stop stop-color="#6D5DD3"/>
<stop offset="1" stop-color="#6D5DD3" stop-opacity="0"/>
</linearGradient>
<linearGradient id="paint1_linear_2374_82397" x1="54.0205" y1="78.2391" x2="34.6479" y2="22.1109" gradientUnits="userSpaceOnUse">
<stop stop-color="#6D5DD3"/>
<stop offset="1" stop-color="#6D5DD3" stop-opacity="0"/>
</linearGradient>
<linearGradient id="paint2_linear_2374_82397" x1="100.302" y1="96.0797" x2="76.3308" y2="7.54242" gradientUnits="userSpaceOnUse">
<stop stop-color="#6D5DD3"/>
<stop offset="1" stop-color="#6D5DD3" stop-opacity="0"/>
</linearGradient>
<linearGradient id="paint3_linear_2374_82397" x1="88.7011" y1="20.4404" x2="89.1063" y2="36.646" gradientUnits="userSpaceOnUse">
<stop stop-color="#5423E7"/>
<stop offset="1" stop-color="#5423E7" stop-opacity="0.86"/>
</linearGradient>
<linearGradient id="paint4_linear_2374_82397" x1="102.209" y1="24.9138" x2="76.4739" y2="18.5244" gradientUnits="userSpaceOnUse">
<stop stop-color="#7B6AEB"/>
<stop offset="1" stop-color="#2C14C8" stop-opacity="0.67"/>
</linearGradient>
<linearGradient id="paint5_linear_2374_82397" x1="102.209" y1="29.3395" x2="76.474" y2="22.9502" gradientUnits="userSpaceOnUse">
<stop stop-color="#7B6AEB"/>
<stop offset="1" stop-color="#2C14C8" stop-opacity="0.67"/>
</linearGradient>
</defs>
</svg>
