<svg width="133" height="132" viewBox="0 0 133 132" fill="none" xmlns="http://www.w3.org/2000/svg">
<circle cx="66.5" cy="66" r="66" fill="#F3F2FB"/>
<path d="M111.012 46.565H110.331V43.6154C110.331 42.509 109.426 41.6037 108.32 41.6037H63.3717L38.4146 29.6115C37.4174 29.1322 36.2094 29.5561 35.7302 30.5533L18.4415 66.5326C17.9623 67.5298 18.3863 68.738 19.3835 69.217L21.6943 70.3274L21.1337 71.4939C20.6545 72.4912 21.0785 73.6991 22.0758 74.1784L35.7212 80.7354V83.5331C35.7212 84.6395 36.6266 85.5446 37.733 85.5446H38.4135V88.4942C38.4135 89.6006 39.3189 90.506 40.4253 90.506H56.0547L85.6982 104.75C86.6955 105.229 87.9037 104.806 88.3827 103.808L94.7747 90.506H111.012C112.118 90.506 113.023 89.6006 113.023 88.4942V48.5766C113.023 47.4702 112.118 46.565 111.012 46.565Z" fill="#1B0D1B"/>
<path d="M108.32 41.6038H63.3717L38.4146 29.6115C37.4174 29.1322 36.2094 29.5561 35.7302 30.5533L18.4415 66.5326C17.9623 67.5298 18.3863 68.738 19.3835 69.217L21.6943 70.3274L35.7213 77.0676V83.5331C35.7213 84.6395 36.6266 85.5446 37.733 85.5446H53.3624L83.006 99.7889C84.0032 100.268 85.2112 99.8442 85.6904 98.847L92.0824 85.5446H108.32C109.426 85.5446 110.331 84.6396 110.331 83.5331V43.6154C110.331 42.509 109.426 41.6038 108.32 41.6038Z" fill="#6D5DD3"/>
<path d="M108.32 41.6094H37.733C36.6266 41.6094 35.7212 42.5147 35.7212 43.621V83.5387C35.7212 84.6451 36.6265 85.5502 37.733 85.5502H108.32C109.426 85.5502 110.331 84.6451 110.331 83.5387V43.621C110.331 42.5146 109.426 41.6094 108.32 41.6094Z" fill="#F3F2FB"/>
<path d="M108.32 41.6094H37.733C36.6266 41.6094 35.7212 42.5147 35.7212 43.621V50.2359H110.331V43.621C110.331 42.5146 109.426 41.6094 108.32 41.6094Z" fill="#0E0A2D"/>
<path d="M55.1225 55.1797H42.3528C41.2464 55.1797 40.3413 56.0849 40.3413 57.1913V69.961C40.3413 71.0673 41.2464 71.9724 42.3528 71.9724H55.1225C56.2289 71.9724 57.1342 71.0673 57.1342 69.961V57.1913C57.1343 56.0849 56.2289 55.1797 55.1225 55.1797Z" fill="#0E0A2D"/>
<path d="M62.1495 60.5102H103.448C103.978 60.5102 104.411 60.0768 104.411 59.5471V56.1428C104.411 55.613 103.978 55.1797 103.448 55.1797H62.1495C61.6197 55.1797 61.1865 55.613 61.1865 56.1428V59.5471C61.1865 60.0768 61.6196 60.5102 62.1495 60.5102Z" fill="#A096E5"/>
<path d="M61.6189 65.47H103.979C104.216 65.47 104.411 65.2754 104.411 65.0376V63.2371C104.411 62.9993 104.216 62.8047 103.979 62.8047H61.6189C61.381 62.8047 61.1865 62.9993 61.1865 63.2371V65.0376C61.1865 65.2754 61.381 65.47 61.6189 65.47Z" fill="#A096E5"/>
<path d="M48.7266 64.705C50.8564 64.705 52.5831 62.9784 52.5831 60.8486C52.5831 58.7188 50.8564 56.9922 48.7266 56.9922C46.5968 56.9922 44.8704 58.7188 44.8704 60.8486C44.8703 62.9784 46.5968 64.705 48.7266 64.705Z" fill="#F3F2FB"/>
<path d="M48.7266 65.2188C45.7959 65.2188 43.4172 67.7736 43.3816 70.9394H54.0717C54.0363 67.7736 51.6574 65.2188 48.7266 65.2188Z" fill="#F3F2FB"/>
<path d="M66.069 69.0617L65.9696 69.0185C65.7605 68.9277 65.5149 69.0245 65.4241 69.2337L63.364 73.9785C63.2731 74.1877 63.37 74.4332 63.5791 74.524L63.6789 74.5672C63.888 74.6581 64.1333 74.5612 64.2241 74.3521L66.2843 69.6072C66.375 69.398 66.2782 69.1525 66.069 69.0617Z" fill="#A096E5"/>
<path d="M61.2668 74.524L61.3665 74.5672C61.5756 74.6581 61.8209 74.5612 61.9117 74.3521L63.9719 69.6072C64.0627 69.3981 63.9659 69.1525 63.7567 69.0617L63.6572 69.0185C63.4481 68.9277 63.2026 69.0245 63.112 69.2337L61.0516 73.9785C60.961 74.1877 61.0576 74.4332 61.2668 74.524Z" fill="#A096E5"/>
<path d="M65.7351 74.524L65.8346 74.5672C66.0437 74.6581 66.2892 74.5612 66.3798 74.3521L68.4402 69.6072C68.5308 69.3981 68.4342 69.1525 68.2251 69.0617L68.1254 69.0185C67.9162 68.9277 67.671 69.0245 67.5801 69.2337L65.52 73.9785C65.4291 74.1877 65.526 74.4332 65.7351 74.524Z" fill="#A096E5"/>
<path d="M68.1386 74.524L68.2383 74.5672C68.4474 74.6581 68.6926 74.5612 68.7835 74.3521L70.8437 69.6072C70.9345 69.3981 70.8376 69.1525 70.6285 69.0617L70.5291 69.0185C70.3199 68.9277 70.0744 69.0245 69.9838 69.2337L67.9234 73.9785C67.8329 74.1877 67.9295 74.4332 68.1386 74.524Z" fill="#A096E5"/>
<path d="M70.6295 74.524L70.729 74.5672C70.9381 74.6581 71.1836 74.5612 71.2744 74.3521L73.3346 69.6072C73.4254 69.3981 73.3286 69.1525 73.1194 69.0617L73.02 69.0185C72.8109 68.9277 72.5653 69.0245 72.4745 69.2337L70.4143 73.9785C70.3236 74.1877 70.4204 74.4332 70.6295 74.524Z" fill="#A096E5"/>
<path d="M73.1205 74.524L73.22 74.5672C73.4291 74.6581 73.6743 74.5612 73.7652 74.3521L75.8253 69.6072C75.9162 69.3981 75.8193 69.1525 75.6102 69.0617L75.5107 69.0185C75.3016 68.9277 75.0564 69.0245 74.9655 69.2337L72.9053 73.9785C72.8145 74.1877 72.9114 74.4332 73.1205 74.524Z" fill="#A096E5"/>
<path d="M75.7861 74.524L75.8856 74.5672C76.0947 74.6581 76.3402 74.5612 76.4311 74.3521L78.4912 69.6072C78.5821 69.3981 78.4852 69.1525 78.2761 69.0617L78.1766 69.0185C77.9675 68.9277 77.722 69.0245 77.6311 69.2337L75.571 73.9785C75.4802 74.1877 75.577 74.4332 75.7861 74.524Z" fill="#A096E5"/>
<path d="M78.4083 74.524L78.5078 74.5672C78.717 74.6581 78.9622 74.5612 79.0531 74.3521L81.1132 69.6072C81.2041 69.3981 81.1072 69.1525 80.8981 69.0617L80.7986 69.0185C80.5895 68.9277 80.3442 69.0245 80.2534 69.2337L78.1932 73.9785C78.1023 74.1877 78.1992 74.4332 78.4083 74.524Z" fill="#A096E5"/>
<path d="M81.1176 74.524L81.217 74.5672C81.4262 74.6581 81.6717 74.5612 81.7625 74.3521L83.8227 69.6072C83.9135 69.3981 83.8167 69.1525 83.6075 69.0617L83.5078 69.0185C83.2987 68.9277 83.0534 69.0245 82.9626 69.2337L80.9024 73.9785C80.8116 74.1877 80.9084 74.4332 81.1176 74.524Z" fill="#A096E5"/>
<path d="M83.6521 74.524L83.7518 74.5672C83.9609 74.6581 84.2062 74.5612 84.297 74.3521L86.3573 69.6072C86.448 69.3981 86.3512 69.1525 86.1421 69.0617L86.0426 69.0185C85.8336 68.9277 85.588 69.0245 85.4975 69.2337L83.437 73.9785C83.3463 74.1877 83.4429 74.4332 83.6521 74.524Z" fill="#A096E5"/>
<path d="M86.3179 74.524L86.4173 74.5672C86.6264 74.6581 86.872 74.5612 86.9628 74.3521L89.023 69.6072C89.1138 69.3981 89.0169 69.1525 88.8078 69.0617L88.7081 69.0185C88.499 68.9277 88.2537 69.0245 88.1629 69.2337L86.1027 73.9785C86.0119 74.1877 86.1087 74.4332 86.3179 74.524Z" fill="#A096E5"/>
<path d="M88.8523 74.524L88.952 74.5672C89.1611 74.6581 89.4064 74.5612 89.4972 74.3521L91.5574 69.6072C91.6483 69.3981 91.5514 69.1525 91.3422 69.0617L91.2428 69.0185C91.0337 68.9277 90.7881 69.0245 90.6976 69.2337L88.6371 73.9785C88.5466 74.1877 88.6432 74.4332 88.8523 74.524Z" fill="#A096E5"/>
<path d="M91.562 74.524L91.6615 74.5672C91.8706 74.6581 92.1161 74.5612 92.207 74.3521L94.2671 69.6072C94.3579 69.3981 94.2611 69.1525 94.052 69.0617L93.9523 69.0185C93.7431 68.9277 93.4979 69.0245 93.407 69.2337L91.3469 73.9785C91.256 74.1877 91.3529 74.4332 91.562 74.524Z" fill="#A096E5"/>
<path d="M94.0964 74.524L94.1961 74.5672C94.4052 74.6581 94.6505 74.5612 94.7413 74.3521L96.8015 69.6072C96.8923 69.3981 96.7955 69.1525 96.5863 69.0617L96.4868 69.0185C96.2777 68.9277 96.0322 69.0245 95.9413 69.2337L93.8812 73.9785C93.7906 74.1877 93.8872 74.4332 94.0964 74.524Z" fill="#A096E5"/>
<path d="M96.7186 74.524L96.818 74.5672C97.0271 74.6581 97.2726 74.5612 97.3635 74.3521L99.4236 69.6072C99.5145 69.3981 99.4176 69.1525 99.2085 69.0617L99.1087 69.0185C98.8996 68.9277 98.6543 69.0245 98.5635 69.2337L96.5033 73.9785C96.4126 74.1877 96.5094 74.4332 96.7186 74.524Z" fill="#A096E5"/>
<path d="M99.0226 74.524L99.1221 74.5672C99.3312 74.6581 99.5767 74.5612 99.6676 74.3521L101.728 69.6072C101.819 69.3981 101.722 69.1525 101.513 69.0617L101.413 69.0185C101.204 68.9277 100.958 69.0245 100.868 69.2337L98.8074 73.9785C98.7166 74.1877 98.8135 74.4332 99.0226 74.524Z" fill="#A096E5"/>
<path d="M104.421 76.6641H42.3528C41.2464 76.6641 40.3413 77.5695 40.3413 78.6758V80.5441C40.3413 81.6505 41.2464 82.5559 42.3528 82.5559H104.421C105.527 82.5559 106.433 81.6505 106.433 80.5441V78.6758C106.433 77.5695 105.527 76.6641 104.421 76.6641Z" fill="#A096E5"/>
<path d="M43.8218 80.7244H102.935C103.461 80.7244 103.891 80.2942 103.891 79.7683V79.6905C103.891 79.1647 103.461 78.7344 102.935 78.7344H43.8218C43.296 78.7344 42.8657 79.1647 42.8657 79.6905V79.7683C42.8657 80.2941 43.296 80.7244 43.8218 80.7244Z" fill="#665AB7"/>
<path d="M89.1 39.5L87.2 36.3L83.6 35.5L83.95 31.8L81.5 29L83.95 26.2L83.6 22.5L87.2 21.7L89.1 18.5L92.5 19.95L95.9 18.5L97.8 21.7L101.4 22.5L101.05 26.2L103.5 29L101.05 31.8L101.4 35.5L97.8 36.3L95.9 39.5L92.5 38.05L89.1 39.5ZM91.45 32.55L97.1 26.9L95.7 25.45L91.45 29.7L89.3 27.6L87.9 29L91.45 32.55Z" fill="#06995B"/>
</svg>
