<svg width="751" height="189" viewBox="0 0 751 189" fill="none" xmlns="http://www.w3.org/2000/svg">
<g style="mix-blend-mode:multiply" opacity="0.04">
<path d="M648.826 35.3427C647.484 33.8189 645.474 31.3 642.662 30.5483C638.05 29.3149 633.138 31.3799 628.997 32.4602C621.332 34.4593 612.687 35.7407 605.411 32.5353C597.011 28.8355 594.506 21.8391 586.133 18.0334C575.672 13.2782 562.077 12.3979 550.45 9.19923C540.592 6.48757 532.451 1.99317 522.584 -0.753169C505.025 -5.63918 477.539 -7.99391 458.287 -6.91166C441.247 -5.95348 424.033 -3.31118 407.874 0.0768067C398.014 2.14395 388.985 5.24213 378.612 6.36319C353.888 9.03476 324.653 0.261636 303.995 12.0031C286.301 22.0599 285.583 38.4367 294.475 51.2891C299.66 58.7834 312.066 65.9125 304.439 74.3306C298.208 81.2087 284.442 83.3808 273.519 86.4045C253.59 91.9211 236.35 101.467 238.181 116.101" stroke="#0E0A2D" stroke-width="11.1389" stroke-miterlimit="1.5" stroke-linecap="round" stroke-linejoin="round"/>
<path d="M344.29 91.8051C342.657 88.8326 340.129 85.4576 340.372 82.2955C340.997 74.1507 355.203 68.4528 367.399 66.3303C372.81 65.3883 390.275 62.7002 395.468 64.4957C400.134 66.1083 402.101 69.6283 403.629 72.4548C404.48 74.0279 406.23 76.2604 405.672 77.9318C404.9 80.2455 399.68 80.5535 396.475 81.0574C389.473 82.1584 383.121 84.2736 377.704 87.0492C370.979 90.4957 366.201 95.0547 364.014 100.083C362.441 103.697 363.029 109.13 356.283 111.146C351.01 112.723 342.764 109.286 338.436 107.882C327.933 104.475 315.897 101.299 303.583 102.255C292.083 103.148 283.685 105.813 276.499 111.018C273.128 113.459 270.987 117.405 274.314 120.229C277.905 123.276 284.859 122.965 290.322 122.188C297.613 121.15 306.409 119.978 313.912 120.884C333.004 123.186 349.912 137.97 370.898 133.954C382.606 131.713 385.445 120.903 391.888 115.537C404.144 105.33 426.526 102.544 446.758 103.991" stroke="#0E0A2D" stroke-width="11.1389" stroke-miterlimit="1.5" stroke-linecap="round" stroke-linejoin="round"/>
<path d="M678.704 82.9796C671.056 75.9021 668.019 64.9148 656.378 59.6954C636.066 50.5892 601.07 62.144 599.584 75.974C598.474 86.3056 605.04 95.2902 610.349 104.859C612.673 109.049 616.072 116.435 612.35 120.688C607.075 126.716 597.322 127.636 587.754 130.489C577.312 133.603 567.947 137.935 557.585 141.198C537.074 147.659 513.099 153.177 490.905 145.943C477.331 141.519 467.247 134.081 454.281 129.083C443.111 124.778 423.871 121.568 415.775 130.06C404.095 142.311 430.129 144.349 440.942 148.841C450.954 153 456.971 159.413 466.335 163.932C476.662 168.916 510.602 171.387 494.463 184.269C490.855 187.148 486.625 189.529 483.312 192.586C479.203 196.378 474.362 200.589 467.366 202.765C457.49 205.836 453.716 202.346 451.339 196.685C446.18 184.399 449.521 172.125 428.032 164.418C408.935 157.569 387.37 160.997 366.809 158.459C349.152 156.279 335.977 149.033 319.078 146.141" stroke="#0E0A2D" stroke-width="11.1389" stroke-miterlimit="1.5" stroke-linecap="round" stroke-linejoin="round"/>
<path d="M679.85 84.0717C681.319 85.2236 683.027 86.3539 684.962 87.251C697.527 93.078 707.281 82.9045 711.359 77.6342C712.269 76.4591 713.005 75.2216 713.757 74.0095C714.752 72.4065 715.947 70.8337 717.327 69.3303C719.254 67.2336 721.418 65.0478 724.136 63.2567C731.621 58.3278 743.503 57.1482 751.17 62.5426C754.982 65.2256 756.948 68.8105 757.838 72.2029C759.672 79.2143 757.135 88.8737 748.182 94.0918C742.959 97.1385 735.879 98.7685 729.629 100.96C721.468 103.823 713.987 107.26 707.641 111.401C703.1 114.364 699.164 117.788 696.452 121.43C693.117 125.907 690.971 130.613 685.345 134.37C675.494 140.947 656.317 145.803 660.214 156.199C663.075 163.829 684.601 161.388 692.983 159.307C695.391 158.709 697.732 157.998 699.87 157.117C717.671 149.783 715.321 134.463 727.092 124.54C731.94 120.455 742.948 115.158 750.643 120.255C767.466 131.402 745.798 145.028 739.262 155.437C735 162.231 737.604 171.044 725.609 175.392C723.208 176.263 720.61 176.926 717.909 177.416C708.836 179.063 699.241 179.353 690.213 177.459C682.462 175.834 675.261 172.299 666.538 172.717" stroke="#0E0A2D" stroke-width="11.1389" stroke-miterlimit="1.5" stroke-linecap="round" stroke-linejoin="round"/>
<path d="M130.608 84.0717C132.077 85.2236 133.784 86.3539 135.72 87.251C148.285 93.078 158.039 82.9045 162.117 77.6342C163.027 76.4591 163.763 75.2216 164.515 74.0095C165.51 72.4065 166.704 70.8337 168.085 69.3303C170.011 67.2336 172.175 65.0478 174.894 63.2567C182.379 58.3278 194.263 57.1482 201.927 62.5426C205.738 65.2256 207.709 68.8105 208.596 72.2029C210.431 79.2143 207.891 88.8737 198.943 94.0918C193.718 97.1385 186.635 98.7685 180.387 100.96C172.226 103.823 164.745 107.26 158.4 111.401C153.858 114.364 149.921 117.788 147.209 121.43C143.875 125.907 141.729 130.613 136.103 134.37C126.252 140.947 107.075 145.803 110.972 156.199C113.833 163.829 135.359 161.388 143.741 159.307C146.148 158.709 148.49 157.998 150.628 157.117C168.429 149.783 166.079 134.463 177.85 124.54C182.697 120.455 193.708 115.158 201.401 120.255C218.225 131.402 196.555 145.028 190.022 155.437C185.758 162.231 188.36 171.044 176.367 175.392C173.966 176.263 171.367 176.926 168.667 177.416C159.594 179.063 149.999 179.353 140.97 177.459C133.221 175.834 126.019 172.299 117.296 172.717" stroke="#0E0A2D" stroke-width="11.1389" stroke-miterlimit="1.5" stroke-linecap="round" stroke-linejoin="round"/>
<path d="M638.99 77.3496C634.377 90.9311 653.063 99.0852 653.381 111.958C653.768 127.537 624.799 146.777 609.775 158.884" stroke="#0E0A2D" stroke-width="11.1389" stroke-miterlimit="1.5" stroke-linecap="round" stroke-linejoin="round"/>
<path d="M588.819 148.876C576.18 158.377 564.535 155.543 549.493 163.271C542.177 167.029 529.239 174.121 531.396 180.29C533.396 186.014 545.392 192.108 553.558 191.281C570.354 189.581 597.66 173.239 613.189 178.654C623.919 182.395 630.09 189.083 640.899 192.674C652.179 196.421 664.166 194.644 676.063 196.748C685.962 198.499 693.013 203.013 702.563 205.028C717.531 208.188 738.24 203.955 749.061 211.91C760.435 220.274 757.283 229.576 758.991 239.382C760.194 246.279 764.34 252.639 767.57 259.253" stroke="#0E0A2D" stroke-width="11.1389" stroke-miterlimit="1.5" stroke-linecap="round" stroke-linejoin="round"/>
<path d="M45.1899 143.712C32.5508 153.213 12.5732 156.41 -2.46842 164.138C-9.78433 167.897 -16.8059 171.898 -14.649 178.067C-12.6486 183.791 -0.414794 184.874 7.75025 184.047C24.5472 182.347 48.4178 173.239 63.9482 178.654C74.6777 182.395 80.8484 189.083 91.6575 192.674C102.937 196.421 114.924 194.644 126.821 196.748C136.721 198.499 143.771 203.013 153.321 205.029C168.289 208.188 188.997 203.956 199.817 211.91C211.193 220.274 208.039 229.577 209.75 239.382C210.953 246.279 215.099 252.639 218.328 259.253" stroke="#0E0A2D" stroke-width="11.1389" stroke-miterlimit="1.5" stroke-linecap="round" stroke-linejoin="round"/>
<path d="M418.254 -21.7696C442.605 -24.8713 468.445 -28.8386 493.402 -25.9659C513.785 -23.6201 531.533 -16.7274 551.498 -13.6459C583.554 -8.69824 602.22 -12.611 623.396 5.55292" stroke="#0E0A2D" stroke-width="11.1389" stroke-miterlimit="1.5" stroke-linecap="round" stroke-linejoin="round"/>
<path d="M670.137 -18.1836C657.984 -8.28814 642.999 3.50236 645.967 16.4279" stroke="#0E0A2D" stroke-width="11.1389" stroke-miterlimit="1.5" stroke-linecap="round" stroke-linejoin="round"/>
<path d="M705.017 -15.4736C695.076 -7.65423 678.201 0.519242 675.258 10.5442C673.57 16.2961 677.817 21.9265 677.348 27.7306C677.1 30.797 677.692 44.8646 683.68 46.4947C697.838 50.3487 717.452 33.557 733.354 33.077" stroke="#0E0A2D" stroke-width="11.1389" stroke-miterlimit="1.5" stroke-linecap="round" stroke-linejoin="round"/>
<path d="M193.07 -13.4414C248.914 -9.41758 245.172 -23.6557 321.391 -27.3602" stroke="#0E0A2D" stroke-width="11.1389" stroke-miterlimit="1.5" stroke-linecap="round" stroke-linejoin="round"/>
<path d="M147.971 16.179C166.329 14.8318 184.922 13.4085 202.126 9.30762" stroke="#0E0A2D" stroke-width="11.1389" stroke-miterlimit="1.5" stroke-linecap="round" stroke-linejoin="round"/>
<path d="M697.543 16.1771C715.901 14.8298 734.494 13.4066 751.698 9.30566" stroke="#0E0A2D" stroke-width="11.1389" stroke-miterlimit="1.5" stroke-linecap="round" stroke-linejoin="round"/>
<path d="M267.736 152.454C264.724 157.515 261.84 162.812 260.723 168.137" stroke="#0E0A2D" stroke-width="11.1389" stroke-miterlimit="1.5" stroke-linecap="round" stroke-linejoin="round"/>
<path d="M237.973 5.95699C234.468 6.29134 230.161 6.605 227.162 7.84027C221.815 10.041 221.094 14.2049 221.59 17.7548C222.636 25.2434 227.754 32.361 229.426 39.8056C231.131 47.3963 229.634 54.6596 229.957 62.2322C230.195 67.8222 232.639 74.846 244.528 74.1213C268.811 72.6408 264.432 55.5529 260.601 46.1114C259.699 43.8878 258.969 41.6625 258.486 39.3918C257.847 36.3836 257.265 33.2886 257.482 30.2547C257.895 24.4745 259.785 18.6793 262.26 13.0889C264.266 8.55445 266.705 3.91561 271.33 0.0418597C284.458 -10.9546 312.499 -13.6586 333.597 -11.7096C343.309 -10.8127 352.468 -8.72777 361.791 -6.97842" stroke="#0E0A2D" stroke-width="11.1389" stroke-miterlimit="1.5" stroke-linecap="round" stroke-linejoin="round"/>
<path d="M568.871 100.908C576.367 124.048 517.736 140.268 490.746 123.803C473.589 113.337 471.041 97.785 480.276 84.7866C484.665 78.609 503.818 67.477 493.658 61.4419C489.491 58.9666 482.086 59.9178 477.05 60.6574C462.975 62.7252 425.323 77.4268 425.128 59.0042C425.108 57.1136 425.581 55.1902 426.69 53.4068C431.24 46.0834 445.67 43.2336 457.666 41.5731C483.902 37.9404 524.097 38.4937 539.471 54.2126C546.891 61.7992 537.883 66.779 529.718 72.503C522.211 77.7653 513.721 84.3472 509.427 90.7306C505.313 96.8468 505.249 104.336 514.778 108.721C522.838 112.43 534.167 108.88 538.346 104.297C542.524 99.7144 541.632 94.2739 545.728 89.7107C549.805 85.1677 556.815 81.745 561.142 77.2726C566.075 72.1721 567.883 66.2249 572.04 60.8893C575.54 56.3965 580.84 49.8954 577.536 44.8911C573.943 39.4493 558.535 41.0138 550.304 37.2794C540.19 32.6902 530.566 27.4151 518.883 24.1318C493.678 17.0488 459.819 17.4544 433.552 22.5056C419.809 25.1488 409.427 32.339 395.197 33.9375C377.018 35.9796 362.111 28.2785 345.665 29.954C334.002 31.1422 328.897 41.1191 336.859 45.9838C352.447 55.5074 375.045 42.0862 391.634 47.6107" stroke="#0E0A2D" stroke-width="11.1389" stroke-miterlimit="1.5" stroke-linecap="round" stroke-linejoin="round"/>
<path d="M403.643 178.905C381.248 182.737 362.547 187.758 355.832 201.833C354.226 205.2 353.411 208.575 353.74 212.07C354.626 221.506 361.819 235.258 336.149 235.044C307.576 234.806 315.234 209.413 318.044 199.099C319.02 195.516 319.571 191.179 323.144 188.081C329.219 182.812 341.611 181.308 347.198 175.992C350.888 172.481 346.454 168.57 341.684 166.382C315.927 154.57 281.087 171.748 279.32 187.697C278.323 196.704 287.352 206.46 280.545 215.167C274.513 222.881 259.313 222.062 251.275 215.932C244.069 210.438 232.737 203.3 232.143 196.687C231.494 189.483 233.769 183.146 232.143 175.992C230.326 168 229.177 154 240.185 148.843" stroke="#0E0A2D" stroke-width="11.1389" stroke-miterlimit="1.5" stroke-linecap="round" stroke-linejoin="round"/>
</g>
</svg>
