<svg width="171" height="143" viewBox="0 0 171 143" fill="none" xmlns="http://www.w3.org/2000/svg">
<g clip-path="url(#clip0_11088_79727)">
<path d="M162.51 128.511C162.205 128.659 161.889 128.734 161.562 128.734C161.077 128.734 160.657 128.606 160.302 128.349C159.947 128.092 159.769 127.754 159.769 127.338C159.769 126.948 159.922 126.616 160.229 126.342C160.534 126.067 160.953 125.93 161.484 125.93C161.823 125.93 162.117 125.982 162.365 126.085C162.77 126.253 163.022 126.546 163.121 126.965L162.305 126.955C162.256 126.761 162.152 126.631 161.992 126.564C161.859 126.501 161.713 126.47 161.554 126.47C161.314 126.471 161.117 126.544 160.963 126.69C160.81 126.836 160.734 127.057 160.734 127.351C160.734 127.644 160.818 127.857 160.988 127.989C161.157 128.122 161.36 128.188 161.597 128.188C161.814 128.188 161.978 128.144 162.09 128.057C162.201 127.969 162.273 127.859 162.305 127.726H163.098C163.012 128.099 162.816 128.361 162.51 128.511ZM159.605 125.96C159.095 126.345 158.84 126.802 158.841 127.331C158.841 127.88 159.1 128.345 159.618 128.727C160.134 129.111 160.756 129.303 161.484 129.303C162.211 129.303 162.832 129.11 163.346 128.724C163.595 128.543 163.792 128.326 163.925 128.086C164.057 127.847 164.123 127.59 164.118 127.331C164.118 126.805 163.862 126.348 163.35 125.96C162.834 125.566 162.212 125.369 161.484 125.369C160.75 125.369 160.124 125.566 159.604 125.96M163.722 129.03C163.101 129.475 162.355 129.697 161.484 129.697C160.584 129.697 159.826 129.469 159.211 129.013C158.593 128.558 158.285 127.997 158.285 127.331C158.285 126.639 158.618 126.065 159.283 125.607C159.908 125.178 160.642 124.964 161.484 124.964C162.367 124.964 163.12 125.196 163.744 125.659C164.369 126.121 164.682 126.678 164.683 127.331C164.683 128.003 164.362 128.569 163.722 129.03ZM170.56 103.623C170.547 103.397 170.522 103.171 170.483 102.947C170.459 102.806 170.424 102.666 170.377 102.529C170.303 102.214 170.196 101.904 170.056 101.601L170.053 101.596C169.755 100.968 169.301 100.386 168.715 99.8807C168.157 99.4045 167.485 99.0081 166.733 98.7112L166.71 98.7014C166.036 98.4426 165.313 98.2592 164.566 98.1569C164.37 98.1308 164.188 98.1176 164.007 98.1018C164.857 95.4074 163.793 93.3499 163.105 92.3882C163.159 92.3499 163.214 92.3121 163.265 92.2757C164.173 91.627 164.944 91.0069 165.593 90.3838L165.715 90.259C166.189 89.7556 166.555 89.2013 166.802 88.6157C166.967 88.2172 167.079 87.8077 167.137 87.3931L167.144 87.3935L167.148 87.3714L167.152 87.3189L167.173 87.2048H167.16L167.169 87.0771H167.174L167.176 87.0004C167.181 86.9251 167.183 86.8461 167.183 86.7636C167.188 86.6112 167.187 86.453 167.176 86.279C167.126 85.4446 166.922 84.3596 166.182 83.1851C165.781 82.5496 165.255 81.9616 164.62 81.4406C163.903 80.8545 163.061 80.3594 162.127 79.9752L162.132 79.9772C162.061 79.9477 162.006 79.9197 161.941 79.8917C159.924 77.6941 157.62 75.9909 155.578 74.6985C154.643 74.1098 153.679 73.5475 152.686 73.013C151.852 72.5594 151.148 72.2007 150.756 71.9859L150.76 71.9874C149.861 71.4999 149.193 71.2065 148.874 71.0734C148.137 70.7422 147.59 70.4778 147.26 70.293C147.106 70.2107 146.961 70.1188 146.829 70.0183L146.804 69.9942C146.799 69.9893 146.771 69.948 146.732 69.8011C146.691 69.6542 146.647 69.4031 146.627 69.0404C146.593 68.4707 146.619 67.6345 146.704 66.5318C146.839 64.7578 147.111 62.3106 147.393 58.9936C147.486 57.9385 147.499 56.9444 147.447 56.0077C147.363 54.506 147.101 53.1458 146.676 51.9123L146.675 51.9055C146.582 51.6254 146.473 51.3502 146.36 51.0784L146.358 51.076L146.356 51.0725C146.27 50.8701 146.195 50.7172 146.149 50.6199L146.152 50.6253C146.066 50.4439 145.975 50.2637 145.88 50.0848L145.876 50.0774C145.828 49.989 145.767 49.8755 145.686 49.7339L145.684 49.7305L145.682 49.7285C145.516 49.435 145.332 49.1467 145.133 48.8646L145.073 48.7821L144.963 48.6356L144.884 48.5374C144.491 48.0604 144.06 47.6015 143.591 47.1634C143.267 46.0842 142.839 45.0236 142.31 43.9899C141.727 42.8611 140.944 41.6085 139.832 40.3731C139.431 39.9342 138.995 39.5134 138.526 39.1131L138.686 38.9903C138.911 38.8163 144.254 34.6757 148.438 29.3021C156.236 19.2862 153.64 13.1628 150.091 9.78976L149.99 9.69541L149.884 9.60695C146.461 6.79216 141.808 5.09582 136.05 4.56706C124.127 3.46975 110.644 7.79906 107.108 9.03053L100.682 3.77737L100.658 3.75771C100.092 3.29849 99.4632 2.88368 98.7823 2.51985C98.099 2.15671 97.3705 1.84243 96.6068 1.58126C95.0709 1.05349 93.3861 0.723754 91.5932 0.55864C87.9959 0.230871 83.9584 0.548812 79.5663 1.38224C72.9841 2.63877 65.5918 5.07223 57.8648 8.50227C50.1417 11.9333 42.0933 16.3653 34.2793 21.6396C24.73 28.0839 16.843 34.8978 11.0962 41.3647C8.22477 44.5987 5.88661 47.7467 4.14942 50.7325C2.41556 53.7202 1.27536 56.5444 0.835751 59.1577C0.517001 61.057 0.568133 62.8516 1.08345 64.5062C1.30484 65.2218 1.62736 65.9182 2.04567 66.5838C2.57317 67.4326 3.2725 68.2169 4.11954 68.9097L4.14079 68.9264L11.6181 74.7221L11.575 74.7771C11.494 74.8818 11.4183 74.9879 11.3386 75.0941C11.2237 75.2513 11.1075 75.4081 10.9966 75.5668C10.9222 75.6756 10.8498 75.7845 10.7794 75.8936C10.6725 76.0558 10.5683 76.2165 10.4673 76.3811C10.3987 76.4905 10.3325 76.6012 10.2688 76.7133C10.1705 76.879 10.076 77.0468 9.9852 77.2165L9.80723 77.5511C9.72024 77.7221 9.63723 77.8976 9.55423 78.0705C9.50154 78.1836 9.45019 78.2966 9.40016 78.4096C9.32181 78.5865 9.25009 78.7654 9.1777 78.9452C9.15778 78.9954 9.1352 79.0435 9.11595 79.0937C9.0916 79.1572 9.06813 79.2209 9.04556 79.2848C8.97583 79.4686 8.91473 79.6548 8.85298 79.8411C8.81712 79.9521 8.77794 80.0642 8.74274 80.1772L8.67302 80.4229C8.64048 80.5374 8.61259 80.6524 8.58138 80.7689C8.55481 80.873 8.5236 80.9777 8.4997 81.0829C8.44391 81.3168 8.39809 81.5546 8.3536 81.7905C8.34165 81.8608 8.32372 81.9291 8.31243 81.9994L8.30911 82.019L8.30181 82.0829C8.27657 82.2367 8.25864 82.3925 8.23606 82.5497C8.20507 82.7935 8.18006 83.0388 8.16102 83.2859C8.15128 83.3943 8.14332 83.5037 8.13712 83.6141C8.13247 83.6991 8.12384 83.7827 8.11985 83.8682C8.11321 84.0402 8.11653 84.2146 8.1152 84.3901C8.11432 84.4936 8.11432 84.5984 8.1152 84.7046C8.11653 84.767 8.11388 84.8289 8.1152 84.8913V84.9272C8.12052 85.0395 8.12516 85.1514 8.12915 85.2628C8.13712 85.3866 8.15239 85.507 8.16235 85.6289C8.16966 85.7198 8.17298 85.8107 8.18028 85.9002C8.19091 85.9807 8.19622 86.0412 8.20352 86.0933C8.2168 86.2078 8.23208 86.3242 8.24868 86.4378C8.26462 86.5695 8.28388 86.71 8.31044 86.8702L8.31243 86.8839V86.8815L8.34165 87.0353C8.36644 87.1657 8.39256 87.2954 8.42001 87.4245C8.44126 87.541 8.46915 87.6707 8.50501 87.8339L8.54884 88.0009L8.61059 88.2343L8.61259 88.2402L8.61524 88.2511L8.6438 88.3503C8.67036 88.4575 8.70688 88.5921 8.76266 88.7764L8.80251 88.9002L8.89349 89.167L8.93266 89.286C8.94595 89.3253 8.95923 89.3607 8.97716 89.4162L9.01567 89.5258L9.04888 89.6172L9.07809 89.7002L9.12126 89.8083L9.16177 89.9209C9.19763 90.0088 9.23681 90.0953 9.27267 90.1833C9.31583 90.2855 9.37028 90.4216 9.45063 90.6039L9.43735 90.5744L9.45263 90.6088C9.47122 90.6521 9.48649 90.6806 9.50376 90.7169C9.57548 90.8688 9.63259 90.9848 9.66114 91.0447L9.66579 91.0516V91.0526C9.71139 91.1522 9.78289 91.2968 9.88028 91.4865L9.88161 91.4894L9.88294 91.4939L9.88161 91.4889L9.88958 91.5066L9.88626 91.4983L9.92942 91.5764C9.99118 91.6929 10.041 91.7828 10.0822 91.8521L10.13 91.9406L10.1379 91.9553C10.2134 92.0912 10.2908 92.2265 10.3704 92.3612L10.3657 92.3538L10.4188 92.4384C10.4686 92.5194 10.5138 92.5956 10.5556 92.6575C10.5955 92.7181 10.6293 92.7705 10.6572 92.8148L10.6533 92.8079L10.6586 92.8172C10.7216 92.914 10.7974 93.0384 10.9036 93.1936L10.9116 93.2084L10.9182 93.2162L10.9627 93.2811C11.0079 93.345 11.051 93.4069 11.0902 93.4605C11.1447 93.5376 11.1945 93.603 11.233 93.6585L11.2409 93.6713C11.2987 93.7485 11.3791 93.8624 11.488 94.0084L11.4953 94.0182L11.5033 94.029L11.5484 94.0851C11.5936 94.1444 11.6365 94.1996 11.6772 94.2507C11.7476 94.3381 11.8127 94.4163 11.8632 94.4816L11.8791 94.4998L11.8824 94.5052C11.9347 94.5694 12.0175 94.6695 12.1308 94.8055L12.1414 94.8182L12.1746 94.8576C12.2308 94.9231 12.2842 94.9847 12.3347 95.0423C12.417 95.1318 12.4894 95.2133 12.5518 95.2831L12.5412 95.2713C12.6096 95.3455 12.7025 95.4517 12.83 95.5853L12.84 95.5966L12.846 95.605L12.8347 95.5907L12.848 95.6055L12.8579 95.6163L12.8546 95.6143L12.8593 95.6192L12.8613 95.6202C12.9215 95.6831 12.9821 95.7459 13.0432 95.8084C13.1278 95.8959 13.2063 95.9752 13.279 96.0463L13.2743 96.0414C13.3425 96.1102 13.4281 96.1953 13.5313 96.2969L13.5539 96.3185C13.6318 96.3929 13.7071 96.464 13.7797 96.5318C13.8744 96.6193 13.9638 96.7012 14.0479 96.7775L14.0765 96.804C14.1336 96.8556 14.2007 96.9171 14.291 96.9952L14.3308 97.0306L14.3295 97.0311L14.3428 97.0434L14.3667 97.062C14.5015 97.179 14.623 97.2797 14.7445 97.38L14.8734 97.4895L14.8747 97.491L14.88 97.4949L14.89 97.5023L14.8866 97.5008C14.9464 97.5506 15.0217 97.6117 15.1124 97.6841L15.1416 97.7082V97.7097L15.147 97.7126L15.1649 97.7259L15.1602 97.723C15.3063 97.8399 15.4498 97.9475 15.5939 98.0561C15.6536 98.1004 15.7121 98.1495 15.7725 98.1923L15.7791 98.1972L15.993 98.3569L16.0149 98.3716L16.0793 98.4213C16.2526 98.5471 16.4339 98.6679 16.6132 98.7903L16.6544 98.8208L16.6663 98.8277L16.6703 98.8306L16.677 98.8355C16.7234 98.8655 16.7965 98.9161 16.9034 98.9874L16.9147 98.9962C17.1449 99.1469 17.3751 99.293 17.6053 99.4345L17.6186 99.4429L17.7488 99.5225L17.8371 99.5761L17.8344 99.5736L17.9672 99.6517C18.162 99.7674 18.3517 99.8775 18.5363 99.982L18.5881 100.012L18.612 100.025L18.7628 100.109L18.7986 100.129L18.8265 100.144C18.8792 100.172 18.9332 100.2 18.9886 100.229C19.151 100.315 19.3142 100.401 19.478 100.485L19.6161 100.556L19.632 100.565L19.8027 100.651L19.81 100.653L19.897 100.695C20.063 100.778 20.241 100.859 20.4163 100.943C20.5093 100.986 20.5929 101.028 20.6892 101.071L20.8386 101.138L20.923 101.175L20.9781 101.199C21.253 101.321 21.5087 101.43 21.7451 101.526L21.7677 101.535L21.9138 101.594L21.9244 101.6C22.2502 101.727 22.5597 101.845 22.8527 101.953L22.9032 101.971L23.0632 102.028L23.0646 102.027C23.2233 102.084 23.3767 102.133 23.5341 102.185C23.6076 102.211 23.6815 102.235 23.7559 102.26C23.8449 102.289 23.9378 102.325 24.0268 102.353L24.1025 102.377L24.1244 102.383L24.1603 102.395C24.313 102.442 24.4618 102.483 24.6118 102.528L24.6889 102.55C24.8575 102.6 25.0269 102.653 25.1949 102.7L25.2347 102.711L25.3596 102.744C25.4386 102.765 25.5196 102.783 25.5986 102.805L25.6737 102.823C25.9147 102.887 26.1565 102.952 26.4022 103.01L26.4599 103.023L26.4812 103.028L26.4891 103.031C26.8672 103.118 27.2444 103.198 27.6207 103.273L27.6353 103.276L27.6991 103.288L27.6772 103.285C28.0099 103.349 28.3379 103.405 28.662 103.459H28.6659L28.7861 103.482L28.9123 103.502C29.2218 103.552 29.5365 103.592 29.8546 103.633L29.9443 103.651L30.1674 103.676C30.3586 103.699 30.5499 103.718 30.7411 103.737L30.8235 103.903L30.8268 103.911C31.3492 104.967 31.9148 106.015 32.5235 107.057C41.4923 125.423 66.2844 139.661 94.5748 142.264C122.867 144.867 153.067 130.952 165.371 112.148C165.881 111.455 166.366 110.752 166.826 110.039C168.046 109.109 168.994 108.145 169.623 107.123C170.376 105.922 170.63 104.658 170.56 103.623Z" fill="#59473D"/>
<path d="M145.68 49.7227L145.683 49.7276L145.684 49.7295L145.68 49.7227ZM20.841 101.139L20.839 101.138H20.8377L20.841 101.139ZM12.8291 95.5839L12.8304 95.5863V95.5849L12.8291 95.5839ZM12.8331 95.5898L12.8351 95.5903L12.8304 95.5863L12.8331 95.5898ZM9.08113 89.7081L9.07848 89.6998L9.07648 89.6978L9.08113 89.7081ZM8.76371 88.7789L8.76305 88.7759L8.76172 88.7744L8.76371 88.7789ZM13.5582 96.321L13.5675 96.3298L13.5543 96.3181L13.547 96.3107L13.5582 96.321Z" fill="#59473D"/>
<path d="M146.361 11.8366C144.991 10.7093 143.406 9.86011 141.685 9.2311C141.368 9.14119 141.046 9.05989 140.721 8.98736C140.561 8.90939 140.399 8.83454 140.233 8.76279C138.71 8.33133 137.099 8.04976 135.442 7.89201C127.222 7.1092 117.864 9.32349 112.513 10.896L111.624 11.1712C110.378 11.565 109.14 11.9738 107.912 12.3973C107.796 12.4372 107.681 12.4775 107.566 12.5181L105.458 10.7053L104.853 10.1854L104.592 9.95937L99.076 5.22022L98.5972 4.80842L98.0042 4.29981L97.8986 4.31701L96.3381 4.57844L94.5365 4.88017C93.5404 4.53815 92.357 4.29392 90.987 4.16763C88.2431 3.91209 84.7595 4.14699 80.791 4.90621C76.8219 5.66003 72.372 6.92787 67.6526 8.66746C58.2129 12.1427 47.7041 17.5005 37.5918 24.3272C34.1666 26.6356 30.8819 29.0557 27.7477 31.5804C24.9242 33.8493 22.243 36.213 19.7126 38.664C14.8164 43.4194 11.0638 48.0445 8.6672 52.1699C7.06681 54.9189 6.07669 57.4447 5.71478 59.6064C5.44783 61.1779 5.51755 62.5524 5.87349 63.6881C5.98837 64.0551 6.14111 64.3893 6.3131 64.7082C6.67103 65.3795 7.14118 65.9579 7.74814 66.4527L13.8661 71.1963L14.5222 71.7039L14.5654 71.6695C14.7513 71.5098 14.9433 71.3501 15.1365 71.1943L15.189 71.1531C15.2593 71.0965 15.3324 71.044 15.4035 70.9904C15.5867 70.8476 15.7729 70.7067 15.9619 70.5678C16.0795 70.4818 16.1983 70.3992 16.3185 70.3157C16.4347 70.2346 16.5483 70.1501 16.6665 70.07C16.7196 70.0341 16.7747 70.0012 16.8292 69.9653C16.954 69.8821 17.0813 69.7994 17.211 69.7171C17.4952 69.5344 17.785 69.3564 18.0803 69.1835L18.1281 69.156C18.4446 68.973 18.7656 68.7945 19.091 68.6203C19.2951 68.5129 19.5023 68.4069 19.7126 68.3024C19.8378 68.2398 19.9636 68.1779 20.0897 68.1166C20.3049 68.0138 20.5225 67.913 20.7425 67.8144C20.8707 67.7569 20.9949 67.6999 21.1217 67.6454C21.3515 67.5456 21.5845 67.4513 21.8163 67.3569C21.9405 67.3078 22.0627 67.2562 22.1868 67.2075L22.3263 67.1535L22.3476 67.1441C22.5448 67.069 22.746 66.9997 22.9465 66.9279C23.0594 66.8886 23.1663 66.8468 23.2812 66.8085C23.4486 66.7495 23.6199 66.6955 23.7906 66.6404C23.9375 66.5923 24.0856 66.5448 24.2348 66.4979L24.4002 66.4439C24.7777 66.3299 25.1588 66.2225 25.543 66.1215C25.6645 66.0891 25.7907 66.0616 25.9129 66.0301C26.0448 65.9974 26.1779 65.9651 26.312 65.9333L26.4674 65.894C26.5471 65.8758 26.6268 65.8557 26.7058 65.8385C26.8698 65.8026 27.0358 65.7706 27.1999 65.7353L27.322 65.7107C27.5124 65.6701 27.7034 65.6316 27.8951 65.5952C28.0744 65.5608 28.2537 65.5323 28.4357 65.5019C28.6592 65.4632 28.883 65.4265 29.107 65.3918L29.3886 65.3495C29.4822 65.3367 29.5799 65.3264 29.6742 65.3136C29.8955 65.2841 30.1169 65.2566 30.3382 65.2311C30.5343 65.2101 30.7302 65.1898 30.9259 65.1701C31.0846 65.1554 31.24 65.1392 31.3974 65.1259C31.4616 65.1213 31.5258 65.1172 31.59 65.1136C31.6624 65.1072 31.7314 65.0994 31.8038 65.095L31.922 65.09C32.7828 65.0646 33.6448 65.0756 34.5039 65.123L34.6467 65.1298C35.5949 65.1873 36.6196 65.2984 37.696 65.4674C37.953 65.5082 38.2093 65.5475 38.475 65.5952C38.5294 65.5199 38.5848 65.4445 38.641 65.3692C39.2108 64.6124 39.7872 63.8748 40.3702 63.15C43.7768 58.9234 47.4312 55.2285 51.1612 52.0068C52.4018 50.9341 53.6821 49.887 55.0008 48.8667C60.3505 44.732 65.7321 41.5122 70.6528 39.0262C71.7073 38.4937 72.776 37.9768 73.8582 37.4758C75.1995 36.8557 76.5624 36.2615 77.9455 35.694C78.9474 35.2831 79.9603 34.8871 80.9836 34.5062C82.4146 33.9728 83.8674 33.472 85.3399 33.0045C86.2305 32.7227 87.1289 32.4546 88.0346 32.2005C87.63 32.1691 87.2174 32.1452 86.7968 32.1288C86.4046 32.114 86.0068 32.1068 85.6035 32.1072L85.3 32.1077C84.0775 32.1163 82.8576 32.1907 81.6497 32.3303C81.3752 32.362 81.098 32.3982 80.8183 32.4389C82.7462 31.7011 84.76 31.0934 86.8353 30.6231C88.1309 30.3283 89.3973 30.0973 90.6125 29.9214C93.077 29.5692 95.5826 29.3994 98.0925 29.4142C98.9518 29.4206 99.7427 29.4482 100.454 29.4875C102.938 29.6251 104.436 29.9066 104.436 29.9066C104.083 29.5391 103.639 29.2187 103.156 28.9391C102.276 28.4349 101.263 28.0737 100.375 27.8177C99.8503 27.6661 99.3152 27.5352 98.7718 27.4255C99.1907 27.3731 99.6039 27.3269 100.012 27.2869C100.438 27.2441 100.865 27.2074 101.293 27.1769C104.319 26.9694 107.369 27.0716 110.358 27.4806C113.195 27.8688 114.903 28.3965 114.903 28.3965C114.498 27.8132 113.899 27.3154 113.242 26.8948C112.783 26.6027 112.293 26.3385 111.777 26.1046C114.687 26.6026 117.513 27.3365 120.206 28.2929C120.77 28.4943 121.328 28.7065 121.877 28.9292C123.266 29.4899 124.034 29.8929 124.034 29.8929C123.802 29.2884 123.33 28.7169 122.78 28.2044C122.642 28.0757 122.501 27.9489 122.358 27.8285L122.424 27.8511C122.476 27.8634 122.584 27.8884 122.737 27.9268C122.846 27.9539 122.981 27.9887 123.14 28.0309C123.745 28.1936 124.669 28.4668 125.755 28.8663L125.913 28.9248C126.061 28.9805 126.211 29.0378 126.362 29.0968C126.736 29.2423 127.121 29.4039 127.514 29.5769C128.095 29.8329 128.662 30.107 129.212 30.3985C129.627 30.618 130.039 30.8542 130.448 31.1072C130.873 31.3701 131.282 31.6466 131.675 31.9357C131.753 31.9941 131.834 32.0511 131.912 32.1116C132.202 32.3334 132.483 32.5653 132.754 32.8074C133.279 33.271 133.752 33.765 134.17 34.2846C134.695 34.9364 135.118 35.6297 135.433 36.3515C135.451 36.3941 135.467 36.4366 135.482 36.4792C135.716 36.293 136.129 35.9583 136.667 35.5013C141.133 31.7027 154.285 19.3649 146.361 11.8366Z" fill="#141C26"/>
<path d="M166.013 104.012L166.016 104.011C166.016 104.011 166.17 103.157 165.56 102.393L165.546 102.371C165.512 102.327 165.474 102.285 165.434 102.244L165.394 102.199C165.323 102.131 165.245 102.066 165.163 102.004C165.004 101.881 164.826 101.773 164.631 101.682C164.518 101.628 164.401 101.579 164.28 101.535C163.934 101.413 163.519 101.32 163.026 101.266C162.622 101.227 162.214 101.214 161.806 101.227C161.625 101.231 161.447 101.234 161.251 101.248L161.162 101.251L161.195 101.339L161.282 101.581L161.326 101.714C161.39 101.903 161.467 102.143 161.545 102.414C161.522 102.467 161.495 102.518 161.464 102.568L161.435 102.621C161.21 103.007 160.6 103.899 159.241 105.058C159.009 105.255 158.752 105.461 158.478 105.674C154.686 108.573 146.478 112.702 129.212 115.011C123.353 115.623 117.951 115.657 113.337 115.232C106.515 114.604 101.403 112.991 99.0247 110.822C98.8188 110.636 98.6295 110.444 98.4496 110.251C98.3174 110.109 98.1911 109.964 98.0711 109.816L97.9482 109.654C96.9721 108.371 96.4743 106.92 96.5059 105.448C96.5391 103.734 97.2609 102.094 98.4841 100.833C99.4762 99.8112 100.795 99.0387 102.338 98.6819C103.119 98.5013 103.938 98.4299 104.754 98.4716C104.925 98.4804 105.152 98.498 105.435 98.5242C106.002 98.5768 106.794 98.6593 107.766 98.7517L108.09 98.7822C111.33 99.0799 116.49 99.4407 122.73 99.1586C134.083 98.647 149.025 96.0037 162.593 86.9495L162.63 86.9141V86.8984C162.675 86.1402 162.538 84.7706 161.243 83.7052C161.005 83.5104 160.74 83.3342 160.453 83.1794C160.278 83.0827 160.095 82.9941 159.905 82.9141C159.705 82.8325 159.523 82.7499 159.347 82.6669C159.119 82.5621 158.896 82.451 158.679 82.3337L158.65 82.3018C158.558 82.1956 158.46 82.0924 158.367 81.9863C154.847 78.0417 149.999 75.7523 148.065 74.7031C147.153 74.2068 146.573 73.9807 146.573 73.9807C142.386 72.0937 141.772 71.4677 142.163 66.3423C142.303 64.4966 142.573 62.0705 142.851 58.782C142.886 58.3712 142.907 57.96 142.916 57.5485C142.919 57.4535 142.921 57.3593 142.921 57.266C142.926 56.8991 142.919 56.5323 142.9 56.1657L142.895 56.064L142.884 55.9554C142.854 55.569 142.813 55.1831 142.76 54.7981C142.72 54.5244 142.671 54.2516 142.611 53.9799C142.582 53.8453 142.546 53.7155 142.513 53.5843C142.476 53.4396 142.436 53.2952 142.393 53.1514C142.354 53.0131 142.311 52.8753 142.265 52.7381L142.263 52.7371L142.265 52.7357V52.7371C142.209 52.572 142.144 52.4153 142.082 52.259C142.059 52.2015 142.041 52.142 142.016 52.087C141.993 52.0339 141.968 51.9858 141.945 51.9327L141.921 51.8806L141.85 51.7302L141.848 51.7204C141.789 51.5992 141.729 51.4813 141.669 51.3666L141.651 51.3283L141.59 51.2192L141.517 51.085L141.501 51.0595V51.056C141.375 50.8388 141.244 50.628 141.104 50.4305L140.993 50.2845C140.839 50.0969 140.677 49.9132 140.506 49.7336L140.44 49.6599L140.357 49.5789C140.237 49.458 140.118 49.34 139.998 49.2295L139.834 49.0771C139.678 48.9392 139.517 48.8044 139.352 48.6727V48.6717L139.349 48.6516L139.344 48.627L139.335 48.5926L139.323 48.5435L139.313 48.4948L139.291 48.4162L139.281 48.368L139.252 48.2575L139.24 48.2181C139.167 47.9481 139.085 47.6792 138.996 47.4117L138.989 47.3881L138.904 47.1434L138.892 47.1115C138.86 47.0208 138.826 46.9304 138.792 46.8402L138.788 46.8343C138.7 46.6018 138.605 46.3704 138.505 46.1405C138.473 46.0618 138.433 45.9793 138.394 45.8977C138.318 45.7244 138.237 45.552 138.152 45.3807C138.101 45.279 138.046 45.1783 137.993 45.0741C137.906 44.9068 137.815 44.7409 137.719 44.5763C137.657 44.4652 137.587 44.3557 137.522 44.2436C137.348 43.9603 137.164 43.6804 136.971 43.4043C136.848 43.2339 136.72 43.0655 136.588 42.8991L136.33 42.5763C136.178 42.3959 136.013 42.2195 135.847 42.0431C135.763 41.9561 135.685 41.8652 135.597 41.7777C135.52 41.7021 135.433 41.6318 135.353 41.5581C135.162 41.3772 134.973 41.1964 134.764 41.0264L134.739 41.0077L134.62 40.9242C134.351 40.7099 134.068 40.5015 133.764 40.3099L133.709 40.2755C133.575 40.1914 133.437 40.1101 133.296 40.0318L133.282 40.0229L133.231 39.9959C133.11 39.9287 132.986 39.8639 132.859 39.8013L132.793 39.7669L132.819 39.7831C132.687 39.7104 132.445 39.616 132.128 39.5114C132.017 39.4753 131.896 39.4376 131.766 39.3983C131.112 39.2042 130.229 38.9846 129.182 38.7787C129.117 38.7649 129.048 38.7531 128.984 38.7413C127.699 38.4945 126.392 38.31 125.074 38.189C124.906 38.1732 124.735 38.1669 124.566 38.1536L124.36 38.1393C123.548 38.0773 122.732 38.0469 121.915 38.0484L121.866 38.0499C120.808 38.0573 119.748 38.1221 118.737 38.2701C118.975 37.9787 119.617 37.6563 120.261 37.387C120.783 37.1713 121.319 36.9758 121.868 36.8012C121.41 36.8268 120.939 36.8749 120.47 36.931C120.319 36.9496 120.166 36.9649 120.014 36.9855L119.72 37.0268L119.633 37.0401L119.389 37.0779C117.029 37.4499 114.758 38.0789 113.495 38.4602C113.316 38.5146 113.158 38.5633 113.02 38.6062L112.941 38.6308C112.815 38.6421 112.686 38.6563 112.56 38.6676L112.564 38.6647C113.495 37.3904 114.869 36.7039 115.915 36.3413C116.098 36.2779 116.272 36.2209 116.43 36.1767C116.49 36.1595 116.539 36.1486 116.592 36.1339C116.742 36.0946 116.873 36.0631 116.984 36.0395C117.231 35.9865 117.391 35.9629 117.391 35.9629C117.278 35.9649 117.174 35.9757 117.065 35.9801L116.788 35.9963C116.652 36.0037 116.513 36.0091 116.379 36.0184C116.299 36.0243 116.215 36.0258 116.134 36.0317C113.524 36.241 111.204 36.8956 109.215 37.7089C107.938 38.2323 106.728 38.8413 105.601 39.5281C105.326 39.5703 105.047 39.6137 104.762 39.6583C101.909 40.1089 98.6501 40.6893 95.2236 41.4677C93.929 41.7612 92.6437 42.0768 91.3687 42.4141C89.5951 42.888 87.8451 43.4088 86.1219 43.9753C80.8605 45.7134 75.6762 48.0206 71.32 51.1165C71.1632 51.228 70.9986 51.3327 70.8445 51.4462C70.4668 51.7281 70.097 52.0158 69.7355 52.3091C69.5861 52.428 69.4294 52.5401 69.2826 52.661C69.0987 52.8113 68.9287 52.9735 68.7494 53.1278C67.927 53.8301 67.1541 54.5632 66.4338 55.3244C65.8909 55.9022 65.3804 56.4963 64.9038 57.1053L64.8447 57.178C63.82 58.4944 62.953 59.8746 62.2535 61.3029C61.7869 62.2561 61.3905 63.2275 61.0662 64.2125L61.0277 64.3226C60.7494 65.1979 60.5245 66.082 60.3536 66.9723C60.3198 67.1516 60.2812 67.329 60.2487 67.5113C60.1717 67.9664 60.1112 68.4303 60.0595 68.9006C60.0117 69.3357 59.9749 69.7715 59.9492 70.2077L59.9432 70.3099C59.932 70.5261 59.9154 70.7404 59.9094 70.9601C59.9027 71.2102 59.9054 71.4652 59.9054 71.7203L59.9034 71.8986C59.9043 72.4028 59.9187 72.9069 59.9466 73.4107L59.9539 73.4923C59.9837 74.0014 60.0322 74.5208 60.092 75.0451C60.1172 75.2623 60.1418 75.4805 60.1717 75.7012C60.1783 75.7542 60.1845 75.8081 60.1903 75.8628C60.208 75.9854 60.2266 76.1081 60.2461 76.2309C60.3333 76.8108 60.4384 77.3998 60.5615 77.998C60.594 78.1641 60.6246 78.3297 60.6611 78.4968C60.774 79.0201 60.8968 79.5474 61.0369 80.084C61.0369 80.084 60.9101 79.3961 60.9891 78.3838C61.0082 78.1505 61.0387 77.9014 61.0808 77.6363C61.1784 77.0614 61.3444 76.4275 61.6273 75.7729C61.6977 75.613 61.7752 75.452 61.8597 75.2899C61.8943 75.2191 61.9368 75.1498 61.9753 75.0786C62.1426 74.7793 62.3305 74.479 62.5577 74.1817C62.609 74.3927 62.6635 74.6045 62.721 74.8171L62.7396 74.8859L62.7376 74.9822L62.7316 75.4049C62.7233 76.1938 62.7357 76.9829 62.7688 77.7715C62.8472 79.6762 63.069 81.975 63.6255 83.9337C63.6255 83.9337 63.7297 80.372 64.5445 79.9691C64.5445 79.9691 65.9689 86.5647 67.2911 89.0547C67.4624 89.3771 67.6331 89.6346 67.7978 89.7953L67.7639 89.1412L67.5753 85.4753C67.5753 85.4753 67.5839 85.3382 67.6019 85.0984C68.6467 86.6758 69.7783 88.221 70.9939 89.7299C71.3479 90.1687 71.7084 90.6095 72.083 91.0552C69.6339 92.6489 67.3695 94.904 65.7438 97.6008C65.484 98.0319 65.2411 98.4736 65.0154 98.9257C64.6183 99.7308 64.2848 100.552 64.0166 101.386C63.9874 101.476 63.9568 101.565 63.9309 101.655C63.8468 101.93 63.7693 102.206 63.6985 102.486L63.6932 102.512C63.625 102.792 63.5642 103.075 63.5106 103.361C63.4929 103.453 63.4772 103.545 63.4634 103.637C63.428 103.84 63.397 104.044 63.3705 104.25C63.3563 104.353 63.3432 104.458 63.3313 104.563C63.3083 104.77 63.2897 104.978 63.2755 105.187C63.2671 105.281 63.2605 105.375 63.2556 105.47C63.2381 105.773 63.2299 106.076 63.231 106.379L63.2323 106.419C63.2323 106.654 63.2416 106.888 63.2536 107.125C63.2669 107.363 63.2855 107.602 63.3094 107.842L63.318 107.938L63.3227 107.998C63.3532 108.289 63.3957 108.581 63.4435 108.875C63.4588 108.969 63.4807 109.061 63.4973 109.155C63.5345 109.356 63.571 109.557 63.6182 109.76C63.6421 109.872 63.672 109.986 63.6979 110.098C63.7457 110.284 63.7915 110.468 63.8453 110.655L63.9515 111.013C64.1035 111.504 64.2776 111.991 64.4735 112.473C64.5217 112.593 64.5715 112.714 64.6229 112.834C64.7052 113.024 64.7936 113.215 64.8819 113.405C64.9363 113.519 64.9875 113.633 65.0439 113.747C65.1488 113.957 65.2591 114.167 65.3746 114.378C65.4257 114.472 65.4722 114.566 65.526 114.661C65.8777 115.285 66.2641 115.898 66.6841 116.499C66.7492 116.589 66.8189 116.681 66.8827 116.772C67.0376 116.987 67.1972 117.202 67.3615 117.417C67.4496 117.529 67.5397 117.642 67.6318 117.755C67.7871 117.949 67.9439 118.144 68.1099 118.338C68.2108 118.458 68.3171 118.579 68.422 118.699C68.6989 119.013 68.9836 119.323 69.276 119.629C69.4531 119.815 69.6361 120 69.8252 120.185C69.9465 120.307 70.0698 120.429 70.195 120.551C70.3938 120.741 70.5979 120.931 70.8073 121.12C70.9313 121.236 71.0574 121.352 71.1858 121.467C71.4196 121.673 71.6626 121.881 71.9083 122.086C72.0239 122.184 72.1328 122.281 72.2503 122.378C72.6189 122.68 72.9961 122.982 73.3905 123.283L73.3892 123.281C73.1936 123.065 73.0136 122.841 72.85 122.611L72.8387 122.597C72.7816 122.518 72.7211 122.43 72.6594 122.338L72.6395 122.312C72.571 122.21 72.5046 122.107 72.4402 122.003L72.4263 121.984C72.3509 121.862 72.2782 121.739 72.2085 121.615C71.6281 120.583 71.0636 119.149 71.1367 117.55C71.3611 117.772 71.5902 117.987 71.8173 118.206C72.2701 118.885 72.7388 119.559 73.2232 120.227C73.8495 121.086 74.5074 121.931 75.1961 122.763C76.072 123.812 77.0342 124.863 78.0283 125.769L78.0263 125.768C78.0217 125.762 76.8695 123.982 76.4837 122.814C76.3755 122.485 76.3243 122.203 76.3801 122.026L76.659 122.238C76.7513 122.309 76.845 122.379 76.9379 122.45C77.1219 122.631 77.3543 122.859 77.6139 123.111L77.7454 123.239C77.8743 123.364 78.0071 123.495 78.1505 123.633L78.1585 123.641L78.6764 124.137C80.2981 125.679 82.455 127.65 83.9936 128.734C84.5069 129.095 84.9505 129.358 85.2832 129.471L83.0632 126.528C88.0875 129.554 108.82 133.438 129.244 129.102C131.751 128.573 134.207 127.922 136.598 127.154C138.079 126.681 139.531 126.162 140.952 125.597L141.16 125.511C142.175 125.099 143.173 124.665 144.152 124.208L144.174 124.198C146.201 123.253 148.143 122.211 149.987 121.079L149.99 121.078L149.995 121.075C150.063 121.031 150.132 120.987 150.203 120.943C151.342 120.207 152.435 119.433 153.477 118.623C154.769 117.615 155.983 116.554 157.111 115.444L157.191 115.367C157.458 115.103 157.718 114.841 157.971 114.581L158.043 114.505C158.125 114.416 158.198 114.331 158.28 114.243C158.63 113.873 158.972 113.499 159.306 113.12L159.542 112.85C159.711 112.653 159.874 112.456 160.037 112.261C160.16 112.108 160.286 111.955 160.405 111.804C160.538 111.638 160.67 111.473 160.8 111.309C161.026 111.015 161.247 110.719 161.464 110.422C161.549 110.305 161.628 110.192 161.71 110.077C161.874 109.848 162.032 109.621 162.184 109.398L162.394 109.086L162.456 108.987C162.645 108.705 162.827 108.425 163.001 108.149L163.034 108.09C163.614 107.695 164.142 107.26 164.612 106.792C164.672 106.733 164.734 106.674 164.788 106.616C165.699 105.644 165.997 104.784 166.013 104.012ZM44.0024 93.0853C43.9843 93.0165 43.9674 92.9482 43.952 92.8803L43.9679 92.8754C43.7272 91.8843 43.5437 90.886 43.418 89.8832C43.4101 89.8105 43.3961 89.7402 43.3855 89.668C43.1584 89.7206 42.9021 89.9432 42.6444 90.2474C42.5437 90.3682 42.4485 90.4914 42.3589 90.6169C41.6682 91.5766 41.0467 92.9069 41.0467 92.9069C41.0985 92.4499 41.1612 91.9936 41.2346 91.5383C41.2435 91.4849 41.253 91.4312 41.2632 91.3771C41.3395 90.9054 41.4285 90.4297 41.5228 89.9569C41.5339 89.8996 41.5454 89.8429 41.5573 89.7869C41.6676 89.2537 41.7845 88.724 41.906 88.2129L41.9525 88.0164L41.9618 87.9825L42.0043 87.8046C42.0251 87.7161 42.0463 87.6285 42.068 87.5417C42.1676 87.1363 42.2699 86.7451 42.3688 86.3736C42.4596 86.0378 42.5468 85.7203 42.6305 85.4212L42.657 85.3249C42.6696 85.2777 42.6836 85.235 42.6955 85.1903C42.7088 85.1464 42.7212 85.1015 42.7327 85.0556L42.7374 85.0399C42.7593 84.9652 42.7825 84.8886 42.8025 84.8178L42.8091 84.7981C42.8277 84.7279 42.8463 84.6684 42.8649 84.603C42.8961 84.4998 42.9253 84.3947 42.9545 84.2984L42.9625 84.2718C42.9864 84.1937 43.0083 84.1146 43.0302 84.0433C43.0626 83.9418 43.0913 83.8464 43.1166 83.7573L43.1179 83.7549L43.1199 83.7524C43.1345 83.7013 43.1491 83.6571 43.1637 83.6099L43.1664 83.6016C43.1803 83.5588 43.1929 83.5141 43.2055 83.4762L43.2826 83.231L43.3018 83.173L43.3091 83.1514L43.3311 83.0826L43.3463 83.035L43.3497 83.0281L43.339 83.0345L43.1996 83.1278C43.0767 83.2089 42.9505 83.288 42.8357 83.3775L42.7088 83.4807C42.5705 83.594 42.4401 83.7126 42.3184 83.836L42.2533 83.8964C42.1005 84.0536 41.9591 84.2188 41.8243 84.3863V84.3868L41.8064 84.4089V84.4099L41.7513 84.4846C41.7203 84.5259 41.6902 84.5673 41.6609 84.6089C41.5832 84.7141 41.5022 84.8163 41.4325 84.922L41.4292 84.9259L41.4265 84.9293L41.4232 84.9382L41.396 84.978L41.3707 85.0183C41.2644 85.1825 41.1636 85.3486 41.0686 85.5166C40.7663 86.0487 40.5112 86.5948 40.3049 87.1515C40.2159 87.3888 40.1535 87.5746 40.1256 87.6655L40.1243 87.6734L40.1044 87.7343L40.1123 87.663C40.123 87.522 40.1449 87.3815 40.1602 87.2414C40.1894 86.9466 40.2146 86.6502 40.2584 86.3569C40.2936 86.1102 40.3448 85.8689 40.3919 85.6242L40.4384 85.3952C40.4579 85.2818 40.48 85.1691 40.5048 85.0571C40.5267 84.9524 40.5579 84.8492 40.5845 84.7465L40.5858 84.7387L40.6157 84.6232L40.6243 84.5917C40.6674 84.4163 40.7119 84.241 40.7578 84.0659L40.7817 83.979L40.7864 83.9627L40.8216 83.8394C40.8348 83.7878 40.8548 83.7377 40.8687 83.689C40.9252 83.5042 40.9856 83.3234 41.044 83.1411L41.054 83.1106C41.0971 82.975 41.137 82.8384 41.1841 82.7047L41.1855 82.6988L41.1901 82.69L41.2047 82.6507C41.301 82.3755 41.4079 82.1067 41.5148 81.8359L41.5706 81.6865C41.5912 81.6369 41.6085 81.5838 41.6304 81.5337C41.8064 81.0944 41.9956 80.6605 42.1962 80.2364L42.2221 80.1833C42.3947 79.8231 42.5687 79.4683 42.7513 79.1189L42.7712 79.0791C42.8543 78.9253 42.9393 78.7779 43.0203 78.6255L43.0336 78.6034C43.1584 78.3769 43.2812 78.1489 43.4088 77.9297V77.9263L43.4114 77.9233L43.426 77.8958C43.4599 77.8408 43.5389 77.7076 43.6618 77.511L43.6638 77.5076L43.6804 77.4811C43.7282 77.4034 43.7733 77.3282 43.8198 77.2496L44.0456 76.8781L44.1127 76.7705L44.1147 76.7656L45.4082 75.0447C45.4623 74.9722 45.5152 74.8998 45.567 74.8274L45.5942 74.793L45.6606 74.7046C45.8014 74.5134 45.9428 74.3213 46.0809 74.1355L46.6739 73.3449C47.0538 72.8387 47.3792 72.4097 47.5771 72.1507L47.7789 71.8834L47.7882 71.8706H47.7869L47.7823 71.8677L47.7703 71.8608C47.7198 71.8357 47.3274 71.6353 46.6806 71.3453C45.2609 70.7148 43.7794 70.1637 42.2486 69.6966C41.6779 69.5226 41.0996 69.3623 40.5148 69.216C40.3594 69.1782 40.196 69.1472 40.0393 69.1109C39.5346 68.9929 39.0171 68.8873 38.4867 68.7939L38.4562 68.789C38.0923 68.7241 37.731 68.6568 37.3578 68.6057C37.0645 68.5631 36.7698 68.5259 36.4739 68.4942C36.3318 68.4794 36.1851 68.4711 36.0423 68.4617L35.6166 68.4298C35.2152 68.4044 34.8128 68.3887 34.41 68.3826C34.2148 68.3792 34.0189 68.3748 33.8237 68.3777C32.9471 68.3924 32.0865 68.4499 31.2411 68.5389L31.0871 68.5566C29.5863 68.7217 28.1135 69.0045 26.6936 69.4003C26.2182 69.5323 25.7502 69.6762 25.2898 69.8318C25.1592 69.8771 25.0293 69.9235 24.9 69.9708C24.7426 70.0274 24.5826 70.0829 24.4272 70.1419C23.0461 70.6696 21.746 71.3062 20.5497 72.0407L20.5072 72.0667C19.1861 72.8772 18.0007 73.8017 16.9764 74.8206C16.7057 75.0875 16.4461 75.3605 16.1981 75.6393C15.7305 76.1693 15.3052 76.7191 14.9245 77.286C14.7903 77.486 14.6588 77.687 14.536 77.8914C14.5134 77.9304 14.4915 77.9695 14.4702 78.0088C13.6707 79.3612 13.1291 80.7893 12.8612 82.2521C12.8067 82.5456 12.7631 82.84 12.7304 83.1352L12.7191 83.2463C12.6675 83.7739 12.6497 84.3031 12.666 84.832C12.6666 84.8797 12.6726 84.9244 12.6746 84.9711C12.6846 85.1991 12.6965 85.4262 12.7191 85.6522L12.7364 85.7711L12.7556 85.9274C12.7751 86.1066 12.7988 86.2835 12.8267 86.4581L12.8366 86.4984V86.5097L12.838 86.5117C12.8546 86.5996 12.8752 86.6886 12.8918 86.777C12.923 86.9358 12.9528 87.0955 12.988 87.2527C13.0166 87.3672 13.0505 87.4793 13.0803 87.5928C13.1202 87.7392 13.1554 87.8876 13.2012 88.0331C13.2377 88.153 13.2809 88.2704 13.3207 88.3869L13.3473 88.4695L13.3911 88.5923L13.4237 88.6857L13.4635 88.7992C13.5093 88.9211 13.5631 89.0429 13.6116 89.1638C13.6647 89.2916 13.7159 89.4223 13.773 89.5476C13.8274 89.6724 13.8898 89.7948 13.9503 89.9181L13.9994 90.0164C14.0397 90.1055 14.0833 90.194 14.1302 90.2818C14.1953 90.4066 14.267 90.5309 14.3368 90.6557C14.4012 90.7687 14.4643 90.8837 14.5313 90.9963C14.5703 91.0608 14.6101 91.1239 14.6509 91.1855C14.6927 91.2479 14.7299 91.3113 14.7691 91.3732C14.9186 91.6105 15.0787 91.844 15.2492 92.0734C15.3222 92.1727 15.3913 92.272 15.465 92.3703C15.5633 92.4995 15.6682 92.6268 15.7725 92.755C15.8455 92.8445 15.9172 92.9354 15.9929 93.0263C16.1038 93.1565 16.2187 93.2823 16.3356 93.4096C16.4104 93.4948 16.4859 93.5783 16.562 93.6602C16.6855 93.7893 16.8117 93.9179 16.9405 94.046C17.0158 94.1216 17.0915 94.197 17.1677 94.272C17.304 94.403 17.4435 94.532 17.586 94.6587C17.6591 94.7266 17.7321 94.7949 17.8111 94.8612C17.9594 94.9909 18.1115 95.1192 18.2673 95.246C18.3391 95.3056 18.4125 95.3656 18.4878 95.4258C18.649 95.5559 18.8143 95.6828 18.9839 95.8067C19.0569 95.8593 19.1253 95.9133 19.1984 95.9659C19.4415 96.1405 19.6888 96.3118 19.9401 96.4799C20.13 96.6044 20.3235 96.7271 20.5205 96.848L20.7131 96.9669C20.9176 97.0907 21.1261 97.2092 21.336 97.3276C21.3957 97.3595 21.4582 97.3949 21.5166 97.4278C21.7357 97.5461 21.9573 97.6619 22.1813 97.7753L22.348 97.8593C22.5804 97.9749 22.8157 98.0868 23.0539 98.1949L23.206 98.2627C23.4517 98.3743 23.704 98.478 23.957 98.5822L24.0872 98.6362C24.3502 98.7407 24.6149 98.8413 24.8814 98.9379L24.9956 98.9782C25.2701 99.0762 25.5479 99.1702 25.829 99.2603L25.9286 99.2922C26.2164 99.3807 26.5064 99.4662 26.7986 99.5487L26.8802 99.5704C27.1824 99.6519 27.4832 99.7296 27.7907 99.8028L27.8531 99.8175C28.0025 99.8519 28.1559 99.8814 28.3066 99.9144C28.4707 99.9497 28.6347 99.9881 28.8007 100.021L28.8472 100.031C29.1726 100.093 29.5002 100.15 29.83 100.203L29.8586 100.209C29.8608 100.209 29.8625 100.209 29.8639 100.21C30.1977 100.263 30.5346 100.309 30.8746 100.349L30.8898 100.353C31.9473 100.478 33.0158 100.546 34.0866 100.556C34.3447 100.56 34.6035 100.561 34.8629 100.559C35.7161 100.538 36.5669 100.48 37.4109 100.386C38.5334 100.26 39.6435 100.079 40.7339 99.8456C42.6829 99.4269 44.4048 98.8677 45.4341 98.2996C45.4341 98.2996 44.7568 96.0804 44.1844 93.8258C44.1223 93.5792 44.0616 93.3323 44.0024 93.0853Z" fill="#856249"/>
<path d="M132.79 39.7656L132.794 39.7667L132.785 39.7617L132.79 39.7656Z" fill="#856249"/>
<path d="M92.6625 9.71907L92.4148 7.47137L93.9355 4.97992L94.5364 4.88017C93.5404 4.53815 92.357 4.29392 90.987 4.16763C88.2431 3.91209 84.7595 4.14699 80.791 4.90621C76.8219 5.66003 72.372 6.92787 67.6525 8.66746C58.2129 12.1427 47.7041 17.5005 37.5918 24.3272C34.1666 26.6356 30.8819 29.0557 27.7477 31.5804C24.9242 33.8493 22.243 36.213 19.7126 38.664C14.8164 43.4194 11.0638 48.0445 8.6672 52.1699C7.06681 54.9189 6.07669 57.4447 5.71478 59.6064C5.44783 61.1779 5.51755 62.5524 5.87349 63.6881C5.98837 64.0551 6.14111 64.3893 6.3131 64.7082C6.67103 65.3795 7.14118 65.9579 7.74814 66.4527L13.8661 71.1963L14.5222 71.7039L14.5654 71.6695C14.7513 71.5098 14.9433 71.3501 15.1365 71.1943L15.189 71.1531C15.2593 71.0965 15.3324 71.044 15.4035 70.9904C15.5867 70.8476 15.7729 70.7067 15.9619 70.5678C16.0795 70.4818 16.1983 70.3992 16.3185 70.3157C16.4347 70.2346 16.5483 70.1501 16.6665 70.07C16.7196 70.0341 16.7747 70.0012 16.8292 69.9653C16.954 69.8821 17.0813 69.7994 17.211 69.7171C17.4952 69.5344 17.785 69.3564 18.0803 69.1835L18.1281 69.156C18.4446 68.973 18.7656 68.7945 19.091 68.6203C19.2951 68.5129 19.5023 68.4069 19.7126 68.3024C19.8378 68.2398 19.9636 68.1779 20.0897 68.1166C20.3049 68.0138 20.5225 67.913 20.7425 67.8144C20.8707 67.7569 20.9949 67.6999 21.1217 67.6454C21.3515 67.5456 21.5845 67.4513 21.8163 67.3569C21.9405 67.3078 22.0627 67.2562 22.1868 67.2075L22.3263 67.1535L22.3349 67.1348C23.7999 64.1338 25.9939 60.8762 28.8381 57.4821C32.3324 53.3129 36.7969 48.9404 42.0981 44.5855C45.5651 41.7418 49.2181 39.0254 53.0438 36.4458C58.1571 32.9971 63.3687 29.9199 68.5099 27.254C71.8161 25.5346 75.2315 23.9331 78.7444 22.4549C79.0618 22.3222 79.3799 22.1841 79.6953 22.0554C80.5722 21.6967 81.4564 21.348 82.3476 21.0092C84.1889 20.3017 86.0627 19.6413 87.9656 19.0293L87.0684 18.2322L86.9196 18.101L79.4901 11.4891L79.5472 7.46105L79.4775 7.40257L83.9427 6.4173L92.6625 9.71907Z" fill="#3478AD"/>
<path d="M166.013 104.012L166.016 104.011C166.016 104.011 166.17 103.157 165.56 102.393L165.546 102.372C165.512 102.328 165.474 102.285 165.434 102.244L165.394 102.2C165.323 102.131 165.245 102.066 165.163 102.004C165.004 101.881 164.826 101.773 164.631 101.682C164.518 101.628 164.401 101.579 164.28 101.535C163.934 101.413 163.519 101.32 163.026 101.266C162.622 101.227 162.214 101.214 161.806 101.227C161.625 101.231 161.447 101.234 161.251 101.248L161.162 101.252L161.195 101.34L161.282 101.581L161.326 101.714C161.39 101.903 161.467 102.143 161.545 102.414C161.522 102.467 161.495 102.518 161.464 102.569L161.435 102.621C161.21 103.007 160.6 103.899 159.24 105.059C159.009 105.255 158.752 105.462 158.477 105.674C154.686 108.573 146.478 112.702 129.212 115.012C123.353 115.623 117.951 115.657 113.337 115.232C106.515 114.604 101.403 112.991 99.0246 110.822C98.8188 110.636 98.6295 110.444 98.4495 110.251C98.3174 110.109 98.1911 109.964 98.071 109.816L97.9482 109.654C96.9721 108.371 96.4743 106.92 96.5058 105.448C96.539 103.734 97.2609 102.094 98.4841 100.833C99.4762 99.8113 100.795 99.0388 102.338 98.6821C103.119 98.5014 103.938 98.4301 104.753 98.4717C104.925 98.4806 105.152 98.4981 105.435 98.5243C106.002 98.5769 106.794 98.6595 107.766 98.7518L108.09 98.7823C111.33 99.0801 116.49 99.4408 122.73 99.1587C134.082 98.6472 149.025 96.0039 162.593 86.9497L162.63 86.9143V86.8986C162.675 86.1403 162.538 84.7708 161.243 83.7054C161.005 83.5105 160.74 83.3343 160.453 83.1796C160.278 83.0829 160.095 82.9942 159.905 82.9142C159.705 82.8327 159.523 82.7501 159.347 82.6671C159.119 82.5623 158.896 82.4511 158.679 82.3339L158.649 82.3019C158.558 82.1958 158.46 82.0926 158.367 81.9864C154.847 78.0419 149.999 75.7524 148.065 74.7033C147.153 74.207 146.573 73.9809 146.573 73.9809C142.386 72.0939 141.772 71.4678 142.163 66.3424C142.303 64.4967 142.573 62.0706 142.851 58.7821C142.886 58.3714 142.907 57.9601 142.916 57.5487C142.919 57.4537 142.921 57.3595 142.921 57.2661C142.926 56.8993 142.919 56.5324 142.9 56.1659L142.895 56.0641L142.884 55.9555C142.854 55.5692 142.813 55.1833 142.76 54.7983C142.72 54.5246 142.671 54.2518 142.611 53.9801C142.582 53.8454 142.546 53.7157 142.513 53.5845C142.476 53.4397 142.436 53.2954 142.393 53.1516C142.354 53.0133 142.311 52.8755 142.265 52.7383L142.263 52.7373L142.265 52.7358V52.7373C142.209 52.5722 142.144 52.4154 142.082 52.2592C142.059 52.2017 142.041 52.1422 142.016 52.0872C141.993 52.0341 141.968 51.9859 141.945 51.9329L141.921 51.8808L141.85 51.7304L141.848 51.7206C141.789 51.5994 141.729 51.4814 141.669 51.3668L141.651 51.3284L141.59 51.2193L141.517 51.0852L141.501 51.0596V51.0562C141.375 50.839 141.244 50.6282 141.104 50.4306L140.993 50.2847C140.839 50.0971 140.677 49.9133 140.506 49.7338L140.44 49.6601L140.357 49.579C140.237 49.4581 140.117 49.3402 139.998 49.2296L139.834 49.0773C139.678 48.9394 139.517 48.8045 139.352 48.6729V48.6719C139.154 48.5169 138.955 48.3719 138.754 48.237C138.531 48.1341 138.303 48.0389 138.068 47.9515C137.994 47.923 137.919 47.9013 137.843 47.8768C137.695 47.8244 137.544 47.7765 137.391 47.7333C137.303 47.7087 137.217 47.6891 137.13 47.6669C136.995 47.6339 136.859 47.6036 136.721 47.576C136.632 47.5601 136.542 47.5455 136.451 47.5323C136.232 47.497 136.01 47.4721 135.786 47.4576C135.656 47.4478 135.525 47.4438 135.395 47.4399C135.306 47.4376 135.218 47.437 135.132 47.4379C134.998 47.4399 134.865 47.4448 134.731 47.4527C134.649 47.4573 134.567 47.4627 134.486 47.4689L134.306 47.4886C134.225 47.4994 134.143 47.5058 134.059 47.518C133.987 47.5266 133.916 47.5361 133.844 47.5465C133.678 47.5728 133.513 47.6034 133.35 47.6384L133.206 47.666C132.774 47.7613 132.343 47.8837 131.916 48.0271L131.774 48.0773C131.608 48.1336 131.441 48.1932 131.275 48.2561L131.084 48.3323C130.933 48.3906 130.782 48.4512 130.633 48.5141L130.428 48.6026C130.28 48.6661 130.132 48.7317 129.983 48.7991L129.782 48.891C129.627 48.9625 129.473 49.0357 129.317 49.1107L129.146 49.1937C128.971 49.2783 128.796 49.3646 128.62 49.4527L128.515 49.5048C128.318 49.6044 128.119 49.7056 127.917 49.8085L127.911 49.8129L127.88 49.8267H127.882C127.509 50.0164 127.137 50.2105 126.76 50.4041C126.445 50.5667 126.123 50.7294 125.8 50.8911L125.645 50.9702C125.319 51.1314 124.991 51.2903 124.661 51.4469L124.495 51.5235C124.163 51.6759 123.83 51.8248 123.494 51.9658L123.317 52.0385C122.98 52.1785 122.638 52.3113 122.29 52.4366L122.117 52.4965C121.767 52.6194 121.41 52.7348 121.048 52.8356L120.898 52.8778C120.525 52.9807 120.146 53.0704 119.761 53.1466L119.66 53.1638C119.253 53.2415 118.846 53.3034 118.427 53.3457C117.727 53.4113 117.022 53.4431 116.317 53.441C115.158 53.4418 114.001 53.3774 112.856 53.2484C112.467 53.2042 112.079 53.1555 111.692 53.1024C111.554 53.0828 111.417 53.0675 111.281 53.0479C110.271 52.9024 109.255 52.7289 108.233 52.5466C107.803 52.471 107.373 52.3943 106.942 52.3166C106.249 52.1918 105.549 52.0709 104.848 51.953C104.71 51.9289 104.576 51.9034 104.435 51.8808L104.442 51.8803L104.145 51.8341C103.989 51.8092 103.834 51.784 103.68 51.7584L103.235 51.6931L103.157 51.6813L103.105 51.6739L102.696 51.6139C102.378 51.5694 102.059 51.5274 101.739 51.4881C101.644 51.4759 101.548 51.467 101.454 51.4562C101.218 51.4283 100.98 51.4023 100.743 51.3781C100.623 51.3653 100.501 51.3569 100.383 51.3461L100.356 51.3442C100.149 51.3243 99.9416 51.3066 99.7338 51.2911L99.3208 51.2631L99.1329 51.2532C98.9921 51.2454 98.8486 51.2365 98.7059 51.2306C98.3531 51.2127 97.9996 51.2026 97.646 51.2002C97.5809 51.2002 97.5159 51.1995 97.4508 51.1982L97.2688 51.1957C96.9976 51.1962 96.7264 51.2008 96.4554 51.2095C96.385 51.211 96.3106 51.2105 96.2382 51.2144C95.8904 51.2255 95.5432 51.2447 95.197 51.2719C95.1067 51.2788 95.0163 51.2891 94.9247 51.2955C94.6989 51.3152 94.4731 51.3378 94.2474 51.3633L94.1458 51.3741C94.0222 51.3879 93.8967 51.4051 93.7739 51.4213C93.5424 51.4521 93.3108 51.486 93.0793 51.523C92.9451 51.5446 92.8114 51.5676 92.6782 51.5918C92.4489 51.6324 92.2184 51.6772 91.9869 51.726C91.6009 51.804 91.2194 51.8936 90.8434 51.9948C90.7298 52.0243 90.6169 52.0503 90.5034 52.0832C90.1329 52.184 89.767 52.2938 89.4063 52.4125C86.529 53.6385 84.0573 55.3118 82.0924 57.2632C81.4375 57.9136 80.8391 58.5941 80.3007 59.3006C79.7332 60.0476 79.234 60.822 78.8066 61.6185C78.4688 62.2406 78.1753 62.8754 77.9274 63.5203L77.8822 63.651C77.537 64.5827 77.2928 65.5333 77.1517 66.4938C77.1119 66.7587 77.076 67.023 77.0521 67.2884C76.993 68.0023 76.9941 68.7182 77.0554 69.4319C77.0588 69.4963 77.0667 69.5622 77.0727 69.626C77.0893 69.8088 77.0979 69.9897 77.1245 70.173C77.1956 70.6811 77.2932 71.1897 77.4313 71.6939C77.4798 71.8806 77.5482 72.0556 77.6086 72.2354C77.6657 72.4074 77.7169 72.5843 77.7793 72.7519V72.7509C78.24 73.9767 78.911 75.1537 79.7761 76.2532C82.9111 80.2611 88.0656 82.6582 91.8003 83.9442C93.2836 84.4266 94.8005 84.8505 96.3445 85.214C96.3445 85.214 96.2701 85.2484 96.1552 85.3059C95.1989 85.4863 94.2522 85.6933 93.317 85.9266C92.4554 86.1412 91.6038 86.3772 90.7637 86.6342C88.3399 87.3772 85.588 88.4342 83.1502 89.8942C82.8447 90.076 82.545 90.2644 82.2511 90.4593C81.749 90.7951 81.2696 91.149 80.8147 91.5198C80.7622 91.562 80.7065 91.6023 80.6567 91.6451C80.5872 91.7027 80.5185 91.7609 80.4508 91.8195C80.2768 91.9693 80.1064 92.1222 79.9395 92.2785L79.7402 92.4662C79.5211 92.6805 79.3066 92.8977 79.1047 93.1233C78.9055 93.3444 78.7149 93.5729 78.5343 93.8043C77.0893 95.6707 76.2699 97.9056 76.5215 100.571L76.5288 100.543L76.5335 100.523L76.5601 100.424L76.568 100.402C76.5795 100.361 76.5939 100.314 76.6112 100.261L76.6211 100.228C76.6411 100.167 76.6643 100.098 76.6909 100.022L76.7088 99.973L76.8071 99.7096H76.8091C76.8443 99.6162 76.8888 99.5155 76.9333 99.4118L76.9618 99.3484C77.0087 99.2423 77.0605 99.1324 77.1172 99.0187L77.1471 98.9641C77.1998 98.8563 77.2578 98.7456 77.3211 98.6319L77.351 98.5794C77.42 98.4562 77.4942 98.3301 77.5734 98.201L77.6239 98.1204C77.7082 97.9887 77.7939 97.855 77.8895 97.7199L77.9021 97.7037C78.0449 97.5017 78.2056 97.2958 78.3769 97.0884C78.4413 97.0098 78.5031 96.9322 78.5748 96.8535L78.6293 96.7877L78.6306 96.7862C78.9047 96.4816 79.2027 96.1892 79.5231 95.9105C79.57 95.8702 79.6187 95.8298 79.6692 95.7891C79.787 95.6905 79.9096 95.5929 80.0371 95.4963C80.0895 95.4579 80.1407 95.4176 80.1931 95.3798C80.3678 95.2535 80.5464 95.1302 80.7363 95.0107L80.7523 94.9994C80.7523 94.9994 77.4718 100.49 78.8982 104.845L78.8969 104.808V104.781C78.8956 104.757 78.8956 104.729 78.8956 104.692L78.8942 104.668C78.8947 104.625 78.896 104.572 78.8982 104.51L78.8995 104.486C78.8995 104.422 78.9062 104.35 78.9102 104.27L78.9122 104.247C78.9267 104.045 78.948 103.844 78.9759 103.643L78.9799 103.616C78.9945 103.507 79.0158 103.393 79.0377 103.274L79.0443 103.242C79.0687 103.115 79.0974 102.985 79.1306 102.849L79.1386 102.817L79.1559 102.749V102.747C79.1962 102.594 79.2438 102.439 79.2986 102.282L79.3086 102.25C79.364 102.096 79.4248 101.941 79.4912 101.784L79.5536 101.641L79.5988 101.541V101.539C79.6608 101.411 79.7287 101.282 79.8027 101.154L79.814 101.134L79.8146 101.133C79.9472 100.906 80.0989 100.685 80.2688 100.473C80.405 100.303 80.5477 100.136 80.7098 99.9784L80.7164 99.9705C80.7164 99.9705 80.5292 101.323 80.5776 102.932C80.5869 103.185 80.6029 103.445 80.6241 103.707C80.6374 103.882 80.6544 104.057 80.6753 104.232L80.6759 104.234C80.5795 105.379 80.6064 106.528 80.7563 107.669C81.0172 109.648 81.6528 111.741 82.7717 113.944C82.7717 113.944 81.7457 111.411 83.2233 108.876C83.3574 109.107 83.4991 109.339 83.6483 109.573C83.7698 110.325 83.975 111.392 84.2738 112.568C84.5594 114.527 85.8257 120.402 91.2199 124.535C91.2199 124.535 89.1812 122.577 89.498 120.028C89.7105 120.363 89.9217 120.665 90.1222 120.925C91.0452 122.203 92.8807 124.584 94.8815 126.234C94.8815 126.234 93.2579 123.907 93.6364 123.406C93.6364 123.406 98.9297 128.277 100.614 128.752L98.3997 126.035L98.3499 125.956C106.042 130.083 116.595 131.615 129.648 128.925C132.009 128.434 134.329 127.843 136.598 127.154C138.079 126.681 139.531 126.162 140.952 125.598L141.16 125.512C142.175 125.099 143.173 124.665 144.152 124.208L144.174 124.198C146.201 123.253 148.143 122.211 149.987 121.079L149.99 121.078L149.995 121.075C150.062 121.031 150.132 120.987 150.203 120.943C151.342 120.208 152.435 119.433 153.477 118.623C154.769 117.616 155.983 116.554 157.111 115.444L157.191 115.367C157.457 115.104 157.718 114.842 157.971 114.581L158.043 114.505C158.125 114.416 158.198 114.331 158.28 114.243C158.63 113.873 158.972 113.499 159.306 113.121L159.542 112.85C159.711 112.653 159.874 112.456 160.037 112.261C160.16 112.108 160.286 111.955 160.405 111.804C160.538 111.638 160.67 111.473 160.8 111.309C161.026 111.015 161.247 110.719 161.464 110.422C161.549 110.305 161.628 110.192 161.71 110.077C161.874 109.848 162.032 109.622 162.184 109.398L162.394 109.086L162.456 108.987C162.645 108.705 162.827 108.425 163.001 108.149L163.034 108.09C163.614 107.695 164.142 107.26 164.612 106.792C164.672 106.733 164.734 106.674 164.788 106.616C165.698 105.644 165.997 104.784 166.013 104.012ZM43.3855 89.6682C43.1584 89.7207 42.902 89.9433 42.6444 90.2475C42.5437 90.3683 42.4485 90.4916 42.3588 90.6171C41.6682 91.5768 41.0467 92.907 41.0467 92.907C41.0985 92.4501 41.1612 91.9938 41.2346 91.5385C41.2434 91.4851 41.253 91.4313 41.2631 91.3773C41.3395 90.9055 41.4285 90.4298 41.5228 89.9571C41.5339 89.8998 41.5454 89.8431 41.5573 89.7871C41.6676 89.2539 41.7844 88.7242 41.906 88.2131L41.9524 88.0165L41.9617 87.9826L42.0042 87.8047C42.025 87.7163 42.0463 87.6286 42.068 87.5418C42.1676 87.1364 42.2699 86.7453 42.3688 86.3737C42.4596 86.038 42.5468 85.7205 42.6304 85.4214L42.657 85.3251C42.6696 85.2779 42.6836 85.2352 42.6955 85.1904C42.7088 85.1465 42.7212 85.1017 42.7327 85.0558L42.7374 85.0401C42.7593 84.9654 42.7825 84.8887 42.8024 84.8179L42.8091 84.7983C42.8277 84.728 42.8463 84.6686 42.8649 84.6032C42.8961 84.5 42.9253 84.3948 42.9545 84.2985L42.9625 84.272C42.9864 84.1939 43.0083 84.1147 43.0302 84.0435C43.0625 83.9419 43.0913 83.8466 43.1165 83.7575L43.1179 83.755L43.1199 83.7526C43.1345 83.7015 43.1491 83.6572 43.1637 83.6101L43.1663 83.6017C43.1803 83.559 43.1929 83.5142 43.2055 83.4764L43.2826 83.2312L43.3018 83.1732L43.3091 83.1516L43.331 83.0828L43.3463 83.0351L43.3496 83.0282L43.339 83.0346L43.1995 83.128C43.0767 83.2091 42.9505 83.2882 42.8356 83.3776L42.7088 83.4808C42.5704 83.5942 42.4401 83.7128 42.3183 83.8361L42.2533 83.8966C42.1005 84.0538 41.9591 84.2189 41.8243 84.3865V84.387L41.8063 84.4091V84.4101L41.7512 84.4848C41.7202 84.526 41.6901 84.5675 41.6609 84.6091C41.5832 84.7143 41.5022 84.8165 41.4325 84.9221L41.4292 84.9261L41.4265 84.9295L41.4232 84.9383L41.396 84.9781L41.3707 85.0184C41.2643 85.1826 41.1636 85.3488 41.0686 85.5167C40.7662 86.0488 40.5111 86.595 40.3049 87.1516C40.2159 87.389 40.1535 87.5748 40.1256 87.6657L40.1243 87.6735L40.1044 87.7345L40.1123 87.6632C40.1229 87.5222 40.1449 87.3816 40.1601 87.2416C40.1894 86.9467 40.2146 86.6504 40.2584 86.357C40.2936 86.1103 40.3447 85.8691 40.3919 85.6243L40.4384 85.3953C40.4579 85.282 40.48 85.1693 40.5048 85.0573C40.5267 84.9526 40.5579 84.8494 40.5845 84.7467L40.5858 84.7388L40.6157 84.6233L40.6243 84.5919C40.6674 84.4164 40.7119 84.2412 40.7578 84.0661L40.7817 83.9791L40.7863 83.9629L40.8215 83.8395C40.8348 83.7879 40.8547 83.7378 40.8687 83.6892C40.9251 83.5044 40.9856 83.3236 41.044 83.1413L41.054 83.1108C41.0971 82.9752 41.137 82.8386 41.1841 82.7049L41.1854 82.699L41.1901 82.6901L41.2047 82.6508C41.301 82.3756 41.4079 82.1068 41.5148 81.8361L41.5706 81.6867C41.5912 81.6371 41.6085 81.584 41.6304 81.5339C41.8063 81.0945 41.9956 80.6606 42.1961 80.2365L42.222 80.1835C42.3947 79.8233 42.5687 79.4685 42.7513 79.1191L42.7712 79.0793C42.8542 78.9255 42.9392 78.778 43.0203 78.6257L43.0335 78.6036C43.1584 78.377 43.2812 78.149 43.4087 77.9299V77.9264L43.4114 77.9235L43.426 77.896C43.4599 77.8409 43.5389 77.7078 43.6617 77.5112L43.6637 77.5077L43.6803 77.4812C43.7281 77.4036 43.7733 77.3284 43.8198 77.2498L44.0456 76.8782L44.1126 76.7706C44.0064 76.7279 43.8955 76.69 43.7859 76.6493L43.7242 76.6266L43.6079 76.5834C42.8932 76.3304 42.1471 76.1291 41.38 75.9824L41.2572 75.9598C40.463 75.8135 39.651 75.7262 38.8333 75.6994C38.5792 75.6912 38.3247 75.6891 38.0703 75.693C37.6852 75.6989 37.3067 75.723 36.9335 75.7534C36.8139 75.7647 36.699 75.78 36.5835 75.7913C36.3989 75.8119 36.2163 75.8384 36.0323 75.863C35.9613 75.8743 35.8862 75.8807 35.8152 75.8925C35.4372 75.9516 35.0633 76.0243 34.6949 76.1102C34.582 76.1367 34.4691 76.1578 34.3595 76.1863C34.0311 76.2715 33.7088 76.3657 33.3927 76.4689C33.2665 76.5102 33.1503 76.5579 33.0274 76.6006C32.8833 76.6532 32.7406 76.7097 32.5991 76.7633L32.453 76.8188C32.1537 76.9437 31.8611 77.0771 31.5758 77.2188C31.4085 77.3 31.2455 77.3836 31.087 77.4694C30.9894 77.5245 30.8965 77.5815 30.7982 77.6375C30.41 77.868 30.0406 78.1152 29.6919 78.378C29.4807 78.5328 29.2748 78.6906 29.0822 78.8562L28.984 78.9387C28.8824 79.0287 28.7881 79.1235 28.6931 79.2174L28.6778 79.2306L28.6659 79.2429C28.6015 79.3058 28.5317 79.3663 28.4686 79.4306L28.4434 79.4557L28.4188 79.4808L28.4169 79.4832L28.4155 79.4847C28.0267 79.889 27.6836 80.3163 27.3895 80.7623C27.3464 80.8262 27.3079 80.8921 27.2667 80.9569C27.1299 81.1755 27.0046 81.3986 26.8908 81.6262C26.8463 81.7167 26.7965 81.8041 26.7547 81.8955L26.7527 81.8965V81.897L26.7514 81.899C26.6473 82.1296 26.5561 82.3658 26.4778 82.6076L26.4479 82.697L26.4194 82.811L26.4154 82.8209C26.3622 82.9963 26.3104 83.1712 26.2733 83.3491C26.254 83.4366 26.242 83.526 26.2268 83.6145L26.2215 83.6395C26.2069 83.7339 26.1931 83.8289 26.1803 83.9246C26.169 83.9958 26.1551 84.0686 26.1471 84.1413C26.1183 84.4214 26.1079 84.7048 26.1159 84.9914C26.1238 85.2125 26.1504 85.4307 26.1783 85.6489L26.1803 85.6612L26.1902 85.7629C26.2062 85.8833 26.2347 86.0022 26.2586 86.1217C26.5161 87.4623 27.1883 88.7409 28.2229 89.8578C29.1545 90.8813 30.3565 91.7545 31.7564 92.425C32.5582 92.8056 33.4176 93.1152 34.317 93.3473C35.187 93.5749 36.0954 93.7405 37.0424 93.8171C37.2553 93.8328 37.47 93.8459 37.6865 93.8564C38.0099 93.8722 38.332 93.8825 38.6613 93.8776C38.9642 93.8726 39.259 93.8446 39.5572 93.8235C39.7272 93.8117 39.9025 93.8107 40.0705 93.793C40.4988 93.7488 40.9185 93.6844 41.3322 93.6083L41.4252 93.593C41.5978 93.5596 41.7572 93.5134 41.9239 93.4751C42.4405 93.3589 42.9459 93.2168 43.4366 93.05L43.5429 93.0151C43.679 92.9719 43.8204 92.9301 43.9519 92.8805L43.9679 92.8756C43.7271 91.8844 43.5437 90.8861 43.418 89.8834C43.4101 89.8107 43.3961 89.7404 43.3855 89.6682Z" fill="#FCE9C9"/>
<path d="M94.5664 10.4395L94.7929 10.525L94.7889 10.5024L94.5664 10.4395Z" fill="#4D94C3"/>
<path d="M161.327 101.713L161.283 101.581L161.196 101.339C160.824 100.446 160.353 99.7491 159.934 99.2523C159.398 98.6105 158.954 98.2935 158.954 98.2935C159.145 97.8037 159.282 97.3033 159.365 96.7972C159.688 94.7628 158.952 93.179 158.363 92.2856C158.28 92.1593 158.192 92.0347 158.099 91.9121C157.674 92.1362 157.246 92.3557 156.815 92.5706C148.664 96.6552 139.489 99.2759 129.556 100.402C122.709 101.179 115.507 101.251 108.019 100.577L108.15 100.605C108.15 100.605 103.636 101.062 102.412 104.266L102.488 104.299L102.115 106.447C102.247 109.357 104.045 111.178 106.091 112.137C108.218 112.737 110.786 113.195 113.637 113.457C118.601 113.913 124.297 113.793 130.112 113.11L130.141 113.106L130.171 113.103C137.905 112.336 148.821 109.28 156.625 105.335C158.403 104.436 160.019 103.494 161.4 102.519L161.452 102.481L161.546 102.414C161.478 102.18 161.405 101.946 161.327 101.713Z" fill="white"/>
<path d="M146.573 73.9815C142.386 72.0945 141.772 71.468 142.164 66.3426C142.303 64.4969 142.573 62.0708 142.852 58.7823C142.886 58.3715 142.907 57.9603 142.916 57.5488C142.919 57.4538 142.921 57.3596 142.921 57.2663C142.926 56.8994 142.919 56.5326 142.9 56.166L142.895 56.0643L142.884 55.9557C142.854 55.5693 142.813 55.1834 142.76 54.7984C142.72 54.5247 142.671 54.2519 142.611 53.9802C142.582 53.8456 142.546 53.7158 142.513 53.5846C142.476 53.4399 142.436 53.2955 142.393 53.1517C142.354 53.0134 142.311 52.8756 142.265 52.7384L142.263 52.7374L142.265 52.736C141.674 52.0797 140.954 51.4925 140.128 50.9939L139.966 50.904L139.932 50.8858L139.81 50.818L139.768 50.7949C139.649 50.7261 139.523 50.6598 139.398 50.5983C139.265 50.5327 139.131 50.4691 138.994 50.4077C137.756 49.8504 136.376 49.5005 134.899 49.3384C134.063 49.2491 133.217 49.2172 132.372 49.243C131.97 49.2538 131.562 49.2799 131.152 49.3158C130.044 49.4131 128.949 49.5842 127.882 49.8268C127.509 50.0165 127.137 50.2106 126.76 50.4042C126.445 50.5669 126.123 50.7295 125.8 50.8912L125.645 50.9703C125.319 51.1315 124.991 51.2904 124.661 51.447L124.495 51.5237C124.163 51.676 123.83 51.8249 123.494 51.9659L123.317 52.0387C122.98 52.1787 122.638 52.3114 122.29 52.4367L122.118 52.4966C121.767 52.6195 121.41 52.735 121.048 52.8357L120.898 52.878C120.525 52.9808 120.146 53.0705 119.761 53.1468L119.66 53.164C119.253 53.2416 118.846 53.3035 118.427 53.3458C117.727 53.4114 117.022 53.4433 116.317 53.4411C115.158 53.442 114.001 53.3776 112.856 53.2485C112.467 53.2043 112.079 53.1557 111.692 53.1026C111.554 53.0829 111.417 53.0677 111.281 53.048C110.271 52.9026 109.255 52.7291 108.233 52.5468C107.803 52.4711 107.373 52.3944 106.942 52.3168C106.249 52.192 105.549 52.0711 104.849 51.9531C104.71 51.9291 104.576 51.9035 104.436 51.8809C103.848 51.9045 103.258 51.9473 102.666 52.0023L102.537 52.0141C100.782 52.1865 99.0557 52.4903 97.3839 52.9207C97.2896 52.9448 97.1946 52.965 97.101 52.9905C96.8347 53.0608 96.5697 53.1379 96.3041 53.2151C95.9481 53.3189 95.594 53.4284 95.2416 53.5433C92.7686 54.3512 90.3674 55.45 88.1341 56.8471C87.2417 57.4074 86.3926 58.0044 85.5908 58.6353C84.3976 59.5761 83.3165 60.5913 82.3594 61.6698C82.3068 61.7287 82.2554 61.788 82.2054 61.8477C81.7077 62.4178 81.2474 63.0054 80.8261 63.6084C80.676 63.8217 80.5246 64.0359 80.3865 64.2511L80.3586 64.2929C79.9153 64.9899 79.5238 65.7044 79.1859 66.433C79.1668 66.4759 79.1494 66.5188 79.1334 66.5618C79.0856 66.6669 79.0491 66.7721 79.0046 66.8763C78.7136 67.5528 78.4711 68.2403 78.2781 68.9358C78.2595 69.0114 78.2363 69.0871 78.219 69.1628C78.1641 69.377 78.1132 69.5913 78.0663 69.8055C77.9065 70.5858 77.8156 71.3729 77.794 72.1619C77.786 72.3584 77.7761 72.5565 77.7794 72.7511C78.2401 73.9768 78.9112 75.1538 79.7762 76.2533C82.9113 80.2613 88.0657 82.6583 91.8004 83.9444C93.2837 84.4268 94.8006 84.8507 96.3446 85.2142L96.3844 85.2648H96.3864L96.3931 85.2628L96.4947 85.2053C96.6959 85.0923 96.8964 84.9783 97.1043 84.8662C97.1778 84.8253 97.2519 84.7847 97.3267 84.7444C97.6161 84.5874 97.9088 84.4337 98.2046 84.2834C98.4271 84.1684 98.6562 84.0515 98.8899 83.938C98.967 83.8987 99.0453 83.8623 99.1237 83.824C99.3592 83.7083 99.5996 83.5933 99.8449 83.479L100.087 83.3665L100.84 83.0264C100.928 82.9881 101.016 82.9493 101.103 82.9099C101.358 82.8002 101.617 82.6895 101.88 82.5778C101.976 82.5397 102.071 82.5004 102.166 82.4598C102.425 82.3517 102.69 82.2444 102.961 82.1379L103.283 82.0117C103.549 81.9075 103.818 81.8043 104.09 81.7021L104.442 81.5713C104.714 81.4711 104.988 81.3717 105.265 81.2731L105.661 81.1345C105.933 81.0395 106.208 80.9451 106.487 80.8514C106.632 80.8018 106.784 80.7541 106.934 80.7045C107.208 80.614 107.483 80.5256 107.76 80.4391C107.924 80.3851 108.093 80.334 108.259 80.2829C108.529 80.1993 108.804 80.1158 109.082 80.0323C109.268 79.9785 109.455 79.924 109.643 79.8686C109.911 79.791 110.183 79.7137 110.457 79.6367C110.663 79.5777 110.874 79.5202 111.081 79.4647C111.347 79.3924 111.611 79.3202 111.884 79.2485L112.58 79.0706C112.84 79.0037 113.102 78.9359 113.367 78.8725C113.622 78.8093 113.879 78.7475 114.137 78.6873C114.392 78.6258 114.645 78.5654 114.904 78.5059C115.187 78.4411 115.474 78.3765 115.764 78.3123C116.006 78.2602 116.249 78.2047 116.496 78.1526C116.808 78.0848 117.128 78.0199 117.445 77.9541C117.605 77.9221 117.759 77.8863 117.919 77.8558C119.158 75.5462 122.837 69.8203 129.14 69.1937C129.759 69.1284 130.383 69.0939 131.009 69.0905C131.153 69.0891 131.309 69.0812 131.447 69.0837C131.374 68.7515 131.317 68.4055 131.288 68.0458C131.09 65.5784 132.115 63.5273 133.576 63.462C134.707 63.3941 135.608 64.6173 135.761 65.0453C136.192 65.7957 136.493 66.7539 136.58 67.8168C136.658 68.7878 136.536 69.6842 136.286 70.4316C136.413 70.5289 136.518 70.6365 136.633 70.7397C138.076 72.0655 138.321 73.9044 138.261 75.2071C138.822 75.1653 139.398 75.1285 139.974 75.0921L140.414 75.0617L140.505 75.0558C140.588 75.0494 140.671 75.0459 140.754 75.041C141.467 74.9974 142.189 74.9565 142.92 74.9182L142.953 74.9167C144.609 74.8312 146.31 74.7589 148.065 74.7034C147.153 74.2071 146.573 73.981 146.573 73.981M162.431 108.523C159.828 110.235 156.974 111.727 153.923 112.969C152.539 113.531 151.121 114.045 149.673 114.509C146.855 115.416 143.937 116.143 140.952 116.682C135.151 117.728 131.06 117.73 131.06 117.73C134.233 119.028 138.248 119.04 141.001 118.834C142.897 118.695 144.2 118.454 144.2 118.454C144.146 119.258 144.008 120.059 143.789 120.848C143.574 121.615 143.265 122.366 142.865 123.091L142.835 123.15L142.832 123.154C142.392 123.943 141.83 124.692 141.158 125.385C141.088 125.455 141.021 125.53 140.952 125.598L141.16 125.512C142.175 125.1 143.173 124.665 144.152 124.208L144.174 124.198C146.201 123.253 148.143 122.211 149.987 121.079L149.99 121.078L149.995 121.075C150.063 121.031 150.132 120.987 150.203 120.944C151.342 120.208 152.435 119.433 153.477 118.623C154.77 117.616 155.983 116.554 157.111 115.444L157.191 115.368C157.458 115.104 157.718 114.842 157.971 114.581L158.043 114.505C158.125 114.416 158.198 114.331 158.28 114.243C158.63 113.873 158.972 113.499 159.306 113.121L159.542 112.851C159.711 112.653 159.874 112.456 160.037 112.261C160.16 112.108 160.286 111.955 160.405 111.804C160.538 111.638 160.67 111.474 160.8 111.309C161.026 111.015 161.247 110.72 161.465 110.422C161.549 110.306 161.629 110.192 161.71 110.077C161.874 109.848 162.032 109.622 162.184 109.398L162.394 109.086L162.456 108.988C162.645 108.705 162.827 108.425 163.001 108.149C162.811 108.278 162.621 108.4 162.431 108.523M93.3165 85.9267C92.4551 86.1413 91.6037 86.3773 90.7638 86.6343C88.34 87.3773 85.5881 88.4344 83.1503 89.8943C82.8449 90.0762 82.5452 90.2645 82.2512 90.4595C81.7491 90.7953 81.2698 91.1492 80.8148 91.5199C80.7624 91.5622 80.7066 91.6025 80.6568 91.6452C80.5873 91.7029 80.5187 91.761 80.4509 91.8197C80.2769 91.9694 80.1065 92.1224 79.9396 92.2787L79.7404 92.4664C79.5212 92.6806 79.3067 92.8978 79.1049 93.1234C78.9056 93.3445 78.7151 93.573 78.5344 93.8045C77.0894 95.6708 76.27 97.9058 76.5217 100.571L76.529 100.543L76.5336 100.524L76.5602 100.424L76.5681 100.402C76.5797 100.361 76.594 100.314 76.6113 100.262L76.6213 100.228C76.6412 100.167 76.6644 100.099 76.691 100.022L76.7089 99.9731L76.8072 99.7097H76.8092C76.8444 99.6164 76.8889 99.5156 76.9334 99.412L76.9619 99.3486C77.0089 99.2424 77.0607 99.1325 77.1173 99.0188L77.1472 98.9643C77.1999 98.8565 77.2579 98.7458 77.3212 98.6321L77.3511 98.5795C77.4201 98.4563 77.4943 98.3302 77.5735 98.2011L77.624 98.1205C77.7083 97.9888 77.794 97.8552 77.8896 97.72L77.9023 97.7038C78.045 97.5018 78.2057 97.2959 78.3771 97.0886C78.4415 97.0099 78.5032 96.9323 78.5749 96.8537L78.6294 96.7878L78.6307 96.7864C78.9048 96.4818 79.2028 96.1894 79.5232 95.9107C79.5702 95.8704 79.6189 95.8299 79.6693 95.7893C79.7871 95.6907 79.9097 95.593 80.0372 95.4964C80.0897 95.4581 80.1408 95.4178 80.1933 95.3799C80.3679 95.2536 80.5465 95.1303 80.7365 95.0109L80.7524 94.9996C80.7524 94.9996 77.4719 100.491 78.8983 104.845L78.897 104.809V104.782C78.8957 104.757 78.8957 104.729 78.8957 104.692L78.8944 104.669C78.8948 104.625 78.8961 104.572 78.8983 104.51L78.8997 104.486C78.8997 104.422 78.9063 104.35 78.9103 104.27L78.9123 104.247C78.9268 104.045 78.9481 103.844 78.976 103.643L78.98 103.616C78.9946 103.507 79.0159 103.393 79.0378 103.274L79.0444 103.242C79.0688 103.116 79.0976 102.985 79.1308 102.849L79.1387 102.817L79.156 102.75V102.747C79.1963 102.594 79.2439 102.439 79.2988 102.282L79.3087 102.25C79.3641 102.096 79.4249 101.941 79.4914 101.784L79.5538 101.641L79.5989 101.541V101.539C79.6609 101.411 79.7289 101.283 79.8028 101.154L79.8141 101.134L79.8148 101.133C79.9473 100.906 80.099 100.686 80.269 100.473C80.4051 100.303 80.5479 100.136 80.7099 99.9785L80.7165 99.9707C80.7165 99.9707 80.5293 101.323 80.5778 102.932C80.5871 103.185 80.603 103.445 80.6242 103.707C80.6375 103.882 80.6546 104.057 80.6754 104.232C80.8154 102.581 81.2159 100.947 81.8687 99.3643C82.0427 98.9466 82.2319 98.5402 82.4331 98.1392C82.4606 98.0812 82.4887 98.0234 82.5175 97.9657C82.9331 97.1571 83.4072 96.3656 83.9379 95.5947C83.976 95.5419 84.0134 95.4892 84.0501 95.4364C84.5422 94.7366 85.0778 94.0539 85.6552 93.3907L85.778 93.2482C85.9919 93.0069 86.2103 92.774 86.4295 92.543C86.4866 92.4816 86.5424 92.4167 86.5995 92.3563C86.6526 92.3022 86.7048 92.2482 86.7562 92.1941C87.0351 91.9088 87.3158 91.6318 87.5982 91.3632L87.733 91.2369C88.0272 90.9607 88.3207 90.6914 88.6156 90.4344L88.6315 90.4206C88.9926 90.1049 89.3623 89.7945 89.7405 89.4899C90.0101 89.2734 90.2773 89.0648 90.542 88.8643C90.6421 88.7897 90.7437 88.7143 90.8468 88.6383C91.4329 88.2006 92.0368 87.7761 92.6577 87.3655C94.3637 86.2358 95.6925 85.5375 96.1553 85.3065C95.199 85.4869 94.2523 85.6939 93.3171 85.9272" fill="#EFCFA5"/>
<path d="M136.942 73.7667C136.942 73.7667 136.923 73.6262 136.855 73.4149C136.589 72.6119 135.517 70.718 131.295 71.0183C126.881 71.3328 125.398 73.9687 125.019 74.8665C124.94 75.0532 124.906 75.1702 124.906 75.1702L125.026 75.2459C125.586 74.894 126.653 74.9358 127.622 75.3908C128.036 75.5817 128.39 75.8365 128.658 76.1378V76.1393C129.031 76.5643 129.135 77.0228 128.871 77.3629C128.815 77.4366 128.745 77.498 128.664 77.5521C128.664 77.5521 128.834 77.6007 129.12 77.6621C130.346 77.93 133.748 78.4582 135.588 76.699C135.677 76.6144 135.767 76.5358 135.848 76.4415C135.486 76.3044 135.284 75.9112 135.283 75.4449C135.28 75.2066 135.326 74.9693 135.419 74.7412C135.721 74.0021 136.404 73.5658 136.942 73.7667ZM115.06 97.7598C112.639 98.1292 110.207 98.4599 107.767 98.7514L108.091 98.7819C111.332 99.0797 116.491 99.4404 122.731 99.1583C134.084 98.6468 149.026 96.0035 162.594 86.9493L162.631 86.9139V86.8982C162.676 86.1399 162.539 84.7704 161.244 83.705C161.006 83.5101 160.741 83.3339 160.454 83.1792C160.404 83.1576 160.357 83.133 160.304 83.1109C159.948 82.9635 159.637 82.8141 159.348 82.6666C159.12 82.5619 158.897 82.4507 158.681 82.3335L158.651 82.3015C157.792 83.2077 156.827 84.0562 155.767 84.8372C155.377 85.1219 154.976 85.3992 154.567 85.6687C150.823 88.164 145.986 90.2422 140.765 91.9538C132.088 94.7976 122.39 96.6428 115.059 97.7598M43.2007 83.1276C43.0779 83.2087 42.9517 83.2878 42.8368 83.3772L42.71 83.4804C42.5716 83.5938 42.4413 83.7124 42.3195 83.8357L42.2545 83.8962C42.1017 84.0534 41.9603 84.2185 41.8255 84.3861V84.3866L41.8075 84.4087V84.4097L41.7524 84.4844C41.7214 84.5256 41.6913 84.5671 41.6621 84.6087C41.5844 84.7139 41.5034 84.8161 41.4337 84.9217L41.4304 84.9257L41.4277 84.9291L41.4244 84.9379L41.3972 84.9777L41.3719 85.018C41.2655 85.1822 41.1648 85.3484 41.0698 85.5163C40.7674 86.0484 40.5123 86.5946 40.3061 87.1512C40.2171 87.3886 40.1547 87.5743 40.1268 87.6653L40.1255 87.6731L40.1055 87.7341L40.1135 87.6628C40.1241 87.5218 40.1461 87.3812 40.1613 87.2412C40.1905 86.9463 40.2158 86.65 40.2596 86.3566C40.2948 86.1099 40.3459 85.8687 40.3931 85.6239L40.4396 85.3949C40.4591 85.2816 40.4812 85.1689 40.506 85.0569C40.5279 84.9522 40.5591 84.849 40.5857 84.7463L40.587 84.7384L40.6169 84.6229L40.6255 84.5915C40.6686 84.416 40.7131 84.2408 40.759 84.0657L40.7829 83.9787L40.7875 83.9625L40.8227 83.8391C40.836 83.7875 40.8559 83.7374 40.8699 83.6888C40.9263 83.504 40.9868 83.3232 41.0452 83.1409L41.0552 83.1104C41.0983 82.9748 41.1382 82.8381 41.1853 82.7045L41.1866 82.6986L41.1913 82.6897L41.2059 82.6504C41.3022 82.3752 41.4091 82.1064 41.516 81.8357L41.5718 81.6863C41.5924 81.6367 41.6097 81.5836 41.6316 81.5335C41.8075 81.0941 41.9968 80.6602 42.1973 80.2361L42.2232 80.1831C42.3959 79.8229 42.5699 79.4681 42.7525 79.1187L42.7724 79.0789C42.8554 78.9251 42.9404 78.7776 43.0214 78.6253L43.0347 78.6032C43.1596 78.3766 43.2824 78.1486 43.4099 77.9295V77.926L43.4126 77.9231L43.4272 77.8956C43.4611 77.8405 43.5401 77.7073 43.6629 77.5108L43.6649 77.5073L43.6815 77.4808C43.7293 77.4032 43.7745 77.328 43.821 77.2494L44.0468 76.8778L44.1138 76.7702C44.0076 76.7275 43.8967 76.6896 43.7871 76.6489L43.7254 76.6262L43.6091 76.583C42.8944 76.33 42.1483 76.1287 41.3812 75.982L41.2584 75.9594C40.4642 75.8131 39.6522 75.7258 38.8345 75.699C38.5804 75.6908 38.3259 75.6887 38.0715 75.6926C37.6864 75.6985 37.3079 75.7225 36.9346 75.753C36.8151 75.7638 36.7002 75.7796 36.5847 75.7909C36.4001 75.8115 36.2175 75.838 36.0335 75.8626C35.9625 75.8739 35.8874 75.8803 35.8164 75.8921C35.4384 75.9512 35.0645 76.0239 34.6961 76.1098C34.5832 76.1363 34.4703 76.1574 34.3607 76.1859C34.0323 76.2711 33.71 76.3653 33.3939 76.4685C33.2677 76.5098 33.1515 76.5575 33.0286 76.6012C32.8845 76.6528 32.7418 76.7093 32.6003 76.7634L32.4542 76.8184C32.1549 76.9433 31.8623 77.0767 31.577 77.2184C31.4096 77.2996 31.2467 77.3832 31.0882 77.469C30.9906 77.524 30.8977 77.5811 30.7994 77.6371C30.4112 77.8676 30.0418 78.1148 29.693 78.3776C29.4819 78.5314 29.2786 78.6909 29.0834 78.8558L28.9852 78.9383C28.8836 79.0283 28.7893 79.1231 28.6943 79.217L28.679 79.2302L28.6671 79.2425C28.6027 79.3054 28.5329 79.3659 28.4698 79.4307L28.4446 79.4553L28.42 79.4803L28.418 79.4828L28.4167 79.4843C28.0276 79.8887 27.6863 80.3172 27.3907 80.7639C27.3476 80.8278 27.3091 80.8917 27.2699 80.9565C27.1326 81.1751 27.0067 81.3982 26.892 81.6258C26.8475 81.7163 26.7977 81.8037 26.7559 81.8951L26.7539 81.8961V81.8966C26.7778 81.9556 26.8044 82.0111 26.8283 82.0691C26.9124 82.2716 26.9992 82.4681 27.0886 82.6588L27.1198 82.7241L27.1537 82.7905C27.4997 83.5035 27.915 84.197 28.3961 84.8657C28.4446 84.9311 28.4924 84.9994 28.5396 85.0618L28.5734 85.108L28.6186 85.1635C28.8369 85.4503 29.069 85.7313 29.3145 86.0058C29.5865 86.3108 29.8774 86.6063 30.1864 86.8913L30.3126 87.0043C30.3445 87.0328 30.3744 87.0585 30.4023 87.0815C30.4853 87.1517 30.5364 87.1925 30.5364 87.193C30.5045 87.0933 30.4886 86.995 30.4607 86.8937C30.2699 86.1965 30.1612 85.4884 30.136 84.7772V84.736L30.1333 84.6559C30.1196 84.2185 30.1351 83.781 30.1798 83.3448C30.3309 83.7387 30.4998 84.1288 30.6865 84.5143L30.7237 84.5935L30.7389 84.6225C31.1498 85.4466 31.6561 86.2428 32.2523 87.0023C32.854 87.7689 33.4052 88.312 33.7345 88.6107C33.8009 88.671 33.8578 88.7211 33.9052 88.7611C33.9982 88.8412 34.05 88.882 34.05 88.882C33.8215 88.1428 33.6888 87.3892 33.6535 86.6313C33.6372 86.3848 33.6306 86.1381 33.6336 85.8913C33.6402 85.58 33.661 85.2732 33.696 84.9709C33.8793 85.4878 34.0898 85.9665 34.3149 86.4176L34.3309 86.452C35.1397 88.0741 36.1384 89.2673 36.8277 89.9739L36.9061 90.052C37.0276 90.1719 37.1319 90.2732 37.2268 90.3636C37.2926 90.4245 37.3543 90.4835 37.4061 90.5272C37.4837 90.5978 37.5638 90.6668 37.6465 90.7341L37.618 90.628C37.5872 90.5223 37.5578 90.4165 37.5296 90.3105C37.4341 89.9359 37.3632 89.558 37.3171 89.1783C37.2819 88.9306 37.2564 88.6821 37.2408 88.4333C37.2303 88.2013 37.2281 87.9691 37.2341 87.737L37.2395 87.6127C37.2448 87.4933 37.2481 87.3734 37.2567 87.2554L37.2627 87.1822L37.2693 87.1296C37.2928 86.8253 37.3298 86.5255 37.3802 86.2303C37.459 86.4263 37.5409 86.6168 37.6259 86.8009C37.6897 86.9409 37.7561 87.0741 37.8232 87.2082L37.8371 87.2358L37.8597 87.282L37.8995 87.364C38.1217 87.7961 38.3703 88.2204 38.6446 88.6358C38.8471 88.9459 39.0537 89.2324 39.2529 89.4943C39.3691 89.6417 39.4793 89.7808 39.5896 89.9139C39.8209 90.1928 40.0661 90.4652 40.3247 90.7307L40.4037 90.8103C40.5474 90.9553 40.696 91.0977 40.8493 91.2373C40.9854 91.3597 41.0817 91.4398 41.1249 91.4747L41.1495 91.4943L41.2358 91.5381C41.2446 91.4847 41.2542 91.4309 41.2643 91.3769C41.3407 90.9051 41.4297 90.4294 41.524 89.9567C41.5351 89.8994 41.5466 89.8427 41.5585 89.7867C41.6688 89.2535 41.7856 88.7238 41.9071 88.2127L41.9536 88.0161L41.9629 87.9822L42.0054 87.8043C42.0262 87.7159 42.0475 87.6282 42.0692 87.5414C42.1688 87.136 42.2711 86.7449 42.37 86.3733C42.4608 86.0375 42.548 85.7201 42.6316 85.421L42.6582 85.3247C42.6708 85.2775 42.6848 85.2347 42.6967 85.19C42.71 85.1461 42.7224 85.1012 42.7339 85.0554L42.7386 85.0397C42.7605 84.965 42.7837 84.8883 42.8036 84.8175L42.8103 84.7979C42.8289 84.7276 42.8475 84.6682 42.8661 84.6028C42.8973 84.4996 42.9265 84.3944 42.9557 84.2981L42.9637 84.2716C42.9876 84.1935 43.0095 84.1143 43.0314 84.0431C43.0637 83.9415 43.0925 83.8462 43.1177 83.7571L43.1191 83.7546L43.1211 83.7522C43.1357 83.7011 43.1503 83.6568 43.1649 83.6097L43.1675 83.6013C43.1815 83.5586 43.1941 83.5138 43.2067 83.476L43.2837 83.2308L43.303 83.1728L43.3103 83.1512L43.3322 83.0824L43.3475 83.0347L43.3508 83.0278L43.3402 83.0342L43.2007 83.1276ZM135.079 106.598C136.15 106.324 137.082 106.102 137.805 105.869C139.255 105.412 140.033 105.104 139.985 104.99C139.935 104.874 139.061 104.962 137.521 105.219C136.75 105.353 135.816 105.469 134.742 105.647C134.208 105.742 133.618 105.796 133.007 105.884C132.391 105.963 131.744 106.063 131.06 106.117C129.711 106.259 128.168 106.387 126.53 106.528L124.033 106.679C123.168 106.711 122.28 106.744 121.368 106.777C117.723 106.856 113.7 106.734 109.607 106.177C107.449 105.896 104.564 105.17 102.489 104.298L102.413 104.266C103.636 101.062 108.15 100.605 108.15 100.605L108.019 100.577L107.792 100.557C107.135 100.497 106.558 100.439 106.064 100.39C105.709 100.354 105.401 100.324 105.139 100.299C104.886 100.276 104.708 100.263 104.603 100.258C101.884 100.12 100.394 101.823 99.8791 102.561C99.8061 102.668 99.7384 102.778 99.67 102.889C99.2554 103.597 99.0107 104.352 98.9468 105.122C98.8127 106.627 99.3366 108.281 100.896 109.688C101.936 110.638 103.745 111.475 106.091 112.136C104.045 111.178 102.248 109.357 102.116 106.447C104.433 107.185 107.134 107.636 109.163 107.902C113.508 108.495 117.701 108.566 121.47 108.394C122.411 108.336 123.328 108.285 124.218 108.219L126.812 107.97C128.443 107.767 129.948 107.57 131.361 107.339C132.065 107.242 132.719 107.099 133.337 106.974C133.956 106.842 134.543 106.741 135.079 106.598Z" fill="#EFCFA5"/>
<path d="M131.473 69.0976C133.742 69.1369 135.284 69.6701 136.312 70.446C136.562 69.6981 136.685 68.8017 136.605 67.8307C136.518 66.7678 136.217 65.8096 135.788 65.0587C135.635 64.6312 134.733 63.4076 133.601 63.4754C132.139 63.5407 131.117 65.5923 131.315 68.0592C131.343 68.4194 131.398 68.7649 131.473 69.0976ZM135.307 75.4594C135.309 75.9262 135.511 76.3188 135.872 76.4554C136.415 76.6569 137.092 76.2176 137.393 75.4785C137.421 75.4137 137.437 75.3493 137.457 75.2859V75.2844C137.65 74.6127 137.454 73.963 136.964 73.7812C136.427 73.5797 135.745 74.0171 135.444 74.7547C135.346 74.9955 135.305 75.2348 135.307 75.4594ZM125 76.65C125.24 76.94 125.603 77.2201 126.067 77.4387C127.047 77.8987 128.136 77.9375 128.688 77.567C128.769 77.513 128.84 77.4501 128.895 77.3773C129.16 77.0368 129.056 76.5788 128.684 76.1527L128.683 76.1517C128.414 75.851 128.06 75.5963 127.647 75.4048C126.678 74.9498 125.61 74.908 125.051 75.2608C124.957 75.3179 124.878 75.3864 124.815 75.4633C124.562 75.793 124.656 76.2333 125 76.6491V76.65ZM162.629 86.917V86.9023L162.565 86.9706L162.593 86.9529L162.629 86.917Z" fill="#59473D"/>
<path d="M161.453 102.485L161.401 102.521C160.02 103.496 158.402 104.44 156.626 105.339C148.822 109.284 137.906 112.339 130.171 113.106L130.141 113.11L130.112 113.113C124.296 113.797 118.6 113.917 113.637 113.46C110.785 113.198 108.218 112.741 106.091 112.14C103.746 111.478 101.936 110.641 100.895 109.692C99.3357 108.284 98.8117 106.631 98.9465 105.125C99.0107 104.356 99.2556 103.6 99.6704 102.893C99.7368 102.781 99.8065 102.672 99.8795 102.565C100.395 101.827 101.883 100.123 104.603 100.26C104.706 100.267 104.887 100.28 105.138 100.303C105.399 100.327 105.71 100.358 106.064 100.394C106.557 100.443 107.136 100.501 107.793 100.561C107.869 100.567 107.944 100.574 108.018 100.58C115.507 101.254 122.709 101.182 129.555 100.406C139.489 99.2795 148.665 96.6583 156.815 92.5747C157.246 92.3588 157.674 92.139 158.099 91.9153L162.566 86.9707C149.007 96.0097 134.077 98.65 122.73 99.1616C116.49 99.4436 111.33 99.0834 108.091 98.7856L107.766 98.7547C106.794 98.6633 106.002 98.5802 105.436 98.5277C105.153 98.5011 104.926 98.4834 104.754 98.4746C103.938 98.4332 103.12 98.5047 102.34 98.6854C100.796 99.0427 99.4765 99.8142 98.4857 100.837C97.2611 102.097 96.54 103.737 96.5068 105.451C96.4829 106.862 96.9265 108.32 97.9498 109.658C97.9887 109.711 98.0295 109.766 98.072 109.82C98.1911 109.967 98.3172 110.111 98.4505 110.253C98.6298 110.447 98.8184 110.639 99.0262 110.826C101.404 112.994 106.516 114.608 113.337 115.236C117.953 115.66 123.355 115.626 129.214 115.014C146.479 112.705 154.687 108.577 158.478 105.677C158.755 105.465 159.009 105.259 159.241 105.062C160.6 103.902 161.212 103.01 161.435 102.625L161.465 102.572C161.522 102.472 161.545 102.42 161.546 102.417L161.453 102.485Z" fill="#59473D"/>
<path d="M106.507 58.1767C105.963 57.9571 105.368 57.8008 104.769 57.6907C104.233 57.5943 103.687 57.5297 103.137 57.4976C101.116 57.3669 99.3686 57.6205 99.3686 57.6205C98.9945 57.6837 98.6341 57.7548 98.2875 57.8337C95.5422 58.45 93.6311 59.508 92.295 60.7286C91.2139 61.7164 90.5113 62.8107 90.0624 63.8668C90.023 63.9598 89.9858 64.0524 89.9508 64.1444C89.8482 64.4114 89.757 64.6806 89.6772 64.9518C89.4587 65.7271 89.3321 66.515 89.2987 67.3066C89.2642 68.1931 89.3571 68.7641 89.3571 68.7641C89.8096 68.0311 90.3077 67.314 90.85 66.6152C92.1289 64.9665 93.5155 63.6387 94.9167 62.5719C97.6466 60.4932 100.428 59.3969 102.583 58.8205C104.911 58.1979 106.507 58.1767 106.507 58.1767ZM139.301 55.2833L139.21 55.1939C138.891 54.894 138.514 54.6314 138.089 54.415C137.047 53.8843 135.608 53.6076 133.614 53.9103C133.614 53.9103 131.246 54.3241 129.862 55.4701C129.862 55.4701 133.988 54.1659 138.356 56.4637C138.755 56.6734 139.154 56.915 139.553 57.1885C139.984 57.4836 140.39 57.7977 140.77 58.1291C140.77 58.1291 140.597 56.7207 139.512 55.5074C139.446 55.4307 139.376 55.3559 139.301 55.2833Z" fill="#E1B27E"/>
<path d="M107.005 77.6423C108.697 77.2593 110.408 76.9246 112.135 76.6388C112.453 75.5823 112.532 74.2732 112.307 72.8756C111.784 69.5979 109.786 67.0873 107.846 67.2647C105.905 67.4416 104.76 70.2426 105.283 73.5184C105.547 75.1685 106.186 76.626 107.005 77.6418" fill="#59473D"/>
<path d="M98.0045 4.30078L93.9358 4.98138L94.7891 10.5038L83.9437 6.41875L79.4785 7.40403L79.5482 7.46251L92.7239 18.5752L92.8501 18.5163L93.0201 18.4376C93.4296 18.2437 93.8413 18.0515 94.2552 17.8612C94.3993 17.7944 94.5434 17.7251 94.6882 17.6592C95.2854 17.3886 95.8842 17.1211 96.4845 16.8568L90.8878 12.1127L99.9436 15.3894L99.9781 15.3752C100.25 15.2641 100.522 15.1537 100.794 15.044L99.9589 10.2591L104.068 13.7761L104.118 13.7584C104.466 13.6287 104.807 13.5059 105.149 13.3805L105.255 13.3427L105.421 13.2808C105.481 13.2598 105.539 13.2384 105.597 13.2164C105.743 13.1643 105.892 13.1083 106.036 13.0562L106.123 13.0257C106.603 12.8551 107.084 12.6863 107.567 12.5196L98.0045 4.30078Z" fill="#FACE56"/>
<path d="M93.9621 5.15492L93.9355 4.98047L93.9621 5.1559V5.15492Z" fill="#4D94C3"/>
<path d="M93.9358 4.98042L94.5368 4.88017C93.5407 4.53815 92.3573 4.29392 90.9874 4.16763C88.2435 3.91209 84.7598 4.14699 80.7914 4.90621C76.8223 5.66003 72.3724 6.92787 67.6529 8.66746C58.2132 12.1427 47.7045 17.5005 37.5921 24.3272C34.1669 26.6356 30.8823 29.0557 27.748 31.5804L40.0319 42.7132C43.4693 39.9095 47.085 37.2283 50.8667 34.6787C56.0816 31.1607 61.3981 28.0221 66.6548 25.2943C71.7488 22.6534 76.7798 20.4116 81.6234 18.5978L79.4905 11.4891L79.5476 7.46105L79.4778 7.40257L83.943 6.4173L92.6628 9.71956L92.4151 7.47137L93.9358 4.98042Z" fill="#4D94C3"/>
<path d="M93.9354 4.98047L92.4147 7.47142L92.6624 9.71912L94.7888 10.5029L93.9354 4.98047ZM90.8867 12.1113L99.9425 15.388L96.4834 16.8554L90.8867 12.1113ZM99.9578 10.2577L100.793 15.0426L104.067 13.7747L99.9578 10.2577Z" fill="#141C26"/>
<path d="M134.22 8.48769C134.778 8.47131 135.325 8.46722 135.862 8.47541C137.386 8.4985 138.817 8.63167 140.174 8.88229C140.247 8.89654 140.323 8.90441 140.394 8.91866L140.411 8.9221L140.464 8.93045L140.598 8.95895L140.721 8.98647C140.561 8.9085 140.398 8.83364 140.232 8.7619C138.71 8.33044 137.099 8.04886 135.442 7.89112C127.222 7.10831 117.864 9.3226 112.512 10.8951L111.624 11.1703C110.378 11.5641 109.14 11.9729 107.912 12.3964C107.796 12.4363 107.681 12.4766 107.566 12.5172C107.088 12.6833 106.609 12.8494 106.122 13.0234C106.092 13.0332 106.063 13.0434 106.035 13.0539C105.891 13.106 105.742 13.162 105.596 13.2141L105.42 13.2784L105.254 13.3404L105.147 13.3782C104.805 13.5035 104.465 13.6264 104.117 13.7561L104.067 13.7738C104.056 13.7784 104.046 13.7825 104.036 13.7861C103.949 13.8165 103.868 13.8465 103.783 13.8775L103.74 13.8932L103.552 13.9664C102.647 14.3098 101.747 14.6603 100.852 15.018L100.792 15.0416L99.977 15.3728L99.9425 15.3871C99.0579 15.7491 98.1769 16.1196 97.2995 16.4986C97.2079 16.5373 97.116 16.5764 97.0239 16.6161L96.7901 16.7178C96.7171 16.7493 96.6456 16.7812 96.5757 16.8136L96.4834 16.8544C95.883 17.1188 95.2843 17.3863 94.6871 17.6569C94.5423 17.7227 94.3982 17.792 94.2534 17.8584C93.8399 18.049 93.4282 18.2413 93.0183 18.4353L92.8489 18.5139L92.7228 18.5729C89.6819 20.0198 86.7087 21.5433 83.8084 23.1405C83.5738 23.2706 83.3389 23.4016 83.1038 23.5337C78.3491 26.1823 73.7578 29.0242 69.3577 31.9761C64.7126 35.0936 60.2866 38.3334 56.1057 41.588C54.1376 43.0454 52.2049 44.5287 50.3084 46.0372C47.1236 48.5754 45.3864 50.1444 45.4581 50.1798C45.4867 50.2029 45.7669 50.0103 46.2643 49.6422C45.8526 49.996 45.4409 50.3489 45.0371 50.7002C51.9799 45.2225 59.6804 39.613 67.9486 34.3279C72.9716 31.1205 78.1977 28.033 83.5972 25.1681V25.1691C86.7047 23.517 89.8839 21.94 93.1298 20.4407C93.5203 20.2609 93.9148 20.0869 94.3066 19.909C94.5275 19.8084 94.7497 19.708 94.9733 19.6078C95.393 19.4214 95.8129 19.2361 96.233 19.052C96.6447 18.8725 97.0569 18.6938 97.4695 18.5159L98.1189 18.2402C98.6434 18.0187 99.17 17.8 99.6987 17.5842C100.012 17.4554 100.33 17.3252 100.645 17.1984L100.648 17.1974C101.641 16.7978 102.642 16.4075 103.649 16.0269C103.732 15.9951 103.815 15.9637 103.901 15.9325L104.372 15.7556C104.58 15.677 104.786 15.5974 104.996 15.5202C105.076 15.4917 105.152 15.4613 105.231 15.4318L105.264 15.4205L105.687 15.2682L105.775 15.2372L105.824 15.2175L107.132 14.7487C107.21 14.7222 107.29 14.6912 107.371 14.6637C107.51 14.6131 107.648 14.5674 107.789 14.5178C108.288 14.3432 108.788 14.17 109.289 13.9984C109.425 13.9527 109.564 13.9025 109.699 13.8573L109.911 13.787L110.334 13.6465C110.915 13.4519 111.494 13.2598 112.06 13.0775C112.58 12.9104 113.083 12.7575 113.589 12.5998C116.449 11.7104 119.137 10.9619 121.635 10.3673C126.437 9.22775 130.583 8.60317 134.22 8.48769Z" fill="white"/>
</g>
<defs>
<clipPath id="clip0_11088_79727">
<rect width="170" height="143" fill="white" transform="translate(0.603516)"/>
</clipPath>
</defs>
</svg>
