<svg width="45" height="45" viewBox="0 0 45 45" fill="none" xmlns="http://www.w3.org/2000/svg">
<path d="M20.7348 16.0183C21.3632 9.30279 21.7061 1.62057 23.5344 2.63818C25.3625 3.65558 22.3345 14.4413 21.7061 16.6799C21.0779 18.9182 20.6207 17.4428 20.7348 16.0183Z" fill="#F6C21C"/>
<path d="M25.9106 18.5077C30.7976 12.8132 32.5748 9.65037 33.379 11.6315C34.1833 13.6126 28.2246 18.0145 26.2591 19.6693C24.2932 21.3237 24.889 19.7266 25.9106 18.5077Z" fill="#F6C21C"/>
<path d="M14.8523 18.5444C12.7571 16.3472 9.65994 14.4137 10.7572 13.0303C11.9764 11.4928 14.538 16.3529 15.9028 18.284C17.2673 20.2149 15.8804 19.568 14.8523 18.5444Z" fill="#F6C21C"/>
<path d="M28.4599 23.8709C31.4678 23.9367 35.0413 23.2722 35.1491 24.7068C35.269 26.3011 30.1478 24.9605 27.8564 24.6277C25.5649 24.2949 27.02 23.8704 28.4599 23.8709Z" fill="#F6C21C"/>
<path d="M11.2226 23.3582C7.95208 22.7632 4.25866 21.0132 3.77108 23.0037C3.22947 25.2155 9.11575 24.5027 11.68 24.5589C14.2443 24.615 12.7804 23.6861 11.2226 23.3582Z" fill="#F6C21C"/>
<path d="M25.9105 32.4336C30.7976 38.128 32.5747 41.2908 33.379 39.3097C34.1833 37.3287 28.2244 32.9265 26.259 31.2719C24.2933 29.6174 24.8891 31.2147 25.9105 32.4336Z" fill="#F6C21C"/>
<path d="M11.456 31.545C9.36078 33.7421 6.26371 35.6755 7.36092 37.0591C8.5801 38.5964 11.1417 33.7366 12.5064 31.8053C13.8712 29.8743 12.4841 30.5214 11.456 31.545Z" fill="#F6C21C"/>
<path d="M17.5927 14.6686C17.0388 13.5051 16.0119 12.2865 16.7034 11.9292C17.4721 11.5324 17.8048 13.7839 18.0864 14.7324C18.368 15.681 17.8733 15.2188 17.5927 14.6686Z" fill="#F6C21C"/>
<path d="M43.2184 26.2762C43.1415 26.2687 43.0511 26.2762 42.9462 26.3009C41.2651 26.696 37.9702 26.8277 37.9702 26.8277C37.9702 26.8277 37.985 27.1317 38.1015 27.5361C38.5382 27.6636 39.2463 27.7409 40.3868 27.6C42.1232 27.3855 42.9824 27.1599 43.5392 26.9311C43.6095 26.567 43.5206 26.3053 43.2184 26.2762Z" fill="white"/>
<path d="M20.3898 31.2078C20.3898 31.2078 23.1958 30.9099 23.7748 30.573C24.3538 30.236 24.0866 23.0582 23.463 21.7336C22.8394 20.4091 22.5276 20.5102 20.1225 20.7157C17.7174 20.9212 16.9603 20.6305 16.8266 21.6208C16.693 22.611 17.9846 30.8901 18.2517 31.3954C18.5192 31.9008 20.3898 31.2078 20.3898 31.2078Z" fill="#171D8F"/>
<path d="M19.3795 31.5355C19.3795 31.5355 22.3299 31.2224 22.9387 30.868C23.5474 30.5136 23.2665 22.9663 22.6108 21.5736C21.9552 20.1809 21.6274 20.2871 19.0985 20.5031C16.5696 20.7193 15.7735 20.4137 15.633 21.4549C15.4925 22.4962 16.8506 31.2014 17.1315 31.7328C17.4126 32.2641 19.3795 31.5355 19.3795 31.5355Z" fill="#7738C7"/>
<path d="M17.5764 22.0195C17.5764 22.3108 17.3353 22.5469 17.0378 22.5469C16.7404 22.5469 16.4993 22.3108 16.4993 22.0195C16.4993 21.7283 16.7404 21.4922 17.0378 21.4922C17.3353 21.4922 17.5764 21.7283 17.5764 22.0195Z" fill="white"/>
<path d="M1.82933 9.31526C4.05333 6.52028 8.07013 6.01051 10.8176 8.17458C13.575 10.3463 14.0122 14.3896 11.7943 17.2055C11.3621 17.7544 10.846 18.2311 10.266 18.6176C10.5849 19.1641 11.0153 19.6807 11.578 19.9436C13.026 20.6205 14.2126 19.7426 13.5259 20.7192C12.869 21.6536 9.39825 21.4116 7.22135 19.6886C5.61952 19.8271 4.03664 19.3574 2.78578 18.3722C0.0284195 16.2005 -0.409007 12.157 1.8089 9.34098C1.81562 9.33245 1.8225 9.32371 1.82933 9.31526Z" fill="#FF4B3D"/>
<path d="M3.73608 14.3362C3.74207 14.1638 3.74986 13.9909 3.75944 13.8174C5.38388 13.6293 7.0209 13.6135 8.6705 13.7701C8.64294 13.9481 8.61419 14.1244 8.58424 14.299C6.94183 14.1436 5.32578 14.156 3.73608 14.3362ZM3.80616 13.1938C3.82653 13.0136 3.8469 12.8311 3.86726 12.6463C5.53363 12.4289 7.18802 12.3878 8.83042 12.5229C8.80766 12.7235 8.7837 12.9212 8.75855 13.1161C7.11254 12.9696 5.46175 12.9956 3.80616 13.1938ZM4.10625 16.1309C4.16975 14.4038 4.33147 12.5534 4.59143 10.5796C4.86576 10.5165 5.1365 10.4562 5.40365 10.3987C5.98945 11.7405 6.57646 13.0519 7.16466 14.3328C7.17663 14.334 7.18921 14.3351 7.20239 14.3362C7.39287 13.0598 7.57256 11.6769 7.74147 10.1875C8.03378 10.2089 8.32488 10.2365 8.61479 10.2703C8.37879 12.403 8.10566 14.3086 7.79538 15.9873C7.52824 15.9546 7.26349 15.927 7.00113 15.9044C6.44408 14.7621 5.86786 13.5848 5.27247 12.3725C5.2569 12.3748 5.24073 12.3765 5.22395 12.3776C5.06942 13.6405 4.94124 14.8443 4.83941 15.9889C4.59143 16.0329 4.34705 16.0802 4.10625 16.1309Z" fill="white"/>
<path d="M38.5828 12.1884C38.5828 12.1884 34.8408 16.047 35.1719 16.9224C35.503 17.7979 37.5231 17.3439 37.8542 17.8303C38.1853 18.3167 35.8672 20.9432 36.033 21.3322C36.1985 21.7213 39.5761 18.4463 40.0398 16.7927C40.5034 15.139 37.0263 15.5281 37.5231 14.9769C38.0198 14.4257 39.8743 10.8265 38.5828 12.1884Z" fill="#F6C21C"/>
</svg>
