<svg width="52" height="53" viewBox="0 0 52 53" fill="none" xmlns="http://www.w3.org/2000/svg">
<path d="M24.421 18.8663C25.1611 10.957 25.565 1.90902 27.7183 3.10754C29.8714 4.30581 26.3051 17.009 25.565 19.6455C24.8251 22.2818 24.2867 20.5441 24.421 18.8663Z" fill="#F6C21C"/>
<path d="M30.5169 21.7964C36.2727 15.0896 38.3658 11.3644 39.313 13.6977C40.2603 16.031 33.2422 21.2156 30.9273 23.1645C28.612 25.1131 29.3137 23.232 30.5169 21.7964Z" fill="#F6C21C"/>
<path d="M17.4927 21.8429C15.0251 19.2551 11.3773 16.9779 12.6696 15.3485C14.1056 13.5377 17.1226 19.2618 18.73 21.5362C20.3371 23.8104 18.7037 23.0485 17.4927 21.8429Z" fill="#F6C21C"/>
<path d="M33.5195 28.1148C37.0622 28.1923 41.2709 27.4097 41.398 29.0993C41.5391 30.977 35.5075 29.3981 32.8087 29.0061C30.1099 28.6141 31.8236 28.1142 33.5195 28.1148Z" fill="#F6C21C"/>
<path d="M13.2178 27.5076C9.3659 26.8069 5.01587 24.7458 4.4416 27.0901C3.80371 29.6951 10.7364 28.8556 13.7566 28.9217C16.7768 28.9879 15.0526 27.8938 13.2178 27.5076Z" fill="#F6C21C"/>
<path d="M30.5167 38.2037C36.2726 44.9105 38.3657 48.6355 39.313 46.3023C40.2603 43.969 33.2421 38.7843 30.9272 36.8355C28.612 34.8869 29.3137 36.7682 30.5167 38.2037Z" fill="#F6C21C"/>
<path d="M13.4927 37.1572C11.025 39.7448 7.37736 42.022 8.66962 43.6515C10.1056 45.4622 13.1225 39.7384 14.7299 37.4638C16.3373 35.1894 14.7036 35.9516 13.4927 37.1572Z" fill="#F6C21C"/>
<path d="M20.7202 17.281C20.0678 15.9107 18.8583 14.4754 19.6728 14.0547C20.578 13.5873 20.97 16.239 21.3016 17.3562C21.6333 18.4734 21.0506 17.929 20.7202 17.281Z" fill="#F6C21C"/>
<path d="M50.9019 30.9505C50.8114 30.9417 50.7049 30.9505 50.5813 30.9796C48.6013 31.4449 44.7207 31.6001 44.7207 31.6001C44.7207 31.6001 44.7381 31.9581 44.8753 32.4344C45.3897 32.5845 46.2237 32.6757 47.567 32.5097C49.612 32.257 50.624 31.9913 51.2797 31.7219C51.3625 31.2931 51.2578 30.9848 50.9019 30.9505Z" fill="white"/>
<path d="M24.0147 36.7549C24.0147 36.7549 27.3196 36.4041 28.0015 36.0072C28.6835 35.6103 28.3688 27.1564 27.6342 25.5965C26.8998 24.0365 26.5326 24.1555 23.6999 24.3975C20.8672 24.6395 19.9755 24.2971 19.818 25.4635C19.6607 26.6298 21.1819 36.3808 21.4966 36.9759C21.8116 37.5711 24.0147 36.7549 24.0147 36.7549Z" fill="#171D8F"/>
<path d="M22.8249 37.1446C22.8249 37.1446 26.2999 36.7758 27.0169 36.3584C27.7338 35.941 27.403 27.052 26.6307 25.4117C25.8586 23.7714 25.4724 23.8965 22.494 24.1509C19.5155 24.4055 18.5779 24.0456 18.4124 25.2719C18.2469 26.4983 19.8464 36.751 20.1773 37.377C20.5084 38.0027 22.8249 37.1446 22.8249 37.1446Z" fill="#7738C7"/>
<path d="M20.7012 25.9375C20.7012 26.2805 20.4172 26.5586 20.0669 26.5586C19.7166 26.5586 19.4326 26.2805 19.4326 25.9375C19.4326 25.5945 19.7166 25.3164 20.0669 25.3164C20.4172 25.3164 20.7012 25.5945 20.7012 25.9375Z" fill="white"/>
<path d="M2.15468 10.9749C4.77406 7.68308 9.50496 7.08269 12.7409 9.63149C15.9884 12.1893 16.5034 16.9514 13.8913 20.2679C13.3822 20.9143 12.7743 21.4758 12.0912 21.931C12.4668 22.5747 12.9737 23.1832 13.6364 23.4928C15.3419 24.29 16.7395 23.2561 15.9306 24.4063C15.157 25.5068 11.0692 25.2218 8.50529 23.1925C6.61868 23.3556 4.7544 22.8023 3.28117 21.642C0.0336129 19.0842 -0.481578 14.3219 2.13062 11.0052C2.13853 10.9952 2.14664 10.9849 2.15468 10.9749Z" fill="#FF4B3D"/>
<path d="M4.40039 16.8863C4.40745 16.6833 4.41662 16.4796 4.4279 16.2752C6.34113 16.0536 8.26917 16.0351 10.212 16.2195C10.1796 16.4292 10.1457 16.6368 10.1104 16.8425C8.17605 16.6594 6.2727 16.674 4.40039 16.8863ZM4.48293 15.5408C4.50692 15.3285 4.5309 15.1135 4.55489 14.8959C6.5175 14.6398 8.466 14.5914 10.4004 14.7506C10.3736 14.9868 10.3454 15.2197 10.3157 15.4492C8.37711 15.2768 6.43284 15.3073 4.48293 15.5408ZM4.83637 19C4.91115 16.9659 5.10163 14.7865 5.4078 12.4618C5.7309 12.3875 6.04977 12.3165 6.36441 12.2488C7.05436 13.8291 7.74572 15.3736 8.43849 16.8823C8.4526 16.8836 8.46741 16.8849 8.48293 16.8863C8.70727 15.3829 8.91891 13.7541 9.11785 12C9.46212 12.0252 9.80498 12.0577 10.1464 12.0975C9.86847 14.6093 9.54677 16.8538 9.18134 18.8308C8.8667 18.7923 8.55489 18.7598 8.24589 18.7333C7.58981 17.3878 6.91115 16.0012 6.20991 14.5735C6.19157 14.5762 6.17252 14.5781 6.15277 14.5795C5.97076 16.0669 5.81979 17.4847 5.69986 18.8328C5.4078 18.8846 5.11997 18.9403 4.83637 19Z" fill="white"/>
<path d="M45.4421 14.3599C45.4421 14.3599 41.0348 18.9044 41.4248 19.9355C41.8148 20.9667 44.194 20.432 44.584 21.0049C44.974 21.5777 42.2438 24.6711 42.439 25.1293C42.6339 25.5876 46.6121 21.7304 47.1581 19.7827C47.7041 17.8351 43.609 18.2934 44.194 17.6441C44.7791 16.995 46.9632 12.7559 45.4421 14.3599Z" fill="#F6C21C"/>
</svg>
