<svg width="178" height="82" viewBox="0 0 178 82" fill="none" xmlns="http://www.w3.org/2000/svg">
<g clip-path="url(#clip0_12292_29624)">
<path opacity="0.5" d="M119.428 15.6191H51.0947V68.2858C51.0947 69.3904 51.9902 70.2858 53.0947 70.2858H117.428C118.533 70.2858 119.428 69.3904 119.428 68.2858V15.6191Z" fill="url(#paint0_linear_12292_29624)"/>
<path opacity="0.6" d="M84.366 44.8708L51.0947 15.6191H119.428L84.366 44.8708Z" fill="url(#paint1_linear_12292_29624)"/>
<path d="M119.428 33.1906L114.547 28.52L109.666 33.1906V22.4525V15.6191H119.428V33.1906Z" fill="#F6C21C"/>
</g>
<path d="M47.9389 33.0296C46.5587 31.5124 44.9304 30.2479 43.1472 29.3083C41.364 28.3687 39.4606 27.7725 37.5459 27.5536C35.6311 27.3348 33.7425 27.4976 31.9878 28.0327C30.2331 28.5679 28.6466 29.465 27.319 30.6727C30.0002 28.2336 31.4642 24.6771 31.389 20.7857C31.3138 16.8943 29.7055 12.9867 26.918 9.92247C29.7055 12.9867 33.444 14.9564 37.3109 15.3985C41.1779 15.8405 44.8566 14.7185 47.5378 12.2794C44.8566 14.7185 43.3926 18.2749 43.4678 22.1664C43.543 26.0578 45.1514 29.9654 47.9389 33.0296Z" fill="#BEBBF9"/>
<path d="M128.58 20.9632C128.595 20.0251 128.449 19.0935 128.149 18.2217C127.849 17.3499 127.401 16.5549 126.832 15.8821C126.262 15.2093 125.582 14.6719 124.829 14.3005C124.077 13.9292 123.267 13.7311 122.446 13.7178C124.104 13.7448 125.706 13.0181 126.9 11.6975C128.094 10.377 128.782 8.57071 128.813 6.67613C128.782 8.57071 129.411 10.3984 130.561 11.7572C131.712 13.116 133.289 13.8945 134.947 13.9216C133.289 13.8946 131.687 14.6212 130.493 15.9418C129.299 17.2624 128.611 19.0686 128.58 20.9632Z" fill="#BEBBF9"/>
<defs>
<linearGradient id="paint0_linear_12292_29624" x1="46.2138" y1="30.262" x2="107.628" y2="66.5267" gradientUnits="userSpaceOnUse">
<stop stop-color="#6D5DD3"/>
<stop offset="1" stop-color="#6D5DD3" stop-opacity="0"/>
</linearGradient>
<linearGradient id="paint1_linear_12292_29624" x1="81.9117" y1="20.4025" x2="83.7212" y2="49.674" gradientUnits="userSpaceOnUse">
<stop stop-color="#5423E7"/>
<stop offset="1" stop-color="#5423E7" stop-opacity="0"/>
</linearGradient>
<clipPath id="clip0_12292_29624">
<rect width="68.3333" height="54.6667" fill="white" transform="translate(51.0947 15.6191)"/>
</clipPath>
</defs>
</svg>
