<svg width="32" height="32" viewBox="0 0 32 32" fill="none" xmlns="http://www.w3.org/2000/svg">
<path d="M9.54348 26V18.4412H7V16.5588H9.54348V14.1471H7V12.2647H9.54348V5H12.9348L16.0326 12.2647H19.8804V5H22.4565V12.2647H25V14.1471H22.4565V16.5588H25V18.4412H22.4565V26H19.0326L15.9348 18.4412H12.087V26H9.54348ZM12.087 16.5588H15.1522L14.1739 14.1471H12.0217L12.087 16.5588ZM19.8804 21.8529H20.0109L19.913 18.4412H18.5435L19.8804 21.8529ZM12.0217 12.2647H13.3913L12.0217 8.61765H11.8913L12.0217 12.2647ZM17.7609 16.5588H19.9457L19.8804 14.1471H16.7826L17.7609 16.5588Z" fill="#282C5C"/>
</svg>
